M48
; DRILL file {KiCad (5.1.9)-1} date 01/17/23 23:10:42
; FORMAT={-:-/ absolute / metric / decimal}
; #@! TF.CreationDate,2023-01-17T23:10:42+09:00
; #@! TF.GenerationSoftware,Kicad,Pcbnew,(5.1.9)-1
FMAT,2
METRIC
T1C0.300
T2C0.800
T3C1.000
T4C3.200
%
G90
G05
T1
X32.01Y58.882
X32.349Y60.626
X33.146Y59.622
X33.414Y58.85
X36.033Y74.017
X36.119Y60.852
X40.997Y74.317
X50.832Y77.244
X50.872Y81.87
X50.876Y86.323
X57.26Y82.142
X57.958Y82.603
X59.16Y89.097
X59.226Y86.662
X61.775Y45.463
X69.416Y52.321
X75.403Y66.105
X80.165Y59.998
X84.546Y47.065
T2
X16.445Y81.215
X16.445Y78.675
X16.445Y76.135
X16.445Y73.595
X16.445Y71.055
X16.445Y68.515
X16.445Y65.975
X18.985Y62.165
X21.485Y62.165
X24.065Y81.215
X24.065Y78.675
X24.065Y76.135
X24.065Y73.595
X24.065Y71.055
X24.065Y68.515
X24.065Y65.975
X31.685Y81.215
X31.685Y78.675
X31.685Y76.135
X31.685Y73.595
X31.685Y71.055
X31.685Y68.515
X31.685Y65.975
X34.225Y62.165
X36.725Y62.165
X39.305Y81.215
X39.305Y78.675
X39.305Y76.135
X39.305Y73.595
X39.305Y71.055
X39.305Y68.515
X39.305Y65.975
X43.525Y40.165
X43.525Y37.625
X43.525Y35.085
X43.525Y32.545
X43.525Y30.005
X43.525Y27.465
X43.525Y24.925
X43.525Y22.385
X43.525Y19.845
X43.525Y17.305
X43.525Y14.765
X43.525Y12.225
X46.065Y33.815
X46.065Y31.275
X46.065Y23.655
X46.065Y21.115
X47.56Y81.215
X47.56Y78.675
X47.56Y76.135
X47.56Y73.595
X47.56Y71.055
X47.56Y68.515
X47.56Y65.975
X50.1Y62.165
X52.6Y62.165
X55.18Y81.215
X55.18Y78.675
X55.18Y76.135
X55.18Y73.595
X55.18Y71.055
X55.18Y68.515
X55.18Y65.975
X58.765Y40.165
X58.765Y37.625
X58.765Y35.085
X58.765Y32.545
X58.765Y30.005
X58.765Y27.465
X58.765Y24.925
X58.765Y22.385
X58.765Y19.845
X58.765Y17.305
X58.765Y14.765
X58.765Y12.225
X71.465Y73.82
X71.465Y71.28
X71.465Y68.74
X71.465Y66.2
X71.465Y63.66
X71.465Y61.12
X71.465Y58.58
X71.465Y56.04
X71.465Y53.5
X71.465Y50.96
X71.465Y48.42
X71.465Y45.88
X71.465Y43.34
X71.465Y40.8
X71.465Y38.26
X71.465Y35.72
X71.465Y33.18
X71.465Y30.64
X71.465Y28.1
X71.465Y25.56
X77.815Y77.63
X80.315Y77.63
X86.705Y73.82
X86.705Y71.28
X86.705Y68.74
X86.705Y66.2
X86.705Y63.66
X86.705Y61.12
X86.705Y58.58
X86.705Y56.04
X86.705Y53.5
X86.705Y50.96
X86.705Y48.42
X86.705Y45.88
X86.705Y43.34
X86.705Y40.8
X86.705Y38.26
X86.705Y35.72
X86.705Y33.18
X86.705Y30.64
X86.705Y28.1
X86.705Y25.56
X87.63Y86.32
X87.63Y83.82
T3
X14.315Y30.201
X14.315Y4.801
X14.315Y2.261
X16.855Y30.201
X18.125Y38.26
X19.05Y95.805
X19.05Y93.265
X19.395Y30.201
X20.665Y38.26
X21.59Y95.805
X21.59Y93.265
X21.935Y30.201
X23.205Y38.26
X24.13Y95.805
X24.13Y93.265
X24.475Y30.201
X25.745Y38.26
X26.67Y95.805
X26.67Y93.265
X27.015Y30.201
X28.285Y38.26
X29.21Y95.805
X29.21Y93.265
X29.555Y30.201
X30.825Y38.26
X31.75Y95.805
X31.75Y93.265
X32.095Y30.201
X34.29Y95.805
X34.29Y93.265
X34.635Y30.201
X34.635Y4.801
X34.635Y2.261
X36.83Y95.805
X36.83Y93.265
X39.37Y95.805
X39.37Y93.265
X41.91Y95.805
X41.91Y93.265
X44.45Y95.805
X44.45Y93.265
X46.99Y95.805
X46.99Y93.265
X49.53Y95.805
X49.53Y93.265
X52.07Y95.805
X52.07Y93.265
X54.61Y95.805
X54.61Y93.265
X57.15Y95.805
X57.15Y93.265
X59.69Y95.805
X59.69Y93.265
X62.23Y95.805
X62.23Y93.265
X64.77Y95.805
X64.77Y93.265
X67.31Y95.805
X67.31Y93.265
X69.85Y95.805
X69.85Y93.265
X72.39Y95.805
X72.39Y93.265
X74.93Y95.805
X74.93Y93.265
X77.47Y95.805
X77.47Y93.265
X80.01Y95.805
X80.01Y93.265
T4
X5.0Y95.0
X5.0Y5.0
X95.0Y95.0
X95.0Y5.0
T0
M30
