G04 #@! TF.GenerationSoftware,KiCad,Pcbnew,(5.1.9)-1*
G04 #@! TF.CreationDate,2023-01-17T23:10:39+09:00*
G04 #@! TF.ProjectId,FM-7_SD,464d2d37-5f53-4442-9e6b-696361645f70,rev?*
G04 #@! TF.SameCoordinates,PX53920b0PY93c3260*
G04 #@! TF.FileFunction,Copper,L1,Top*
G04 #@! TF.FilePolarity,Positive*
%FSLAX46Y46*%
G04 Gerber Fmt 4.6, Leading zero omitted, Abs format (unit mm)*
G04 Created by KiCad (PCBNEW (5.1.9)-1) date 2023-01-17 23:10:39*
%MOMM*%
%LPD*%
G01*
G04 APERTURE LIST*
G04 #@! TA.AperFunction,ComponentPad*
%ADD10C,1.600000*%
G04 #@! TD*
G04 #@! TA.AperFunction,ComponentPad*
%ADD11R,1.600000X1.600000*%
G04 #@! TD*
G04 #@! TA.AperFunction,ComponentPad*
%ADD12R,1.700000X1.700000*%
G04 #@! TD*
G04 #@! TA.AperFunction,ComponentPad*
%ADD13O,1.700000X1.700000*%
G04 #@! TD*
G04 #@! TA.AperFunction,ComponentPad*
%ADD14R,2.400000X1.600000*%
G04 #@! TD*
G04 #@! TA.AperFunction,ComponentPad*
%ADD15O,2.400000X1.600000*%
G04 #@! TD*
G04 #@! TA.AperFunction,ComponentPad*
%ADD16O,1.600000X1.600000*%
G04 #@! TD*
G04 #@! TA.AperFunction,ViaPad*
%ADD17C,0.500000*%
G04 #@! TD*
G04 #@! TA.AperFunction,Conductor*
%ADD18C,0.400000*%
G04 #@! TD*
G04 #@! TA.AperFunction,Conductor*
%ADD19C,1.000000*%
G04 #@! TD*
G04 #@! TA.AperFunction,Conductor*
%ADD20C,0.200000*%
G04 #@! TD*
G04 #@! TA.AperFunction,Conductor*
%ADD21C,0.254000*%
G04 #@! TD*
G04 #@! TA.AperFunction,Conductor*
%ADD22C,0.100000*%
G04 #@! TD*
G04 APERTURE END LIST*
D10*
X77815000Y77630000D03*
X80315000Y77630000D03*
D11*
X87630000Y83820000D03*
D10*
X87630000Y86320000D03*
X21485000Y62165000D03*
X18985000Y62165000D03*
X34225000Y62165000D03*
X36725000Y62165000D03*
X50100000Y62165000D03*
X52600000Y62165000D03*
D12*
X34635000Y30201000D03*
D13*
X32095000Y30201000D03*
X29555000Y30201000D03*
X27015000Y30201000D03*
X24475000Y30201000D03*
X21935000Y30201000D03*
X19395000Y30201000D03*
X16855000Y30201000D03*
X14315000Y30201000D03*
X14315000Y2261000D03*
X14315000Y4801000D03*
X34635000Y2261000D03*
X34635000Y4801000D03*
D12*
X30825000Y38260000D03*
D13*
X28285000Y38260000D03*
X25745000Y38260000D03*
X23205000Y38260000D03*
X20665000Y38260000D03*
X18125000Y38260000D03*
D14*
X24065000Y65975000D03*
D15*
X16445000Y81215000D03*
X24065000Y68515000D03*
X16445000Y78675000D03*
X24065000Y71055000D03*
X16445000Y76135000D03*
X24065000Y73595000D03*
X16445000Y73595000D03*
X24065000Y76135000D03*
X16445000Y71055000D03*
X24065000Y78675000D03*
X16445000Y68515000D03*
X24065000Y81215000D03*
X16445000Y65975000D03*
X31685000Y65975000D03*
X39305000Y81215000D03*
X31685000Y68515000D03*
X39305000Y78675000D03*
X31685000Y71055000D03*
X39305000Y76135000D03*
X31685000Y73595000D03*
X39305000Y73595000D03*
X31685000Y76135000D03*
X39305000Y71055000D03*
X31685000Y78675000D03*
X39305000Y68515000D03*
X31685000Y81215000D03*
D14*
X39305000Y65975000D03*
X86705000Y25560000D03*
D15*
X71465000Y73820000D03*
X86705000Y28100000D03*
X71465000Y71280000D03*
X86705000Y30640000D03*
X71465000Y68740000D03*
X86705000Y33180000D03*
X71465000Y66200000D03*
X86705000Y35720000D03*
X71465000Y63660000D03*
X86705000Y38260000D03*
X71465000Y61120000D03*
X86705000Y40800000D03*
X71465000Y58580000D03*
X86705000Y43340000D03*
X71465000Y56040000D03*
X86705000Y45880000D03*
X71465000Y53500000D03*
X86705000Y48420000D03*
X71465000Y50960000D03*
X86705000Y50960000D03*
X71465000Y48420000D03*
X86705000Y53500000D03*
X71465000Y45880000D03*
X86705000Y56040000D03*
X71465000Y43340000D03*
X86705000Y58580000D03*
X71465000Y40800000D03*
X86705000Y61120000D03*
X71465000Y38260000D03*
X86705000Y63660000D03*
X71465000Y35720000D03*
X86705000Y66200000D03*
X71465000Y33180000D03*
X86705000Y68740000D03*
X71465000Y30640000D03*
X86705000Y71280000D03*
X71465000Y28100000D03*
X86705000Y73820000D03*
X71465000Y25560000D03*
D11*
X58765000Y12225000D03*
D16*
X58765000Y14765000D03*
X58765000Y17305000D03*
X43525000Y40165000D03*
X58765000Y19845000D03*
X43525000Y37625000D03*
X58765000Y22385000D03*
X43525000Y35085000D03*
X58765000Y24925000D03*
X43525000Y32545000D03*
X58765000Y27465000D03*
X43525000Y30005000D03*
X58765000Y30005000D03*
X43525000Y27465000D03*
X58765000Y32545000D03*
X43525000Y24925000D03*
X58765000Y35085000D03*
X43525000Y22385000D03*
X58765000Y37625000D03*
X43525000Y19845000D03*
X58765000Y40165000D03*
X43525000Y17305000D03*
X43525000Y14765000D03*
X43525000Y12225000D03*
X46065000Y21115000D03*
X46065000Y23655000D03*
X46065000Y31275000D03*
X46065000Y33815000D03*
D15*
X47560000Y65975000D03*
X55180000Y81215000D03*
X47560000Y68515000D03*
X55180000Y78675000D03*
X47560000Y71055000D03*
X55180000Y76135000D03*
X47560000Y73595000D03*
X55180000Y73595000D03*
X47560000Y76135000D03*
X55180000Y71055000D03*
X47560000Y78675000D03*
X55180000Y68515000D03*
X47560000Y81215000D03*
D14*
X55180000Y65975000D03*
D12*
X19050000Y93265000D03*
D13*
X19050000Y95805000D03*
X21590000Y93265000D03*
X21590000Y95805000D03*
X24130000Y93265000D03*
X24130000Y95805000D03*
X26670000Y93265000D03*
X26670000Y95805000D03*
X29210000Y93265000D03*
X29210000Y95805000D03*
X31750000Y93265000D03*
X31750000Y95805000D03*
X34290000Y93265000D03*
X34290000Y95805000D03*
X36830000Y93265000D03*
X36830000Y95805000D03*
X39370000Y93265000D03*
X39370000Y95805000D03*
X41910000Y93265000D03*
X41910000Y95805000D03*
X44450000Y93265000D03*
X44450000Y95805000D03*
X46990000Y93265000D03*
X46990000Y95805000D03*
X49530000Y93265000D03*
X49530000Y95805000D03*
X52070000Y93265000D03*
X52070000Y95805000D03*
X54610000Y93265000D03*
X54610000Y95805000D03*
X57150000Y93265000D03*
X57150000Y95805000D03*
X59690000Y93265000D03*
X59690000Y95805000D03*
X62230000Y93265000D03*
X62230000Y95805000D03*
X64770000Y93265000D03*
X64770000Y95805000D03*
X67310000Y93265000D03*
X67310000Y95805000D03*
X69850000Y93265000D03*
X69850000Y95805000D03*
X72390000Y93265000D03*
X72390000Y95805000D03*
X74930000Y93265000D03*
X74930000Y95805000D03*
X77470000Y93265000D03*
X77470000Y95805000D03*
X80010000Y93265000D03*
X80010000Y95805000D03*
D17*
X69416300Y52321000D03*
X50871800Y81869900D03*
X80165500Y59997900D03*
X84545700Y47065000D03*
X59159700Y89097100D03*
X36032700Y74017100D03*
X32010000Y58882300D03*
X33413700Y58850300D03*
X36119300Y60851900D03*
X57259700Y82142500D03*
X50875900Y86322800D03*
X59226300Y86662000D03*
X40996900Y74317400D03*
X33145900Y59621600D03*
X57957600Y82603500D03*
X75402700Y66105300D03*
X61775300Y45462700D03*
X32349400Y60625800D03*
X50832200Y77243800D03*
D18*
X71465000Y61120000D02*
X69864700Y61120000D01*
X50100000Y63365400D02*
X67619300Y63365400D01*
X67619300Y63365400D02*
X69864700Y61120000D01*
X50100000Y63365400D02*
X50100000Y63435000D01*
X50100000Y63435000D02*
X49280100Y64255000D01*
X50100000Y62165000D02*
X50100000Y63365400D01*
X34635000Y30201000D02*
X34635000Y28950700D01*
X43525000Y19845000D02*
X43525000Y21045300D01*
X34635000Y28950700D02*
X42540400Y21045300D01*
X42540400Y21045300D02*
X43525000Y21045300D01*
X31685000Y65975000D02*
X30084700Y65975000D01*
X18985000Y63365400D02*
X27475100Y63365400D01*
X27475100Y63365400D02*
X30084700Y65975000D01*
X18985000Y63365400D02*
X18985000Y63435000D01*
X18985000Y63435000D02*
X16445000Y65975000D01*
X18985000Y62165000D02*
X18985000Y63365400D01*
X34225000Y63435000D02*
X31685000Y65975000D01*
X34225000Y62165000D02*
X34225000Y63435000D01*
X49280100Y64255000D02*
X49218200Y64193100D01*
X49218200Y64193100D02*
X34983100Y64193100D01*
X34983100Y64193100D02*
X34225000Y63435000D01*
X49280100Y64255000D02*
X47560000Y65975000D01*
X77815000Y77630000D02*
X77815000Y67470000D01*
X77815000Y67470000D02*
X71465000Y61120000D01*
X84375000Y83820000D02*
X84005000Y83820000D01*
X84005000Y83820000D02*
X77815000Y77630000D01*
X87630000Y83820000D02*
X84375000Y83820000D01*
X84375000Y83820000D02*
X74930000Y93265000D01*
D19*
X74930000Y93265000D02*
X74930000Y95805000D01*
D18*
X36725000Y62165000D02*
X36512800Y62165000D01*
X36512800Y62165000D02*
X35310800Y60963000D01*
X35310800Y60963000D02*
X32931900Y60963000D01*
X32931900Y60963000D02*
X31729900Y62165000D01*
X31729900Y62165000D02*
X21485000Y62165000D01*
X39305000Y81215000D02*
X40905300Y81215000D01*
X40905300Y81215000D02*
X42112600Y82422300D01*
X42112600Y82422300D02*
X48909700Y82422300D01*
X48909700Y82422300D02*
X50117000Y81215000D01*
X50117000Y81215000D02*
X55180000Y81215000D01*
X38504900Y81215000D02*
X39305000Y81215000D01*
X38504900Y81215000D02*
X37704700Y81215000D01*
X24065000Y81215000D02*
X25665300Y81215000D01*
X37704700Y81215000D02*
X36497800Y82421900D01*
X36497800Y82421900D02*
X26872200Y82421900D01*
X26872200Y82421900D02*
X25665300Y81215000D01*
X49530000Y93265000D02*
X49530000Y94515300D01*
X49530000Y94515300D02*
X48983000Y94515300D01*
X48983000Y94515300D02*
X48240300Y95258000D01*
X48240300Y95258000D02*
X48240300Y95805000D01*
X77470000Y95805000D02*
X76219700Y95805000D01*
X76219700Y95805000D02*
X76219700Y96352000D01*
X76219700Y96352000D02*
X75484300Y97087400D01*
X75484300Y97087400D02*
X49004600Y97087400D01*
X49004600Y97087400D02*
X48240300Y96323100D01*
X48240300Y96323100D02*
X48240300Y95805000D01*
X46990000Y95805000D02*
X48240300Y95805000D01*
X52600000Y62165000D02*
X51399600Y60964600D01*
X51399600Y60964600D02*
X37925400Y60964600D01*
X37925400Y60964600D02*
X36725000Y62165000D01*
X27015000Y30201000D02*
X27015000Y28950700D01*
X43525000Y14765000D02*
X42324700Y14765000D01*
X42324700Y14765000D02*
X28139000Y28950700D01*
X28139000Y28950700D02*
X27015000Y28950700D01*
D20*
X86705000Y25560000D02*
X85204700Y25560000D01*
X46065000Y21115000D02*
X80759700Y21115000D01*
X80759700Y21115000D02*
X85204700Y25560000D01*
X47165300Y23655000D02*
X49563700Y26053400D01*
X49563700Y26053400D02*
X59258400Y26053400D01*
X59258400Y26053400D02*
X60035000Y26830000D01*
X60035000Y26830000D02*
X83934700Y26830000D01*
X83934700Y26830000D02*
X85204700Y28100000D01*
X86705000Y28100000D02*
X85204700Y28100000D01*
X46065000Y23655000D02*
X47165300Y23655000D01*
X86705000Y30640000D02*
X85204700Y30640000D01*
X43525000Y22385000D02*
X43525000Y23485300D01*
X43525000Y23485300D02*
X44307800Y23485300D01*
X44307800Y23485300D02*
X49415900Y28593400D01*
X49415900Y28593400D02*
X59258400Y28593400D01*
X59258400Y28593400D02*
X60035000Y29370000D01*
X60035000Y29370000D02*
X83934700Y29370000D01*
X83934700Y29370000D02*
X85204700Y30640000D01*
X44625300Y24925000D02*
X50833700Y31133400D01*
X50833700Y31133400D02*
X59258400Y31133400D01*
X59258400Y31133400D02*
X60035000Y31910000D01*
X60035000Y31910000D02*
X83934700Y31910000D01*
X83934700Y31910000D02*
X85204700Y33180000D01*
X86705000Y33180000D02*
X85204700Y33180000D01*
X43525000Y24925000D02*
X44625300Y24925000D01*
X85204700Y63660000D02*
X73865700Y52321000D01*
X73865700Y52321000D02*
X69416300Y52321000D01*
X86705000Y63660000D02*
X85204700Y63660000D01*
X24065000Y68515000D02*
X25565300Y68515000D01*
X39305000Y65975000D02*
X37804700Y65975000D01*
X37804700Y65975000D02*
X36704400Y67075300D01*
X36704400Y67075300D02*
X27005000Y67075300D01*
X27005000Y67075300D02*
X25565300Y68515000D01*
X16445000Y81215000D02*
X17945300Y81215000D01*
X50871800Y81869900D02*
X49809600Y82932100D01*
X49809600Y82932100D02*
X19662400Y82932100D01*
X19662400Y82932100D02*
X17945300Y81215000D01*
X16445000Y71055000D02*
X17945300Y71055000D01*
X39305000Y78675000D02*
X37804700Y78675000D01*
X37804700Y78675000D02*
X36693400Y79786300D01*
X36693400Y79786300D02*
X23183200Y79786300D01*
X23183200Y79786300D02*
X17945300Y74548400D01*
X17945300Y74548400D02*
X17945300Y71055000D01*
X14944700Y76135000D02*
X14944700Y64630300D01*
X14944700Y64630300D02*
X32140400Y47434600D01*
X32140400Y47434600D02*
X60790100Y47434600D01*
X60790100Y47434600D02*
X69964700Y38260000D01*
X16445000Y76135000D02*
X14944700Y76135000D01*
X71465000Y38260000D02*
X69964700Y38260000D01*
X85204700Y48420000D02*
X85122500Y48420000D01*
X85122500Y48420000D02*
X83847400Y47144900D01*
X83847400Y47144900D02*
X83847400Y46084600D01*
X83847400Y46084600D02*
X72212800Y34450000D01*
X72212800Y34450000D02*
X66036400Y34450000D01*
X66036400Y34450000D02*
X65401400Y33815000D01*
X65401400Y33815000D02*
X51139200Y33815000D01*
X51139200Y33815000D02*
X47329200Y30005000D01*
X47329200Y30005000D02*
X43525000Y30005000D01*
X86705000Y48420000D02*
X85204700Y48420000D01*
X88205300Y68740000D02*
X88656500Y68288800D01*
X88656500Y68288800D02*
X88656500Y28066100D01*
X88656500Y28066100D02*
X87278800Y26688400D01*
X87278800Y26688400D02*
X84359400Y26688400D01*
X84359400Y26688400D02*
X80056000Y22385000D01*
X80056000Y22385000D02*
X58765000Y22385000D01*
X86705000Y68740000D02*
X88205300Y68740000D01*
X85204700Y73820000D02*
X80165500Y68780800D01*
X80165500Y68780800D02*
X80165500Y59997900D01*
X86705000Y73820000D02*
X85204700Y73820000D01*
X25565300Y78675000D02*
X29326100Y74914200D01*
X29326100Y74914200D02*
X52360500Y74914200D01*
X52360500Y74914200D02*
X53679700Y73595000D01*
X24065000Y78675000D02*
X25565300Y78675000D01*
X55180000Y73595000D02*
X53679700Y73595000D01*
X24475000Y30201000D02*
X25625300Y30201000D01*
X43525000Y32545000D02*
X27730900Y32545000D01*
X27730900Y32545000D02*
X25625300Y30439400D01*
X25625300Y30439400D02*
X25625300Y30201000D01*
X27795100Y35149200D02*
X23085300Y30439400D01*
X23085300Y30439400D02*
X23085300Y30201000D01*
X43525000Y35085000D02*
X27859300Y35085000D01*
X27859300Y35085000D02*
X27795100Y35149200D01*
X27795100Y35149200D02*
X26895300Y36049000D01*
X26895300Y36049000D02*
X26895300Y38260000D01*
X21935000Y30201000D02*
X23085300Y30201000D01*
X25745000Y38260000D02*
X26895300Y38260000D01*
X19395000Y30201000D02*
X19395000Y31351300D01*
X23780200Y38260000D02*
X23780200Y35736500D01*
X23780200Y35736500D02*
X19395000Y31351300D01*
X23780200Y38260000D02*
X24355300Y38260000D01*
X23205000Y38260000D02*
X23780200Y38260000D01*
X42424700Y37625000D02*
X40613900Y39435800D01*
X40613900Y39435800D02*
X25292600Y39435800D01*
X25292600Y39435800D02*
X24355300Y38498500D01*
X24355300Y38498500D02*
X24355300Y38260000D01*
X43525000Y37625000D02*
X42424700Y37625000D01*
X18125000Y38260000D02*
X19275300Y38260000D01*
X43525000Y40165000D02*
X20941900Y40165000D01*
X20941900Y40165000D02*
X19275300Y38498400D01*
X19275300Y38498400D02*
X19275300Y38260000D01*
X49530000Y95805000D02*
X50680300Y95805000D01*
X86705000Y45880000D02*
X85204700Y45880000D01*
X84545700Y47065000D02*
X85204700Y46406000D01*
X85204700Y46406000D02*
X85204700Y45880000D01*
X50680300Y95805000D02*
X50680300Y95517300D01*
X50680300Y95517300D02*
X51542900Y94654700D01*
X51542900Y94654700D02*
X54908800Y94654700D01*
X54908800Y94654700D02*
X55880000Y93683500D01*
X55880000Y93683500D02*
X55880000Y92376800D01*
X55880000Y92376800D02*
X59159700Y89097100D01*
X24065000Y71055000D02*
X25565300Y71055000D01*
X36032700Y74017100D02*
X34340600Y72325000D01*
X34340600Y72325000D02*
X26835300Y72325000D01*
X26835300Y72325000D02*
X25565300Y71055000D01*
X32010000Y58882300D02*
X34123800Y56768500D01*
X34123800Y56768500D02*
X53996200Y56768500D01*
X53996200Y56768500D02*
X69964700Y40800000D01*
X71465000Y40800000D02*
X69964700Y40800000D01*
X71465000Y45880000D02*
X69964700Y45880000D01*
X33413700Y58850300D02*
X34294700Y57969300D01*
X34294700Y57969300D02*
X57875400Y57969300D01*
X57875400Y57969300D02*
X69964700Y45880000D01*
X69964700Y50960000D02*
X60509400Y60415300D01*
X60509400Y60415300D02*
X36555900Y60415300D01*
X36555900Y60415300D02*
X36119300Y60851900D01*
X71465000Y50960000D02*
X69964700Y50960000D01*
X39370000Y95805000D02*
X39370000Y94654700D01*
X39370000Y94654700D02*
X39657700Y94654700D01*
X39657700Y94654700D02*
X40520300Y93792100D01*
X40520300Y93792100D02*
X40520300Y92999900D01*
X40520300Y92999900D02*
X50813300Y82706900D01*
X50813300Y82706900D02*
X56695300Y82706900D01*
X56695300Y82706900D02*
X57259700Y82142500D01*
X55180000Y68515000D02*
X47560000Y68515000D01*
X46990000Y93265000D02*
X46990000Y90208700D01*
X46990000Y90208700D02*
X50875900Y86322800D01*
X53220300Y93265000D02*
X53220300Y92668000D01*
X53220300Y92668000D02*
X59226300Y86662000D01*
X52070000Y93265000D02*
X53220300Y93265000D01*
X24065000Y65975000D02*
X22564700Y65975000D01*
X40996900Y74317400D02*
X40996900Y73311600D01*
X40996900Y73311600D02*
X40160100Y72474800D01*
X40160100Y72474800D02*
X38504800Y72474800D01*
X38504800Y72474800D02*
X35815000Y69785000D01*
X35815000Y69785000D02*
X23318500Y69785000D01*
X23318500Y69785000D02*
X22564700Y69031200D01*
X22564700Y69031200D02*
X22564700Y65975000D01*
X39305000Y76135000D02*
X40805300Y76135000D01*
X59690000Y93265000D02*
X59690000Y92114700D01*
X59690000Y92114700D02*
X59784500Y92020200D01*
X59784500Y92020200D02*
X59784500Y83628700D01*
X59784500Y83628700D02*
X56100800Y79945000D01*
X56100800Y79945000D02*
X44615300Y79945000D01*
X44615300Y79945000D02*
X40805300Y76135000D01*
X33145900Y59621600D02*
X33145900Y59621500D01*
X33145900Y59621500D02*
X33650600Y59621500D01*
X33650600Y59621500D02*
X34902400Y58369700D01*
X34902400Y58369700D02*
X60015000Y58369700D01*
X60015000Y58369700D02*
X69964700Y48420000D01*
X71465000Y48420000D02*
X69964700Y48420000D01*
X41910000Y95805000D02*
X43060300Y95805000D01*
X43060300Y95805000D02*
X43060300Y95517300D01*
X43060300Y95517300D02*
X43922900Y94654700D01*
X43922900Y94654700D02*
X47302100Y94654700D01*
X47302100Y94654700D02*
X48260000Y93696800D01*
X48260000Y93696800D02*
X48260000Y92301100D01*
X48260000Y92301100D02*
X57957600Y82603500D01*
X16445000Y78675000D02*
X14944700Y78675000D01*
X80010000Y93265000D02*
X80010000Y94415300D01*
X80010000Y94415300D02*
X79722300Y94415300D01*
X79722300Y94415300D02*
X78859700Y95277900D01*
X78859700Y95277900D02*
X78859700Y96071200D01*
X78859700Y96071200D02*
X77323800Y97607100D01*
X77323800Y97607100D02*
X39528300Y97607100D01*
X39528300Y97607100D02*
X38100000Y96178800D01*
X38100000Y96178800D02*
X38100000Y92876600D01*
X38100000Y92876600D02*
X37338000Y92114600D01*
X37338000Y92114600D02*
X25379400Y92114600D01*
X25379400Y92114600D02*
X14944700Y81679900D01*
X14944700Y81679900D02*
X14944700Y78675000D01*
X31685000Y73595000D02*
X24065000Y73595000D01*
X47560000Y73595000D02*
X49060300Y73595000D01*
X75402700Y66105300D02*
X74038000Y67470000D01*
X74038000Y67470000D02*
X62602800Y67470000D01*
X62602800Y67470000D02*
X57917400Y72155400D01*
X57917400Y72155400D02*
X50499900Y72155400D01*
X50499900Y72155400D02*
X49060300Y73595000D01*
X69964700Y35720000D02*
X69964700Y37273300D01*
X69964700Y37273300D02*
X61775300Y45462700D01*
X71465000Y35720000D02*
X69964700Y35720000D01*
X53679700Y78675000D02*
X51139700Y76135000D01*
X51139700Y76135000D02*
X47560000Y76135000D01*
X55180000Y78675000D02*
X53679700Y78675000D01*
X86705000Y38260000D02*
X88205300Y38260000D01*
X88205300Y38260000D02*
X88205300Y48888500D01*
X88205300Y48888500D02*
X87573400Y49520400D01*
X87573400Y49520400D02*
X70838000Y49520400D01*
X70838000Y49520400D02*
X61588300Y58770100D01*
X61588300Y58770100D02*
X37422700Y58770100D01*
X37422700Y58770100D02*
X36020800Y60172000D01*
X36020800Y60172000D02*
X32803200Y60172000D01*
X32803200Y60172000D02*
X32349400Y60625800D01*
X47560000Y78675000D02*
X49060300Y78675000D01*
X49060300Y78675000D02*
X50491500Y77243800D01*
X50491500Y77243800D02*
X50832200Y77243800D01*
D21*
X99340000Y660000D02*
X660000Y660000D01*
X660000Y5220128D01*
X2765000Y5220128D01*
X2765000Y4779872D01*
X2850890Y4348075D01*
X3019369Y3941331D01*
X3263962Y3575271D01*
X3575271Y3263962D01*
X3941331Y3019369D01*
X4348075Y2850890D01*
X4779872Y2765000D01*
X5220128Y2765000D01*
X5651925Y2850890D01*
X6058669Y3019369D01*
X6424729Y3263962D01*
X6736038Y3575271D01*
X6980631Y3941331D01*
X7149110Y4348075D01*
X7235000Y4779872D01*
X7235000Y4947260D01*
X12830000Y4947260D01*
X12830000Y4654740D01*
X12887068Y4367842D01*
X12999010Y4097589D01*
X13161525Y3854368D01*
X13368368Y3647525D01*
X13542760Y3531000D01*
X13368368Y3414475D01*
X13161525Y3207632D01*
X12999010Y2964411D01*
X12887068Y2694158D01*
X12830000Y2407260D01*
X12830000Y2114740D01*
X12887068Y1827842D01*
X12999010Y1557589D01*
X13161525Y1314368D01*
X13368368Y1107525D01*
X13611589Y945010D01*
X13881842Y833068D01*
X14168740Y776000D01*
X14461260Y776000D01*
X14748158Y833068D01*
X15018411Y945010D01*
X15261632Y1107525D01*
X15468475Y1314368D01*
X15630990Y1557589D01*
X15742932Y1827842D01*
X15800000Y2114740D01*
X15800000Y2407260D01*
X15742932Y2694158D01*
X15630990Y2964411D01*
X15468475Y3207632D01*
X15261632Y3414475D01*
X15087240Y3531000D01*
X15261632Y3647525D01*
X15468475Y3854368D01*
X15630990Y4097589D01*
X15742932Y4367842D01*
X15800000Y4654740D01*
X15800000Y4947260D01*
X33150000Y4947260D01*
X33150000Y4654740D01*
X33207068Y4367842D01*
X33319010Y4097589D01*
X33481525Y3854368D01*
X33688368Y3647525D01*
X33862760Y3531000D01*
X33688368Y3414475D01*
X33481525Y3207632D01*
X33319010Y2964411D01*
X33207068Y2694158D01*
X33150000Y2407260D01*
X33150000Y2114740D01*
X33207068Y1827842D01*
X33319010Y1557589D01*
X33481525Y1314368D01*
X33688368Y1107525D01*
X33931589Y945010D01*
X34201842Y833068D01*
X34488740Y776000D01*
X34781260Y776000D01*
X35068158Y833068D01*
X35338411Y945010D01*
X35581632Y1107525D01*
X35788475Y1314368D01*
X35950990Y1557589D01*
X36062932Y1827842D01*
X36120000Y2114740D01*
X36120000Y2407260D01*
X36062932Y2694158D01*
X35950990Y2964411D01*
X35788475Y3207632D01*
X35581632Y3414475D01*
X35407240Y3531000D01*
X35581632Y3647525D01*
X35788475Y3854368D01*
X35950990Y4097589D01*
X36062932Y4367842D01*
X36120000Y4654740D01*
X36120000Y4947260D01*
X36065723Y5220128D01*
X92765000Y5220128D01*
X92765000Y4779872D01*
X92850890Y4348075D01*
X93019369Y3941331D01*
X93263962Y3575271D01*
X93575271Y3263962D01*
X93941331Y3019369D01*
X94348075Y2850890D01*
X94779872Y2765000D01*
X95220128Y2765000D01*
X95651925Y2850890D01*
X96058669Y3019369D01*
X96424729Y3263962D01*
X96736038Y3575271D01*
X96980631Y3941331D01*
X97149110Y4348075D01*
X97235000Y4779872D01*
X97235000Y5220128D01*
X97149110Y5651925D01*
X96980631Y6058669D01*
X96736038Y6424729D01*
X96424729Y6736038D01*
X96058669Y6980631D01*
X95651925Y7149110D01*
X95220128Y7235000D01*
X94779872Y7235000D01*
X94348075Y7149110D01*
X93941331Y6980631D01*
X93575271Y6736038D01*
X93263962Y6424729D01*
X93019369Y6058669D01*
X92850890Y5651925D01*
X92765000Y5220128D01*
X36065723Y5220128D01*
X36062932Y5234158D01*
X35950990Y5504411D01*
X35788475Y5747632D01*
X35581632Y5954475D01*
X35338411Y6116990D01*
X35068158Y6228932D01*
X34781260Y6286000D01*
X34488740Y6286000D01*
X34201842Y6228932D01*
X33931589Y6116990D01*
X33688368Y5954475D01*
X33481525Y5747632D01*
X33319010Y5504411D01*
X33207068Y5234158D01*
X33150000Y4947260D01*
X15800000Y4947260D01*
X15742932Y5234158D01*
X15630990Y5504411D01*
X15468475Y5747632D01*
X15261632Y5954475D01*
X15018411Y6116990D01*
X14748158Y6228932D01*
X14461260Y6286000D01*
X14168740Y6286000D01*
X13881842Y6228932D01*
X13611589Y6116990D01*
X13368368Y5954475D01*
X13161525Y5747632D01*
X12999010Y5504411D01*
X12887068Y5234158D01*
X12830000Y4947260D01*
X7235000Y4947260D01*
X7235000Y5220128D01*
X7149110Y5651925D01*
X6980631Y6058669D01*
X6736038Y6424729D01*
X6424729Y6736038D01*
X6058669Y6980631D01*
X5651925Y7149110D01*
X5220128Y7235000D01*
X4779872Y7235000D01*
X4348075Y7149110D01*
X3941331Y6980631D01*
X3575271Y6736038D01*
X3263962Y6424729D01*
X3019369Y6058669D01*
X2850890Y5651925D01*
X2765000Y5220128D01*
X660000Y5220128D01*
X660000Y12366335D01*
X42090000Y12366335D01*
X42090000Y12083665D01*
X42145147Y11806426D01*
X42253320Y11545273D01*
X42410363Y11310241D01*
X42610241Y11110363D01*
X42845273Y10953320D01*
X43106426Y10845147D01*
X43383665Y10790000D01*
X43666335Y10790000D01*
X43943574Y10845147D01*
X44204727Y10953320D01*
X44439759Y11110363D01*
X44639637Y11310241D01*
X44796680Y11545273D01*
X44904853Y11806426D01*
X44960000Y12083665D01*
X44960000Y12366335D01*
X44904853Y12643574D01*
X44796680Y12904727D01*
X44639637Y13139759D01*
X44439759Y13339637D01*
X44204727Y13496680D01*
X44194135Y13501067D01*
X44380131Y13612615D01*
X44588519Y13801586D01*
X44756037Y14027580D01*
X44876246Y14281913D01*
X44916904Y14415961D01*
X44794915Y14638000D01*
X43652000Y14638000D01*
X43652000Y14618000D01*
X43398000Y14618000D01*
X43398000Y14638000D01*
X42255085Y14638000D01*
X42133096Y14415961D01*
X42173754Y14281913D01*
X42293963Y14027580D01*
X42461481Y13801586D01*
X42669869Y13612615D01*
X42855865Y13501067D01*
X42845273Y13496680D01*
X42610241Y13339637D01*
X42410363Y13139759D01*
X42253320Y12904727D01*
X42145147Y12643574D01*
X42090000Y12366335D01*
X660000Y12366335D01*
X660000Y30347260D01*
X12830000Y30347260D01*
X12830000Y30054740D01*
X12887068Y29767842D01*
X12999010Y29497589D01*
X13161525Y29254368D01*
X13368368Y29047525D01*
X13611589Y28885010D01*
X13881842Y28773068D01*
X14168740Y28716000D01*
X14461260Y28716000D01*
X14748158Y28773068D01*
X15018411Y28885010D01*
X15261632Y29047525D01*
X15468475Y29254368D01*
X15585000Y29428760D01*
X15701525Y29254368D01*
X15908368Y29047525D01*
X16151589Y28885010D01*
X16421842Y28773068D01*
X16708740Y28716000D01*
X17001260Y28716000D01*
X17288158Y28773068D01*
X17558411Y28885010D01*
X17801632Y29047525D01*
X18008475Y29254368D01*
X18125000Y29428760D01*
X18241525Y29254368D01*
X18448368Y29047525D01*
X18691589Y28885010D01*
X18961842Y28773068D01*
X19248740Y28716000D01*
X19541260Y28716000D01*
X19828158Y28773068D01*
X20098411Y28885010D01*
X20341632Y29047525D01*
X20548475Y29254368D01*
X20665000Y29428760D01*
X20781525Y29254368D01*
X20988368Y29047525D01*
X21231589Y28885010D01*
X21501842Y28773068D01*
X21788740Y28716000D01*
X22081260Y28716000D01*
X22368158Y28773068D01*
X22638411Y28885010D01*
X22881632Y29047525D01*
X23088475Y29254368D01*
X23205000Y29428760D01*
X23321525Y29254368D01*
X23528368Y29047525D01*
X23771589Y28885010D01*
X24041842Y28773068D01*
X24328740Y28716000D01*
X24621260Y28716000D01*
X24908158Y28773068D01*
X25178411Y28885010D01*
X25421632Y29047525D01*
X25628475Y29254368D01*
X25750195Y29436534D01*
X25819822Y29319645D01*
X26014731Y29103412D01*
X26248080Y28929359D01*
X26510901Y28804175D01*
X26658110Y28759524D01*
X26888000Y28880845D01*
X26888000Y30074000D01*
X26868000Y30074000D01*
X26868000Y30328000D01*
X26888000Y30328000D01*
X26888000Y30348000D01*
X27142000Y30348000D01*
X27142000Y30328000D01*
X27162000Y30328000D01*
X27162000Y30074000D01*
X27142000Y30074000D01*
X27142000Y28880845D01*
X27371890Y28759524D01*
X27519099Y28804175D01*
X27781920Y28929359D01*
X28015269Y29103412D01*
X28210178Y29319645D01*
X28279805Y29436534D01*
X28401525Y29254368D01*
X28608368Y29047525D01*
X28851589Y28885010D01*
X29121842Y28773068D01*
X29408740Y28716000D01*
X29701260Y28716000D01*
X29988158Y28773068D01*
X30258411Y28885010D01*
X30501632Y29047525D01*
X30708475Y29254368D01*
X30825000Y29428760D01*
X30941525Y29254368D01*
X31148368Y29047525D01*
X31391589Y28885010D01*
X31661842Y28773068D01*
X31948740Y28716000D01*
X32241260Y28716000D01*
X32528158Y28773068D01*
X32798411Y28885010D01*
X33041632Y29047525D01*
X33173487Y29179380D01*
X33195498Y29106820D01*
X33254463Y28996506D01*
X33333815Y28899815D01*
X33430506Y28820463D01*
X33540820Y28761498D01*
X33660518Y28725188D01*
X33785000Y28712928D01*
X33834555Y28712928D01*
X33859828Y28629614D01*
X33923593Y28510319D01*
X33937365Y28484554D01*
X34041710Y28357409D01*
X34073574Y28331259D01*
X41920963Y20483868D01*
X41947109Y20452009D01*
X41978968Y20425863D01*
X41978970Y20425861D01*
X42074254Y20347664D01*
X42160814Y20301397D01*
X42145147Y20263574D01*
X42090000Y19986335D01*
X42090000Y19703665D01*
X42145147Y19426426D01*
X42253320Y19165273D01*
X42410363Y18930241D01*
X42610241Y18730363D01*
X42842759Y18575000D01*
X42610241Y18419637D01*
X42410363Y18219759D01*
X42253320Y17984727D01*
X42145147Y17723574D01*
X42090000Y17446335D01*
X42090000Y17163665D01*
X42145147Y16886426D01*
X42253320Y16625273D01*
X42410363Y16390241D01*
X42610241Y16190363D01*
X42845273Y16033320D01*
X42855865Y16028933D01*
X42669869Y15917385D01*
X42461481Y15728414D01*
X42293963Y15502420D01*
X42173754Y15248087D01*
X42133096Y15114039D01*
X42255085Y14892000D01*
X43398000Y14892000D01*
X43398000Y14912000D01*
X43652000Y14912000D01*
X43652000Y14892000D01*
X44794915Y14892000D01*
X44916904Y15114039D01*
X44876246Y15248087D01*
X44756037Y15502420D01*
X44588519Y15728414D01*
X44380131Y15917385D01*
X44194135Y16028933D01*
X44204727Y16033320D01*
X44439759Y16190363D01*
X44639637Y16390241D01*
X44796680Y16625273D01*
X44904853Y16886426D01*
X44960000Y17163665D01*
X44960000Y17446335D01*
X44904853Y17723574D01*
X44796680Y17984727D01*
X44639637Y18219759D01*
X44439759Y18419637D01*
X44207241Y18575000D01*
X44439759Y18730363D01*
X44639637Y18930241D01*
X44796680Y19165273D01*
X44904853Y19426426D01*
X44960000Y19703665D01*
X44960000Y19986335D01*
X44904853Y20263574D01*
X44899646Y20276144D01*
X44950363Y20200241D01*
X45150241Y20000363D01*
X45385273Y19843320D01*
X45646426Y19735147D01*
X45923665Y19680000D01*
X46206335Y19680000D01*
X46483574Y19735147D01*
X46744727Y19843320D01*
X46979759Y20000363D01*
X47179637Y20200241D01*
X47299748Y20380000D01*
X57433372Y20380000D01*
X57385147Y20263574D01*
X57330000Y19986335D01*
X57330000Y19703665D01*
X57385147Y19426426D01*
X57493320Y19165273D01*
X57650363Y18930241D01*
X57850241Y18730363D01*
X58082759Y18575000D01*
X57850241Y18419637D01*
X57650363Y18219759D01*
X57493320Y17984727D01*
X57385147Y17723574D01*
X57330000Y17446335D01*
X57330000Y17163665D01*
X57385147Y16886426D01*
X57493320Y16625273D01*
X57650363Y16390241D01*
X57850241Y16190363D01*
X58082759Y16035000D01*
X57850241Y15879637D01*
X57650363Y15679759D01*
X57493320Y15444727D01*
X57385147Y15183574D01*
X57330000Y14906335D01*
X57330000Y14623665D01*
X57385147Y14346426D01*
X57493320Y14085273D01*
X57650363Y13850241D01*
X57848961Y13651643D01*
X57840518Y13650812D01*
X57720820Y13614502D01*
X57610506Y13555537D01*
X57513815Y13476185D01*
X57434463Y13379494D01*
X57375498Y13269180D01*
X57339188Y13149482D01*
X57326928Y13025000D01*
X57326928Y11425000D01*
X57339188Y11300518D01*
X57375498Y11180820D01*
X57434463Y11070506D01*
X57513815Y10973815D01*
X57610506Y10894463D01*
X57720820Y10835498D01*
X57840518Y10799188D01*
X57965000Y10786928D01*
X59565000Y10786928D01*
X59689482Y10799188D01*
X59809180Y10835498D01*
X59919494Y10894463D01*
X60016185Y10973815D01*
X60095537Y11070506D01*
X60154502Y11180820D01*
X60190812Y11300518D01*
X60203072Y11425000D01*
X60203072Y13025000D01*
X60190812Y13149482D01*
X60154502Y13269180D01*
X60095537Y13379494D01*
X60016185Y13476185D01*
X59919494Y13555537D01*
X59809180Y13614502D01*
X59689482Y13650812D01*
X59681039Y13651643D01*
X59879637Y13850241D01*
X60036680Y14085273D01*
X60144853Y14346426D01*
X60200000Y14623665D01*
X60200000Y14906335D01*
X60144853Y15183574D01*
X60036680Y15444727D01*
X59879637Y15679759D01*
X59679759Y15879637D01*
X59447241Y16035000D01*
X59679759Y16190363D01*
X59879637Y16390241D01*
X60036680Y16625273D01*
X60144853Y16886426D01*
X60200000Y17163665D01*
X60200000Y17446335D01*
X60144853Y17723574D01*
X60036680Y17984727D01*
X59879637Y18219759D01*
X59679759Y18419637D01*
X59447241Y18575000D01*
X59679759Y18730363D01*
X59879637Y18930241D01*
X60036680Y19165273D01*
X60144853Y19426426D01*
X60200000Y19703665D01*
X60200000Y19986335D01*
X60144853Y20263574D01*
X60096628Y20380000D01*
X80723595Y20380000D01*
X80759700Y20376444D01*
X80795805Y20380000D01*
X80903785Y20390635D01*
X81042333Y20432663D01*
X81170020Y20500913D01*
X81281938Y20592762D01*
X81304959Y20620813D01*
X85026385Y24342238D01*
X85053815Y24308815D01*
X85150506Y24229463D01*
X85260820Y24170498D01*
X85380518Y24134188D01*
X85505000Y24121928D01*
X87905000Y24121928D01*
X88029482Y24134188D01*
X88149180Y24170498D01*
X88259494Y24229463D01*
X88356185Y24308815D01*
X88435537Y24405506D01*
X88494502Y24515820D01*
X88530812Y24635518D01*
X88543072Y24760000D01*
X88543072Y26360000D01*
X88530812Y26484482D01*
X88494502Y26604180D01*
X88435537Y26714494D01*
X88394430Y26764583D01*
X89150693Y27520846D01*
X89178738Y27543862D01*
X89270587Y27655780D01*
X89338837Y27783467D01*
X89380865Y27922015D01*
X89386508Y27979313D01*
X89395056Y28066099D01*
X89391500Y28102204D01*
X89391500Y68252704D01*
X89395055Y68288801D01*
X89391500Y68324898D01*
X89391500Y68324905D01*
X89380865Y68432885D01*
X89373439Y68457367D01*
X89357787Y68508963D01*
X89338837Y68571433D01*
X89270587Y68699120D01*
X89178737Y68811038D01*
X89150692Y68834054D01*
X88750559Y69234187D01*
X88727538Y69262238D01*
X88615620Y69354087D01*
X88487933Y69422337D01*
X88349385Y69464365D01*
X88344702Y69464826D01*
X88303932Y69541101D01*
X88124608Y69759608D01*
X87906101Y69938932D01*
X87773142Y70010000D01*
X87906101Y70081068D01*
X88124608Y70260392D01*
X88303932Y70478899D01*
X88437182Y70728192D01*
X88519236Y70998691D01*
X88546943Y71280000D01*
X88519236Y71561309D01*
X88437182Y71831808D01*
X88303932Y72081101D01*
X88124608Y72299608D01*
X87906101Y72478932D01*
X87773142Y72550000D01*
X87906101Y72621068D01*
X88124608Y72800392D01*
X88303932Y73018899D01*
X88437182Y73268192D01*
X88519236Y73538691D01*
X88546943Y73820000D01*
X88519236Y74101309D01*
X88437182Y74371808D01*
X88303932Y74621101D01*
X88124608Y74839608D01*
X87906101Y75018932D01*
X87656808Y75152182D01*
X87386309Y75234236D01*
X87175492Y75255000D01*
X86234508Y75255000D01*
X86023691Y75234236D01*
X85753192Y75152182D01*
X85503899Y75018932D01*
X85285392Y74839608D01*
X85106068Y74621101D01*
X85065298Y74544826D01*
X85060614Y74544365D01*
X85044043Y74539338D01*
X84922067Y74502337D01*
X84794380Y74434087D01*
X84682462Y74342238D01*
X84659446Y74314193D01*
X79671308Y69326054D01*
X79643262Y69303037D01*
X79551413Y69191119D01*
X79483163Y69063432D01*
X79467915Y69013165D01*
X79441135Y68924885D01*
X79426944Y68780800D01*
X79430500Y68744695D01*
X79430501Y60490854D01*
X79381223Y60417105D01*
X79314510Y60256045D01*
X79280500Y60085065D01*
X79280500Y59910735D01*
X79314510Y59739755D01*
X79381223Y59578695D01*
X79478076Y59433745D01*
X79601345Y59310476D01*
X79729859Y59224605D01*
X73561254Y53056000D01*
X73229885Y53056000D01*
X73279236Y53218691D01*
X73306943Y53500000D01*
X73279236Y53781309D01*
X73197182Y54051808D01*
X73063932Y54301101D01*
X72884608Y54519608D01*
X72666101Y54698932D01*
X72533142Y54770000D01*
X72666101Y54841068D01*
X72884608Y55020392D01*
X73063932Y55238899D01*
X73197182Y55488192D01*
X73279236Y55758691D01*
X73306943Y56040000D01*
X73279236Y56321309D01*
X73197182Y56591808D01*
X73063932Y56841101D01*
X72884608Y57059608D01*
X72666101Y57238932D01*
X72533142Y57310000D01*
X72666101Y57381068D01*
X72884608Y57560392D01*
X73063932Y57778899D01*
X73197182Y58028192D01*
X73279236Y58298691D01*
X73306943Y58580000D01*
X73279236Y58861309D01*
X73197182Y59131808D01*
X73063932Y59381101D01*
X72884608Y59599608D01*
X72666101Y59778932D01*
X72533142Y59850000D01*
X72666101Y59921068D01*
X72884608Y60100392D01*
X73063932Y60318899D01*
X73197182Y60568192D01*
X73279236Y60838691D01*
X73306943Y61120000D01*
X73279236Y61401309D01*
X73197297Y61671430D01*
X78376427Y66850559D01*
X78408291Y66876709D01*
X78512636Y67003854D01*
X78590172Y67148913D01*
X78637918Y67306311D01*
X78650000Y67428981D01*
X78654040Y67469999D01*
X78650000Y67511018D01*
X78650000Y76462070D01*
X78729759Y76515363D01*
X78851694Y76637298D01*
X79501903Y76637298D01*
X79573486Y76393329D01*
X79828996Y76272429D01*
X80103184Y76203700D01*
X80385512Y76189783D01*
X80665130Y76231213D01*
X80931292Y76326397D01*
X81056514Y76393329D01*
X81128097Y76637298D01*
X80315000Y77450395D01*
X79501903Y76637298D01*
X78851694Y76637298D01*
X78929637Y76715241D01*
X79063692Y76915869D01*
X79078329Y76888486D01*
X79322298Y76816903D01*
X80135395Y77630000D01*
X80494605Y77630000D01*
X81307702Y76816903D01*
X81551671Y76888486D01*
X81672571Y77143996D01*
X81741300Y77418184D01*
X81755217Y77700512D01*
X81713787Y77980130D01*
X81618603Y78246292D01*
X81551671Y78371514D01*
X81307702Y78443097D01*
X80494605Y77630000D01*
X80135395Y77630000D01*
X80121253Y77644142D01*
X80300858Y77823747D01*
X80315000Y77809605D01*
X81128097Y78622702D01*
X81056514Y78866671D01*
X80801004Y78987571D01*
X80526816Y79056300D01*
X80427084Y79061216D01*
X84349355Y82983486D01*
X84374999Y82980960D01*
X84416018Y82985000D01*
X86195375Y82985000D01*
X86204188Y82895518D01*
X86240498Y82775820D01*
X86299463Y82665506D01*
X86378815Y82568815D01*
X86475506Y82489463D01*
X86585820Y82430498D01*
X86705518Y82394188D01*
X86830000Y82381928D01*
X88430000Y82381928D01*
X88554482Y82394188D01*
X88674180Y82430498D01*
X88784494Y82489463D01*
X88881185Y82568815D01*
X88960537Y82665506D01*
X89019502Y82775820D01*
X89055812Y82895518D01*
X89068072Y83020000D01*
X89068072Y84620000D01*
X89055812Y84744482D01*
X89019502Y84864180D01*
X88960537Y84974494D01*
X88881185Y85071185D01*
X88784494Y85150537D01*
X88674180Y85209502D01*
X88554482Y85245812D01*
X88430000Y85258072D01*
X88422785Y85258072D01*
X88443097Y85327298D01*
X87630000Y86140395D01*
X86816903Y85327298D01*
X86837215Y85258072D01*
X86830000Y85258072D01*
X86705518Y85245812D01*
X86585820Y85209502D01*
X86475506Y85150537D01*
X86378815Y85071185D01*
X86299463Y84974494D01*
X86240498Y84864180D01*
X86204188Y84744482D01*
X86195375Y84655000D01*
X84720868Y84655000D01*
X83126380Y86249488D01*
X86189783Y86249488D01*
X86231213Y85969870D01*
X86326397Y85703708D01*
X86393329Y85578486D01*
X86637298Y85506903D01*
X87450395Y86320000D01*
X87809605Y86320000D01*
X88622702Y85506903D01*
X88866671Y85578486D01*
X88987571Y85833996D01*
X89056300Y86108184D01*
X89070217Y86390512D01*
X89028787Y86670130D01*
X88933603Y86936292D01*
X88866671Y87061514D01*
X88622702Y87133097D01*
X87809605Y86320000D01*
X87450395Y86320000D01*
X86637298Y87133097D01*
X86393329Y87061514D01*
X86272429Y86806004D01*
X86203700Y86531816D01*
X86189783Y86249488D01*
X83126380Y86249488D01*
X82063166Y87312702D01*
X86816903Y87312702D01*
X87630000Y86499605D01*
X88443097Y87312702D01*
X88371514Y87556671D01*
X88116004Y87677571D01*
X87841816Y87746300D01*
X87559488Y87760217D01*
X87279870Y87718787D01*
X87013708Y87623603D01*
X86888486Y87556671D01*
X86816903Y87312702D01*
X82063166Y87312702D01*
X77595867Y91780000D01*
X77616260Y91780000D01*
X77903158Y91837068D01*
X78173411Y91949010D01*
X78416632Y92111525D01*
X78623475Y92318368D01*
X78740000Y92492760D01*
X78856525Y92318368D01*
X79063368Y92111525D01*
X79306589Y91949010D01*
X79576842Y91837068D01*
X79863740Y91780000D01*
X80156260Y91780000D01*
X80443158Y91837068D01*
X80713411Y91949010D01*
X80956632Y92111525D01*
X81163475Y92318368D01*
X81325990Y92561589D01*
X81437932Y92831842D01*
X81495000Y93118740D01*
X81495000Y93411260D01*
X81437932Y93698158D01*
X81325990Y93968411D01*
X81163475Y94211632D01*
X80956632Y94418475D01*
X80780594Y94536100D01*
X81010269Y94707412D01*
X81205178Y94923645D01*
X81354157Y95173748D01*
X81370609Y95220128D01*
X92765000Y95220128D01*
X92765000Y94779872D01*
X92850890Y94348075D01*
X93019369Y93941331D01*
X93263962Y93575271D01*
X93575271Y93263962D01*
X93941331Y93019369D01*
X94348075Y92850890D01*
X94779872Y92765000D01*
X95220128Y92765000D01*
X95651925Y92850890D01*
X96058669Y93019369D01*
X96424729Y93263962D01*
X96736038Y93575271D01*
X96980631Y93941331D01*
X97149110Y94348075D01*
X97235000Y94779872D01*
X97235000Y95220128D01*
X97149110Y95651925D01*
X96980631Y96058669D01*
X96736038Y96424729D01*
X96424729Y96736038D01*
X96058669Y96980631D01*
X95651925Y97149110D01*
X95220128Y97235000D01*
X94779872Y97235000D01*
X94348075Y97149110D01*
X93941331Y96980631D01*
X93575271Y96736038D01*
X93263962Y96424729D01*
X93019369Y96058669D01*
X92850890Y95651925D01*
X92765000Y95220128D01*
X81370609Y95220128D01*
X81451481Y95448109D01*
X81330814Y95678000D01*
X80137000Y95678000D01*
X80137000Y95658000D01*
X79883000Y95658000D01*
X79883000Y95678000D01*
X79863000Y95678000D01*
X79863000Y95932000D01*
X79883000Y95932000D01*
X79883000Y97125155D01*
X80137000Y97125155D01*
X80137000Y95932000D01*
X81330814Y95932000D01*
X81451481Y96161891D01*
X81354157Y96436252D01*
X81205178Y96686355D01*
X81010269Y96902588D01*
X80776920Y97076641D01*
X80514099Y97201825D01*
X80366890Y97246476D01*
X80137000Y97125155D01*
X79883000Y97125155D01*
X79653110Y97246476D01*
X79505901Y97201825D01*
X79243080Y97076641D01*
X79042968Y96927379D01*
X77869058Y98101288D01*
X77846038Y98129338D01*
X77734120Y98221187D01*
X77606433Y98289437D01*
X77467885Y98331465D01*
X77359905Y98342100D01*
X77323800Y98345656D01*
X77287695Y98342100D01*
X39564394Y98342100D01*
X39528299Y98345655D01*
X39492204Y98342100D01*
X39492195Y98342100D01*
X39384215Y98331465D01*
X39245667Y98289437D01*
X39117980Y98221187D01*
X39006062Y98129338D01*
X38983046Y98101293D01*
X37808430Y96926677D01*
X37776632Y96958475D01*
X37533411Y97120990D01*
X37263158Y97232932D01*
X36976260Y97290000D01*
X36683740Y97290000D01*
X36396842Y97232932D01*
X36126589Y97120990D01*
X35883368Y96958475D01*
X35676525Y96751632D01*
X35560000Y96577240D01*
X35443475Y96751632D01*
X35236632Y96958475D01*
X34993411Y97120990D01*
X34723158Y97232932D01*
X34436260Y97290000D01*
X34143740Y97290000D01*
X33856842Y97232932D01*
X33586589Y97120990D01*
X33343368Y96958475D01*
X33136525Y96751632D01*
X33020000Y96577240D01*
X32903475Y96751632D01*
X32696632Y96958475D01*
X32453411Y97120990D01*
X32183158Y97232932D01*
X31896260Y97290000D01*
X31603740Y97290000D01*
X31316842Y97232932D01*
X31046589Y97120990D01*
X30803368Y96958475D01*
X30596525Y96751632D01*
X30480000Y96577240D01*
X30363475Y96751632D01*
X30156632Y96958475D01*
X29913411Y97120990D01*
X29643158Y97232932D01*
X29356260Y97290000D01*
X29063740Y97290000D01*
X28776842Y97232932D01*
X28506589Y97120990D01*
X28263368Y96958475D01*
X28056525Y96751632D01*
X27940000Y96577240D01*
X27823475Y96751632D01*
X27616632Y96958475D01*
X27373411Y97120990D01*
X27103158Y97232932D01*
X26816260Y97290000D01*
X26523740Y97290000D01*
X26236842Y97232932D01*
X25966589Y97120990D01*
X25723368Y96958475D01*
X25516525Y96751632D01*
X25400000Y96577240D01*
X25283475Y96751632D01*
X25076632Y96958475D01*
X24833411Y97120990D01*
X24563158Y97232932D01*
X24276260Y97290000D01*
X23983740Y97290000D01*
X23696842Y97232932D01*
X23426589Y97120990D01*
X23183368Y96958475D01*
X22976525Y96751632D01*
X22860000Y96577240D01*
X22743475Y96751632D01*
X22536632Y96958475D01*
X22293411Y97120990D01*
X22023158Y97232932D01*
X21736260Y97290000D01*
X21443740Y97290000D01*
X21156842Y97232932D01*
X20886589Y97120990D01*
X20643368Y96958475D01*
X20436525Y96751632D01*
X20320000Y96577240D01*
X20203475Y96751632D01*
X19996632Y96958475D01*
X19753411Y97120990D01*
X19483158Y97232932D01*
X19196260Y97290000D01*
X18903740Y97290000D01*
X18616842Y97232932D01*
X18346589Y97120990D01*
X18103368Y96958475D01*
X17896525Y96751632D01*
X17734010Y96508411D01*
X17622068Y96238158D01*
X17565000Y95951260D01*
X17565000Y95658740D01*
X17622068Y95371842D01*
X17734010Y95101589D01*
X17896525Y94858368D01*
X18028380Y94726513D01*
X17955820Y94704502D01*
X17845506Y94645537D01*
X17748815Y94566185D01*
X17669463Y94469494D01*
X17610498Y94359180D01*
X17574188Y94239482D01*
X17561928Y94115000D01*
X17561928Y92415000D01*
X17574188Y92290518D01*
X17610498Y92170820D01*
X17669463Y92060506D01*
X17748815Y91963815D01*
X17845506Y91884463D01*
X17955820Y91825498D01*
X18075518Y91789188D01*
X18200000Y91776928D01*
X19900000Y91776928D01*
X20024482Y91789188D01*
X20144180Y91825498D01*
X20254494Y91884463D01*
X20351185Y91963815D01*
X20430537Y92060506D01*
X20489502Y92170820D01*
X20511513Y92243380D01*
X20643368Y92111525D01*
X20886589Y91949010D01*
X21156842Y91837068D01*
X21443740Y91780000D01*
X21736260Y91780000D01*
X22023158Y91837068D01*
X22293411Y91949010D01*
X22536632Y92111525D01*
X22743475Y92318368D01*
X22860000Y92492760D01*
X22976525Y92318368D01*
X23183368Y92111525D01*
X23426589Y91949010D01*
X23696842Y91837068D01*
X23983740Y91780000D01*
X24005353Y91780000D01*
X14450508Y82225154D01*
X14422462Y82202137D01*
X14330613Y82090219D01*
X14262363Y81962532D01*
X14238648Y81884355D01*
X14220335Y81823985D01*
X14206144Y81679900D01*
X14209700Y81643795D01*
X14209701Y78711115D01*
X14206144Y78675000D01*
X14220335Y78530915D01*
X14262363Y78392367D01*
X14330613Y78264680D01*
X14422462Y78152762D01*
X14534380Y78060913D01*
X14662067Y77992663D01*
X14800615Y77950635D01*
X14805298Y77950174D01*
X14846068Y77873899D01*
X15025392Y77655392D01*
X15243899Y77476068D01*
X15376858Y77405000D01*
X15243899Y77333932D01*
X15025392Y77154608D01*
X14846068Y76936101D01*
X14805298Y76859826D01*
X14800615Y76859365D01*
X14662067Y76817337D01*
X14534380Y76749087D01*
X14422462Y76657238D01*
X14330613Y76545320D01*
X14262363Y76417633D01*
X14220335Y76279085D01*
X14206144Y76135000D01*
X14209700Y76098895D01*
X14209701Y64666415D01*
X14206144Y64630300D01*
X14220335Y64486215D01*
X14251232Y64384365D01*
X14262364Y64347667D01*
X14330614Y64219980D01*
X14422463Y64108062D01*
X14450508Y64085046D01*
X31595146Y46940407D01*
X31618162Y46912362D01*
X31730080Y46820513D01*
X31857767Y46752263D01*
X31954286Y46722984D01*
X31996314Y46710235D01*
X32010532Y46708835D01*
X32104295Y46699600D01*
X32104302Y46699600D01*
X32140399Y46696045D01*
X32176496Y46699600D01*
X60485654Y46699600D01*
X61123137Y46062116D01*
X61087876Y46026855D01*
X60991023Y45881905D01*
X60924310Y45720845D01*
X60890300Y45549865D01*
X60890300Y45375535D01*
X60924310Y45204555D01*
X60991023Y45043495D01*
X61087876Y44898545D01*
X61211145Y44775276D01*
X61356095Y44678423D01*
X61517155Y44611710D01*
X61604148Y44594406D01*
X69229701Y36968852D01*
X69229700Y35756105D01*
X69226144Y35720000D01*
X69240335Y35575915D01*
X69282363Y35437367D01*
X69350613Y35309680D01*
X69442462Y35197762D01*
X69458012Y35185000D01*
X66072505Y35185000D01*
X66036400Y35188556D01*
X65892315Y35174365D01*
X65753766Y35132337D01*
X65626080Y35064087D01*
X65514162Y34972238D01*
X65491146Y34944193D01*
X65096954Y34550000D01*
X60096628Y34550000D01*
X60144853Y34666426D01*
X60200000Y34943665D01*
X60200000Y35226335D01*
X60144853Y35503574D01*
X60036680Y35764727D01*
X59879637Y35999759D01*
X59679759Y36199637D01*
X59447241Y36355000D01*
X59679759Y36510363D01*
X59879637Y36710241D01*
X60036680Y36945273D01*
X60144853Y37206426D01*
X60200000Y37483665D01*
X60200000Y37766335D01*
X60144853Y38043574D01*
X60036680Y38304727D01*
X59879637Y38539759D01*
X59679759Y38739637D01*
X59447241Y38895000D01*
X59679759Y39050363D01*
X59879637Y39250241D01*
X60036680Y39485273D01*
X60144853Y39746426D01*
X60200000Y40023665D01*
X60200000Y40306335D01*
X60144853Y40583574D01*
X60036680Y40844727D01*
X59879637Y41079759D01*
X59679759Y41279637D01*
X59444727Y41436680D01*
X59183574Y41544853D01*
X58906335Y41600000D01*
X58623665Y41600000D01*
X58346426Y41544853D01*
X58085273Y41436680D01*
X57850241Y41279637D01*
X57650363Y41079759D01*
X57493320Y40844727D01*
X57385147Y40583574D01*
X57330000Y40306335D01*
X57330000Y40023665D01*
X57385147Y39746426D01*
X57493320Y39485273D01*
X57650363Y39250241D01*
X57850241Y39050363D01*
X58082759Y38895000D01*
X57850241Y38739637D01*
X57650363Y38539759D01*
X57493320Y38304727D01*
X57385147Y38043574D01*
X57330000Y37766335D01*
X57330000Y37483665D01*
X57385147Y37206426D01*
X57493320Y36945273D01*
X57650363Y36710241D01*
X57850241Y36510363D01*
X58082759Y36355000D01*
X57850241Y36199637D01*
X57650363Y35999759D01*
X57493320Y35764727D01*
X57385147Y35503574D01*
X57330000Y35226335D01*
X57330000Y34943665D01*
X57385147Y34666426D01*
X57433372Y34550000D01*
X51175305Y34550000D01*
X51139200Y34553556D01*
X50995115Y34539365D01*
X50856566Y34497337D01*
X50728880Y34429087D01*
X50616962Y34337238D01*
X50593946Y34309193D01*
X47500000Y31215246D01*
X47500000Y31416335D01*
X47444853Y31693574D01*
X47336680Y31954727D01*
X47179637Y32189759D01*
X46979759Y32389637D01*
X46747241Y32545000D01*
X46979759Y32700363D01*
X47179637Y32900241D01*
X47336680Y33135273D01*
X47444853Y33396426D01*
X47500000Y33673665D01*
X47500000Y33956335D01*
X47444853Y34233574D01*
X47336680Y34494727D01*
X47179637Y34729759D01*
X46979759Y34929637D01*
X46744727Y35086680D01*
X46483574Y35194853D01*
X46206335Y35250000D01*
X45923665Y35250000D01*
X45646426Y35194853D01*
X45385273Y35086680D01*
X45150241Y34929637D01*
X44950363Y34729759D01*
X44899646Y34653856D01*
X44904853Y34666426D01*
X44960000Y34943665D01*
X44960000Y35226335D01*
X44904853Y35503574D01*
X44796680Y35764727D01*
X44639637Y35999759D01*
X44439759Y36199637D01*
X44207241Y36355000D01*
X44439759Y36510363D01*
X44639637Y36710241D01*
X44796680Y36945273D01*
X44904853Y37206426D01*
X44960000Y37483665D01*
X44960000Y37766335D01*
X44904853Y38043574D01*
X44796680Y38304727D01*
X44639637Y38539759D01*
X44439759Y38739637D01*
X44207241Y38895000D01*
X44439759Y39050363D01*
X44639637Y39250241D01*
X44796680Y39485273D01*
X44904853Y39746426D01*
X44960000Y40023665D01*
X44960000Y40306335D01*
X44904853Y40583574D01*
X44796680Y40844727D01*
X44639637Y41079759D01*
X44439759Y41279637D01*
X44204727Y41436680D01*
X43943574Y41544853D01*
X43666335Y41600000D01*
X43383665Y41600000D01*
X43106426Y41544853D01*
X42845273Y41436680D01*
X42610241Y41279637D01*
X42410363Y41079759D01*
X42290252Y40900000D01*
X20977994Y40900000D01*
X20941899Y40903555D01*
X20905804Y40900000D01*
X20905795Y40900000D01*
X20797815Y40889365D01*
X20659267Y40847337D01*
X20531580Y40779087D01*
X20419662Y40687238D01*
X20396646Y40659193D01*
X19111280Y39373827D01*
X19071632Y39413475D01*
X18828411Y39575990D01*
X18558158Y39687932D01*
X18271260Y39745000D01*
X17978740Y39745000D01*
X17691842Y39687932D01*
X17421589Y39575990D01*
X17178368Y39413475D01*
X16971525Y39206632D01*
X16809010Y38963411D01*
X16697068Y38693158D01*
X16640000Y38406260D01*
X16640000Y38113740D01*
X16697068Y37826842D01*
X16809010Y37556589D01*
X16971525Y37313368D01*
X17178368Y37106525D01*
X17421589Y36944010D01*
X17691842Y36832068D01*
X17978740Y36775000D01*
X18271260Y36775000D01*
X18558158Y36832068D01*
X18828411Y36944010D01*
X19071632Y37106525D01*
X19278475Y37313368D01*
X19395000Y37487760D01*
X19511525Y37313368D01*
X19718368Y37106525D01*
X19961589Y36944010D01*
X20231842Y36832068D01*
X20518740Y36775000D01*
X20811260Y36775000D01*
X21098158Y36832068D01*
X21368411Y36944010D01*
X21611632Y37106525D01*
X21818475Y37313368D01*
X21935000Y37487760D01*
X22051525Y37313368D01*
X22258368Y37106525D01*
X22501589Y36944010D01*
X22771842Y36832068D01*
X23045201Y36777693D01*
X23045201Y36040948D01*
X18900808Y31896554D01*
X18872763Y31873538D01*
X18780914Y31761620D01*
X18736567Y31678653D01*
X18712664Y31633933D01*
X18673528Y31504922D01*
X18448368Y31354475D01*
X18241525Y31147632D01*
X18125000Y30973240D01*
X18008475Y31147632D01*
X17801632Y31354475D01*
X17558411Y31516990D01*
X17288158Y31628932D01*
X17001260Y31686000D01*
X16708740Y31686000D01*
X16421842Y31628932D01*
X16151589Y31516990D01*
X15908368Y31354475D01*
X15701525Y31147632D01*
X15585000Y30973240D01*
X15468475Y31147632D01*
X15261632Y31354475D01*
X15018411Y31516990D01*
X14748158Y31628932D01*
X14461260Y31686000D01*
X14168740Y31686000D01*
X13881842Y31628932D01*
X13611589Y31516990D01*
X13368368Y31354475D01*
X13161525Y31147632D01*
X12999010Y30904411D01*
X12887068Y30634158D01*
X12830000Y30347260D01*
X660000Y30347260D01*
X660000Y95220128D01*
X2765000Y95220128D01*
X2765000Y94779872D01*
X2850890Y94348075D01*
X3019369Y93941331D01*
X3263962Y93575271D01*
X3575271Y93263962D01*
X3941331Y93019369D01*
X4348075Y92850890D01*
X4779872Y92765000D01*
X5220128Y92765000D01*
X5651925Y92850890D01*
X6058669Y93019369D01*
X6424729Y93263962D01*
X6736038Y93575271D01*
X6980631Y93941331D01*
X7149110Y94348075D01*
X7235000Y94779872D01*
X7235000Y95220128D01*
X7149110Y95651925D01*
X6980631Y96058669D01*
X6736038Y96424729D01*
X6424729Y96736038D01*
X6058669Y96980631D01*
X5651925Y97149110D01*
X5220128Y97235000D01*
X4779872Y97235000D01*
X4348075Y97149110D01*
X3941331Y96980631D01*
X3575271Y96736038D01*
X3263962Y96424729D01*
X3019369Y96058669D01*
X2850890Y95651925D01*
X2765000Y95220128D01*
X660000Y95220128D01*
X660000Y99340000D01*
X99340001Y99340000D01*
X99340000Y660000D01*
G04 #@! TA.AperFunction,Conductor*
D22*
G36*
X99340000Y660000D02*
G01*
X660000Y660000D01*
X660000Y5220128D01*
X2765000Y5220128D01*
X2765000Y4779872D01*
X2850890Y4348075D01*
X3019369Y3941331D01*
X3263962Y3575271D01*
X3575271Y3263962D01*
X3941331Y3019369D01*
X4348075Y2850890D01*
X4779872Y2765000D01*
X5220128Y2765000D01*
X5651925Y2850890D01*
X6058669Y3019369D01*
X6424729Y3263962D01*
X6736038Y3575271D01*
X6980631Y3941331D01*
X7149110Y4348075D01*
X7235000Y4779872D01*
X7235000Y4947260D01*
X12830000Y4947260D01*
X12830000Y4654740D01*
X12887068Y4367842D01*
X12999010Y4097589D01*
X13161525Y3854368D01*
X13368368Y3647525D01*
X13542760Y3531000D01*
X13368368Y3414475D01*
X13161525Y3207632D01*
X12999010Y2964411D01*
X12887068Y2694158D01*
X12830000Y2407260D01*
X12830000Y2114740D01*
X12887068Y1827842D01*
X12999010Y1557589D01*
X13161525Y1314368D01*
X13368368Y1107525D01*
X13611589Y945010D01*
X13881842Y833068D01*
X14168740Y776000D01*
X14461260Y776000D01*
X14748158Y833068D01*
X15018411Y945010D01*
X15261632Y1107525D01*
X15468475Y1314368D01*
X15630990Y1557589D01*
X15742932Y1827842D01*
X15800000Y2114740D01*
X15800000Y2407260D01*
X15742932Y2694158D01*
X15630990Y2964411D01*
X15468475Y3207632D01*
X15261632Y3414475D01*
X15087240Y3531000D01*
X15261632Y3647525D01*
X15468475Y3854368D01*
X15630990Y4097589D01*
X15742932Y4367842D01*
X15800000Y4654740D01*
X15800000Y4947260D01*
X33150000Y4947260D01*
X33150000Y4654740D01*
X33207068Y4367842D01*
X33319010Y4097589D01*
X33481525Y3854368D01*
X33688368Y3647525D01*
X33862760Y3531000D01*
X33688368Y3414475D01*
X33481525Y3207632D01*
X33319010Y2964411D01*
X33207068Y2694158D01*
X33150000Y2407260D01*
X33150000Y2114740D01*
X33207068Y1827842D01*
X33319010Y1557589D01*
X33481525Y1314368D01*
X33688368Y1107525D01*
X33931589Y945010D01*
X34201842Y833068D01*
X34488740Y776000D01*
X34781260Y776000D01*
X35068158Y833068D01*
X35338411Y945010D01*
X35581632Y1107525D01*
X35788475Y1314368D01*
X35950990Y1557589D01*
X36062932Y1827842D01*
X36120000Y2114740D01*
X36120000Y2407260D01*
X36062932Y2694158D01*
X35950990Y2964411D01*
X35788475Y3207632D01*
X35581632Y3414475D01*
X35407240Y3531000D01*
X35581632Y3647525D01*
X35788475Y3854368D01*
X35950990Y4097589D01*
X36062932Y4367842D01*
X36120000Y4654740D01*
X36120000Y4947260D01*
X36065723Y5220128D01*
X92765000Y5220128D01*
X92765000Y4779872D01*
X92850890Y4348075D01*
X93019369Y3941331D01*
X93263962Y3575271D01*
X93575271Y3263962D01*
X93941331Y3019369D01*
X94348075Y2850890D01*
X94779872Y2765000D01*
X95220128Y2765000D01*
X95651925Y2850890D01*
X96058669Y3019369D01*
X96424729Y3263962D01*
X96736038Y3575271D01*
X96980631Y3941331D01*
X97149110Y4348075D01*
X97235000Y4779872D01*
X97235000Y5220128D01*
X97149110Y5651925D01*
X96980631Y6058669D01*
X96736038Y6424729D01*
X96424729Y6736038D01*
X96058669Y6980631D01*
X95651925Y7149110D01*
X95220128Y7235000D01*
X94779872Y7235000D01*
X94348075Y7149110D01*
X93941331Y6980631D01*
X93575271Y6736038D01*
X93263962Y6424729D01*
X93019369Y6058669D01*
X92850890Y5651925D01*
X92765000Y5220128D01*
X36065723Y5220128D01*
X36062932Y5234158D01*
X35950990Y5504411D01*
X35788475Y5747632D01*
X35581632Y5954475D01*
X35338411Y6116990D01*
X35068158Y6228932D01*
X34781260Y6286000D01*
X34488740Y6286000D01*
X34201842Y6228932D01*
X33931589Y6116990D01*
X33688368Y5954475D01*
X33481525Y5747632D01*
X33319010Y5504411D01*
X33207068Y5234158D01*
X33150000Y4947260D01*
X15800000Y4947260D01*
X15742932Y5234158D01*
X15630990Y5504411D01*
X15468475Y5747632D01*
X15261632Y5954475D01*
X15018411Y6116990D01*
X14748158Y6228932D01*
X14461260Y6286000D01*
X14168740Y6286000D01*
X13881842Y6228932D01*
X13611589Y6116990D01*
X13368368Y5954475D01*
X13161525Y5747632D01*
X12999010Y5504411D01*
X12887068Y5234158D01*
X12830000Y4947260D01*
X7235000Y4947260D01*
X7235000Y5220128D01*
X7149110Y5651925D01*
X6980631Y6058669D01*
X6736038Y6424729D01*
X6424729Y6736038D01*
X6058669Y6980631D01*
X5651925Y7149110D01*
X5220128Y7235000D01*
X4779872Y7235000D01*
X4348075Y7149110D01*
X3941331Y6980631D01*
X3575271Y6736038D01*
X3263962Y6424729D01*
X3019369Y6058669D01*
X2850890Y5651925D01*
X2765000Y5220128D01*
X660000Y5220128D01*
X660000Y12366335D01*
X42090000Y12366335D01*
X42090000Y12083665D01*
X42145147Y11806426D01*
X42253320Y11545273D01*
X42410363Y11310241D01*
X42610241Y11110363D01*
X42845273Y10953320D01*
X43106426Y10845147D01*
X43383665Y10790000D01*
X43666335Y10790000D01*
X43943574Y10845147D01*
X44204727Y10953320D01*
X44439759Y11110363D01*
X44639637Y11310241D01*
X44796680Y11545273D01*
X44904853Y11806426D01*
X44960000Y12083665D01*
X44960000Y12366335D01*
X44904853Y12643574D01*
X44796680Y12904727D01*
X44639637Y13139759D01*
X44439759Y13339637D01*
X44204727Y13496680D01*
X44194135Y13501067D01*
X44380131Y13612615D01*
X44588519Y13801586D01*
X44756037Y14027580D01*
X44876246Y14281913D01*
X44916904Y14415961D01*
X44794915Y14638000D01*
X43652000Y14638000D01*
X43652000Y14618000D01*
X43398000Y14618000D01*
X43398000Y14638000D01*
X42255085Y14638000D01*
X42133096Y14415961D01*
X42173754Y14281913D01*
X42293963Y14027580D01*
X42461481Y13801586D01*
X42669869Y13612615D01*
X42855865Y13501067D01*
X42845273Y13496680D01*
X42610241Y13339637D01*
X42410363Y13139759D01*
X42253320Y12904727D01*
X42145147Y12643574D01*
X42090000Y12366335D01*
X660000Y12366335D01*
X660000Y30347260D01*
X12830000Y30347260D01*
X12830000Y30054740D01*
X12887068Y29767842D01*
X12999010Y29497589D01*
X13161525Y29254368D01*
X13368368Y29047525D01*
X13611589Y28885010D01*
X13881842Y28773068D01*
X14168740Y28716000D01*
X14461260Y28716000D01*
X14748158Y28773068D01*
X15018411Y28885010D01*
X15261632Y29047525D01*
X15468475Y29254368D01*
X15585000Y29428760D01*
X15701525Y29254368D01*
X15908368Y29047525D01*
X16151589Y28885010D01*
X16421842Y28773068D01*
X16708740Y28716000D01*
X17001260Y28716000D01*
X17288158Y28773068D01*
X17558411Y28885010D01*
X17801632Y29047525D01*
X18008475Y29254368D01*
X18125000Y29428760D01*
X18241525Y29254368D01*
X18448368Y29047525D01*
X18691589Y28885010D01*
X18961842Y28773068D01*
X19248740Y28716000D01*
X19541260Y28716000D01*
X19828158Y28773068D01*
X20098411Y28885010D01*
X20341632Y29047525D01*
X20548475Y29254368D01*
X20665000Y29428760D01*
X20781525Y29254368D01*
X20988368Y29047525D01*
X21231589Y28885010D01*
X21501842Y28773068D01*
X21788740Y28716000D01*
X22081260Y28716000D01*
X22368158Y28773068D01*
X22638411Y28885010D01*
X22881632Y29047525D01*
X23088475Y29254368D01*
X23205000Y29428760D01*
X23321525Y29254368D01*
X23528368Y29047525D01*
X23771589Y28885010D01*
X24041842Y28773068D01*
X24328740Y28716000D01*
X24621260Y28716000D01*
X24908158Y28773068D01*
X25178411Y28885010D01*
X25421632Y29047525D01*
X25628475Y29254368D01*
X25750195Y29436534D01*
X25819822Y29319645D01*
X26014731Y29103412D01*
X26248080Y28929359D01*
X26510901Y28804175D01*
X26658110Y28759524D01*
X26888000Y28880845D01*
X26888000Y30074000D01*
X26868000Y30074000D01*
X26868000Y30328000D01*
X26888000Y30328000D01*
X26888000Y30348000D01*
X27142000Y30348000D01*
X27142000Y30328000D01*
X27162000Y30328000D01*
X27162000Y30074000D01*
X27142000Y30074000D01*
X27142000Y28880845D01*
X27371890Y28759524D01*
X27519099Y28804175D01*
X27781920Y28929359D01*
X28015269Y29103412D01*
X28210178Y29319645D01*
X28279805Y29436534D01*
X28401525Y29254368D01*
X28608368Y29047525D01*
X28851589Y28885010D01*
X29121842Y28773068D01*
X29408740Y28716000D01*
X29701260Y28716000D01*
X29988158Y28773068D01*
X30258411Y28885010D01*
X30501632Y29047525D01*
X30708475Y29254368D01*
X30825000Y29428760D01*
X30941525Y29254368D01*
X31148368Y29047525D01*
X31391589Y28885010D01*
X31661842Y28773068D01*
X31948740Y28716000D01*
X32241260Y28716000D01*
X32528158Y28773068D01*
X32798411Y28885010D01*
X33041632Y29047525D01*
X33173487Y29179380D01*
X33195498Y29106820D01*
X33254463Y28996506D01*
X33333815Y28899815D01*
X33430506Y28820463D01*
X33540820Y28761498D01*
X33660518Y28725188D01*
X33785000Y28712928D01*
X33834555Y28712928D01*
X33859828Y28629614D01*
X33923593Y28510319D01*
X33937365Y28484554D01*
X34041710Y28357409D01*
X34073574Y28331259D01*
X41920963Y20483868D01*
X41947109Y20452009D01*
X41978968Y20425863D01*
X41978970Y20425861D01*
X42074254Y20347664D01*
X42160814Y20301397D01*
X42145147Y20263574D01*
X42090000Y19986335D01*
X42090000Y19703665D01*
X42145147Y19426426D01*
X42253320Y19165273D01*
X42410363Y18930241D01*
X42610241Y18730363D01*
X42842759Y18575000D01*
X42610241Y18419637D01*
X42410363Y18219759D01*
X42253320Y17984727D01*
X42145147Y17723574D01*
X42090000Y17446335D01*
X42090000Y17163665D01*
X42145147Y16886426D01*
X42253320Y16625273D01*
X42410363Y16390241D01*
X42610241Y16190363D01*
X42845273Y16033320D01*
X42855865Y16028933D01*
X42669869Y15917385D01*
X42461481Y15728414D01*
X42293963Y15502420D01*
X42173754Y15248087D01*
X42133096Y15114039D01*
X42255085Y14892000D01*
X43398000Y14892000D01*
X43398000Y14912000D01*
X43652000Y14912000D01*
X43652000Y14892000D01*
X44794915Y14892000D01*
X44916904Y15114039D01*
X44876246Y15248087D01*
X44756037Y15502420D01*
X44588519Y15728414D01*
X44380131Y15917385D01*
X44194135Y16028933D01*
X44204727Y16033320D01*
X44439759Y16190363D01*
X44639637Y16390241D01*
X44796680Y16625273D01*
X44904853Y16886426D01*
X44960000Y17163665D01*
X44960000Y17446335D01*
X44904853Y17723574D01*
X44796680Y17984727D01*
X44639637Y18219759D01*
X44439759Y18419637D01*
X44207241Y18575000D01*
X44439759Y18730363D01*
X44639637Y18930241D01*
X44796680Y19165273D01*
X44904853Y19426426D01*
X44960000Y19703665D01*
X44960000Y19986335D01*
X44904853Y20263574D01*
X44899646Y20276144D01*
X44950363Y20200241D01*
X45150241Y20000363D01*
X45385273Y19843320D01*
X45646426Y19735147D01*
X45923665Y19680000D01*
X46206335Y19680000D01*
X46483574Y19735147D01*
X46744727Y19843320D01*
X46979759Y20000363D01*
X47179637Y20200241D01*
X47299748Y20380000D01*
X57433372Y20380000D01*
X57385147Y20263574D01*
X57330000Y19986335D01*
X57330000Y19703665D01*
X57385147Y19426426D01*
X57493320Y19165273D01*
X57650363Y18930241D01*
X57850241Y18730363D01*
X58082759Y18575000D01*
X57850241Y18419637D01*
X57650363Y18219759D01*
X57493320Y17984727D01*
X57385147Y17723574D01*
X57330000Y17446335D01*
X57330000Y17163665D01*
X57385147Y16886426D01*
X57493320Y16625273D01*
X57650363Y16390241D01*
X57850241Y16190363D01*
X58082759Y16035000D01*
X57850241Y15879637D01*
X57650363Y15679759D01*
X57493320Y15444727D01*
X57385147Y15183574D01*
X57330000Y14906335D01*
X57330000Y14623665D01*
X57385147Y14346426D01*
X57493320Y14085273D01*
X57650363Y13850241D01*
X57848961Y13651643D01*
X57840518Y13650812D01*
X57720820Y13614502D01*
X57610506Y13555537D01*
X57513815Y13476185D01*
X57434463Y13379494D01*
X57375498Y13269180D01*
X57339188Y13149482D01*
X57326928Y13025000D01*
X57326928Y11425000D01*
X57339188Y11300518D01*
X57375498Y11180820D01*
X57434463Y11070506D01*
X57513815Y10973815D01*
X57610506Y10894463D01*
X57720820Y10835498D01*
X57840518Y10799188D01*
X57965000Y10786928D01*
X59565000Y10786928D01*
X59689482Y10799188D01*
X59809180Y10835498D01*
X59919494Y10894463D01*
X60016185Y10973815D01*
X60095537Y11070506D01*
X60154502Y11180820D01*
X60190812Y11300518D01*
X60203072Y11425000D01*
X60203072Y13025000D01*
X60190812Y13149482D01*
X60154502Y13269180D01*
X60095537Y13379494D01*
X60016185Y13476185D01*
X59919494Y13555537D01*
X59809180Y13614502D01*
X59689482Y13650812D01*
X59681039Y13651643D01*
X59879637Y13850241D01*
X60036680Y14085273D01*
X60144853Y14346426D01*
X60200000Y14623665D01*
X60200000Y14906335D01*
X60144853Y15183574D01*
X60036680Y15444727D01*
X59879637Y15679759D01*
X59679759Y15879637D01*
X59447241Y16035000D01*
X59679759Y16190363D01*
X59879637Y16390241D01*
X60036680Y16625273D01*
X60144853Y16886426D01*
X60200000Y17163665D01*
X60200000Y17446335D01*
X60144853Y17723574D01*
X60036680Y17984727D01*
X59879637Y18219759D01*
X59679759Y18419637D01*
X59447241Y18575000D01*
X59679759Y18730363D01*
X59879637Y18930241D01*
X60036680Y19165273D01*
X60144853Y19426426D01*
X60200000Y19703665D01*
X60200000Y19986335D01*
X60144853Y20263574D01*
X60096628Y20380000D01*
X80723595Y20380000D01*
X80759700Y20376444D01*
X80795805Y20380000D01*
X80903785Y20390635D01*
X81042333Y20432663D01*
X81170020Y20500913D01*
X81281938Y20592762D01*
X81304959Y20620813D01*
X85026385Y24342238D01*
X85053815Y24308815D01*
X85150506Y24229463D01*
X85260820Y24170498D01*
X85380518Y24134188D01*
X85505000Y24121928D01*
X87905000Y24121928D01*
X88029482Y24134188D01*
X88149180Y24170498D01*
X88259494Y24229463D01*
X88356185Y24308815D01*
X88435537Y24405506D01*
X88494502Y24515820D01*
X88530812Y24635518D01*
X88543072Y24760000D01*
X88543072Y26360000D01*
X88530812Y26484482D01*
X88494502Y26604180D01*
X88435537Y26714494D01*
X88394430Y26764583D01*
X89150693Y27520846D01*
X89178738Y27543862D01*
X89270587Y27655780D01*
X89338837Y27783467D01*
X89380865Y27922015D01*
X89386508Y27979313D01*
X89395056Y28066099D01*
X89391500Y28102204D01*
X89391500Y68252704D01*
X89395055Y68288801D01*
X89391500Y68324898D01*
X89391500Y68324905D01*
X89380865Y68432885D01*
X89373439Y68457367D01*
X89357787Y68508963D01*
X89338837Y68571433D01*
X89270587Y68699120D01*
X89178737Y68811038D01*
X89150692Y68834054D01*
X88750559Y69234187D01*
X88727538Y69262238D01*
X88615620Y69354087D01*
X88487933Y69422337D01*
X88349385Y69464365D01*
X88344702Y69464826D01*
X88303932Y69541101D01*
X88124608Y69759608D01*
X87906101Y69938932D01*
X87773142Y70010000D01*
X87906101Y70081068D01*
X88124608Y70260392D01*
X88303932Y70478899D01*
X88437182Y70728192D01*
X88519236Y70998691D01*
X88546943Y71280000D01*
X88519236Y71561309D01*
X88437182Y71831808D01*
X88303932Y72081101D01*
X88124608Y72299608D01*
X87906101Y72478932D01*
X87773142Y72550000D01*
X87906101Y72621068D01*
X88124608Y72800392D01*
X88303932Y73018899D01*
X88437182Y73268192D01*
X88519236Y73538691D01*
X88546943Y73820000D01*
X88519236Y74101309D01*
X88437182Y74371808D01*
X88303932Y74621101D01*
X88124608Y74839608D01*
X87906101Y75018932D01*
X87656808Y75152182D01*
X87386309Y75234236D01*
X87175492Y75255000D01*
X86234508Y75255000D01*
X86023691Y75234236D01*
X85753192Y75152182D01*
X85503899Y75018932D01*
X85285392Y74839608D01*
X85106068Y74621101D01*
X85065298Y74544826D01*
X85060614Y74544365D01*
X85044043Y74539338D01*
X84922067Y74502337D01*
X84794380Y74434087D01*
X84682462Y74342238D01*
X84659446Y74314193D01*
X79671308Y69326054D01*
X79643262Y69303037D01*
X79551413Y69191119D01*
X79483163Y69063432D01*
X79467915Y69013165D01*
X79441135Y68924885D01*
X79426944Y68780800D01*
X79430500Y68744695D01*
X79430501Y60490854D01*
X79381223Y60417105D01*
X79314510Y60256045D01*
X79280500Y60085065D01*
X79280500Y59910735D01*
X79314510Y59739755D01*
X79381223Y59578695D01*
X79478076Y59433745D01*
X79601345Y59310476D01*
X79729859Y59224605D01*
X73561254Y53056000D01*
X73229885Y53056000D01*
X73279236Y53218691D01*
X73306943Y53500000D01*
X73279236Y53781309D01*
X73197182Y54051808D01*
X73063932Y54301101D01*
X72884608Y54519608D01*
X72666101Y54698932D01*
X72533142Y54770000D01*
X72666101Y54841068D01*
X72884608Y55020392D01*
X73063932Y55238899D01*
X73197182Y55488192D01*
X73279236Y55758691D01*
X73306943Y56040000D01*
X73279236Y56321309D01*
X73197182Y56591808D01*
X73063932Y56841101D01*
X72884608Y57059608D01*
X72666101Y57238932D01*
X72533142Y57310000D01*
X72666101Y57381068D01*
X72884608Y57560392D01*
X73063932Y57778899D01*
X73197182Y58028192D01*
X73279236Y58298691D01*
X73306943Y58580000D01*
X73279236Y58861309D01*
X73197182Y59131808D01*
X73063932Y59381101D01*
X72884608Y59599608D01*
X72666101Y59778932D01*
X72533142Y59850000D01*
X72666101Y59921068D01*
X72884608Y60100392D01*
X73063932Y60318899D01*
X73197182Y60568192D01*
X73279236Y60838691D01*
X73306943Y61120000D01*
X73279236Y61401309D01*
X73197297Y61671430D01*
X78376427Y66850559D01*
X78408291Y66876709D01*
X78512636Y67003854D01*
X78590172Y67148913D01*
X78637918Y67306311D01*
X78650000Y67428981D01*
X78654040Y67469999D01*
X78650000Y67511018D01*
X78650000Y76462070D01*
X78729759Y76515363D01*
X78851694Y76637298D01*
X79501903Y76637298D01*
X79573486Y76393329D01*
X79828996Y76272429D01*
X80103184Y76203700D01*
X80385512Y76189783D01*
X80665130Y76231213D01*
X80931292Y76326397D01*
X81056514Y76393329D01*
X81128097Y76637298D01*
X80315000Y77450395D01*
X79501903Y76637298D01*
X78851694Y76637298D01*
X78929637Y76715241D01*
X79063692Y76915869D01*
X79078329Y76888486D01*
X79322298Y76816903D01*
X80135395Y77630000D01*
X80494605Y77630000D01*
X81307702Y76816903D01*
X81551671Y76888486D01*
X81672571Y77143996D01*
X81741300Y77418184D01*
X81755217Y77700512D01*
X81713787Y77980130D01*
X81618603Y78246292D01*
X81551671Y78371514D01*
X81307702Y78443097D01*
X80494605Y77630000D01*
X80135395Y77630000D01*
X80121253Y77644142D01*
X80300858Y77823747D01*
X80315000Y77809605D01*
X81128097Y78622702D01*
X81056514Y78866671D01*
X80801004Y78987571D01*
X80526816Y79056300D01*
X80427084Y79061216D01*
X84349355Y82983486D01*
X84374999Y82980960D01*
X84416018Y82985000D01*
X86195375Y82985000D01*
X86204188Y82895518D01*
X86240498Y82775820D01*
X86299463Y82665506D01*
X86378815Y82568815D01*
X86475506Y82489463D01*
X86585820Y82430498D01*
X86705518Y82394188D01*
X86830000Y82381928D01*
X88430000Y82381928D01*
X88554482Y82394188D01*
X88674180Y82430498D01*
X88784494Y82489463D01*
X88881185Y82568815D01*
X88960537Y82665506D01*
X89019502Y82775820D01*
X89055812Y82895518D01*
X89068072Y83020000D01*
X89068072Y84620000D01*
X89055812Y84744482D01*
X89019502Y84864180D01*
X88960537Y84974494D01*
X88881185Y85071185D01*
X88784494Y85150537D01*
X88674180Y85209502D01*
X88554482Y85245812D01*
X88430000Y85258072D01*
X88422785Y85258072D01*
X88443097Y85327298D01*
X87630000Y86140395D01*
X86816903Y85327298D01*
X86837215Y85258072D01*
X86830000Y85258072D01*
X86705518Y85245812D01*
X86585820Y85209502D01*
X86475506Y85150537D01*
X86378815Y85071185D01*
X86299463Y84974494D01*
X86240498Y84864180D01*
X86204188Y84744482D01*
X86195375Y84655000D01*
X84720868Y84655000D01*
X83126380Y86249488D01*
X86189783Y86249488D01*
X86231213Y85969870D01*
X86326397Y85703708D01*
X86393329Y85578486D01*
X86637298Y85506903D01*
X87450395Y86320000D01*
X87809605Y86320000D01*
X88622702Y85506903D01*
X88866671Y85578486D01*
X88987571Y85833996D01*
X89056300Y86108184D01*
X89070217Y86390512D01*
X89028787Y86670130D01*
X88933603Y86936292D01*
X88866671Y87061514D01*
X88622702Y87133097D01*
X87809605Y86320000D01*
X87450395Y86320000D01*
X86637298Y87133097D01*
X86393329Y87061514D01*
X86272429Y86806004D01*
X86203700Y86531816D01*
X86189783Y86249488D01*
X83126380Y86249488D01*
X82063166Y87312702D01*
X86816903Y87312702D01*
X87630000Y86499605D01*
X88443097Y87312702D01*
X88371514Y87556671D01*
X88116004Y87677571D01*
X87841816Y87746300D01*
X87559488Y87760217D01*
X87279870Y87718787D01*
X87013708Y87623603D01*
X86888486Y87556671D01*
X86816903Y87312702D01*
X82063166Y87312702D01*
X77595867Y91780000D01*
X77616260Y91780000D01*
X77903158Y91837068D01*
X78173411Y91949010D01*
X78416632Y92111525D01*
X78623475Y92318368D01*
X78740000Y92492760D01*
X78856525Y92318368D01*
X79063368Y92111525D01*
X79306589Y91949010D01*
X79576842Y91837068D01*
X79863740Y91780000D01*
X80156260Y91780000D01*
X80443158Y91837068D01*
X80713411Y91949010D01*
X80956632Y92111525D01*
X81163475Y92318368D01*
X81325990Y92561589D01*
X81437932Y92831842D01*
X81495000Y93118740D01*
X81495000Y93411260D01*
X81437932Y93698158D01*
X81325990Y93968411D01*
X81163475Y94211632D01*
X80956632Y94418475D01*
X80780594Y94536100D01*
X81010269Y94707412D01*
X81205178Y94923645D01*
X81354157Y95173748D01*
X81370609Y95220128D01*
X92765000Y95220128D01*
X92765000Y94779872D01*
X92850890Y94348075D01*
X93019369Y93941331D01*
X93263962Y93575271D01*
X93575271Y93263962D01*
X93941331Y93019369D01*
X94348075Y92850890D01*
X94779872Y92765000D01*
X95220128Y92765000D01*
X95651925Y92850890D01*
X96058669Y93019369D01*
X96424729Y93263962D01*
X96736038Y93575271D01*
X96980631Y93941331D01*
X97149110Y94348075D01*
X97235000Y94779872D01*
X97235000Y95220128D01*
X97149110Y95651925D01*
X96980631Y96058669D01*
X96736038Y96424729D01*
X96424729Y96736038D01*
X96058669Y96980631D01*
X95651925Y97149110D01*
X95220128Y97235000D01*
X94779872Y97235000D01*
X94348075Y97149110D01*
X93941331Y96980631D01*
X93575271Y96736038D01*
X93263962Y96424729D01*
X93019369Y96058669D01*
X92850890Y95651925D01*
X92765000Y95220128D01*
X81370609Y95220128D01*
X81451481Y95448109D01*
X81330814Y95678000D01*
X80137000Y95678000D01*
X80137000Y95658000D01*
X79883000Y95658000D01*
X79883000Y95678000D01*
X79863000Y95678000D01*
X79863000Y95932000D01*
X79883000Y95932000D01*
X79883000Y97125155D01*
X80137000Y97125155D01*
X80137000Y95932000D01*
X81330814Y95932000D01*
X81451481Y96161891D01*
X81354157Y96436252D01*
X81205178Y96686355D01*
X81010269Y96902588D01*
X80776920Y97076641D01*
X80514099Y97201825D01*
X80366890Y97246476D01*
X80137000Y97125155D01*
X79883000Y97125155D01*
X79653110Y97246476D01*
X79505901Y97201825D01*
X79243080Y97076641D01*
X79042968Y96927379D01*
X77869058Y98101288D01*
X77846038Y98129338D01*
X77734120Y98221187D01*
X77606433Y98289437D01*
X77467885Y98331465D01*
X77359905Y98342100D01*
X77323800Y98345656D01*
X77287695Y98342100D01*
X39564394Y98342100D01*
X39528299Y98345655D01*
X39492204Y98342100D01*
X39492195Y98342100D01*
X39384215Y98331465D01*
X39245667Y98289437D01*
X39117980Y98221187D01*
X39006062Y98129338D01*
X38983046Y98101293D01*
X37808430Y96926677D01*
X37776632Y96958475D01*
X37533411Y97120990D01*
X37263158Y97232932D01*
X36976260Y97290000D01*
X36683740Y97290000D01*
X36396842Y97232932D01*
X36126589Y97120990D01*
X35883368Y96958475D01*
X35676525Y96751632D01*
X35560000Y96577240D01*
X35443475Y96751632D01*
X35236632Y96958475D01*
X34993411Y97120990D01*
X34723158Y97232932D01*
X34436260Y97290000D01*
X34143740Y97290000D01*
X33856842Y97232932D01*
X33586589Y97120990D01*
X33343368Y96958475D01*
X33136525Y96751632D01*
X33020000Y96577240D01*
X32903475Y96751632D01*
X32696632Y96958475D01*
X32453411Y97120990D01*
X32183158Y97232932D01*
X31896260Y97290000D01*
X31603740Y97290000D01*
X31316842Y97232932D01*
X31046589Y97120990D01*
X30803368Y96958475D01*
X30596525Y96751632D01*
X30480000Y96577240D01*
X30363475Y96751632D01*
X30156632Y96958475D01*
X29913411Y97120990D01*
X29643158Y97232932D01*
X29356260Y97290000D01*
X29063740Y97290000D01*
X28776842Y97232932D01*
X28506589Y97120990D01*
X28263368Y96958475D01*
X28056525Y96751632D01*
X27940000Y96577240D01*
X27823475Y96751632D01*
X27616632Y96958475D01*
X27373411Y97120990D01*
X27103158Y97232932D01*
X26816260Y97290000D01*
X26523740Y97290000D01*
X26236842Y97232932D01*
X25966589Y97120990D01*
X25723368Y96958475D01*
X25516525Y96751632D01*
X25400000Y96577240D01*
X25283475Y96751632D01*
X25076632Y96958475D01*
X24833411Y97120990D01*
X24563158Y97232932D01*
X24276260Y97290000D01*
X23983740Y97290000D01*
X23696842Y97232932D01*
X23426589Y97120990D01*
X23183368Y96958475D01*
X22976525Y96751632D01*
X22860000Y96577240D01*
X22743475Y96751632D01*
X22536632Y96958475D01*
X22293411Y97120990D01*
X22023158Y97232932D01*
X21736260Y97290000D01*
X21443740Y97290000D01*
X21156842Y97232932D01*
X20886589Y97120990D01*
X20643368Y96958475D01*
X20436525Y96751632D01*
X20320000Y96577240D01*
X20203475Y96751632D01*
X19996632Y96958475D01*
X19753411Y97120990D01*
X19483158Y97232932D01*
X19196260Y97290000D01*
X18903740Y97290000D01*
X18616842Y97232932D01*
X18346589Y97120990D01*
X18103368Y96958475D01*
X17896525Y96751632D01*
X17734010Y96508411D01*
X17622068Y96238158D01*
X17565000Y95951260D01*
X17565000Y95658740D01*
X17622068Y95371842D01*
X17734010Y95101589D01*
X17896525Y94858368D01*
X18028380Y94726513D01*
X17955820Y94704502D01*
X17845506Y94645537D01*
X17748815Y94566185D01*
X17669463Y94469494D01*
X17610498Y94359180D01*
X17574188Y94239482D01*
X17561928Y94115000D01*
X17561928Y92415000D01*
X17574188Y92290518D01*
X17610498Y92170820D01*
X17669463Y92060506D01*
X17748815Y91963815D01*
X17845506Y91884463D01*
X17955820Y91825498D01*
X18075518Y91789188D01*
X18200000Y91776928D01*
X19900000Y91776928D01*
X20024482Y91789188D01*
X20144180Y91825498D01*
X20254494Y91884463D01*
X20351185Y91963815D01*
X20430537Y92060506D01*
X20489502Y92170820D01*
X20511513Y92243380D01*
X20643368Y92111525D01*
X20886589Y91949010D01*
X21156842Y91837068D01*
X21443740Y91780000D01*
X21736260Y91780000D01*
X22023158Y91837068D01*
X22293411Y91949010D01*
X22536632Y92111525D01*
X22743475Y92318368D01*
X22860000Y92492760D01*
X22976525Y92318368D01*
X23183368Y92111525D01*
X23426589Y91949010D01*
X23696842Y91837068D01*
X23983740Y91780000D01*
X24005353Y91780000D01*
X14450508Y82225154D01*
X14422462Y82202137D01*
X14330613Y82090219D01*
X14262363Y81962532D01*
X14238648Y81884355D01*
X14220335Y81823985D01*
X14206144Y81679900D01*
X14209700Y81643795D01*
X14209701Y78711115D01*
X14206144Y78675000D01*
X14220335Y78530915D01*
X14262363Y78392367D01*
X14330613Y78264680D01*
X14422462Y78152762D01*
X14534380Y78060913D01*
X14662067Y77992663D01*
X14800615Y77950635D01*
X14805298Y77950174D01*
X14846068Y77873899D01*
X15025392Y77655392D01*
X15243899Y77476068D01*
X15376858Y77405000D01*
X15243899Y77333932D01*
X15025392Y77154608D01*
X14846068Y76936101D01*
X14805298Y76859826D01*
X14800615Y76859365D01*
X14662067Y76817337D01*
X14534380Y76749087D01*
X14422462Y76657238D01*
X14330613Y76545320D01*
X14262363Y76417633D01*
X14220335Y76279085D01*
X14206144Y76135000D01*
X14209700Y76098895D01*
X14209701Y64666415D01*
X14206144Y64630300D01*
X14220335Y64486215D01*
X14251232Y64384365D01*
X14262364Y64347667D01*
X14330614Y64219980D01*
X14422463Y64108062D01*
X14450508Y64085046D01*
X31595146Y46940407D01*
X31618162Y46912362D01*
X31730080Y46820513D01*
X31857767Y46752263D01*
X31954286Y46722984D01*
X31996314Y46710235D01*
X32010532Y46708835D01*
X32104295Y46699600D01*
X32104302Y46699600D01*
X32140399Y46696045D01*
X32176496Y46699600D01*
X60485654Y46699600D01*
X61123137Y46062116D01*
X61087876Y46026855D01*
X60991023Y45881905D01*
X60924310Y45720845D01*
X60890300Y45549865D01*
X60890300Y45375535D01*
X60924310Y45204555D01*
X60991023Y45043495D01*
X61087876Y44898545D01*
X61211145Y44775276D01*
X61356095Y44678423D01*
X61517155Y44611710D01*
X61604148Y44594406D01*
X69229701Y36968852D01*
X69229700Y35756105D01*
X69226144Y35720000D01*
X69240335Y35575915D01*
X69282363Y35437367D01*
X69350613Y35309680D01*
X69442462Y35197762D01*
X69458012Y35185000D01*
X66072505Y35185000D01*
X66036400Y35188556D01*
X65892315Y35174365D01*
X65753766Y35132337D01*
X65626080Y35064087D01*
X65514162Y34972238D01*
X65491146Y34944193D01*
X65096954Y34550000D01*
X60096628Y34550000D01*
X60144853Y34666426D01*
X60200000Y34943665D01*
X60200000Y35226335D01*
X60144853Y35503574D01*
X60036680Y35764727D01*
X59879637Y35999759D01*
X59679759Y36199637D01*
X59447241Y36355000D01*
X59679759Y36510363D01*
X59879637Y36710241D01*
X60036680Y36945273D01*
X60144853Y37206426D01*
X60200000Y37483665D01*
X60200000Y37766335D01*
X60144853Y38043574D01*
X60036680Y38304727D01*
X59879637Y38539759D01*
X59679759Y38739637D01*
X59447241Y38895000D01*
X59679759Y39050363D01*
X59879637Y39250241D01*
X60036680Y39485273D01*
X60144853Y39746426D01*
X60200000Y40023665D01*
X60200000Y40306335D01*
X60144853Y40583574D01*
X60036680Y40844727D01*
X59879637Y41079759D01*
X59679759Y41279637D01*
X59444727Y41436680D01*
X59183574Y41544853D01*
X58906335Y41600000D01*
X58623665Y41600000D01*
X58346426Y41544853D01*
X58085273Y41436680D01*
X57850241Y41279637D01*
X57650363Y41079759D01*
X57493320Y40844727D01*
X57385147Y40583574D01*
X57330000Y40306335D01*
X57330000Y40023665D01*
X57385147Y39746426D01*
X57493320Y39485273D01*
X57650363Y39250241D01*
X57850241Y39050363D01*
X58082759Y38895000D01*
X57850241Y38739637D01*
X57650363Y38539759D01*
X57493320Y38304727D01*
X57385147Y38043574D01*
X57330000Y37766335D01*
X57330000Y37483665D01*
X57385147Y37206426D01*
X57493320Y36945273D01*
X57650363Y36710241D01*
X57850241Y36510363D01*
X58082759Y36355000D01*
X57850241Y36199637D01*
X57650363Y35999759D01*
X57493320Y35764727D01*
X57385147Y35503574D01*
X57330000Y35226335D01*
X57330000Y34943665D01*
X57385147Y34666426D01*
X57433372Y34550000D01*
X51175305Y34550000D01*
X51139200Y34553556D01*
X50995115Y34539365D01*
X50856566Y34497337D01*
X50728880Y34429087D01*
X50616962Y34337238D01*
X50593946Y34309193D01*
X47500000Y31215246D01*
X47500000Y31416335D01*
X47444853Y31693574D01*
X47336680Y31954727D01*
X47179637Y32189759D01*
X46979759Y32389637D01*
X46747241Y32545000D01*
X46979759Y32700363D01*
X47179637Y32900241D01*
X47336680Y33135273D01*
X47444853Y33396426D01*
X47500000Y33673665D01*
X47500000Y33956335D01*
X47444853Y34233574D01*
X47336680Y34494727D01*
X47179637Y34729759D01*
X46979759Y34929637D01*
X46744727Y35086680D01*
X46483574Y35194853D01*
X46206335Y35250000D01*
X45923665Y35250000D01*
X45646426Y35194853D01*
X45385273Y35086680D01*
X45150241Y34929637D01*
X44950363Y34729759D01*
X44899646Y34653856D01*
X44904853Y34666426D01*
X44960000Y34943665D01*
X44960000Y35226335D01*
X44904853Y35503574D01*
X44796680Y35764727D01*
X44639637Y35999759D01*
X44439759Y36199637D01*
X44207241Y36355000D01*
X44439759Y36510363D01*
X44639637Y36710241D01*
X44796680Y36945273D01*
X44904853Y37206426D01*
X44960000Y37483665D01*
X44960000Y37766335D01*
X44904853Y38043574D01*
X44796680Y38304727D01*
X44639637Y38539759D01*
X44439759Y38739637D01*
X44207241Y38895000D01*
X44439759Y39050363D01*
X44639637Y39250241D01*
X44796680Y39485273D01*
X44904853Y39746426D01*
X44960000Y40023665D01*
X44960000Y40306335D01*
X44904853Y40583574D01*
X44796680Y40844727D01*
X44639637Y41079759D01*
X44439759Y41279637D01*
X44204727Y41436680D01*
X43943574Y41544853D01*
X43666335Y41600000D01*
X43383665Y41600000D01*
X43106426Y41544853D01*
X42845273Y41436680D01*
X42610241Y41279637D01*
X42410363Y41079759D01*
X42290252Y40900000D01*
X20977994Y40900000D01*
X20941899Y40903555D01*
X20905804Y40900000D01*
X20905795Y40900000D01*
X20797815Y40889365D01*
X20659267Y40847337D01*
X20531580Y40779087D01*
X20419662Y40687238D01*
X20396646Y40659193D01*
X19111280Y39373827D01*
X19071632Y39413475D01*
X18828411Y39575990D01*
X18558158Y39687932D01*
X18271260Y39745000D01*
X17978740Y39745000D01*
X17691842Y39687932D01*
X17421589Y39575990D01*
X17178368Y39413475D01*
X16971525Y39206632D01*
X16809010Y38963411D01*
X16697068Y38693158D01*
X16640000Y38406260D01*
X16640000Y38113740D01*
X16697068Y37826842D01*
X16809010Y37556589D01*
X16971525Y37313368D01*
X17178368Y37106525D01*
X17421589Y36944010D01*
X17691842Y36832068D01*
X17978740Y36775000D01*
X18271260Y36775000D01*
X18558158Y36832068D01*
X18828411Y36944010D01*
X19071632Y37106525D01*
X19278475Y37313368D01*
X19395000Y37487760D01*
X19511525Y37313368D01*
X19718368Y37106525D01*
X19961589Y36944010D01*
X20231842Y36832068D01*
X20518740Y36775000D01*
X20811260Y36775000D01*
X21098158Y36832068D01*
X21368411Y36944010D01*
X21611632Y37106525D01*
X21818475Y37313368D01*
X21935000Y37487760D01*
X22051525Y37313368D01*
X22258368Y37106525D01*
X22501589Y36944010D01*
X22771842Y36832068D01*
X23045201Y36777693D01*
X23045201Y36040948D01*
X18900808Y31896554D01*
X18872763Y31873538D01*
X18780914Y31761620D01*
X18736567Y31678653D01*
X18712664Y31633933D01*
X18673528Y31504922D01*
X18448368Y31354475D01*
X18241525Y31147632D01*
X18125000Y30973240D01*
X18008475Y31147632D01*
X17801632Y31354475D01*
X17558411Y31516990D01*
X17288158Y31628932D01*
X17001260Y31686000D01*
X16708740Y31686000D01*
X16421842Y31628932D01*
X16151589Y31516990D01*
X15908368Y31354475D01*
X15701525Y31147632D01*
X15585000Y30973240D01*
X15468475Y31147632D01*
X15261632Y31354475D01*
X15018411Y31516990D01*
X14748158Y31628932D01*
X14461260Y31686000D01*
X14168740Y31686000D01*
X13881842Y31628932D01*
X13611589Y31516990D01*
X13368368Y31354475D01*
X13161525Y31147632D01*
X12999010Y30904411D01*
X12887068Y30634158D01*
X12830000Y30347260D01*
X660000Y30347260D01*
X660000Y95220128D01*
X2765000Y95220128D01*
X2765000Y94779872D01*
X2850890Y94348075D01*
X3019369Y93941331D01*
X3263962Y93575271D01*
X3575271Y93263962D01*
X3941331Y93019369D01*
X4348075Y92850890D01*
X4779872Y92765000D01*
X5220128Y92765000D01*
X5651925Y92850890D01*
X6058669Y93019369D01*
X6424729Y93263962D01*
X6736038Y93575271D01*
X6980631Y93941331D01*
X7149110Y94348075D01*
X7235000Y94779872D01*
X7235000Y95220128D01*
X7149110Y95651925D01*
X6980631Y96058669D01*
X6736038Y96424729D01*
X6424729Y96736038D01*
X6058669Y96980631D01*
X5651925Y97149110D01*
X5220128Y97235000D01*
X4779872Y97235000D01*
X4348075Y97149110D01*
X3941331Y96980631D01*
X3575271Y96736038D01*
X3263962Y96424729D01*
X3019369Y96058669D01*
X2850890Y95651925D01*
X2765000Y95220128D01*
X660000Y95220128D01*
X660000Y99340000D01*
X99340001Y99340000D01*
X99340000Y660000D01*
G37*
G04 #@! TD.AperFunction*
D21*
X84522363Y45597367D02*
X84590613Y45469680D01*
X84682462Y45357762D01*
X84794380Y45265913D01*
X84922067Y45197663D01*
X85060615Y45155635D01*
X85065298Y45155174D01*
X85106068Y45078899D01*
X85285392Y44860392D01*
X85503899Y44681068D01*
X85636858Y44610000D01*
X85503899Y44538932D01*
X85285392Y44359608D01*
X85106068Y44141101D01*
X84972818Y43891808D01*
X84890764Y43621309D01*
X84863057Y43340000D01*
X84890764Y43058691D01*
X84972818Y42788192D01*
X85106068Y42538899D01*
X85285392Y42320392D01*
X85503899Y42141068D01*
X85631741Y42072735D01*
X85402161Y41922601D01*
X85200500Y41724895D01*
X85041285Y41491646D01*
X84930633Y41231818D01*
X84913096Y41149039D01*
X85035085Y40927000D01*
X86578000Y40927000D01*
X86578000Y40947000D01*
X86832000Y40947000D01*
X86832000Y40927000D01*
X86852000Y40927000D01*
X86852000Y40673000D01*
X86832000Y40673000D01*
X86832000Y40653000D01*
X86578000Y40653000D01*
X86578000Y40673000D01*
X85035085Y40673000D01*
X84913096Y40450961D01*
X84930633Y40368182D01*
X85041285Y40108354D01*
X85200500Y39875105D01*
X85402161Y39677399D01*
X85631741Y39527265D01*
X85503899Y39458932D01*
X85285392Y39279608D01*
X85106068Y39061101D01*
X84972818Y38811808D01*
X84890764Y38541309D01*
X84863057Y38260000D01*
X84890764Y37978691D01*
X84972818Y37708192D01*
X85106068Y37458899D01*
X85285392Y37240392D01*
X85503899Y37061068D01*
X85636858Y36990000D01*
X85503899Y36918932D01*
X85285392Y36739608D01*
X85106068Y36521101D01*
X84972818Y36271808D01*
X84890764Y36001309D01*
X84863057Y35720000D01*
X84890764Y35438691D01*
X84972818Y35168192D01*
X85106068Y34918899D01*
X85285392Y34700392D01*
X85503899Y34521068D01*
X85636858Y34450000D01*
X85503899Y34378932D01*
X85285392Y34199608D01*
X85106068Y33981101D01*
X85065298Y33904826D01*
X85060615Y33904365D01*
X84922067Y33862337D01*
X84794380Y33794087D01*
X84682462Y33702238D01*
X84659446Y33674193D01*
X83630254Y32645000D01*
X73202281Y32645000D01*
X73279236Y32898691D01*
X73306943Y33180000D01*
X73279236Y33461309D01*
X73197182Y33731808D01*
X73063932Y33981101D01*
X72937457Y34135211D01*
X84341593Y45539346D01*
X84369638Y45562362D01*
X84461487Y45674280D01*
X84485439Y45719090D01*
X84522363Y45597367D01*
G04 #@! TA.AperFunction,Conductor*
D22*
G36*
X84522363Y45597367D02*
G01*
X84590613Y45469680D01*
X84682462Y45357762D01*
X84794380Y45265913D01*
X84922067Y45197663D01*
X85060615Y45155635D01*
X85065298Y45155174D01*
X85106068Y45078899D01*
X85285392Y44860392D01*
X85503899Y44681068D01*
X85636858Y44610000D01*
X85503899Y44538932D01*
X85285392Y44359608D01*
X85106068Y44141101D01*
X84972818Y43891808D01*
X84890764Y43621309D01*
X84863057Y43340000D01*
X84890764Y43058691D01*
X84972818Y42788192D01*
X85106068Y42538899D01*
X85285392Y42320392D01*
X85503899Y42141068D01*
X85631741Y42072735D01*
X85402161Y41922601D01*
X85200500Y41724895D01*
X85041285Y41491646D01*
X84930633Y41231818D01*
X84913096Y41149039D01*
X85035085Y40927000D01*
X86578000Y40927000D01*
X86578000Y40947000D01*
X86832000Y40947000D01*
X86832000Y40927000D01*
X86852000Y40927000D01*
X86852000Y40673000D01*
X86832000Y40673000D01*
X86832000Y40653000D01*
X86578000Y40653000D01*
X86578000Y40673000D01*
X85035085Y40673000D01*
X84913096Y40450961D01*
X84930633Y40368182D01*
X85041285Y40108354D01*
X85200500Y39875105D01*
X85402161Y39677399D01*
X85631741Y39527265D01*
X85503899Y39458932D01*
X85285392Y39279608D01*
X85106068Y39061101D01*
X84972818Y38811808D01*
X84890764Y38541309D01*
X84863057Y38260000D01*
X84890764Y37978691D01*
X84972818Y37708192D01*
X85106068Y37458899D01*
X85285392Y37240392D01*
X85503899Y37061068D01*
X85636858Y36990000D01*
X85503899Y36918932D01*
X85285392Y36739608D01*
X85106068Y36521101D01*
X84972818Y36271808D01*
X84890764Y36001309D01*
X84863057Y35720000D01*
X84890764Y35438691D01*
X84972818Y35168192D01*
X85106068Y34918899D01*
X85285392Y34700392D01*
X85503899Y34521068D01*
X85636858Y34450000D01*
X85503899Y34378932D01*
X85285392Y34199608D01*
X85106068Y33981101D01*
X85065298Y33904826D01*
X85060615Y33904365D01*
X84922067Y33862337D01*
X84794380Y33794087D01*
X84682462Y33702238D01*
X84659446Y33674193D01*
X83630254Y32645000D01*
X73202281Y32645000D01*
X73279236Y32898691D01*
X73306943Y33180000D01*
X73279236Y33461309D01*
X73197182Y33731808D01*
X73063932Y33981101D01*
X72937457Y34135211D01*
X84341593Y45539346D01*
X84369638Y45562362D01*
X84461487Y45674280D01*
X84485439Y45719090D01*
X84522363Y45597367D01*
G37*
G04 #@! TD.AperFunction*
D21*
X41879446Y37130807D02*
X41902462Y37102762D01*
X42014380Y37010913D01*
X42142067Y36942663D01*
X42280615Y36900635D01*
X42283324Y36900368D01*
X42410363Y36710241D01*
X42610241Y36510363D01*
X42842759Y36355000D01*
X42610241Y36199637D01*
X42410363Y35999759D01*
X42290252Y35820000D01*
X28163747Y35820000D01*
X27630300Y36353446D01*
X27630300Y36923833D01*
X27851842Y36832068D01*
X28138740Y36775000D01*
X28431260Y36775000D01*
X28718158Y36832068D01*
X28988411Y36944010D01*
X29231632Y37106525D01*
X29363487Y37238380D01*
X29385498Y37165820D01*
X29444463Y37055506D01*
X29523815Y36958815D01*
X29620506Y36879463D01*
X29730820Y36820498D01*
X29850518Y36784188D01*
X29975000Y36771928D01*
X30539250Y36775000D01*
X30698000Y36933750D01*
X30698000Y38133000D01*
X30952000Y38133000D01*
X30952000Y36933750D01*
X31110750Y36775000D01*
X31675000Y36771928D01*
X31799482Y36784188D01*
X31919180Y36820498D01*
X32029494Y36879463D01*
X32126185Y36958815D01*
X32205537Y37055506D01*
X32264502Y37165820D01*
X32300812Y37285518D01*
X32313072Y37410000D01*
X32310000Y37974250D01*
X32151250Y38133000D01*
X30952000Y38133000D01*
X30698000Y38133000D01*
X30678000Y38133000D01*
X30678000Y38387000D01*
X30698000Y38387000D01*
X30698000Y38407000D01*
X30952000Y38407000D01*
X30952000Y38387000D01*
X32151250Y38387000D01*
X32310000Y38545750D01*
X32310844Y38700800D01*
X40309454Y38700800D01*
X41879446Y37130807D01*
G04 #@! TA.AperFunction,Conductor*
D22*
G36*
X41879446Y37130807D02*
G01*
X41902462Y37102762D01*
X42014380Y37010913D01*
X42142067Y36942663D01*
X42280615Y36900635D01*
X42283324Y36900368D01*
X42410363Y36710241D01*
X42610241Y36510363D01*
X42842759Y36355000D01*
X42610241Y36199637D01*
X42410363Y35999759D01*
X42290252Y35820000D01*
X28163747Y35820000D01*
X27630300Y36353446D01*
X27630300Y36923833D01*
X27851842Y36832068D01*
X28138740Y36775000D01*
X28431260Y36775000D01*
X28718158Y36832068D01*
X28988411Y36944010D01*
X29231632Y37106525D01*
X29363487Y37238380D01*
X29385498Y37165820D01*
X29444463Y37055506D01*
X29523815Y36958815D01*
X29620506Y36879463D01*
X29730820Y36820498D01*
X29850518Y36784188D01*
X29975000Y36771928D01*
X30539250Y36775000D01*
X30698000Y36933750D01*
X30698000Y38133000D01*
X30952000Y38133000D01*
X30952000Y36933750D01*
X31110750Y36775000D01*
X31675000Y36771928D01*
X31799482Y36784188D01*
X31919180Y36820498D01*
X32029494Y36879463D01*
X32126185Y36958815D01*
X32205537Y37055506D01*
X32264502Y37165820D01*
X32300812Y37285518D01*
X32313072Y37410000D01*
X32310000Y37974250D01*
X32151250Y38133000D01*
X30952000Y38133000D01*
X30698000Y38133000D01*
X30678000Y38133000D01*
X30678000Y38387000D01*
X30698000Y38387000D01*
X30698000Y38407000D01*
X30952000Y38407000D01*
X30952000Y38387000D01*
X32151250Y38387000D01*
X32310000Y38545750D01*
X32310844Y38700800D01*
X40309454Y38700800D01*
X41879446Y37130807D01*
G37*
G04 #@! TD.AperFunction*
D21*
X30265392Y64955392D02*
X30483899Y64776068D01*
X30733192Y64642818D01*
X31003691Y64560764D01*
X31214508Y64540000D01*
X31939133Y64540000D01*
X33254868Y63224264D01*
X33110363Y63079759D01*
X32953320Y62844727D01*
X32845147Y62583574D01*
X32790000Y62306335D01*
X32790000Y62023665D01*
X32845147Y61746426D01*
X32953320Y61485273D01*
X33110363Y61250241D01*
X33310241Y61050363D01*
X33524799Y60907000D01*
X33190840Y60907000D01*
X33133677Y61045005D01*
X33036824Y61189955D01*
X32913555Y61313224D01*
X32768605Y61410077D01*
X32607545Y61476790D01*
X32436565Y61510800D01*
X32262235Y61510800D01*
X32091255Y61476790D01*
X31930195Y61410077D01*
X31785245Y61313224D01*
X31661976Y61189955D01*
X31565123Y61045005D01*
X31498410Y60883945D01*
X31464400Y60712965D01*
X31464400Y60538635D01*
X31498410Y60367655D01*
X31565123Y60206595D01*
X31661976Y60061645D01*
X31785245Y59938376D01*
X31930195Y59841523D01*
X32091255Y59774810D01*
X32178248Y59757506D01*
X32186155Y59749599D01*
X32097165Y59767300D01*
X31922835Y59767300D01*
X31751855Y59733290D01*
X31590795Y59666577D01*
X31445845Y59569724D01*
X31322576Y59446455D01*
X31225723Y59301505D01*
X31159010Y59140445D01*
X31125000Y58969465D01*
X31125000Y58795135D01*
X31159010Y58624155D01*
X31225723Y58463095D01*
X31322576Y58318145D01*
X31445845Y58194876D01*
X31590795Y58098023D01*
X31751855Y58031310D01*
X31838848Y58014006D01*
X33578546Y56274307D01*
X33601562Y56246262D01*
X33629606Y56223247D01*
X33713480Y56154413D01*
X33841166Y56086163D01*
X33979715Y56044135D01*
X34123800Y56029944D01*
X34159905Y56033500D01*
X53691754Y56033500D01*
X69419446Y40305807D01*
X69442462Y40277762D01*
X69554380Y40185913D01*
X69682067Y40117663D01*
X69820615Y40075635D01*
X69825298Y40075174D01*
X69866068Y39998899D01*
X70045392Y39780392D01*
X70263899Y39601068D01*
X70396858Y39530000D01*
X70263899Y39458932D01*
X70045392Y39279608D01*
X70017962Y39246185D01*
X61335359Y47928787D01*
X61312338Y47956838D01*
X61200420Y48048687D01*
X61072733Y48116937D01*
X60934185Y48158965D01*
X60826205Y48169600D01*
X60790100Y48173156D01*
X60753995Y48169600D01*
X32444847Y48169600D01*
X19698536Y60915910D01*
X19899759Y61050363D01*
X20021694Y61172298D01*
X20671903Y61172298D01*
X20743486Y60928329D01*
X20998996Y60807429D01*
X21273184Y60738700D01*
X21555512Y60724783D01*
X21835130Y60766213D01*
X22101292Y60861397D01*
X22226514Y60928329D01*
X22298097Y61172298D01*
X21485000Y61985395D01*
X20671903Y61172298D01*
X20021694Y61172298D01*
X20099637Y61250241D01*
X20233692Y61450869D01*
X20248329Y61423486D01*
X20492298Y61351903D01*
X21305395Y62165000D01*
X21291253Y62179142D01*
X21470858Y62358747D01*
X21485000Y62344605D01*
X21499143Y62358747D01*
X21678748Y62179142D01*
X21664605Y62165000D01*
X22477702Y61351903D01*
X22721671Y61423486D01*
X22842571Y61678996D01*
X22911300Y61953184D01*
X22925217Y62235512D01*
X22883787Y62515130D01*
X22878326Y62530400D01*
X27434082Y62530400D01*
X27475100Y62526360D01*
X27516118Y62530400D01*
X27516119Y62530400D01*
X27638789Y62542482D01*
X27796187Y62590228D01*
X27941246Y62667764D01*
X28068391Y62772109D01*
X28094546Y62803979D01*
X30256633Y64966065D01*
X30265392Y64955392D01*
G04 #@! TA.AperFunction,Conductor*
D22*
G36*
X30265392Y64955392D02*
G01*
X30483899Y64776068D01*
X30733192Y64642818D01*
X31003691Y64560764D01*
X31214508Y64540000D01*
X31939133Y64540000D01*
X33254868Y63224264D01*
X33110363Y63079759D01*
X32953320Y62844727D01*
X32845147Y62583574D01*
X32790000Y62306335D01*
X32790000Y62023665D01*
X32845147Y61746426D01*
X32953320Y61485273D01*
X33110363Y61250241D01*
X33310241Y61050363D01*
X33524799Y60907000D01*
X33190840Y60907000D01*
X33133677Y61045005D01*
X33036824Y61189955D01*
X32913555Y61313224D01*
X32768605Y61410077D01*
X32607545Y61476790D01*
X32436565Y61510800D01*
X32262235Y61510800D01*
X32091255Y61476790D01*
X31930195Y61410077D01*
X31785245Y61313224D01*
X31661976Y61189955D01*
X31565123Y61045005D01*
X31498410Y60883945D01*
X31464400Y60712965D01*
X31464400Y60538635D01*
X31498410Y60367655D01*
X31565123Y60206595D01*
X31661976Y60061645D01*
X31785245Y59938376D01*
X31930195Y59841523D01*
X32091255Y59774810D01*
X32178248Y59757506D01*
X32186155Y59749599D01*
X32097165Y59767300D01*
X31922835Y59767300D01*
X31751855Y59733290D01*
X31590795Y59666577D01*
X31445845Y59569724D01*
X31322576Y59446455D01*
X31225723Y59301505D01*
X31159010Y59140445D01*
X31125000Y58969465D01*
X31125000Y58795135D01*
X31159010Y58624155D01*
X31225723Y58463095D01*
X31322576Y58318145D01*
X31445845Y58194876D01*
X31590795Y58098023D01*
X31751855Y58031310D01*
X31838848Y58014006D01*
X33578546Y56274307D01*
X33601562Y56246262D01*
X33629606Y56223247D01*
X33713480Y56154413D01*
X33841166Y56086163D01*
X33979715Y56044135D01*
X34123800Y56029944D01*
X34159905Y56033500D01*
X53691754Y56033500D01*
X69419446Y40305807D01*
X69442462Y40277762D01*
X69554380Y40185913D01*
X69682067Y40117663D01*
X69820615Y40075635D01*
X69825298Y40075174D01*
X69866068Y39998899D01*
X70045392Y39780392D01*
X70263899Y39601068D01*
X70396858Y39530000D01*
X70263899Y39458932D01*
X70045392Y39279608D01*
X70017962Y39246185D01*
X61335359Y47928787D01*
X61312338Y47956838D01*
X61200420Y48048687D01*
X61072733Y48116937D01*
X60934185Y48158965D01*
X60826205Y48169600D01*
X60790100Y48173156D01*
X60753995Y48169600D01*
X32444847Y48169600D01*
X19698536Y60915910D01*
X19899759Y61050363D01*
X20021694Y61172298D01*
X20671903Y61172298D01*
X20743486Y60928329D01*
X20998996Y60807429D01*
X21273184Y60738700D01*
X21555512Y60724783D01*
X21835130Y60766213D01*
X22101292Y60861397D01*
X22226514Y60928329D01*
X22298097Y61172298D01*
X21485000Y61985395D01*
X20671903Y61172298D01*
X20021694Y61172298D01*
X20099637Y61250241D01*
X20233692Y61450869D01*
X20248329Y61423486D01*
X20492298Y61351903D01*
X21305395Y62165000D01*
X21291253Y62179142D01*
X21470858Y62358747D01*
X21485000Y62344605D01*
X21499143Y62358747D01*
X21678748Y62179142D01*
X21664605Y62165000D01*
X22477702Y61351903D01*
X22721671Y61423486D01*
X22842571Y61678996D01*
X22911300Y61953184D01*
X22925217Y62235512D01*
X22883787Y62515130D01*
X22878326Y62530400D01*
X27434082Y62530400D01*
X27475100Y62526360D01*
X27516118Y62530400D01*
X27516119Y62530400D01*
X27638789Y62542482D01*
X27796187Y62590228D01*
X27941246Y62667764D01*
X28068391Y62772109D01*
X28094546Y62803979D01*
X30256633Y64966065D01*
X30265392Y64955392D01*
G37*
G04 #@! TD.AperFunction*
D21*
X35268310Y61110045D02*
X35234300Y60939065D01*
X35234300Y60907000D01*
X34925201Y60907000D01*
X35139759Y61050363D01*
X35317007Y61227611D01*
X35268310Y61110045D01*
G04 #@! TA.AperFunction,Conductor*
D22*
G36*
X35268310Y61110045D02*
G01*
X35234300Y60939065D01*
X35234300Y60907000D01*
X34925201Y60907000D01*
X35139759Y61050363D01*
X35317007Y61227611D01*
X35268310Y61110045D01*
G37*
G04 #@! TD.AperFunction*
D21*
X35911903Y63157702D02*
X36725000Y62344605D01*
X37538097Y63157702D01*
X37479298Y63358100D01*
X48996095Y63358100D01*
X49129891Y63224287D01*
X48985363Y63079759D01*
X48828320Y62844727D01*
X48720147Y62583574D01*
X48665000Y62306335D01*
X48665000Y62023665D01*
X48720147Y61746426D01*
X48828320Y61485273D01*
X48985363Y61250241D01*
X49085304Y61150300D01*
X37748647Y61150300D01*
X37833977Y61235630D01*
X37717704Y61351903D01*
X37961671Y61423486D01*
X38082571Y61678996D01*
X38151300Y61953184D01*
X38165217Y62235512D01*
X38123787Y62515130D01*
X38028603Y62781292D01*
X37961671Y62906514D01*
X37717702Y62978097D01*
X36904605Y62165000D01*
X36918748Y62150857D01*
X36739143Y61971252D01*
X36725000Y61985395D01*
X36710858Y61971252D01*
X36531253Y62150857D01*
X36545395Y62165000D01*
X35732298Y62978097D01*
X35488329Y62906514D01*
X35474676Y62877659D01*
X35339637Y63079759D01*
X35195132Y63224264D01*
X35328968Y63358100D01*
X35970702Y63358100D01*
X35911903Y63157702D01*
G04 #@! TA.AperFunction,Conductor*
D22*
G36*
X35911903Y63157702D02*
G01*
X36725000Y62344605D01*
X37538097Y63157702D01*
X37479298Y63358100D01*
X48996095Y63358100D01*
X49129891Y63224287D01*
X48985363Y63079759D01*
X48828320Y62844727D01*
X48720147Y62583574D01*
X48665000Y62306335D01*
X48665000Y62023665D01*
X48720147Y61746426D01*
X48828320Y61485273D01*
X48985363Y61250241D01*
X49085304Y61150300D01*
X37748647Y61150300D01*
X37833977Y61235630D01*
X37717704Y61351903D01*
X37961671Y61423486D01*
X38082571Y61678996D01*
X38151300Y61953184D01*
X38165217Y62235512D01*
X38123787Y62515130D01*
X38028603Y62781292D01*
X37961671Y62906514D01*
X37717702Y62978097D01*
X36904605Y62165000D01*
X36918748Y62150857D01*
X36739143Y61971252D01*
X36725000Y61985395D01*
X36710858Y61971252D01*
X36531253Y62150857D01*
X36545395Y62165000D01*
X35732298Y62978097D01*
X35488329Y62906514D01*
X35474676Y62877659D01*
X35339637Y63079759D01*
X35195132Y63224264D01*
X35328968Y63358100D01*
X35970702Y63358100D01*
X35911903Y63157702D01*
G37*
G04 #@! TD.AperFunction*
D21*
X52793748Y62179142D02*
X52779605Y62165000D01*
X52793748Y62150857D01*
X52614143Y61971252D01*
X52600000Y61985395D01*
X52585858Y61971252D01*
X52406253Y62150857D01*
X52420395Y62165000D01*
X52406253Y62179142D01*
X52585858Y62358747D01*
X52600000Y62344605D01*
X52614143Y62358747D01*
X52793748Y62179142D01*
G04 #@! TA.AperFunction,Conductor*
D22*
G36*
X52793748Y62179142D02*
G01*
X52779605Y62165000D01*
X52793748Y62150857D01*
X52614143Y61971252D01*
X52600000Y61985395D01*
X52585858Y61971252D01*
X52406253Y62150857D01*
X52420395Y62165000D01*
X52406253Y62179142D01*
X52585858Y62358747D01*
X52600000Y62344605D01*
X52614143Y62358747D01*
X52793748Y62179142D01*
G37*
G04 #@! TD.AperFunction*
D21*
X22560500Y82139895D02*
X22401285Y81906646D01*
X22290633Y81646818D01*
X22273096Y81564039D01*
X22395085Y81342000D01*
X23938000Y81342000D01*
X23938000Y81362000D01*
X24192000Y81362000D01*
X24192000Y81342000D01*
X25734915Y81342000D01*
X25856904Y81564039D01*
X25839367Y81646818D01*
X25728715Y81906646D01*
X25569500Y82139895D01*
X25511151Y82197100D01*
X30234610Y82197100D01*
X30086068Y82016101D01*
X29952818Y81766808D01*
X29870764Y81496309D01*
X29843057Y81215000D01*
X29870764Y80933691D01*
X29952818Y80663192D01*
X30028661Y80521300D01*
X25727313Y80521300D01*
X25728715Y80523354D01*
X25839367Y80783182D01*
X25856904Y80865961D01*
X25734915Y81088000D01*
X24192000Y81088000D01*
X24192000Y81068000D01*
X23938000Y81068000D01*
X23938000Y81088000D01*
X22395085Y81088000D01*
X22273096Y80865961D01*
X22290633Y80783182D01*
X22401285Y80523354D01*
X22560500Y80290105D01*
X22604460Y80247007D01*
X18264490Y75907036D01*
X18286943Y76135000D01*
X18259236Y76416309D01*
X18177182Y76686808D01*
X18043932Y76936101D01*
X17864608Y77154608D01*
X17646101Y77333932D01*
X17513142Y77405000D01*
X17646101Y77476068D01*
X17864608Y77655392D01*
X18043932Y77873899D01*
X18177182Y78123192D01*
X18259236Y78393691D01*
X18286943Y78675000D01*
X18259236Y78956309D01*
X18177182Y79226808D01*
X18043932Y79476101D01*
X17864608Y79694608D01*
X17646101Y79873932D01*
X17513142Y79945000D01*
X17646101Y80016068D01*
X17864608Y80195392D01*
X18043932Y80413899D01*
X18084702Y80490174D01*
X18089385Y80490635D01*
X18227933Y80532663D01*
X18355620Y80600913D01*
X18467538Y80692762D01*
X18490558Y80720812D01*
X19966847Y82197100D01*
X22618849Y82197100D01*
X22560500Y82139895D01*
G04 #@! TA.AperFunction,Conductor*
D22*
G36*
X22560500Y82139895D02*
G01*
X22401285Y81906646D01*
X22290633Y81646818D01*
X22273096Y81564039D01*
X22395085Y81342000D01*
X23938000Y81342000D01*
X23938000Y81362000D01*
X24192000Y81362000D01*
X24192000Y81342000D01*
X25734915Y81342000D01*
X25856904Y81564039D01*
X25839367Y81646818D01*
X25728715Y81906646D01*
X25569500Y82139895D01*
X25511151Y82197100D01*
X30234610Y82197100D01*
X30086068Y82016101D01*
X29952818Y81766808D01*
X29870764Y81496309D01*
X29843057Y81215000D01*
X29870764Y80933691D01*
X29952818Y80663192D01*
X30028661Y80521300D01*
X25727313Y80521300D01*
X25728715Y80523354D01*
X25839367Y80783182D01*
X25856904Y80865961D01*
X25734915Y81088000D01*
X24192000Y81088000D01*
X24192000Y81068000D01*
X23938000Y81068000D01*
X23938000Y81088000D01*
X22395085Y81088000D01*
X22273096Y80865961D01*
X22290633Y80783182D01*
X22401285Y80523354D01*
X22560500Y80290105D01*
X22604460Y80247007D01*
X18264490Y75907036D01*
X18286943Y76135000D01*
X18259236Y76416309D01*
X18177182Y76686808D01*
X18043932Y76936101D01*
X17864608Y77154608D01*
X17646101Y77333932D01*
X17513142Y77405000D01*
X17646101Y77476068D01*
X17864608Y77655392D01*
X18043932Y77873899D01*
X18177182Y78123192D01*
X18259236Y78393691D01*
X18286943Y78675000D01*
X18259236Y78956309D01*
X18177182Y79226808D01*
X18043932Y79476101D01*
X17864608Y79694608D01*
X17646101Y79873932D01*
X17513142Y79945000D01*
X17646101Y80016068D01*
X17864608Y80195392D01*
X18043932Y80413899D01*
X18084702Y80490174D01*
X18089385Y80490635D01*
X18227933Y80532663D01*
X18355620Y80600913D01*
X18467538Y80692762D01*
X18490558Y80720812D01*
X19966847Y82197100D01*
X22618849Y82197100D01*
X22560500Y82139895D01*
G37*
G04 #@! TD.AperFunction*
D21*
X37800500Y82139895D02*
X37641285Y81906646D01*
X37530633Y81646818D01*
X37513096Y81564039D01*
X37635085Y81342000D01*
X39178000Y81342000D01*
X39178000Y81362000D01*
X39432000Y81362000D01*
X39432000Y81342000D01*
X40974915Y81342000D01*
X41096904Y81564039D01*
X41079367Y81646818D01*
X40968715Y81906646D01*
X40809500Y82139895D01*
X40751151Y82197100D01*
X46109610Y82197100D01*
X45961068Y82016101D01*
X45827818Y81766808D01*
X45745764Y81496309D01*
X45718057Y81215000D01*
X45745764Y80933691D01*
X45822719Y80680000D01*
X44651405Y80680000D01*
X44615300Y80683556D01*
X44471215Y80669365D01*
X44332666Y80627337D01*
X44204980Y80559087D01*
X44093062Y80467238D01*
X44070046Y80439193D01*
X40752038Y77121184D01*
X40724608Y77154608D01*
X40506101Y77333932D01*
X40373142Y77405000D01*
X40506101Y77476068D01*
X40724608Y77655392D01*
X40903932Y77873899D01*
X41037182Y78123192D01*
X41119236Y78393691D01*
X41146943Y78675000D01*
X41119236Y78956309D01*
X41037182Y79226808D01*
X40903932Y79476101D01*
X40724608Y79694608D01*
X40506101Y79873932D01*
X40378259Y79942265D01*
X40607839Y80092399D01*
X40809500Y80290105D01*
X40968715Y80523354D01*
X41079367Y80783182D01*
X41096904Y80865961D01*
X40974915Y81088000D01*
X39432000Y81088000D01*
X39432000Y81068000D01*
X39178000Y81068000D01*
X39178000Y81088000D01*
X37635085Y81088000D01*
X37513096Y80865961D01*
X37530633Y80783182D01*
X37641285Y80523354D01*
X37800500Y80290105D01*
X38002161Y80092399D01*
X38231741Y79942265D01*
X38103899Y79873932D01*
X37885392Y79694608D01*
X37857962Y79661185D01*
X37238658Y80280488D01*
X37215638Y80308538D01*
X37103720Y80400387D01*
X36976033Y80468637D01*
X36837485Y80510665D01*
X36729505Y80521300D01*
X36693400Y80524856D01*
X36657295Y80521300D01*
X33341339Y80521300D01*
X33417182Y80663192D01*
X33499236Y80933691D01*
X33526943Y81215000D01*
X33499236Y81496309D01*
X33417182Y81766808D01*
X33283932Y82016101D01*
X33135390Y82197100D01*
X37858849Y82197100D01*
X37800500Y82139895D01*
G04 #@! TA.AperFunction,Conductor*
D22*
G36*
X37800500Y82139895D02*
G01*
X37641285Y81906646D01*
X37530633Y81646818D01*
X37513096Y81564039D01*
X37635085Y81342000D01*
X39178000Y81342000D01*
X39178000Y81362000D01*
X39432000Y81362000D01*
X39432000Y81342000D01*
X40974915Y81342000D01*
X41096904Y81564039D01*
X41079367Y81646818D01*
X40968715Y81906646D01*
X40809500Y82139895D01*
X40751151Y82197100D01*
X46109610Y82197100D01*
X45961068Y82016101D01*
X45827818Y81766808D01*
X45745764Y81496309D01*
X45718057Y81215000D01*
X45745764Y80933691D01*
X45822719Y80680000D01*
X44651405Y80680000D01*
X44615300Y80683556D01*
X44471215Y80669365D01*
X44332666Y80627337D01*
X44204980Y80559087D01*
X44093062Y80467238D01*
X44070046Y80439193D01*
X40752038Y77121184D01*
X40724608Y77154608D01*
X40506101Y77333932D01*
X40373142Y77405000D01*
X40506101Y77476068D01*
X40724608Y77655392D01*
X40903932Y77873899D01*
X41037182Y78123192D01*
X41119236Y78393691D01*
X41146943Y78675000D01*
X41119236Y78956309D01*
X41037182Y79226808D01*
X40903932Y79476101D01*
X40724608Y79694608D01*
X40506101Y79873932D01*
X40378259Y79942265D01*
X40607839Y80092399D01*
X40809500Y80290105D01*
X40968715Y80523354D01*
X41079367Y80783182D01*
X41096904Y80865961D01*
X40974915Y81088000D01*
X39432000Y81088000D01*
X39432000Y81068000D01*
X39178000Y81068000D01*
X39178000Y81088000D01*
X37635085Y81088000D01*
X37513096Y80865961D01*
X37530633Y80783182D01*
X37641285Y80523354D01*
X37800500Y80290105D01*
X38002161Y80092399D01*
X38231741Y79942265D01*
X38103899Y79873932D01*
X37885392Y79694608D01*
X37857962Y79661185D01*
X37238658Y80280488D01*
X37215638Y80308538D01*
X37103720Y80400387D01*
X36976033Y80468637D01*
X36837485Y80510665D01*
X36729505Y80521300D01*
X36693400Y80524856D01*
X36657295Y80521300D01*
X33341339Y80521300D01*
X33417182Y80663192D01*
X33499236Y80933691D01*
X33526943Y81215000D01*
X33499236Y81496309D01*
X33417182Y81766808D01*
X33283932Y82016101D01*
X33135390Y82197100D01*
X37858849Y82197100D01*
X37800500Y82139895D01*
G37*
G04 #@! TD.AperFunction*
D21*
X50003506Y81698747D02*
X50020810Y81611755D01*
X50087523Y81450695D01*
X50184376Y81305745D01*
X50307645Y81182476D01*
X50452595Y81085623D01*
X50613655Y81018910D01*
X50784635Y80984900D01*
X50958965Y80984900D01*
X51129945Y81018910D01*
X51291005Y81085623D01*
X51435955Y81182476D01*
X51559224Y81305745D01*
X51656077Y81450695D01*
X51722790Y81611755D01*
X51756800Y81782735D01*
X51756800Y81957065D01*
X51753849Y81971900D01*
X53560827Y81971900D01*
X53516285Y81906646D01*
X53405633Y81646818D01*
X53388096Y81564039D01*
X53510085Y81342000D01*
X55053000Y81342000D01*
X55053000Y81362000D01*
X55307000Y81362000D01*
X55307000Y81342000D01*
X55327000Y81342000D01*
X55327000Y81088000D01*
X55307000Y81088000D01*
X55307000Y81068000D01*
X55053000Y81068000D01*
X55053000Y81088000D01*
X53510085Y81088000D01*
X53388096Y80865961D01*
X53405633Y80783182D01*
X53449575Y80680000D01*
X49297281Y80680000D01*
X49374236Y80933691D01*
X49401943Y81215000D01*
X49374236Y81496309D01*
X49292182Y81766808D01*
X49158932Y82016101D01*
X49010390Y82197100D01*
X49505154Y82197100D01*
X50003506Y81698747D01*
G04 #@! TA.AperFunction,Conductor*
D22*
G36*
X50003506Y81698747D02*
G01*
X50020810Y81611755D01*
X50087523Y81450695D01*
X50184376Y81305745D01*
X50307645Y81182476D01*
X50452595Y81085623D01*
X50613655Y81018910D01*
X50784635Y80984900D01*
X50958965Y80984900D01*
X51129945Y81018910D01*
X51291005Y81085623D01*
X51435955Y81182476D01*
X51559224Y81305745D01*
X51656077Y81450695D01*
X51722790Y81611755D01*
X51756800Y81782735D01*
X51756800Y81957065D01*
X51753849Y81971900D01*
X53560827Y81971900D01*
X53516285Y81906646D01*
X53405633Y81646818D01*
X53388096Y81564039D01*
X53510085Y81342000D01*
X55053000Y81342000D01*
X55053000Y81362000D01*
X55307000Y81362000D01*
X55307000Y81342000D01*
X55327000Y81342000D01*
X55327000Y81088000D01*
X55307000Y81088000D01*
X55307000Y81068000D01*
X55053000Y81068000D01*
X55053000Y81088000D01*
X53510085Y81088000D01*
X53388096Y80865961D01*
X53405633Y80783182D01*
X53449575Y80680000D01*
X49297281Y80680000D01*
X49374236Y80933691D01*
X49401943Y81215000D01*
X49374236Y81496309D01*
X49292182Y81766808D01*
X49158932Y82016101D01*
X49010390Y82197100D01*
X49505154Y82197100D01*
X50003506Y81698747D01*
G37*
G04 #@! TD.AperFunction*
D21*
X49657000Y93392000D02*
X49677000Y93392000D01*
X49677000Y93138000D01*
X49657000Y93138000D01*
X49657000Y93118000D01*
X49403000Y93118000D01*
X49403000Y93138000D01*
X49383000Y93138000D01*
X49383000Y93392000D01*
X49403000Y93392000D01*
X49403000Y93412000D01*
X49657000Y93412000D01*
X49657000Y93392000D01*
G04 #@! TA.AperFunction,Conductor*
D22*
G36*
X49657000Y93392000D02*
G01*
X49677000Y93392000D01*
X49677000Y93138000D01*
X49657000Y93138000D01*
X49657000Y93118000D01*
X49403000Y93118000D01*
X49403000Y93138000D01*
X49383000Y93138000D01*
X49383000Y93392000D01*
X49403000Y93392000D01*
X49403000Y93412000D01*
X49657000Y93412000D01*
X49657000Y93392000D01*
G37*
G04 #@! TD.AperFunction*
D21*
X77597000Y95932000D02*
X77617000Y95932000D01*
X77617000Y95678000D01*
X77597000Y95678000D01*
X77597000Y95658000D01*
X77343000Y95658000D01*
X77343000Y95678000D01*
X77323000Y95678000D01*
X77323000Y95932000D01*
X77343000Y95932000D01*
X77343000Y95952000D01*
X77597000Y95952000D01*
X77597000Y95932000D01*
G04 #@! TA.AperFunction,Conductor*
D22*
G36*
X77597000Y95932000D02*
G01*
X77617000Y95932000D01*
X77617000Y95678000D01*
X77597000Y95678000D01*
X77597000Y95658000D01*
X77343000Y95658000D01*
X77343000Y95678000D01*
X77323000Y95678000D01*
X77323000Y95932000D01*
X77343000Y95932000D01*
X77343000Y95952000D01*
X77597000Y95952000D01*
X77597000Y95932000D01*
G37*
G04 #@! TD.AperFunction*
D21*
X47117000Y95932000D02*
X47137000Y95932000D01*
X47137000Y95678000D01*
X47117000Y95678000D01*
X47117000Y95658000D01*
X46863000Y95658000D01*
X46863000Y95678000D01*
X46843000Y95678000D01*
X46843000Y95932000D01*
X46863000Y95932000D01*
X46863000Y95952000D01*
X47117000Y95952000D01*
X47117000Y95932000D01*
G04 #@! TA.AperFunction,Conductor*
D22*
G36*
X47117000Y95932000D02*
G01*
X47137000Y95932000D01*
X47137000Y95678000D01*
X47117000Y95678000D01*
X47117000Y95658000D01*
X46863000Y95658000D01*
X46863000Y95678000D01*
X46843000Y95678000D01*
X46843000Y95932000D01*
X46863000Y95932000D01*
X46863000Y95952000D01*
X47117000Y95952000D01*
X47117000Y95932000D01*
G37*
G04 #@! TD.AperFunction*
M02*
