G04 #@! TF.GenerationSoftware,KiCad,Pcbnew,(5.1.9)-1*
G04 #@! TF.CreationDate,2023-02-16T17:22:46+09:00*
G04 #@! TF.ProjectId,FM-7_SD,464d2d37-5f53-4442-9e6b-696361645f70,rev?*
G04 #@! TF.SameCoordinates,PX53920b0PY93c3260*
G04 #@! TF.FileFunction,Soldermask,Top*
G04 #@! TF.FilePolarity,Negative*
%FSLAX46Y46*%
G04 Gerber Fmt 4.6, Leading zero omitted, Abs format (unit mm)*
G04 Created by KiCad (PCBNEW (5.1.9)-1) date 2023-02-16 17:22:46*
%MOMM*%
%LPD*%
G01*
G04 APERTURE LIST*
%ADD10C,3.200000*%
%ADD11C,1.600000*%
%ADD12R,1.600000X1.600000*%
%ADD13R,1.700000X1.700000*%
%ADD14O,1.700000X1.700000*%
%ADD15R,2.400000X1.600000*%
%ADD16O,2.400000X1.600000*%
%ADD17O,1.600000X1.600000*%
G04 APERTURE END LIST*
D10*
X5000000Y95000000D03*
X95000000Y95000000D03*
X95000000Y5000000D03*
X5000000Y5000000D03*
D11*
X20030000Y61120000D03*
X22530000Y61120000D03*
D12*
X88265000Y86995000D03*
D11*
X90765000Y86995000D03*
X22755000Y65975000D03*
X20255000Y65975000D03*
X34225000Y65975000D03*
X36725000Y65975000D03*
X48195000Y65975000D03*
X50695000Y65975000D03*
D13*
X84165000Y30201000D03*
D14*
X81625000Y30201000D03*
X79085000Y30201000D03*
X76545000Y30201000D03*
X74005000Y30201000D03*
X71465000Y30201000D03*
X68925000Y30201000D03*
X66385000Y30201000D03*
X63845000Y30201000D03*
X63845000Y2261000D03*
X63845000Y4801000D03*
X84165000Y2261000D03*
X84165000Y4801000D03*
D13*
X80355000Y38260000D03*
D14*
X77815000Y38260000D03*
X75275000Y38260000D03*
X72735000Y38260000D03*
X70195000Y38260000D03*
X67655000Y38260000D03*
D15*
X25335000Y69785000D03*
D16*
X17715000Y85025000D03*
X25335000Y72325000D03*
X17715000Y82485000D03*
X25335000Y74865000D03*
X17715000Y79945000D03*
X25335000Y77405000D03*
X17715000Y77405000D03*
X25335000Y79945000D03*
X17715000Y74865000D03*
X25335000Y82485000D03*
X17715000Y72325000D03*
X25335000Y85025000D03*
X17715000Y69785000D03*
X31685000Y69785000D03*
X39305000Y85025000D03*
X31685000Y72325000D03*
X39305000Y82485000D03*
X31685000Y74865000D03*
X39305000Y79945000D03*
X31685000Y77405000D03*
X39305000Y77405000D03*
X31685000Y79945000D03*
X39305000Y74865000D03*
X31685000Y82485000D03*
X39305000Y72325000D03*
X31685000Y85025000D03*
D15*
X39305000Y69785000D03*
X28920000Y9050000D03*
D16*
X13680000Y57310000D03*
X28920000Y11590000D03*
X13680000Y54770000D03*
X28920000Y14130000D03*
X13680000Y52230000D03*
X28920000Y16670000D03*
X13680000Y49690000D03*
X28920000Y19210000D03*
X13680000Y47150000D03*
X28920000Y21750000D03*
X13680000Y44610000D03*
X28920000Y24290000D03*
X13680000Y42070000D03*
X28920000Y26830000D03*
X13680000Y39530000D03*
X28920000Y29370000D03*
X13680000Y36990000D03*
X28920000Y31910000D03*
X13680000Y34450000D03*
X28920000Y34450000D03*
X13680000Y31910000D03*
X28920000Y36990000D03*
X13680000Y29370000D03*
X28920000Y39530000D03*
X13680000Y26830000D03*
X28920000Y42070000D03*
X13680000Y24290000D03*
X28920000Y44610000D03*
X13680000Y21750000D03*
X28920000Y47150000D03*
X13680000Y19210000D03*
X28920000Y49690000D03*
X13680000Y16670000D03*
X28920000Y52230000D03*
X13680000Y14130000D03*
X28920000Y54770000D03*
X13680000Y11590000D03*
X28920000Y57310000D03*
X13680000Y9050000D03*
D12*
X53685000Y12225000D03*
D17*
X53685000Y14765000D03*
X53685000Y17305000D03*
X38445000Y40165000D03*
X53685000Y19845000D03*
X38445000Y37625000D03*
X53685000Y22385000D03*
X38445000Y35085000D03*
X53685000Y24925000D03*
X38445000Y32545000D03*
X53685000Y27465000D03*
X38445000Y30005000D03*
X53685000Y30005000D03*
X38445000Y27465000D03*
X53685000Y32545000D03*
X38445000Y24925000D03*
X53685000Y35085000D03*
X38445000Y22385000D03*
X53685000Y37625000D03*
X38445000Y19845000D03*
X53685000Y40165000D03*
X38445000Y17305000D03*
X38445000Y14765000D03*
X38445000Y12225000D03*
X40985000Y21115000D03*
X40985000Y23655000D03*
X40985000Y31275000D03*
X40985000Y33815000D03*
D16*
X45655000Y69785000D03*
X53275000Y85025000D03*
X45655000Y72325000D03*
X53275000Y82485000D03*
X45655000Y74865000D03*
X53275000Y79945000D03*
X45655000Y77405000D03*
X53275000Y77405000D03*
X45655000Y79945000D03*
X53275000Y74865000D03*
X45655000Y82485000D03*
X53275000Y72325000D03*
X45655000Y85025000D03*
D15*
X53275000Y69785000D03*
D13*
X19050000Y93265000D03*
D14*
X19050000Y95805000D03*
X21590000Y93265000D03*
X21590000Y95805000D03*
X24130000Y93265000D03*
X24130000Y95805000D03*
X26670000Y93265000D03*
X26670000Y95805000D03*
X29210000Y93265000D03*
X29210000Y95805000D03*
X31750000Y93265000D03*
X31750000Y95805000D03*
X34290000Y93265000D03*
X34290000Y95805000D03*
X36830000Y93265000D03*
X36830000Y95805000D03*
X39370000Y93265000D03*
X39370000Y95805000D03*
X41910000Y93265000D03*
X41910000Y95805000D03*
X44450000Y93265000D03*
X44450000Y95805000D03*
X46990000Y93265000D03*
X46990000Y95805000D03*
X49530000Y93265000D03*
X49530000Y95805000D03*
X52070000Y93265000D03*
X52070000Y95805000D03*
X54610000Y93265000D03*
X54610000Y95805000D03*
X57150000Y93265000D03*
X57150000Y95805000D03*
X59690000Y93265000D03*
X59690000Y95805000D03*
X62230000Y93265000D03*
X62230000Y95805000D03*
X64770000Y93265000D03*
X64770000Y95805000D03*
X67310000Y93265000D03*
X67310000Y95805000D03*
X69850000Y93265000D03*
X69850000Y95805000D03*
X72390000Y93265000D03*
X72390000Y95805000D03*
X74930000Y93265000D03*
X74930000Y95805000D03*
X77470000Y93265000D03*
X77470000Y95805000D03*
X80010000Y93265000D03*
X80010000Y95805000D03*
D11*
X62230000Y66040000D03*
X64730000Y66040000D03*
X78700000Y66040000D03*
X76200000Y66040000D03*
D16*
X59690000Y69810000D03*
X67310000Y85050000D03*
X59690000Y72350000D03*
X67310000Y82510000D03*
X59690000Y74890000D03*
X67310000Y79970000D03*
X59690000Y77430000D03*
X67310000Y77430000D03*
X59690000Y79970000D03*
X67310000Y74890000D03*
X59690000Y82510000D03*
X67310000Y72350000D03*
X59690000Y85050000D03*
D15*
X67310000Y69810000D03*
X81280000Y69810000D03*
D16*
X73660000Y85050000D03*
X81280000Y72350000D03*
X73660000Y82510000D03*
X81280000Y74890000D03*
X73660000Y79970000D03*
X81280000Y77430000D03*
X73660000Y77430000D03*
X81280000Y79970000D03*
X73660000Y74890000D03*
X81280000Y82510000D03*
X73660000Y72350000D03*
X81280000Y85050000D03*
X73660000Y69810000D03*
M02*
