G04 #@! TF.GenerationSoftware,KiCad,Pcbnew,(5.1.9)-1*
G04 #@! TF.CreationDate,2023-02-16T17:22:46+09:00*
G04 #@! TF.ProjectId,FM-7_SD,464d2d37-5f53-4442-9e6b-696361645f70,rev?*
G04 #@! TF.SameCoordinates,PX53920b0PY93c3260*
G04 #@! TF.FileFunction,Legend,Top*
G04 #@! TF.FilePolarity,Positive*
%FSLAX46Y46*%
G04 Gerber Fmt 4.6, Leading zero omitted, Abs format (unit mm)*
G04 Created by KiCad (PCBNEW (5.1.9)-1) date 2023-02-16 17:22:46*
%MOMM*%
%LPD*%
G01*
G04 APERTURE LIST*
%ADD10C,0.300000*%
%ADD11C,0.150000*%
%ADD12C,0.500000*%
%ADD13C,0.120000*%
G04 APERTURE END LIST*
D10*
X58678571Y51607143D02*
X58178571Y51607143D01*
X58178571Y50821429D02*
X58178571Y52321429D01*
X58892857Y52321429D01*
X59464285Y50821429D02*
X59464285Y52321429D01*
X59964285Y51250000D01*
X60464285Y52321429D01*
X60464285Y50821429D01*
X61178571Y51392858D02*
X62321428Y51392858D01*
X63250000Y51678572D02*
X63107142Y51750000D01*
X63035714Y51821429D01*
X62964285Y51964286D01*
X62964285Y52035715D01*
X63035714Y52178572D01*
X63107142Y52250000D01*
X63250000Y52321429D01*
X63535714Y52321429D01*
X63678571Y52250000D01*
X63750000Y52178572D01*
X63821428Y52035715D01*
X63821428Y51964286D01*
X63750000Y51821429D01*
X63678571Y51750000D01*
X63535714Y51678572D01*
X63250000Y51678572D01*
X63107142Y51607143D01*
X63035714Y51535715D01*
X62964285Y51392858D01*
X62964285Y51107143D01*
X63035714Y50964286D01*
X63107142Y50892858D01*
X63250000Y50821429D01*
X63535714Y50821429D01*
X63678571Y50892858D01*
X63750000Y50964286D01*
X63821428Y51107143D01*
X63821428Y51392858D01*
X63750000Y51535715D01*
X63678571Y51607143D01*
X63535714Y51678572D01*
X64535714Y50892858D02*
X64535714Y50821429D01*
X64464285Y50678572D01*
X64392857Y50607143D01*
X65678571Y51607143D02*
X65178571Y51607143D01*
X65178571Y50821429D02*
X65178571Y52321429D01*
X65892857Y52321429D01*
X66464285Y50821429D02*
X66464285Y52321429D01*
X66964285Y51250000D01*
X67464285Y52321429D01*
X67464285Y50821429D01*
X68178571Y51392858D02*
X69321428Y51392858D01*
X69892857Y52321429D02*
X70892857Y52321429D01*
X70250000Y50821429D01*
X71535714Y50892858D02*
X71535714Y50821429D01*
X71464285Y50678572D01*
X71392857Y50607143D01*
X72678571Y51607143D02*
X72178571Y51607143D01*
X72178571Y50821429D02*
X72178571Y52321429D01*
X72892857Y52321429D01*
X73464285Y50821429D02*
X73464285Y52321429D01*
X73964285Y51250000D01*
X74464285Y52321429D01*
X74464285Y50821429D01*
X75178571Y51392858D02*
X76321428Y51392858D01*
X77035714Y50821429D02*
X77035714Y52321429D01*
X77892857Y50821429D01*
X77892857Y52321429D01*
X78607142Y51607143D02*
X79107142Y51607143D01*
X79321428Y50821429D02*
X78607142Y50821429D01*
X78607142Y52321429D01*
X79321428Y52321429D01*
X79821428Y52321429D02*
X80178571Y50821429D01*
X80464285Y51892858D01*
X80750000Y50821429D01*
X81107142Y52321429D01*
X81535714Y52321429D02*
X82535714Y52321429D01*
X81892857Y50821429D01*
X83178571Y50892858D02*
X83178571Y50821429D01*
X83107142Y50678572D01*
X83035714Y50607143D01*
X84321428Y51607143D02*
X83821428Y51607143D01*
X83821428Y50821429D02*
X83821428Y52321429D01*
X84535714Y52321429D01*
X85107142Y50821429D02*
X85107142Y52321429D01*
X85607142Y51250000D01*
X86107142Y52321429D01*
X86107142Y50821429D01*
X86821428Y51392858D02*
X87964285Y51392858D01*
X88535714Y52321429D02*
X89535714Y52321429D01*
X88892857Y50821429D01*
X89964285Y52321429D02*
X90964285Y52321429D01*
X90321428Y50821429D01*
D11*
X75527142Y88177620D02*
X76193809Y88177620D01*
X75765238Y87177620D01*
X77003333Y87844286D02*
X77003333Y87177620D01*
X76765238Y88225239D02*
X76527142Y87510953D01*
X77146190Y87510953D01*
X78003333Y87177620D02*
X77527142Y87177620D01*
X77527142Y88177620D01*
X78289047Y87225239D02*
X78431904Y87177620D01*
X78670000Y87177620D01*
X78765238Y87225239D01*
X78812857Y87272858D01*
X78860476Y87368096D01*
X78860476Y87463334D01*
X78812857Y87558572D01*
X78765238Y87606191D01*
X78670000Y87653810D01*
X78479523Y87701429D01*
X78384285Y87749048D01*
X78336666Y87796667D01*
X78289047Y87891905D01*
X78289047Y87987143D01*
X78336666Y88082381D01*
X78384285Y88130000D01*
X78479523Y88177620D01*
X78717619Y88177620D01*
X78860476Y88130000D01*
X79479523Y88177620D02*
X79574761Y88177620D01*
X79670000Y88130000D01*
X79717619Y88082381D01*
X79765238Y87987143D01*
X79812857Y87796667D01*
X79812857Y87558572D01*
X79765238Y87368096D01*
X79717619Y87272858D01*
X79670000Y87225239D01*
X79574761Y87177620D01*
X79479523Y87177620D01*
X79384285Y87225239D01*
X79336666Y87272858D01*
X79289047Y87368096D01*
X79241428Y87558572D01*
X79241428Y87796667D01*
X79289047Y87987143D01*
X79336666Y88082381D01*
X79384285Y88130000D01*
X79479523Y88177620D01*
X80670000Y87844286D02*
X80670000Y87177620D01*
X80431904Y88225239D02*
X80193809Y87510953D01*
X80812857Y87510953D01*
X61432142Y88177620D02*
X62098809Y88177620D01*
X61670238Y87177620D01*
X62908333Y87844286D02*
X62908333Y87177620D01*
X62670238Y88225239D02*
X62432142Y87510953D01*
X63051190Y87510953D01*
X63908333Y87177620D02*
X63432142Y87177620D01*
X63432142Y88177620D01*
X64194047Y87225239D02*
X64336904Y87177620D01*
X64575000Y87177620D01*
X64670238Y87225239D01*
X64717857Y87272858D01*
X64765476Y87368096D01*
X64765476Y87463334D01*
X64717857Y87558572D01*
X64670238Y87606191D01*
X64575000Y87653810D01*
X64384523Y87701429D01*
X64289285Y87749048D01*
X64241666Y87796667D01*
X64194047Y87891905D01*
X64194047Y87987143D01*
X64241666Y88082381D01*
X64289285Y88130000D01*
X64384523Y88177620D01*
X64622619Y88177620D01*
X64765476Y88130000D01*
X65098809Y88177620D02*
X65717857Y88177620D01*
X65384523Y87796667D01*
X65527380Y87796667D01*
X65622619Y87749048D01*
X65670238Y87701429D01*
X65717857Y87606191D01*
X65717857Y87368096D01*
X65670238Y87272858D01*
X65622619Y87225239D01*
X65527380Y87177620D01*
X65241666Y87177620D01*
X65146428Y87225239D01*
X65098809Y87272858D01*
X66336904Y88177620D02*
X66432142Y88177620D01*
X66527380Y88130000D01*
X66575000Y88082381D01*
X66622619Y87987143D01*
X66670238Y87796667D01*
X66670238Y87558572D01*
X66622619Y87368096D01*
X66575000Y87272858D01*
X66527380Y87225239D01*
X66432142Y87177620D01*
X66336904Y87177620D01*
X66241666Y87225239D01*
X66194047Y87272858D01*
X66146428Y87368096D01*
X66098809Y87558572D01*
X66098809Y87796667D01*
X66146428Y87987143D01*
X66194047Y88082381D01*
X66241666Y88130000D01*
X66336904Y88177620D01*
X70747142Y66587620D02*
X70842380Y66587620D01*
X70937619Y66540000D01*
X70985238Y66492381D01*
X71032857Y66397143D01*
X71080476Y66206667D01*
X71080476Y65968572D01*
X71032857Y65778096D01*
X70985238Y65682858D01*
X70937619Y65635239D01*
X70842380Y65587620D01*
X70747142Y65587620D01*
X70651904Y65635239D01*
X70604285Y65682858D01*
X70556666Y65778096D01*
X70509047Y65968572D01*
X70509047Y66206667D01*
X70556666Y66397143D01*
X70604285Y66492381D01*
X70651904Y66540000D01*
X70747142Y66587620D01*
X71509047Y65682858D02*
X71556666Y65635239D01*
X71509047Y65587620D01*
X71461428Y65635239D01*
X71509047Y65682858D01*
X71509047Y65587620D01*
X72509047Y65587620D02*
X71937619Y65587620D01*
X72223333Y65587620D02*
X72223333Y66587620D01*
X72128095Y66444762D01*
X72032857Y66349524D01*
X71937619Y66301905D01*
X73366190Y66254286D02*
X73366190Y65587620D01*
X72937619Y66254286D02*
X72937619Y65730477D01*
X72985238Y65635239D01*
X73080476Y65587620D01*
X73223333Y65587620D01*
X73318571Y65635239D01*
X73366190Y65682858D01*
X74175714Y66111429D02*
X73842380Y66111429D01*
X73842380Y65587620D02*
X73842380Y66587620D01*
X74318571Y66587620D01*
X56777142Y66587620D02*
X56872380Y66587620D01*
X56967619Y66540000D01*
X57015238Y66492381D01*
X57062857Y66397143D01*
X57110476Y66206667D01*
X57110476Y65968572D01*
X57062857Y65778096D01*
X57015238Y65682858D01*
X56967619Y65635239D01*
X56872380Y65587620D01*
X56777142Y65587620D01*
X56681904Y65635239D01*
X56634285Y65682858D01*
X56586666Y65778096D01*
X56539047Y65968572D01*
X56539047Y66206667D01*
X56586666Y66397143D01*
X56634285Y66492381D01*
X56681904Y66540000D01*
X56777142Y66587620D01*
X57539047Y65682858D02*
X57586666Y65635239D01*
X57539047Y65587620D01*
X57491428Y65635239D01*
X57539047Y65682858D01*
X57539047Y65587620D01*
X58539047Y65587620D02*
X57967619Y65587620D01*
X58253333Y65587620D02*
X58253333Y66587620D01*
X58158095Y66444762D01*
X58062857Y66349524D01*
X57967619Y66301905D01*
X59396190Y66254286D02*
X59396190Y65587620D01*
X58967619Y66254286D02*
X58967619Y65730477D01*
X59015238Y65635239D01*
X59110476Y65587620D01*
X59253333Y65587620D01*
X59348571Y65635239D01*
X59396190Y65682858D01*
X60205714Y66111429D02*
X59872380Y66111429D01*
X59872380Y65587620D02*
X59872380Y66587620D01*
X60348571Y66587620D01*
D12*
X51714285Y58714286D02*
X50714285Y58714286D01*
X50714285Y57142858D02*
X50714285Y60142858D01*
X52142857Y60142858D01*
X53285714Y57142858D02*
X53285714Y60142858D01*
X54285714Y58000000D01*
X55285714Y60142858D01*
X55285714Y57142858D01*
X56714285Y58285715D02*
X59000000Y58285715D01*
X60142857Y60142858D02*
X62142857Y60142858D01*
X60857142Y57142858D01*
X62571428Y56857143D02*
X64857142Y56857143D01*
X65428571Y57285715D02*
X65857142Y57142858D01*
X66571428Y57142858D01*
X66857142Y57285715D01*
X67000000Y57428572D01*
X67142857Y57714286D01*
X67142857Y58000000D01*
X67000000Y58285715D01*
X66857142Y58428572D01*
X66571428Y58571429D01*
X66000000Y58714286D01*
X65714285Y58857143D01*
X65571428Y59000000D01*
X65428571Y59285715D01*
X65428571Y59571429D01*
X65571428Y59857143D01*
X65714285Y60000000D01*
X66000000Y60142858D01*
X66714285Y60142858D01*
X67142857Y60000000D01*
X68428571Y57142858D02*
X68428571Y60142858D01*
X69142857Y60142858D01*
X69571428Y60000000D01*
X69857142Y59714286D01*
X70000000Y59428572D01*
X70142857Y58857143D01*
X70142857Y58428572D01*
X70000000Y57857143D01*
X69857142Y57571429D01*
X69571428Y57285715D01*
X69142857Y57142858D01*
X68428571Y57142858D01*
X75428571Y57142858D02*
X74428571Y58571429D01*
X73714285Y57142858D02*
X73714285Y60142858D01*
X74857142Y60142858D01*
X75142857Y60000000D01*
X75285714Y59857143D01*
X75428571Y59571429D01*
X75428571Y59142858D01*
X75285714Y58857143D01*
X75142857Y58714286D01*
X74857142Y58571429D01*
X73714285Y58571429D01*
X77857142Y57285715D02*
X77571428Y57142858D01*
X77000000Y57142858D01*
X76714285Y57285715D01*
X76571428Y57571429D01*
X76571428Y58714286D01*
X76714285Y59000000D01*
X77000000Y59142858D01*
X77571428Y59142858D01*
X77857142Y59000000D01*
X78000000Y58714286D01*
X78000000Y58428572D01*
X76571428Y58142858D01*
X79000000Y59142858D02*
X79714285Y57142858D01*
X80428571Y59142858D01*
X81285714Y60142858D02*
X83142857Y60142858D01*
X82142857Y59000000D01*
X82571428Y59000000D01*
X82857142Y58857143D01*
X83000000Y58714286D01*
X83142857Y58428572D01*
X83142857Y57714286D01*
X83000000Y57428572D01*
X82857142Y57285715D01*
X82571428Y57142858D01*
X81714285Y57142858D01*
X81428571Y57285715D01*
X81285714Y57428572D01*
X84428571Y57428572D02*
X84571428Y57285715D01*
X84428571Y57142858D01*
X84285714Y57285715D01*
X84428571Y57428572D01*
X84428571Y57142858D01*
X86428571Y60142858D02*
X86714285Y60142858D01*
X87000000Y60000000D01*
X87142857Y59857143D01*
X87285714Y59571429D01*
X87428571Y59000000D01*
X87428571Y58285715D01*
X87285714Y57714286D01*
X87142857Y57428572D01*
X87000000Y57285715D01*
X86714285Y57142858D01*
X86428571Y57142858D01*
X86142857Y57285715D01*
X86000000Y57428572D01*
X85857142Y57714286D01*
X85714285Y58285715D01*
X85714285Y59000000D01*
X85857142Y59571429D01*
X86000000Y59857143D01*
X86142857Y60000000D01*
X86428571Y60142858D01*
D11*
X9930238Y94686429D02*
X9596904Y94686429D01*
X9596904Y94162620D02*
X9596904Y95162620D01*
X10073095Y95162620D01*
X10454047Y94162620D02*
X10454047Y95162620D01*
X10787380Y94448334D01*
X11120714Y95162620D01*
X11120714Y94162620D01*
X11596904Y94543572D02*
X12358809Y94543572D01*
X12739761Y95162620D02*
X13406428Y95162620D01*
X12977857Y94162620D01*
X13549285Y94067381D02*
X14311190Y94067381D01*
X14882619Y94686429D02*
X15025476Y94638810D01*
X15073095Y94591191D01*
X15120714Y94495953D01*
X15120714Y94353096D01*
X15073095Y94257858D01*
X15025476Y94210239D01*
X14930238Y94162620D01*
X14549285Y94162620D01*
X14549285Y95162620D01*
X14882619Y95162620D01*
X14977857Y95115000D01*
X15025476Y95067381D01*
X15073095Y94972143D01*
X15073095Y94876905D01*
X15025476Y94781667D01*
X14977857Y94734048D01*
X14882619Y94686429D01*
X14549285Y94686429D01*
X15549285Y95162620D02*
X15549285Y94353096D01*
X15596904Y94257858D01*
X15644523Y94210239D01*
X15739761Y94162620D01*
X15930238Y94162620D01*
X16025476Y94210239D01*
X16073095Y94257858D01*
X16120714Y94353096D01*
X16120714Y95162620D01*
X16549285Y94210239D02*
X16692142Y94162620D01*
X16930238Y94162620D01*
X17025476Y94210239D01*
X17073095Y94257858D01*
X17120714Y94353096D01*
X17120714Y94448334D01*
X17073095Y94543572D01*
X17025476Y94591191D01*
X16930238Y94638810D01*
X16739761Y94686429D01*
X16644523Y94734048D01*
X16596904Y94781667D01*
X16549285Y94876905D01*
X16549285Y94972143D01*
X16596904Y95067381D01*
X16644523Y95115000D01*
X16739761Y95162620D01*
X16977857Y95162620D01*
X17120714Y95115000D01*
X39200000Y43173334D02*
X39676190Y43173334D01*
X39104761Y42887620D02*
X39438095Y43887620D01*
X39771428Y42887620D01*
X40104761Y42887620D02*
X40104761Y43554286D01*
X40104761Y43363810D02*
X40152380Y43459048D01*
X40200000Y43506667D01*
X40295238Y43554286D01*
X40390476Y43554286D01*
X41152380Y42887620D02*
X41152380Y43887620D01*
X41152380Y42935239D02*
X41057142Y42887620D01*
X40866666Y42887620D01*
X40771428Y42935239D01*
X40723809Y42982858D01*
X40676190Y43078096D01*
X40676190Y43363810D01*
X40723809Y43459048D01*
X40771428Y43506667D01*
X40866666Y43554286D01*
X41057142Y43554286D01*
X41152380Y43506667D01*
X42057142Y43554286D02*
X42057142Y42887620D01*
X41628571Y43554286D02*
X41628571Y43030477D01*
X41676190Y42935239D01*
X41771428Y42887620D01*
X41914285Y42887620D01*
X42009523Y42935239D01*
X42057142Y42982858D01*
X42533333Y42887620D02*
X42533333Y43554286D01*
X42533333Y43887620D02*
X42485714Y43840000D01*
X42533333Y43792381D01*
X42580952Y43840000D01*
X42533333Y43887620D01*
X42533333Y43792381D01*
X43009523Y43554286D02*
X43009523Y42887620D01*
X43009523Y43459048D02*
X43057142Y43506667D01*
X43152380Y43554286D01*
X43295238Y43554286D01*
X43390476Y43506667D01*
X43438095Y43411429D01*
X43438095Y42887620D01*
X44057142Y42887620D02*
X43961904Y42935239D01*
X43914285Y42982858D01*
X43866666Y43078096D01*
X43866666Y43363810D01*
X43914285Y43459048D01*
X43961904Y43506667D01*
X44057142Y43554286D01*
X44200000Y43554286D01*
X44295238Y43506667D01*
X44342857Y43459048D01*
X44390476Y43363810D01*
X44390476Y43078096D01*
X44342857Y42982858D01*
X44295238Y42935239D01*
X44200000Y42887620D01*
X44057142Y42887620D01*
X45580952Y42887620D02*
X45580952Y43887620D01*
X45961904Y43887620D01*
X46057142Y43840000D01*
X46104761Y43792381D01*
X46152380Y43697143D01*
X46152380Y43554286D01*
X46104761Y43459048D01*
X46057142Y43411429D01*
X45961904Y43363810D01*
X45580952Y43363810D01*
X46580952Y42887620D02*
X46580952Y43554286D01*
X46580952Y43363810D02*
X46628571Y43459048D01*
X46676190Y43506667D01*
X46771428Y43554286D01*
X46866666Y43554286D01*
X47342857Y42887620D02*
X47247619Y42935239D01*
X47200000Y42982858D01*
X47152380Y43078096D01*
X47152380Y43363810D01*
X47200000Y43459048D01*
X47247619Y43506667D01*
X47342857Y43554286D01*
X47485714Y43554286D01*
X47580952Y43506667D01*
X47628571Y43459048D01*
X47676190Y43363810D01*
X47676190Y43078096D01*
X47628571Y42982858D01*
X47580952Y42935239D01*
X47485714Y42887620D01*
X47342857Y42887620D01*
X48866666Y42887620D02*
X48866666Y43554286D01*
X48866666Y43459048D02*
X48914285Y43506667D01*
X49009523Y43554286D01*
X49152380Y43554286D01*
X49247619Y43506667D01*
X49295238Y43411429D01*
X49295238Y42887620D01*
X49295238Y43411429D02*
X49342857Y43506667D01*
X49438095Y43554286D01*
X49580952Y43554286D01*
X49676190Y43506667D01*
X49723809Y43411429D01*
X49723809Y42887620D01*
X50200000Y42887620D02*
X50200000Y43554286D01*
X50200000Y43887620D02*
X50152380Y43840000D01*
X50200000Y43792381D01*
X50247619Y43840000D01*
X50200000Y43887620D01*
X50200000Y43792381D01*
X50676190Y43554286D02*
X50676190Y42887620D01*
X50676190Y43459048D02*
X50723809Y43506667D01*
X50819047Y43554286D01*
X50961904Y43554286D01*
X51057142Y43506667D01*
X51104761Y43411429D01*
X51104761Y42887620D01*
X51580952Y42887620D02*
X51580952Y43554286D01*
X51580952Y43887620D02*
X51533333Y43840000D01*
X51580952Y43792381D01*
X51628571Y43840000D01*
X51580952Y43887620D01*
X51580952Y43792381D01*
X53295238Y43887620D02*
X52819047Y43887620D01*
X52771428Y43411429D01*
X52819047Y43459048D01*
X52914285Y43506667D01*
X53152380Y43506667D01*
X53247619Y43459048D01*
X53295238Y43411429D01*
X53342857Y43316191D01*
X53342857Y43078096D01*
X53295238Y42982858D01*
X53247619Y42935239D01*
X53152380Y42887620D01*
X52914285Y42887620D01*
X52819047Y42935239D01*
X52771428Y42982858D01*
X53628571Y43887620D02*
X53961904Y42887620D01*
X54295238Y43887620D01*
X23691190Y5609048D02*
X23595952Y5656667D01*
X23548333Y5704286D01*
X23500714Y5799524D01*
X23500714Y5847143D01*
X23548333Y5942381D01*
X23595952Y5990000D01*
X23691190Y6037620D01*
X23881666Y6037620D01*
X23976904Y5990000D01*
X24024523Y5942381D01*
X24072142Y5847143D01*
X24072142Y5799524D01*
X24024523Y5704286D01*
X23976904Y5656667D01*
X23881666Y5609048D01*
X23691190Y5609048D01*
X23595952Y5561429D01*
X23548333Y5513810D01*
X23500714Y5418572D01*
X23500714Y5228096D01*
X23548333Y5132858D01*
X23595952Y5085239D01*
X23691190Y5037620D01*
X23881666Y5037620D01*
X23976904Y5085239D01*
X24024523Y5132858D01*
X24072142Y5228096D01*
X24072142Y5418572D01*
X24024523Y5513810D01*
X23976904Y5561429D01*
X23881666Y5609048D01*
X24453095Y5942381D02*
X24500714Y5990000D01*
X24595952Y6037620D01*
X24834047Y6037620D01*
X24929285Y5990000D01*
X24976904Y5942381D01*
X25024523Y5847143D01*
X25024523Y5751905D01*
X24976904Y5609048D01*
X24405476Y5037620D01*
X25024523Y5037620D01*
X25929285Y6037620D02*
X25453095Y6037620D01*
X25405476Y5561429D01*
X25453095Y5609048D01*
X25548333Y5656667D01*
X25786428Y5656667D01*
X25881666Y5609048D01*
X25929285Y5561429D01*
X25976904Y5466191D01*
X25976904Y5228096D01*
X25929285Y5132858D01*
X25881666Y5085239D01*
X25786428Y5037620D01*
X25548333Y5037620D01*
X25453095Y5085239D01*
X25405476Y5132858D01*
X26881666Y6037620D02*
X26405476Y6037620D01*
X26357857Y5561429D01*
X26405476Y5609048D01*
X26500714Y5656667D01*
X26738809Y5656667D01*
X26834047Y5609048D01*
X26881666Y5561429D01*
X26929285Y5466191D01*
X26929285Y5228096D01*
X26881666Y5132858D01*
X26834047Y5085239D01*
X26738809Y5037620D01*
X26500714Y5037620D01*
X26405476Y5085239D01*
X26357857Y5132858D01*
X87987380Y82732620D02*
X87415952Y82732620D01*
X87701666Y82732620D02*
X87701666Y83732620D01*
X87606428Y83589762D01*
X87511190Y83494524D01*
X87415952Y83446905D01*
X88606428Y83732620D02*
X88701666Y83732620D01*
X88796904Y83685000D01*
X88844523Y83637381D01*
X88892142Y83542143D01*
X88939761Y83351667D01*
X88939761Y83113572D01*
X88892142Y82923096D01*
X88844523Y82827858D01*
X88796904Y82780239D01*
X88701666Y82732620D01*
X88606428Y82732620D01*
X88511190Y82780239D01*
X88463571Y82827858D01*
X88415952Y82923096D01*
X88368333Y83113572D01*
X88368333Y83351667D01*
X88415952Y83542143D01*
X88463571Y83637381D01*
X88511190Y83685000D01*
X88606428Y83732620D01*
X89558809Y83732620D02*
X89654047Y83732620D01*
X89749285Y83685000D01*
X89796904Y83637381D01*
X89844523Y83542143D01*
X89892142Y83351667D01*
X89892142Y83113572D01*
X89844523Y82923096D01*
X89796904Y82827858D01*
X89749285Y82780239D01*
X89654047Y82732620D01*
X89558809Y82732620D01*
X89463571Y82780239D01*
X89415952Y82827858D01*
X89368333Y82923096D01*
X89320714Y83113572D01*
X89320714Y83351667D01*
X89368333Y83542143D01*
X89415952Y83637381D01*
X89463571Y83685000D01*
X89558809Y83732620D01*
X90749285Y83399286D02*
X90749285Y82732620D01*
X90320714Y83399286D02*
X90320714Y82875477D01*
X90368333Y82780239D01*
X90463571Y82732620D01*
X90606428Y82732620D01*
X90701666Y82780239D01*
X90749285Y82827858D01*
X91558809Y83256429D02*
X91225476Y83256429D01*
X91225476Y82732620D02*
X91225476Y83732620D01*
X91701666Y83732620D01*
X24737142Y61667620D02*
X24832380Y61667620D01*
X24927619Y61620000D01*
X24975238Y61572381D01*
X25022857Y61477143D01*
X25070476Y61286667D01*
X25070476Y61048572D01*
X25022857Y60858096D01*
X24975238Y60762858D01*
X24927619Y60715239D01*
X24832380Y60667620D01*
X24737142Y60667620D01*
X24641904Y60715239D01*
X24594285Y60762858D01*
X24546666Y60858096D01*
X24499047Y61048572D01*
X24499047Y61286667D01*
X24546666Y61477143D01*
X24594285Y61572381D01*
X24641904Y61620000D01*
X24737142Y61667620D01*
X25499047Y60762858D02*
X25546666Y60715239D01*
X25499047Y60667620D01*
X25451428Y60715239D01*
X25499047Y60762858D01*
X25499047Y60667620D01*
X26499047Y60667620D02*
X25927619Y60667620D01*
X26213333Y60667620D02*
X26213333Y61667620D01*
X26118095Y61524762D01*
X26022857Y61429524D01*
X25927619Y61381905D01*
X27356190Y61334286D02*
X27356190Y60667620D01*
X26927619Y61334286D02*
X26927619Y60810477D01*
X26975238Y60715239D01*
X27070476Y60667620D01*
X27213333Y60667620D01*
X27308571Y60715239D01*
X27356190Y60762858D01*
X28165714Y61191429D02*
X27832380Y61191429D01*
X27832380Y60667620D02*
X27832380Y61667620D01*
X28308571Y61667620D01*
X19127142Y88357620D02*
X19793809Y88357620D01*
X19365238Y87357620D01*
X20603333Y88024286D02*
X20603333Y87357620D01*
X20365238Y88405239D02*
X20127142Y87690953D01*
X20746190Y87690953D01*
X21603333Y87357620D02*
X21127142Y87357620D01*
X21127142Y88357620D01*
X21889047Y87405239D02*
X22031904Y87357620D01*
X22270000Y87357620D01*
X22365238Y87405239D01*
X22412857Y87452858D01*
X22460476Y87548096D01*
X22460476Y87643334D01*
X22412857Y87738572D01*
X22365238Y87786191D01*
X22270000Y87833810D01*
X22079523Y87881429D01*
X21984285Y87929048D01*
X21936666Y87976667D01*
X21889047Y88071905D01*
X21889047Y88167143D01*
X21936666Y88262381D01*
X21984285Y88310000D01*
X22079523Y88357620D01*
X22317619Y88357620D01*
X22460476Y88310000D01*
X23079523Y88357620D02*
X23174761Y88357620D01*
X23270000Y88310000D01*
X23317619Y88262381D01*
X23365238Y88167143D01*
X23412857Y87976667D01*
X23412857Y87738572D01*
X23365238Y87548096D01*
X23317619Y87452858D01*
X23270000Y87405239D01*
X23174761Y87357620D01*
X23079523Y87357620D01*
X22984285Y87405239D01*
X22936666Y87452858D01*
X22889047Y87548096D01*
X22841428Y87738572D01*
X22841428Y87976667D01*
X22889047Y88167143D01*
X22936666Y88262381D01*
X22984285Y88310000D01*
X23079523Y88357620D01*
X24270000Y88024286D02*
X24270000Y87357620D01*
X24031904Y88405239D02*
X23793809Y87690953D01*
X24412857Y87690953D01*
X14867142Y66587620D02*
X14962380Y66587620D01*
X15057619Y66540000D01*
X15105238Y66492381D01*
X15152857Y66397143D01*
X15200476Y66206667D01*
X15200476Y65968572D01*
X15152857Y65778096D01*
X15105238Y65682858D01*
X15057619Y65635239D01*
X14962380Y65587620D01*
X14867142Y65587620D01*
X14771904Y65635239D01*
X14724285Y65682858D01*
X14676666Y65778096D01*
X14629047Y65968572D01*
X14629047Y66206667D01*
X14676666Y66397143D01*
X14724285Y66492381D01*
X14771904Y66540000D01*
X14867142Y66587620D01*
X15629047Y65682858D02*
X15676666Y65635239D01*
X15629047Y65587620D01*
X15581428Y65635239D01*
X15629047Y65682858D01*
X15629047Y65587620D01*
X16629047Y65587620D02*
X16057619Y65587620D01*
X16343333Y65587620D02*
X16343333Y66587620D01*
X16248095Y66444762D01*
X16152857Y66349524D01*
X16057619Y66301905D01*
X17486190Y66254286D02*
X17486190Y65587620D01*
X17057619Y66254286D02*
X17057619Y65730477D01*
X17105238Y65635239D01*
X17200476Y65587620D01*
X17343333Y65587620D01*
X17438571Y65635239D01*
X17486190Y65682858D01*
X18295714Y66111429D02*
X17962380Y66111429D01*
X17962380Y65587620D02*
X17962380Y66587620D01*
X18438571Y66587620D01*
X32857142Y88357620D02*
X33523809Y88357620D01*
X33095238Y87357620D01*
X34333333Y88024286D02*
X34333333Y87357620D01*
X34095238Y88405239D02*
X33857142Y87690953D01*
X34476190Y87690953D01*
X35333333Y87357620D02*
X34857142Y87357620D01*
X34857142Y88357620D01*
X35619047Y87405239D02*
X35761904Y87357620D01*
X36000000Y87357620D01*
X36095238Y87405239D01*
X36142857Y87452858D01*
X36190476Y87548096D01*
X36190476Y87643334D01*
X36142857Y87738572D01*
X36095238Y87786191D01*
X36000000Y87833810D01*
X35809523Y87881429D01*
X35714285Y87929048D01*
X35666666Y87976667D01*
X35619047Y88071905D01*
X35619047Y88167143D01*
X35666666Y88262381D01*
X35714285Y88310000D01*
X35809523Y88357620D01*
X36047619Y88357620D01*
X36190476Y88310000D01*
X36523809Y88357620D02*
X37142857Y88357620D01*
X36809523Y87976667D01*
X36952380Y87976667D01*
X37047619Y87929048D01*
X37095238Y87881429D01*
X37142857Y87786191D01*
X37142857Y87548096D01*
X37095238Y87452858D01*
X37047619Y87405239D01*
X36952380Y87357620D01*
X36666666Y87357620D01*
X36571428Y87405239D01*
X36523809Y87452858D01*
X37761904Y88357620D02*
X37857142Y88357620D01*
X37952380Y88310000D01*
X38000000Y88262381D01*
X38047619Y88167143D01*
X38095238Y87976667D01*
X38095238Y87738572D01*
X38047619Y87548096D01*
X38000000Y87452858D01*
X37952380Y87405239D01*
X37857142Y87357620D01*
X37761904Y87357620D01*
X37666666Y87405239D01*
X37619047Y87452858D01*
X37571428Y87548096D01*
X37523809Y87738572D01*
X37523809Y87976667D01*
X37571428Y88167143D01*
X37619047Y88262381D01*
X37666666Y88310000D01*
X37761904Y88357620D01*
X29472142Y66587620D02*
X29567380Y66587620D01*
X29662619Y66540000D01*
X29710238Y66492381D01*
X29757857Y66397143D01*
X29805476Y66206667D01*
X29805476Y65968572D01*
X29757857Y65778096D01*
X29710238Y65682858D01*
X29662619Y65635239D01*
X29567380Y65587620D01*
X29472142Y65587620D01*
X29376904Y65635239D01*
X29329285Y65682858D01*
X29281666Y65778096D01*
X29234047Y65968572D01*
X29234047Y66206667D01*
X29281666Y66397143D01*
X29329285Y66492381D01*
X29376904Y66540000D01*
X29472142Y66587620D01*
X30234047Y65682858D02*
X30281666Y65635239D01*
X30234047Y65587620D01*
X30186428Y65635239D01*
X30234047Y65682858D01*
X30234047Y65587620D01*
X31234047Y65587620D02*
X30662619Y65587620D01*
X30948333Y65587620D02*
X30948333Y66587620D01*
X30853095Y66444762D01*
X30757857Y66349524D01*
X30662619Y66301905D01*
X32091190Y66254286D02*
X32091190Y65587620D01*
X31662619Y66254286D02*
X31662619Y65730477D01*
X31710238Y65635239D01*
X31805476Y65587620D01*
X31948333Y65587620D01*
X32043571Y65635239D01*
X32091190Y65682858D01*
X32900714Y66111429D02*
X32567380Y66111429D01*
X32567380Y65587620D02*
X32567380Y66587620D01*
X33043571Y66587620D01*
X46952142Y88357620D02*
X47618809Y88357620D01*
X47190238Y87357620D01*
X48428333Y88024286D02*
X48428333Y87357620D01*
X48190238Y88405239D02*
X47952142Y87690953D01*
X48571190Y87690953D01*
X49428333Y87357620D02*
X48952142Y87357620D01*
X48952142Y88357620D01*
X49714047Y87405239D02*
X49856904Y87357620D01*
X50095000Y87357620D01*
X50190238Y87405239D01*
X50237857Y87452858D01*
X50285476Y87548096D01*
X50285476Y87643334D01*
X50237857Y87738572D01*
X50190238Y87786191D01*
X50095000Y87833810D01*
X49904523Y87881429D01*
X49809285Y87929048D01*
X49761666Y87976667D01*
X49714047Y88071905D01*
X49714047Y88167143D01*
X49761666Y88262381D01*
X49809285Y88310000D01*
X49904523Y88357620D01*
X50142619Y88357620D01*
X50285476Y88310000D01*
X50904523Y88357620D02*
X50999761Y88357620D01*
X51095000Y88310000D01*
X51142619Y88262381D01*
X51190238Y88167143D01*
X51237857Y87976667D01*
X51237857Y87738572D01*
X51190238Y87548096D01*
X51142619Y87452858D01*
X51095000Y87405239D01*
X50999761Y87357620D01*
X50904523Y87357620D01*
X50809285Y87405239D01*
X50761666Y87452858D01*
X50714047Y87548096D01*
X50666428Y87738572D01*
X50666428Y87976667D01*
X50714047Y88167143D01*
X50761666Y88262381D01*
X50809285Y88310000D01*
X50904523Y88357620D01*
X51856904Y88357620D02*
X51952142Y88357620D01*
X52047380Y88310000D01*
X52095000Y88262381D01*
X52142619Y88167143D01*
X52190238Y87976667D01*
X52190238Y87738572D01*
X52142619Y87548096D01*
X52095000Y87452858D01*
X52047380Y87405239D01*
X51952142Y87357620D01*
X51856904Y87357620D01*
X51761666Y87405239D01*
X51714047Y87452858D01*
X51666428Y87548096D01*
X51618809Y87738572D01*
X51618809Y87976667D01*
X51666428Y88167143D01*
X51714047Y88262381D01*
X51761666Y88310000D01*
X51856904Y88357620D01*
X42807142Y66587620D02*
X42902380Y66587620D01*
X42997619Y66540000D01*
X43045238Y66492381D01*
X43092857Y66397143D01*
X43140476Y66206667D01*
X43140476Y65968572D01*
X43092857Y65778096D01*
X43045238Y65682858D01*
X42997619Y65635239D01*
X42902380Y65587620D01*
X42807142Y65587620D01*
X42711904Y65635239D01*
X42664285Y65682858D01*
X42616666Y65778096D01*
X42569047Y65968572D01*
X42569047Y66206667D01*
X42616666Y66397143D01*
X42664285Y66492381D01*
X42711904Y66540000D01*
X42807142Y66587620D01*
X43569047Y65682858D02*
X43616666Y65635239D01*
X43569047Y65587620D01*
X43521428Y65635239D01*
X43569047Y65682858D01*
X43569047Y65587620D01*
X44569047Y65587620D02*
X43997619Y65587620D01*
X44283333Y65587620D02*
X44283333Y66587620D01*
X44188095Y66444762D01*
X44092857Y66349524D01*
X43997619Y66301905D01*
X45426190Y66254286D02*
X45426190Y65587620D01*
X44997619Y66254286D02*
X44997619Y65730477D01*
X45045238Y65635239D01*
X45140476Y65587620D01*
X45283333Y65587620D01*
X45378571Y65635239D01*
X45426190Y65682858D01*
X46235714Y66111429D02*
X45902380Y66111429D01*
X45902380Y65587620D02*
X45902380Y66587620D01*
X46378571Y66587620D01*
D13*
X23400000Y60455000D02*
X23400000Y59750000D01*
X23400000Y62490000D02*
X23400000Y61785000D01*
X19160000Y60455000D02*
X19160000Y59750000D01*
X19160000Y62490000D02*
X19160000Y61785000D01*
X19160000Y59750000D02*
X23400000Y59750000D01*
X19160000Y62490000D02*
X23400000Y62490000D01*
X86960225Y88720000D02*
X86960225Y88220000D01*
X86710225Y88470000D02*
X87210225Y88470000D01*
X92116000Y87279000D02*
X92116000Y86711000D01*
X92076000Y87513000D02*
X92076000Y86477000D01*
X92036000Y87672000D02*
X92036000Y86318000D01*
X91996000Y87800000D02*
X91996000Y86190000D01*
X91956000Y87910000D02*
X91956000Y86080000D01*
X91916000Y88006000D02*
X91916000Y85984000D01*
X91876000Y88093000D02*
X91876000Y85897000D01*
X91836000Y88173000D02*
X91836000Y85817000D01*
X91796000Y85955000D02*
X91796000Y85744000D01*
X91796000Y88246000D02*
X91796000Y88035000D01*
X91756000Y85955000D02*
X91756000Y85676000D01*
X91756000Y88314000D02*
X91756000Y88035000D01*
X91716000Y85955000D02*
X91716000Y85612000D01*
X91716000Y88378000D02*
X91716000Y88035000D01*
X91676000Y85955000D02*
X91676000Y85552000D01*
X91676000Y88438000D02*
X91676000Y88035000D01*
X91636000Y85955000D02*
X91636000Y85495000D01*
X91636000Y88495000D02*
X91636000Y88035000D01*
X91596000Y85955000D02*
X91596000Y85441000D01*
X91596000Y88549000D02*
X91596000Y88035000D01*
X91556000Y85955000D02*
X91556000Y85390000D01*
X91556000Y88600000D02*
X91556000Y88035000D01*
X91516000Y85955000D02*
X91516000Y85342000D01*
X91516000Y88648000D02*
X91516000Y88035000D01*
X91476000Y85955000D02*
X91476000Y85296000D01*
X91476000Y88694000D02*
X91476000Y88035000D01*
X91436000Y85955000D02*
X91436000Y85252000D01*
X91436000Y88738000D02*
X91436000Y88035000D01*
X91396000Y85955000D02*
X91396000Y85210000D01*
X91396000Y88780000D02*
X91396000Y88035000D01*
X91356000Y85955000D02*
X91356000Y85169000D01*
X91356000Y88821000D02*
X91356000Y88035000D01*
X91316000Y85955000D02*
X91316000Y85131000D01*
X91316000Y88859000D02*
X91316000Y88035000D01*
X91276000Y85955000D02*
X91276000Y85094000D01*
X91276000Y88896000D02*
X91276000Y88035000D01*
X91236000Y85955000D02*
X91236000Y85058000D01*
X91236000Y88932000D02*
X91236000Y88035000D01*
X91196000Y85955000D02*
X91196000Y85024000D01*
X91196000Y88966000D02*
X91196000Y88035000D01*
X91156000Y85955000D02*
X91156000Y84991000D01*
X91156000Y88999000D02*
X91156000Y88035000D01*
X91116000Y85955000D02*
X91116000Y84960000D01*
X91116000Y89030000D02*
X91116000Y88035000D01*
X91076000Y85955000D02*
X91076000Y84930000D01*
X91076000Y89060000D02*
X91076000Y88035000D01*
X91036000Y85955000D02*
X91036000Y84900000D01*
X91036000Y89090000D02*
X91036000Y88035000D01*
X90996000Y85955000D02*
X90996000Y84873000D01*
X90996000Y89117000D02*
X90996000Y88035000D01*
X90956000Y85955000D02*
X90956000Y84846000D01*
X90956000Y89144000D02*
X90956000Y88035000D01*
X90916000Y85955000D02*
X90916000Y84820000D01*
X90916000Y89170000D02*
X90916000Y88035000D01*
X90876000Y85955000D02*
X90876000Y84795000D01*
X90876000Y89195000D02*
X90876000Y88035000D01*
X90836000Y85955000D02*
X90836000Y84771000D01*
X90836000Y89219000D02*
X90836000Y88035000D01*
X90796000Y85955000D02*
X90796000Y84748000D01*
X90796000Y89242000D02*
X90796000Y88035000D01*
X90756000Y85955000D02*
X90756000Y84727000D01*
X90756000Y89263000D02*
X90756000Y88035000D01*
X90716000Y85955000D02*
X90716000Y84705000D01*
X90716000Y89285000D02*
X90716000Y88035000D01*
X90676000Y85955000D02*
X90676000Y84685000D01*
X90676000Y89305000D02*
X90676000Y88035000D01*
X90636000Y85955000D02*
X90636000Y84666000D01*
X90636000Y89324000D02*
X90636000Y88035000D01*
X90596000Y85955000D02*
X90596000Y84647000D01*
X90596000Y89343000D02*
X90596000Y88035000D01*
X90556000Y85955000D02*
X90556000Y84630000D01*
X90556000Y89360000D02*
X90556000Y88035000D01*
X90516000Y85955000D02*
X90516000Y84613000D01*
X90516000Y89377000D02*
X90516000Y88035000D01*
X90476000Y85955000D02*
X90476000Y84597000D01*
X90476000Y89393000D02*
X90476000Y88035000D01*
X90436000Y85955000D02*
X90436000Y84581000D01*
X90436000Y89409000D02*
X90436000Y88035000D01*
X90396000Y85955000D02*
X90396000Y84567000D01*
X90396000Y89423000D02*
X90396000Y88035000D01*
X90356000Y85955000D02*
X90356000Y84553000D01*
X90356000Y89437000D02*
X90356000Y88035000D01*
X90316000Y85955000D02*
X90316000Y84540000D01*
X90316000Y89450000D02*
X90316000Y88035000D01*
X90276000Y85955000D02*
X90276000Y84527000D01*
X90276000Y89463000D02*
X90276000Y88035000D01*
X90236000Y85955000D02*
X90236000Y84515000D01*
X90236000Y89475000D02*
X90236000Y88035000D01*
X90195000Y85955000D02*
X90195000Y84504000D01*
X90195000Y89486000D02*
X90195000Y88035000D01*
X90155000Y85955000D02*
X90155000Y84494000D01*
X90155000Y89496000D02*
X90155000Y88035000D01*
X90115000Y85955000D02*
X90115000Y84484000D01*
X90115000Y89506000D02*
X90115000Y88035000D01*
X90075000Y85955000D02*
X90075000Y84475000D01*
X90075000Y89515000D02*
X90075000Y88035000D01*
X90035000Y85955000D02*
X90035000Y84467000D01*
X90035000Y89523000D02*
X90035000Y88035000D01*
X89995000Y85955000D02*
X89995000Y84459000D01*
X89995000Y89531000D02*
X89995000Y88035000D01*
X89955000Y85955000D02*
X89955000Y84452000D01*
X89955000Y89538000D02*
X89955000Y88035000D01*
X89915000Y85955000D02*
X89915000Y84445000D01*
X89915000Y89545000D02*
X89915000Y88035000D01*
X89875000Y85955000D02*
X89875000Y84439000D01*
X89875000Y89551000D02*
X89875000Y88035000D01*
X89835000Y85955000D02*
X89835000Y84434000D01*
X89835000Y89556000D02*
X89835000Y88035000D01*
X89795000Y85955000D02*
X89795000Y84430000D01*
X89795000Y89560000D02*
X89795000Y88035000D01*
X89755000Y85955000D02*
X89755000Y84426000D01*
X89755000Y89564000D02*
X89755000Y88035000D01*
X89715000Y89568000D02*
X89715000Y84422000D01*
X89675000Y89571000D02*
X89675000Y84419000D01*
X89635000Y89573000D02*
X89635000Y84417000D01*
X89595000Y89574000D02*
X89595000Y84416000D01*
X89555000Y89575000D02*
X89555000Y84415000D01*
X89515000Y89575000D02*
X89515000Y84415000D01*
X92135000Y86995000D02*
G75*
G03*
X92135000Y86995000I-2620000J0D01*
G01*
X19385000Y67345000D02*
X23625000Y67345000D01*
X19385000Y64605000D02*
X23625000Y64605000D01*
X19385000Y67345000D02*
X19385000Y66640000D01*
X19385000Y65310000D02*
X19385000Y64605000D01*
X23625000Y67345000D02*
X23625000Y66640000D01*
X23625000Y65310000D02*
X23625000Y64605000D01*
X37595000Y65310000D02*
X37595000Y64605000D01*
X37595000Y67345000D02*
X37595000Y66640000D01*
X33355000Y65310000D02*
X33355000Y64605000D01*
X33355000Y67345000D02*
X33355000Y66640000D01*
X33355000Y64605000D02*
X37595000Y64605000D01*
X33355000Y67345000D02*
X37595000Y67345000D01*
X51565000Y65310000D02*
X51565000Y64605000D01*
X51565000Y67345000D02*
X51565000Y66640000D01*
X47325000Y65310000D02*
X47325000Y64605000D01*
X47325000Y67345000D02*
X47325000Y66640000D01*
X47325000Y64605000D02*
X51565000Y64605000D01*
X47325000Y67345000D02*
X51565000Y67345000D01*
X85845000Y31901000D02*
X62145000Y31901000D01*
X85845000Y101000D02*
X85845000Y31901000D01*
X62145000Y101000D02*
X85845000Y101000D01*
X62145000Y31901000D02*
X62145000Y101000D01*
X85495000Y31531000D02*
X85495000Y30201000D01*
X84165000Y31531000D02*
X85495000Y31531000D01*
X82895000Y31531000D02*
X82895000Y28871000D01*
X82895000Y28871000D02*
X62515000Y28871000D01*
X82895000Y31531000D02*
X62515000Y31531000D01*
X62515000Y31531000D02*
X62515000Y28871000D01*
X81685000Y38260000D02*
X81685000Y36930000D01*
X81685000Y36930000D02*
X80355000Y36930000D01*
X79085000Y36930000D02*
X66325000Y36930000D01*
X66325000Y39590000D02*
X66325000Y36930000D01*
X79085000Y39590000D02*
X66325000Y39590000D01*
X79085000Y39590000D02*
X79085000Y36930000D01*
X19275000Y68455000D02*
X20525000Y68455000D01*
X19275000Y86355000D02*
X19275000Y68455000D01*
X23775000Y86355000D02*
X19275000Y86355000D01*
X23775000Y68455000D02*
X23775000Y86355000D01*
X22525000Y68455000D02*
X23775000Y68455000D01*
X20525000Y68455000D02*
G75*
G02*
X22525000Y68455000I1000000J0D01*
G01*
X36495000Y68455000D02*
X37745000Y68455000D01*
X37745000Y68455000D02*
X37745000Y86355000D01*
X37745000Y86355000D02*
X33245000Y86355000D01*
X33245000Y86355000D02*
X33245000Y68455000D01*
X33245000Y68455000D02*
X34495000Y68455000D01*
X34495000Y68455000D02*
G75*
G02*
X36495000Y68455000I1000000J0D01*
G01*
X15240000Y7720000D02*
X20300000Y7720000D01*
X15240000Y58640000D02*
X15240000Y7720000D01*
X27360000Y58640000D02*
X15240000Y58640000D01*
X27360000Y7720000D02*
X27360000Y58640000D01*
X22300000Y7720000D02*
X27360000Y7720000D01*
X20300000Y7720000D02*
G75*
G02*
X22300000Y7720000I1000000J0D01*
G01*
X37048000Y8288000D02*
X55082000Y8288000D01*
X37048000Y41562000D02*
X37048000Y8288000D01*
X52415000Y13495000D02*
X52415000Y41562000D01*
X52415000Y13495000D02*
X55082000Y13495000D01*
X55082000Y41562000D02*
X37045000Y41562000D01*
X39715000Y10955000D02*
X39715000Y41562000D01*
X39715000Y10955000D02*
X37045000Y10955000D01*
X55082000Y8288000D02*
X55082000Y10955000D01*
X55082000Y13495000D02*
X55082000Y41562000D01*
X52415000Y10955000D02*
X55082000Y10955000D01*
X52415000Y13495000D02*
X52415000Y10955000D01*
X50465000Y68455000D02*
X51715000Y68455000D01*
X51715000Y68455000D02*
X51715000Y86355000D01*
X51715000Y86355000D02*
X47215000Y86355000D01*
X47215000Y86355000D02*
X47215000Y68455000D01*
X47215000Y68455000D02*
X48465000Y68455000D01*
X48465000Y68455000D02*
G75*
G02*
X50465000Y68455000I1000000J0D01*
G01*
X17780000Y91995000D02*
X17780000Y93265000D01*
X19050000Y91995000D02*
X17780000Y91995000D01*
X80390000Y94307929D02*
X80390000Y94762071D01*
X79630000Y94307929D02*
X79630000Y94762071D01*
X80390000Y96847929D02*
X80390000Y97245000D01*
X79630000Y96847929D02*
X79630000Y97245000D01*
X80390000Y105905000D02*
X80390000Y99905000D01*
X79630000Y105905000D02*
X80390000Y105905000D01*
X79630000Y99905000D02*
X79630000Y105905000D01*
X78740000Y97245000D02*
X78740000Y99905000D01*
X77850000Y94307929D02*
X77850000Y94762071D01*
X77090000Y94307929D02*
X77090000Y94762071D01*
X77850000Y96847929D02*
X77850000Y97245000D01*
X77090000Y96847929D02*
X77090000Y97245000D01*
X77850000Y105905000D02*
X77850000Y99905000D01*
X77090000Y105905000D02*
X77850000Y105905000D01*
X77090000Y99905000D02*
X77090000Y105905000D01*
X76200000Y97245000D02*
X76200000Y99905000D01*
X75310000Y94307929D02*
X75310000Y94762071D01*
X74550000Y94307929D02*
X74550000Y94762071D01*
X75310000Y96847929D02*
X75310000Y97245000D01*
X74550000Y96847929D02*
X74550000Y97245000D01*
X75310000Y105905000D02*
X75310000Y99905000D01*
X74550000Y105905000D02*
X75310000Y105905000D01*
X74550000Y99905000D02*
X74550000Y105905000D01*
X73660000Y97245000D02*
X73660000Y99905000D01*
X72770000Y94307929D02*
X72770000Y94762071D01*
X72010000Y94307929D02*
X72010000Y94762071D01*
X72770000Y96847929D02*
X72770000Y97245000D01*
X72010000Y96847929D02*
X72010000Y97245000D01*
X72770000Y105905000D02*
X72770000Y99905000D01*
X72010000Y105905000D02*
X72770000Y105905000D01*
X72010000Y99905000D02*
X72010000Y105905000D01*
X71120000Y97245000D02*
X71120000Y99905000D01*
X70230000Y94307929D02*
X70230000Y94762071D01*
X69470000Y94307929D02*
X69470000Y94762071D01*
X70230000Y96847929D02*
X70230000Y97245000D01*
X69470000Y96847929D02*
X69470000Y97245000D01*
X70230000Y105905000D02*
X70230000Y99905000D01*
X69470000Y105905000D02*
X70230000Y105905000D01*
X69470000Y99905000D02*
X69470000Y105905000D01*
X68580000Y97245000D02*
X68580000Y99905000D01*
X67690000Y94307929D02*
X67690000Y94762071D01*
X66930000Y94307929D02*
X66930000Y94762071D01*
X67690000Y96847929D02*
X67690000Y97245000D01*
X66930000Y96847929D02*
X66930000Y97245000D01*
X67690000Y105905000D02*
X67690000Y99905000D01*
X66930000Y105905000D02*
X67690000Y105905000D01*
X66930000Y99905000D02*
X66930000Y105905000D01*
X66040000Y97245000D02*
X66040000Y99905000D01*
X65150000Y94307929D02*
X65150000Y94762071D01*
X64390000Y94307929D02*
X64390000Y94762071D01*
X65150000Y96847929D02*
X65150000Y97245000D01*
X64390000Y96847929D02*
X64390000Y97245000D01*
X65150000Y105905000D02*
X65150000Y99905000D01*
X64390000Y105905000D02*
X65150000Y105905000D01*
X64390000Y99905000D02*
X64390000Y105905000D01*
X63500000Y97245000D02*
X63500000Y99905000D01*
X62610000Y94307929D02*
X62610000Y94762071D01*
X61850000Y94307929D02*
X61850000Y94762071D01*
X62610000Y96847929D02*
X62610000Y97245000D01*
X61850000Y96847929D02*
X61850000Y97245000D01*
X62610000Y105905000D02*
X62610000Y99905000D01*
X61850000Y105905000D02*
X62610000Y105905000D01*
X61850000Y99905000D02*
X61850000Y105905000D01*
X60960000Y97245000D02*
X60960000Y99905000D01*
X60070000Y94307929D02*
X60070000Y94762071D01*
X59310000Y94307929D02*
X59310000Y94762071D01*
X60070000Y96847929D02*
X60070000Y97245000D01*
X59310000Y96847929D02*
X59310000Y97245000D01*
X60070000Y105905000D02*
X60070000Y99905000D01*
X59310000Y105905000D02*
X60070000Y105905000D01*
X59310000Y99905000D02*
X59310000Y105905000D01*
X58420000Y97245000D02*
X58420000Y99905000D01*
X57530000Y94307929D02*
X57530000Y94762071D01*
X56770000Y94307929D02*
X56770000Y94762071D01*
X57530000Y96847929D02*
X57530000Y97245000D01*
X56770000Y96847929D02*
X56770000Y97245000D01*
X57530000Y105905000D02*
X57530000Y99905000D01*
X56770000Y105905000D02*
X57530000Y105905000D01*
X56770000Y99905000D02*
X56770000Y105905000D01*
X55880000Y97245000D02*
X55880000Y99905000D01*
X54990000Y94307929D02*
X54990000Y94762071D01*
X54230000Y94307929D02*
X54230000Y94762071D01*
X54990000Y96847929D02*
X54990000Y97245000D01*
X54230000Y96847929D02*
X54230000Y97245000D01*
X54990000Y105905000D02*
X54990000Y99905000D01*
X54230000Y105905000D02*
X54990000Y105905000D01*
X54230000Y99905000D02*
X54230000Y105905000D01*
X53340000Y97245000D02*
X53340000Y99905000D01*
X52450000Y94307929D02*
X52450000Y94762071D01*
X51690000Y94307929D02*
X51690000Y94762071D01*
X52450000Y96847929D02*
X52450000Y97245000D01*
X51690000Y96847929D02*
X51690000Y97245000D01*
X52450000Y105905000D02*
X52450000Y99905000D01*
X51690000Y105905000D02*
X52450000Y105905000D01*
X51690000Y99905000D02*
X51690000Y105905000D01*
X50800000Y97245000D02*
X50800000Y99905000D01*
X49910000Y94307929D02*
X49910000Y94762071D01*
X49150000Y94307929D02*
X49150000Y94762071D01*
X49910000Y96847929D02*
X49910000Y97245000D01*
X49150000Y96847929D02*
X49150000Y97245000D01*
X49910000Y105905000D02*
X49910000Y99905000D01*
X49150000Y105905000D02*
X49910000Y105905000D01*
X49150000Y99905000D02*
X49150000Y105905000D01*
X48260000Y97245000D02*
X48260000Y99905000D01*
X47370000Y94307929D02*
X47370000Y94762071D01*
X46610000Y94307929D02*
X46610000Y94762071D01*
X47370000Y96847929D02*
X47370000Y97245000D01*
X46610000Y96847929D02*
X46610000Y97245000D01*
X47370000Y105905000D02*
X47370000Y99905000D01*
X46610000Y105905000D02*
X47370000Y105905000D01*
X46610000Y99905000D02*
X46610000Y105905000D01*
X45720000Y97245000D02*
X45720000Y99905000D01*
X44830000Y94307929D02*
X44830000Y94762071D01*
X44070000Y94307929D02*
X44070000Y94762071D01*
X44830000Y96847929D02*
X44830000Y97245000D01*
X44070000Y96847929D02*
X44070000Y97245000D01*
X44830000Y105905000D02*
X44830000Y99905000D01*
X44070000Y105905000D02*
X44830000Y105905000D01*
X44070000Y99905000D02*
X44070000Y105905000D01*
X43180000Y97245000D02*
X43180000Y99905000D01*
X42290000Y94307929D02*
X42290000Y94762071D01*
X41530000Y94307929D02*
X41530000Y94762071D01*
X42290000Y96847929D02*
X42290000Y97245000D01*
X41530000Y96847929D02*
X41530000Y97245000D01*
X42290000Y105905000D02*
X42290000Y99905000D01*
X41530000Y105905000D02*
X42290000Y105905000D01*
X41530000Y99905000D02*
X41530000Y105905000D01*
X40640000Y97245000D02*
X40640000Y99905000D01*
X39750000Y94307929D02*
X39750000Y94762071D01*
X38990000Y94307929D02*
X38990000Y94762071D01*
X39750000Y96847929D02*
X39750000Y97245000D01*
X38990000Y96847929D02*
X38990000Y97245000D01*
X39750000Y105905000D02*
X39750000Y99905000D01*
X38990000Y105905000D02*
X39750000Y105905000D01*
X38990000Y99905000D02*
X38990000Y105905000D01*
X38100000Y97245000D02*
X38100000Y99905000D01*
X37210000Y94307929D02*
X37210000Y94762071D01*
X36450000Y94307929D02*
X36450000Y94762071D01*
X37210000Y96847929D02*
X37210000Y97245000D01*
X36450000Y96847929D02*
X36450000Y97245000D01*
X37210000Y105905000D02*
X37210000Y99905000D01*
X36450000Y105905000D02*
X37210000Y105905000D01*
X36450000Y99905000D02*
X36450000Y105905000D01*
X35560000Y97245000D02*
X35560000Y99905000D01*
X34670000Y94307929D02*
X34670000Y94762071D01*
X33910000Y94307929D02*
X33910000Y94762071D01*
X34670000Y96847929D02*
X34670000Y97245000D01*
X33910000Y96847929D02*
X33910000Y97245000D01*
X34670000Y105905000D02*
X34670000Y99905000D01*
X33910000Y105905000D02*
X34670000Y105905000D01*
X33910000Y99905000D02*
X33910000Y105905000D01*
X33020000Y97245000D02*
X33020000Y99905000D01*
X32130000Y94307929D02*
X32130000Y94762071D01*
X31370000Y94307929D02*
X31370000Y94762071D01*
X32130000Y96847929D02*
X32130000Y97245000D01*
X31370000Y96847929D02*
X31370000Y97245000D01*
X32130000Y105905000D02*
X32130000Y99905000D01*
X31370000Y105905000D02*
X32130000Y105905000D01*
X31370000Y99905000D02*
X31370000Y105905000D01*
X30480000Y97245000D02*
X30480000Y99905000D01*
X29590000Y94307929D02*
X29590000Y94762071D01*
X28830000Y94307929D02*
X28830000Y94762071D01*
X29590000Y96847929D02*
X29590000Y97245000D01*
X28830000Y96847929D02*
X28830000Y97245000D01*
X29590000Y105905000D02*
X29590000Y99905000D01*
X28830000Y105905000D02*
X29590000Y105905000D01*
X28830000Y99905000D02*
X28830000Y105905000D01*
X27940000Y97245000D02*
X27940000Y99905000D01*
X27050000Y94307929D02*
X27050000Y94762071D01*
X26290000Y94307929D02*
X26290000Y94762071D01*
X27050000Y96847929D02*
X27050000Y97245000D01*
X26290000Y96847929D02*
X26290000Y97245000D01*
X27050000Y105905000D02*
X27050000Y99905000D01*
X26290000Y105905000D02*
X27050000Y105905000D01*
X26290000Y99905000D02*
X26290000Y105905000D01*
X25400000Y97245000D02*
X25400000Y99905000D01*
X24510000Y94307929D02*
X24510000Y94762071D01*
X23750000Y94307929D02*
X23750000Y94762071D01*
X24510000Y96847929D02*
X24510000Y97245000D01*
X23750000Y96847929D02*
X23750000Y97245000D01*
X24510000Y105905000D02*
X24510000Y99905000D01*
X23750000Y105905000D02*
X24510000Y105905000D01*
X23750000Y99905000D02*
X23750000Y105905000D01*
X22860000Y97245000D02*
X22860000Y99905000D01*
X21970000Y94307929D02*
X21970000Y94762071D01*
X21210000Y94307929D02*
X21210000Y94762071D01*
X21970000Y96847929D02*
X21970000Y97245000D01*
X21210000Y96847929D02*
X21210000Y97245000D01*
X21970000Y105905000D02*
X21970000Y99905000D01*
X21210000Y105905000D02*
X21970000Y105905000D01*
X21210000Y99905000D02*
X21210000Y105905000D01*
X20320000Y97245000D02*
X20320000Y99905000D01*
X19430000Y94375000D02*
X19430000Y94762071D01*
X18670000Y94375000D02*
X18670000Y94762071D01*
X19430000Y96847929D02*
X19430000Y97245000D01*
X18670000Y96847929D02*
X18670000Y97245000D01*
X19330000Y99905000D02*
X19330000Y105905000D01*
X19210000Y99905000D02*
X19210000Y105905000D01*
X19090000Y99905000D02*
X19090000Y105905000D01*
X18970000Y99905000D02*
X18970000Y105905000D01*
X18850000Y99905000D02*
X18850000Y105905000D01*
X18730000Y99905000D02*
X18730000Y105905000D01*
X19430000Y105905000D02*
X19430000Y99905000D01*
X18670000Y105905000D02*
X19430000Y105905000D01*
X18670000Y99905000D02*
X18670000Y105905000D01*
X17720000Y99905000D02*
X17720000Y97245000D01*
X81340000Y99905000D02*
X17720000Y99905000D01*
X81340000Y97245000D02*
X81340000Y99905000D01*
X17720000Y97245000D02*
X81340000Y97245000D01*
X61360000Y67410000D02*
X65600000Y67410000D01*
X61360000Y64670000D02*
X65600000Y64670000D01*
X61360000Y67410000D02*
X61360000Y66705000D01*
X61360000Y65375000D02*
X61360000Y64670000D01*
X65600000Y67410000D02*
X65600000Y66705000D01*
X65600000Y65375000D02*
X65600000Y64670000D01*
X79570000Y65375000D02*
X79570000Y64670000D01*
X79570000Y67410000D02*
X79570000Y66705000D01*
X75330000Y65375000D02*
X75330000Y64670000D01*
X75330000Y67410000D02*
X75330000Y66705000D01*
X75330000Y64670000D02*
X79570000Y64670000D01*
X75330000Y67410000D02*
X79570000Y67410000D01*
X61250000Y68480000D02*
X62500000Y68480000D01*
X61250000Y86380000D02*
X61250000Y68480000D01*
X65750000Y86380000D02*
X61250000Y86380000D01*
X65750000Y68480000D02*
X65750000Y86380000D01*
X64500000Y68480000D02*
X65750000Y68480000D01*
X62500000Y68480000D02*
G75*
G02*
X64500000Y68480000I1000000J0D01*
G01*
X78470000Y68480000D02*
X79720000Y68480000D01*
X79720000Y68480000D02*
X79720000Y86380000D01*
X79720000Y86380000D02*
X75220000Y86380000D01*
X75220000Y86380000D02*
X75220000Y68480000D01*
X75220000Y68480000D02*
X76470000Y68480000D01*
X76470000Y68480000D02*
G75*
G02*
X78470000Y68480000I1000000J0D01*
G01*
D11*
X17323333Y60762858D02*
X17275714Y60715239D01*
X17132857Y60667620D01*
X17037619Y60667620D01*
X16894761Y60715239D01*
X16799523Y60810477D01*
X16751904Y60905715D01*
X16704285Y61096191D01*
X16704285Y61239048D01*
X16751904Y61429524D01*
X16799523Y61524762D01*
X16894761Y61620000D01*
X17037619Y61667620D01*
X17132857Y61667620D01*
X17275714Y61620000D01*
X17323333Y61572381D01*
X18275714Y60667620D02*
X17704285Y60667620D01*
X17990000Y60667620D02*
X17990000Y61667620D01*
X17894761Y61524762D01*
X17799523Y61429524D01*
X17704285Y61381905D01*
X89368333Y90447858D02*
X89320714Y90400239D01*
X89177857Y90352620D01*
X89082619Y90352620D01*
X88939761Y90400239D01*
X88844523Y90495477D01*
X88796904Y90590715D01*
X88749285Y90781191D01*
X88749285Y90924048D01*
X88796904Y91114524D01*
X88844523Y91209762D01*
X88939761Y91305000D01*
X89082619Y91352620D01*
X89177857Y91352620D01*
X89320714Y91305000D01*
X89368333Y91257381D01*
X89749285Y91257381D02*
X89796904Y91305000D01*
X89892142Y91352620D01*
X90130238Y91352620D01*
X90225476Y91305000D01*
X90273095Y91257381D01*
X90320714Y91162143D01*
X90320714Y91066905D01*
X90273095Y90924048D01*
X89701666Y90352620D01*
X90320714Y90352620D01*
X25233333Y65682858D02*
X25185714Y65635239D01*
X25042857Y65587620D01*
X24947619Y65587620D01*
X24804761Y65635239D01*
X24709523Y65730477D01*
X24661904Y65825715D01*
X24614285Y66016191D01*
X24614285Y66159048D01*
X24661904Y66349524D01*
X24709523Y66444762D01*
X24804761Y66540000D01*
X24947619Y66587620D01*
X25042857Y66587620D01*
X25185714Y66540000D01*
X25233333Y66492381D01*
X25566666Y66587620D02*
X26185714Y66587620D01*
X25852380Y66206667D01*
X25995238Y66206667D01*
X26090476Y66159048D01*
X26138095Y66111429D01*
X26185714Y66016191D01*
X26185714Y65778096D01*
X26138095Y65682858D01*
X26090476Y65635239D01*
X25995238Y65587620D01*
X25709523Y65587620D01*
X25614285Y65635239D01*
X25566666Y65682858D01*
X39203333Y65682858D02*
X39155714Y65635239D01*
X39012857Y65587620D01*
X38917619Y65587620D01*
X38774761Y65635239D01*
X38679523Y65730477D01*
X38631904Y65825715D01*
X38584285Y66016191D01*
X38584285Y66159048D01*
X38631904Y66349524D01*
X38679523Y66444762D01*
X38774761Y66540000D01*
X38917619Y66587620D01*
X39012857Y66587620D01*
X39155714Y66540000D01*
X39203333Y66492381D01*
X40060476Y66254286D02*
X40060476Y65587620D01*
X39822380Y66635239D02*
X39584285Y65920953D01*
X40203333Y65920953D01*
X53173333Y65682858D02*
X53125714Y65635239D01*
X52982857Y65587620D01*
X52887619Y65587620D01*
X52744761Y65635239D01*
X52649523Y65730477D01*
X52601904Y65825715D01*
X52554285Y66016191D01*
X52554285Y66159048D01*
X52601904Y66349524D01*
X52649523Y66444762D01*
X52744761Y66540000D01*
X52887619Y66587620D01*
X52982857Y66587620D01*
X53125714Y66540000D01*
X53173333Y66492381D01*
X54030476Y66587620D02*
X53840000Y66587620D01*
X53744761Y66540000D01*
X53697142Y66492381D01*
X53601904Y66349524D01*
X53554285Y66159048D01*
X53554285Y65778096D01*
X53601904Y65682858D01*
X53649523Y65635239D01*
X53744761Y65587620D01*
X53935238Y65587620D01*
X54030476Y65635239D01*
X54078095Y65682858D01*
X54125714Y65778096D01*
X54125714Y66016191D01*
X54078095Y66111429D01*
X54030476Y66159048D01*
X53935238Y66206667D01*
X53744761Y66206667D01*
X53649523Y66159048D01*
X53601904Y66111429D01*
X53554285Y66016191D01*
X63196666Y33547620D02*
X63196666Y32833334D01*
X63149047Y32690477D01*
X63053809Y32595239D01*
X62910952Y32547620D01*
X62815714Y32547620D01*
X64101428Y33214286D02*
X64101428Y32547620D01*
X63863333Y33595239D02*
X63625238Y32880953D01*
X64244285Y32880953D01*
X67268095Y32833334D02*
X67744285Y32833334D01*
X67172857Y32547620D02*
X67506190Y33547620D01*
X67839523Y32547620D01*
X68172857Y33071429D02*
X68506190Y33071429D01*
X68649047Y32547620D02*
X68172857Y32547620D01*
X68172857Y33547620D01*
X68649047Y33547620D01*
X69077619Y32928572D02*
X69839523Y32928572D01*
X70315714Y32547620D02*
X70315714Y33214286D01*
X70315714Y33119048D02*
X70363333Y33166667D01*
X70458571Y33214286D01*
X70601428Y33214286D01*
X70696666Y33166667D01*
X70744285Y33071429D01*
X70744285Y32547620D01*
X70744285Y33071429D02*
X70791904Y33166667D01*
X70887142Y33214286D01*
X71030000Y33214286D01*
X71125238Y33166667D01*
X71172857Y33071429D01*
X71172857Y32547620D01*
X71649047Y32547620D02*
X71649047Y33214286D01*
X71649047Y33547620D02*
X71601428Y33500000D01*
X71649047Y33452381D01*
X71696666Y33500000D01*
X71649047Y33547620D01*
X71649047Y33452381D01*
X72553809Y32595239D02*
X72458571Y32547620D01*
X72268095Y32547620D01*
X72172857Y32595239D01*
X72125238Y32642858D01*
X72077619Y32738096D01*
X72077619Y33023810D01*
X72125238Y33119048D01*
X72172857Y33166667D01*
X72268095Y33214286D01*
X72458571Y33214286D01*
X72553809Y33166667D01*
X72982380Y32547620D02*
X72982380Y33214286D01*
X72982380Y33023810D02*
X73030000Y33119048D01*
X73077619Y33166667D01*
X73172857Y33214286D01*
X73268095Y33214286D01*
X73744285Y32547620D02*
X73649047Y32595239D01*
X73601428Y32642858D01*
X73553809Y32738096D01*
X73553809Y33023810D01*
X73601428Y33119048D01*
X73649047Y33166667D01*
X73744285Y33214286D01*
X73887142Y33214286D01*
X73982380Y33166667D01*
X74030000Y33119048D01*
X74077619Y33023810D01*
X74077619Y32738096D01*
X74030000Y32642858D01*
X73982380Y32595239D01*
X73887142Y32547620D01*
X73744285Y32547620D01*
X74458571Y32595239D02*
X74601428Y32547620D01*
X74839523Y32547620D01*
X74934761Y32595239D01*
X74982380Y32642858D01*
X75030000Y32738096D01*
X75030000Y32833334D01*
X74982380Y32928572D01*
X74934761Y32976191D01*
X74839523Y33023810D01*
X74649047Y33071429D01*
X74553809Y33119048D01*
X74506190Y33166667D01*
X74458571Y33261905D01*
X74458571Y33357143D01*
X74506190Y33452381D01*
X74553809Y33500000D01*
X74649047Y33547620D01*
X74887142Y33547620D01*
X75030000Y33500000D01*
X75458571Y32547620D02*
X75458571Y33547620D01*
X75696666Y33547620D01*
X75839523Y33500000D01*
X75934761Y33404762D01*
X75982380Y33309524D01*
X76030000Y33119048D01*
X76030000Y32976191D01*
X75982380Y32785715D01*
X75934761Y32690477D01*
X75839523Y32595239D01*
X75696666Y32547620D01*
X75458571Y32547620D01*
X76458571Y32928572D02*
X77220476Y32928572D01*
X78172857Y32547620D02*
X77696666Y32547620D01*
X77696666Y33547620D01*
X78982380Y32547620D02*
X78506190Y32547620D01*
X78506190Y33547620D01*
X79887142Y32642858D02*
X79839523Y32595239D01*
X79696666Y32547620D01*
X79601428Y32547620D01*
X79458571Y32595239D01*
X79363333Y32690477D01*
X79315714Y32785715D01*
X79268095Y32976191D01*
X79268095Y33119048D01*
X79315714Y33309524D01*
X79363333Y33404762D01*
X79458571Y33500000D01*
X79601428Y33547620D01*
X79696666Y33547620D01*
X79839523Y33500000D01*
X79887142Y33452381D01*
X80315714Y32547620D02*
X80315714Y33547620D01*
X80887142Y32547620D01*
X80887142Y33547620D01*
X81220476Y33547620D02*
X81553809Y32547620D01*
X81887142Y33547620D01*
X82791666Y38807620D02*
X82791666Y38093334D01*
X82744047Y37950477D01*
X82648809Y37855239D01*
X82505952Y37807620D01*
X82410714Y37807620D01*
X83744047Y38807620D02*
X83267857Y38807620D01*
X83220238Y38331429D01*
X83267857Y38379048D01*
X83363095Y38426667D01*
X83601190Y38426667D01*
X83696428Y38379048D01*
X83744047Y38331429D01*
X83791666Y38236191D01*
X83791666Y37998096D01*
X83744047Y37902858D01*
X83696428Y37855239D01*
X83601190Y37807620D01*
X83363095Y37807620D01*
X83267857Y37855239D01*
X83220238Y37902858D01*
X15508095Y88357620D02*
X15508095Y87548096D01*
X15555714Y87452858D01*
X15603333Y87405239D01*
X15698571Y87357620D01*
X15889047Y87357620D01*
X15984285Y87405239D01*
X16031904Y87452858D01*
X16079523Y87548096D01*
X16079523Y88357620D01*
X17079523Y87357620D02*
X16508095Y87357620D01*
X16793809Y87357620D02*
X16793809Y88357620D01*
X16698571Y88214762D01*
X16603333Y88119524D01*
X16508095Y88071905D01*
X29738095Y88357620D02*
X29738095Y87548096D01*
X29785714Y87452858D01*
X29833333Y87405239D01*
X29928571Y87357620D01*
X30119047Y87357620D01*
X30214285Y87405239D01*
X30261904Y87452858D01*
X30309523Y87548096D01*
X30309523Y88357620D01*
X30738095Y88262381D02*
X30785714Y88310000D01*
X30880952Y88357620D01*
X31119047Y88357620D01*
X31214285Y88310000D01*
X31261904Y88262381D01*
X31309523Y88167143D01*
X31309523Y88071905D01*
X31261904Y87929048D01*
X30690476Y87357620D01*
X31309523Y87357620D01*
X17453095Y6037620D02*
X17453095Y5228096D01*
X17500714Y5132858D01*
X17548333Y5085239D01*
X17643571Y5037620D01*
X17834047Y5037620D01*
X17929285Y5085239D01*
X17976904Y5132858D01*
X18024523Y5228096D01*
X18024523Y6037620D01*
X18405476Y6037620D02*
X19024523Y6037620D01*
X18691190Y5656667D01*
X18834047Y5656667D01*
X18929285Y5609048D01*
X18976904Y5561429D01*
X19024523Y5466191D01*
X19024523Y5228096D01*
X18976904Y5132858D01*
X18929285Y5085239D01*
X18834047Y5037620D01*
X18548333Y5037620D01*
X18453095Y5085239D01*
X18405476Y5132858D01*
X35658095Y43547620D02*
X35658095Y42738096D01*
X35705714Y42642858D01*
X35753333Y42595239D01*
X35848571Y42547620D01*
X36039047Y42547620D01*
X36134285Y42595239D01*
X36181904Y42642858D01*
X36229523Y42738096D01*
X36229523Y43547620D01*
X37134285Y43214286D02*
X37134285Y42547620D01*
X36896190Y43595239D02*
X36658095Y42880953D01*
X37277142Y42880953D01*
X43833095Y88357620D02*
X43833095Y87548096D01*
X43880714Y87452858D01*
X43928333Y87405239D01*
X44023571Y87357620D01*
X44214047Y87357620D01*
X44309285Y87405239D01*
X44356904Y87452858D01*
X44404523Y87548096D01*
X44404523Y88357620D01*
X45356904Y88357620D02*
X44880714Y88357620D01*
X44833095Y87881429D01*
X44880714Y87929048D01*
X44975952Y87976667D01*
X45214047Y87976667D01*
X45309285Y87929048D01*
X45356904Y87881429D01*
X45404523Y87786191D01*
X45404523Y87548096D01*
X45356904Y87452858D01*
X45309285Y87405239D01*
X45214047Y87357620D01*
X44975952Y87357620D01*
X44880714Y87405239D01*
X44833095Y87452858D01*
X13666666Y97047620D02*
X13666666Y96333334D01*
X13619047Y96190477D01*
X13523809Y96095239D01*
X13380952Y96047620D01*
X13285714Y96047620D01*
X14666666Y96047620D02*
X14095238Y96047620D01*
X14380952Y96047620D02*
X14380952Y97047620D01*
X14285714Y96904762D01*
X14190476Y96809524D01*
X14095238Y96761905D01*
X67143333Y65682858D02*
X67095714Y65635239D01*
X66952857Y65587620D01*
X66857619Y65587620D01*
X66714761Y65635239D01*
X66619523Y65730477D01*
X66571904Y65825715D01*
X66524285Y66016191D01*
X66524285Y66159048D01*
X66571904Y66349524D01*
X66619523Y66444762D01*
X66714761Y66540000D01*
X66857619Y66587620D01*
X66952857Y66587620D01*
X67095714Y66540000D01*
X67143333Y66492381D01*
X68048095Y66587620D02*
X67571904Y66587620D01*
X67524285Y66111429D01*
X67571904Y66159048D01*
X67667142Y66206667D01*
X67905238Y66206667D01*
X68000476Y66159048D01*
X68048095Y66111429D01*
X68095714Y66016191D01*
X68095714Y65778096D01*
X68048095Y65682858D01*
X68000476Y65635239D01*
X67905238Y65587620D01*
X67667142Y65587620D01*
X67571904Y65635239D01*
X67524285Y65682858D01*
X81113333Y65682858D02*
X81065714Y65635239D01*
X80922857Y65587620D01*
X80827619Y65587620D01*
X80684761Y65635239D01*
X80589523Y65730477D01*
X80541904Y65825715D01*
X80494285Y66016191D01*
X80494285Y66159048D01*
X80541904Y66349524D01*
X80589523Y66444762D01*
X80684761Y66540000D01*
X80827619Y66587620D01*
X80922857Y66587620D01*
X81065714Y66540000D01*
X81113333Y66492381D01*
X81446666Y66587620D02*
X82113333Y66587620D01*
X81684761Y65587620D01*
X58928095Y88177620D02*
X58928095Y87368096D01*
X58975714Y87272858D01*
X59023333Y87225239D01*
X59118571Y87177620D01*
X59309047Y87177620D01*
X59404285Y87225239D01*
X59451904Y87272858D01*
X59499523Y87368096D01*
X59499523Y88177620D01*
X60404285Y88177620D02*
X60213809Y88177620D01*
X60118571Y88130000D01*
X60070952Y88082381D01*
X59975714Y87939524D01*
X59928095Y87749048D01*
X59928095Y87368096D01*
X59975714Y87272858D01*
X60023333Y87225239D01*
X60118571Y87177620D01*
X60309047Y87177620D01*
X60404285Y87225239D01*
X60451904Y87272858D01*
X60499523Y87368096D01*
X60499523Y87606191D01*
X60451904Y87701429D01*
X60404285Y87749048D01*
X60309047Y87796667D01*
X60118571Y87796667D01*
X60023333Y87749048D01*
X59975714Y87701429D01*
X59928095Y87606191D01*
X72898095Y88177620D02*
X72898095Y87368096D01*
X72945714Y87272858D01*
X72993333Y87225239D01*
X73088571Y87177620D01*
X73279047Y87177620D01*
X73374285Y87225239D01*
X73421904Y87272858D01*
X73469523Y87368096D01*
X73469523Y88177620D01*
X73850476Y88177620D02*
X74517142Y88177620D01*
X74088571Y87177620D01*
M02*
