M48
; DRILL file {KiCad (5.1.9)-1} date 02/16/23 17:22:48
; FORMAT={-:-/ absolute / metric / decimal}
; #@! TF.CreationDate,2023-02-16T17:22:48+09:00
; #@! TF.GenerationSoftware,Kicad,Pcbnew,(5.1.9)-1
FMAT,2
METRIC
T1C0.300
T2C0.800
T3C1.000
T4C3.200
%
G90
G05
T1
X32.698Y32.036
X40.099Y48.237
X40.649Y45.533
X40.66Y40.958
X42.041Y42.933
X43.962Y80.761
X44.688Y40.704
X47.65Y84.765
X47.741Y78.798
X47.755Y80.141
X48.107Y81.034
T2
X13.68Y57.31
X13.68Y54.77
X13.68Y52.23
X13.68Y49.69
X13.68Y47.15
X13.68Y44.61
X13.68Y42.07
X13.68Y39.53
X13.68Y36.99
X13.68Y34.45
X13.68Y31.91
X13.68Y29.37
X13.68Y26.83
X13.68Y24.29
X13.68Y21.75
X13.68Y19.21
X13.68Y16.67
X13.68Y14.13
X13.68Y11.59
X13.68Y9.05
X17.715Y85.025
X17.715Y82.485
X17.715Y79.945
X17.715Y77.405
X17.715Y74.865
X17.715Y72.325
X17.715Y69.785
X20.03Y61.12
X20.255Y65.975
X22.53Y61.12
X22.755Y65.975
X25.335Y85.025
X25.335Y82.485
X25.335Y79.945
X25.335Y77.405
X25.335Y74.865
X25.335Y72.325
X25.335Y69.785
X28.92Y57.31
X28.92Y54.77
X28.92Y52.23
X28.92Y49.69
X28.92Y47.15
X28.92Y44.61
X28.92Y42.07
X28.92Y39.53
X28.92Y36.99
X28.92Y34.45
X28.92Y31.91
X28.92Y29.37
X28.92Y26.83
X28.92Y24.29
X28.92Y21.75
X28.92Y19.21
X28.92Y16.67
X28.92Y14.13
X28.92Y11.59
X28.92Y9.05
X31.685Y85.025
X31.685Y82.485
X31.685Y79.945
X31.685Y77.405
X31.685Y74.865
X31.685Y72.325
X31.685Y69.785
X34.225Y65.975
X36.725Y65.975
X38.445Y40.165
X38.445Y37.625
X38.445Y35.085
X38.445Y32.545
X38.445Y30.005
X38.445Y27.465
X38.445Y24.925
X38.445Y22.385
X38.445Y19.845
X38.445Y17.305
X38.445Y14.765
X38.445Y12.225
X39.305Y85.025
X39.305Y82.485
X39.305Y79.945
X39.305Y77.405
X39.305Y74.865
X39.305Y72.325
X39.305Y69.785
X40.985Y33.815
X40.985Y31.275
X40.985Y23.655
X40.985Y21.115
X45.655Y85.025
X45.655Y82.485
X45.655Y79.945
X45.655Y77.405
X45.655Y74.865
X45.655Y72.325
X45.655Y69.785
X48.195Y65.975
X50.695Y65.975
X53.275Y85.025
X53.275Y82.485
X53.275Y79.945
X53.275Y77.405
X53.275Y74.865
X53.275Y72.325
X53.275Y69.785
X53.685Y40.165
X53.685Y37.625
X53.685Y35.085
X53.685Y32.545
X53.685Y30.005
X53.685Y27.465
X53.685Y24.925
X53.685Y22.385
X53.685Y19.845
X53.685Y17.305
X53.685Y14.765
X53.685Y12.225
X59.69Y85.05
X59.69Y82.51
X59.69Y79.97
X59.69Y77.43
X59.69Y74.89
X59.69Y72.35
X59.69Y69.81
X62.23Y66.04
X64.73Y66.04
X67.31Y85.05
X67.31Y82.51
X67.31Y79.97
X67.31Y77.43
X67.31Y74.89
X67.31Y72.35
X67.31Y69.81
X73.66Y85.05
X73.66Y82.51
X73.66Y79.97
X73.66Y77.43
X73.66Y74.89
X73.66Y72.35
X73.66Y69.81
X76.2Y66.04
X78.7Y66.04
X81.28Y85.05
X81.28Y82.51
X81.28Y79.97
X81.28Y77.43
X81.28Y74.89
X81.28Y72.35
X81.28Y69.81
X88.265Y86.995
X90.765Y86.995
T3
X19.05Y95.805
X19.05Y93.265
X21.59Y95.805
X21.59Y93.265
X24.13Y95.805
X24.13Y93.265
X26.67Y95.805
X26.67Y93.265
X29.21Y95.805
X29.21Y93.265
X31.75Y95.805
X31.75Y93.265
X34.29Y95.805
X34.29Y93.265
X36.83Y95.805
X36.83Y93.265
X39.37Y95.805
X39.37Y93.265
X41.91Y95.805
X41.91Y93.265
X44.45Y95.805
X44.45Y93.265
X46.99Y95.805
X46.99Y93.265
X49.53Y95.805
X49.53Y93.265
X52.07Y95.805
X52.07Y93.265
X54.61Y95.805
X54.61Y93.265
X57.15Y95.805
X57.15Y93.265
X59.69Y95.805
X59.69Y93.265
X62.23Y95.805
X62.23Y93.265
X63.845Y30.201
X63.845Y4.801
X63.845Y2.261
X64.77Y95.805
X64.77Y93.265
X66.385Y30.201
X67.31Y95.805
X67.31Y93.265
X67.655Y38.26
X68.925Y30.201
X69.85Y95.805
X69.85Y93.265
X70.195Y38.26
X71.465Y30.201
X72.39Y95.805
X72.39Y93.265
X72.735Y38.26
X74.005Y30.201
X74.93Y95.805
X74.93Y93.265
X75.275Y38.26
X76.545Y30.201
X77.47Y95.805
X77.47Y93.265
X77.815Y38.26
X79.085Y30.201
X80.01Y95.805
X80.01Y93.265
X80.355Y38.26
X81.625Y30.201
X84.165Y30.201
X84.165Y4.801
X84.165Y2.261
T4
X5.0Y95.0
X5.0Y5.0
X95.0Y95.0
X95.0Y5.0
T0
M30
