G04 #@! TF.GenerationSoftware,KiCad,Pcbnew,(5.1.9)-1*
G04 #@! TF.CreationDate,2023-02-14T22:57:02+09:00*
G04 #@! TF.ProjectId,FM-7_SD,464d2d37-5f53-4442-9e6b-696361645f70,rev?*
G04 #@! TF.SameCoordinates,PX53920b0PY93c3260*
G04 #@! TF.FileFunction,Legend,Top*
G04 #@! TF.FilePolarity,Positive*
%FSLAX46Y46*%
G04 Gerber Fmt 4.6, Leading zero omitted, Abs format (unit mm)*
G04 Created by KiCad (PCBNEW (5.1.9)-1) date 2023-02-14 22:57:02*
%MOMM*%
%LPD*%
G01*
G04 APERTURE LIST*
%ADD10C,0.150000*%
%ADD11C,0.500000*%
%ADD12C,0.120000*%
G04 APERTURE END LIST*
D10*
X42547619Y2571429D02*
X42214285Y2571429D01*
X42214285Y2047620D02*
X42214285Y3047620D01*
X42690476Y3047620D01*
X43071428Y2047620D02*
X43071428Y3047620D01*
X43404761Y2333334D01*
X43738095Y3047620D01*
X43738095Y2047620D01*
X44214285Y2428572D02*
X44976190Y2428572D01*
X45357142Y3047620D02*
X46023809Y3047620D01*
X45595238Y2047620D01*
X46452380Y2095239D02*
X46452380Y2047620D01*
X46404761Y1952381D01*
X46357142Y1904762D01*
X47214285Y2571429D02*
X46880952Y2571429D01*
X46880952Y2047620D02*
X46880952Y3047620D01*
X47357142Y3047620D01*
X47738095Y2047620D02*
X47738095Y3047620D01*
X48071428Y2333334D01*
X48404761Y3047620D01*
X48404761Y2047620D01*
X48880952Y2428572D02*
X49642857Y2428572D01*
X50119047Y2047620D02*
X50119047Y3047620D01*
X50690476Y2047620D01*
X50690476Y3047620D01*
X51166666Y2571429D02*
X51500000Y2571429D01*
X51642857Y2047620D02*
X51166666Y2047620D01*
X51166666Y3047620D01*
X51642857Y3047620D01*
X51976190Y3047620D02*
X52214285Y2047620D01*
X52404761Y2761905D01*
X52595238Y2047620D01*
X52833333Y3047620D01*
X53119047Y3047620D02*
X53785714Y3047620D01*
X53357142Y2047620D01*
X54214285Y2095239D02*
X54214285Y2047620D01*
X54166666Y1952381D01*
X54119047Y1904762D01*
X54976190Y2571429D02*
X54642857Y2571429D01*
X54642857Y2047620D02*
X54642857Y3047620D01*
X55119047Y3047620D01*
X55500000Y2047620D02*
X55500000Y3047620D01*
X55833333Y2333334D01*
X56166666Y3047620D01*
X56166666Y2047620D01*
X56642857Y2428572D02*
X57404761Y2428572D01*
X57785714Y3047620D02*
X58452380Y3047620D01*
X58023809Y2047620D01*
X58738095Y3047620D02*
X59404761Y3047620D01*
X58976190Y2047620D01*
X59833333Y2095239D02*
X59833333Y2047620D01*
X59785714Y1952381D01*
X59738095Y1904762D01*
X60595238Y2571429D02*
X60261904Y2571429D01*
X60261904Y2047620D02*
X60261904Y3047620D01*
X60738095Y3047620D01*
X61119047Y2047620D02*
X61119047Y3047620D01*
X61452380Y2333334D01*
X61785714Y3047620D01*
X61785714Y2047620D01*
X62261904Y2428572D02*
X63023809Y2428572D01*
X63404761Y3047620D02*
X64071428Y3047620D01*
X63642857Y2047620D01*
X64357142Y3047620D02*
X65023809Y3047620D01*
X64595238Y2047620D01*
X65357142Y2333334D02*
X65833333Y2333334D01*
X65261904Y2047620D02*
X65595238Y3047620D01*
X65928571Y2047620D01*
X66119047Y3047620D02*
X66452380Y2047620D01*
X66785714Y3047620D01*
X67166666Y2095239D02*
X67166666Y2047620D01*
X67119047Y1952381D01*
X67071428Y1904762D01*
X67928571Y2571429D02*
X67595238Y2571429D01*
X67595238Y2047620D02*
X67595238Y3047620D01*
X68071428Y3047620D01*
X68452380Y2047620D02*
X68452380Y3047620D01*
X68785714Y2333334D01*
X69119047Y3047620D01*
X69119047Y2047620D01*
X69595238Y2428572D02*
X70357142Y2428572D01*
X70738095Y3047620D02*
X71404761Y3047620D01*
X70976190Y2047620D01*
X71690476Y3047620D02*
X72357142Y3047620D01*
X71928571Y2047620D01*
X72690476Y2333334D02*
X73166666Y2333334D01*
X72595238Y2047620D02*
X72928571Y3047620D01*
X73261904Y2047620D01*
X73452380Y3047620D02*
X73785714Y2047620D01*
X74119047Y3047620D01*
X74404761Y2952381D02*
X74452380Y3000000D01*
X74547619Y3047620D01*
X74785714Y3047620D01*
X74880952Y3000000D01*
X74928571Y2952381D01*
X74976190Y2857143D01*
X74976190Y2761905D01*
X74928571Y2619048D01*
X74357142Y2047620D01*
X74976190Y2047620D01*
X75595238Y3047620D02*
X75690476Y3047620D01*
X75785714Y3000000D01*
X75833333Y2952381D01*
X75880952Y2857143D01*
X75928571Y2666667D01*
X75928571Y2428572D01*
X75880952Y2238096D01*
X75833333Y2142858D01*
X75785714Y2095239D01*
X75690476Y2047620D01*
X75595238Y2047620D01*
X75500000Y2095239D01*
X75452380Y2142858D01*
X75404761Y2238096D01*
X75357142Y2428572D01*
X75357142Y2666667D01*
X75404761Y2857143D01*
X75452380Y2952381D01*
X75500000Y3000000D01*
X75595238Y3047620D01*
X76404761Y2095239D02*
X76404761Y2047620D01*
X76357142Y1952381D01*
X76309523Y1904762D01*
X77261904Y2714286D02*
X77261904Y2047620D01*
X77023809Y3095239D02*
X76785714Y2380953D01*
X77404761Y2380953D01*
X77976190Y3047620D02*
X78071428Y3047620D01*
X78166666Y3000000D01*
X78214285Y2952381D01*
X78261904Y2857143D01*
X78309523Y2666667D01*
X78309523Y2428572D01*
X78261904Y2238096D01*
X78214285Y2142858D01*
X78166666Y2095239D01*
X78071428Y2047620D01*
X77976190Y2047620D01*
X77880952Y2095239D01*
X77833333Y2142858D01*
X77785714Y2238096D01*
X77738095Y2428572D01*
X77738095Y2666667D01*
X77785714Y2857143D01*
X77833333Y2952381D01*
X77880952Y3000000D01*
X77976190Y3047620D01*
X78785714Y2095239D02*
X78785714Y2047620D01*
X78738095Y1952381D01*
X78690476Y1904762D01*
X79642857Y2714286D02*
X79642857Y2047620D01*
X79404761Y3095239D02*
X79166666Y2380953D01*
X79785714Y2380953D01*
X80357142Y3047620D02*
X80452380Y3047620D01*
X80547619Y3000000D01*
X80595238Y2952381D01*
X80642857Y2857143D01*
X80690476Y2666667D01*
X80690476Y2428572D01*
X80642857Y2238096D01*
X80595238Y2142858D01*
X80547619Y2095239D01*
X80452380Y2047620D01*
X80357142Y2047620D01*
X80261904Y2095239D01*
X80214285Y2142858D01*
X80166666Y2238096D01*
X80119047Y2428572D01*
X80119047Y2666667D01*
X80166666Y2857143D01*
X80214285Y2952381D01*
X80261904Y3000000D01*
X80357142Y3047620D01*
X81119047Y2571429D02*
X81452380Y2571429D01*
X81595238Y2047620D02*
X81119047Y2047620D01*
X81119047Y3047620D01*
X81595238Y3047620D01*
X81928571Y3047620D02*
X82595238Y2047620D01*
X82595238Y3047620D02*
X81928571Y2047620D01*
X83023809Y2095239D02*
X83023809Y2047620D01*
X82976190Y1952381D01*
X82928571Y1904762D01*
X83880952Y2714286D02*
X83880952Y2047620D01*
X83642857Y3095239D02*
X83404761Y2380953D01*
X84023809Y2380953D01*
X84595238Y3047620D02*
X84690476Y3047620D01*
X84785714Y3000000D01*
X84833333Y2952381D01*
X84880952Y2857143D01*
X84928571Y2666667D01*
X84928571Y2428572D01*
X84880952Y2238096D01*
X84833333Y2142858D01*
X84785714Y2095239D01*
X84690476Y2047620D01*
X84595238Y2047620D01*
X84500000Y2095239D01*
X84452380Y2142858D01*
X84404761Y2238096D01*
X84357142Y2428572D01*
X84357142Y2666667D01*
X84404761Y2857143D01*
X84452380Y2952381D01*
X84500000Y3000000D01*
X84595238Y3047620D01*
X85309523Y2095239D02*
X85452380Y2047620D01*
X85690476Y2047620D01*
X85785714Y2095239D01*
X85833333Y2142858D01*
X85880952Y2238096D01*
X85880952Y2333334D01*
X85833333Y2428572D01*
X85785714Y2476191D01*
X85690476Y2523810D01*
X85500000Y2571429D01*
X85404761Y2619048D01*
X85357142Y2666667D01*
X85309523Y2761905D01*
X85309523Y2857143D01*
X85357142Y2952381D01*
X85404761Y3000000D01*
X85500000Y3047620D01*
X85738095Y3047620D01*
X85880952Y3000000D01*
X86214285Y3047620D02*
X86880952Y2047620D01*
X86880952Y3047620D02*
X86214285Y2047620D01*
D11*
X62214285Y11714286D02*
X61214285Y11714286D01*
X61214285Y10142858D02*
X61214285Y13142858D01*
X62642857Y13142858D01*
X63785714Y10142858D02*
X63785714Y13142858D01*
X64785714Y11000000D01*
X65785714Y13142858D01*
X65785714Y10142858D01*
X67214285Y11285715D02*
X69500000Y11285715D01*
X70642857Y13142858D02*
X72642857Y13142858D01*
X71357142Y10142858D01*
X73071428Y9857143D02*
X75357142Y9857143D01*
X75928571Y10285715D02*
X76357142Y10142858D01*
X77071428Y10142858D01*
X77357142Y10285715D01*
X77500000Y10428572D01*
X77642857Y10714286D01*
X77642857Y11000000D01*
X77500000Y11285715D01*
X77357142Y11428572D01*
X77071428Y11571429D01*
X76500000Y11714286D01*
X76214285Y11857143D01*
X76071428Y12000000D01*
X75928571Y12285715D01*
X75928571Y12571429D01*
X76071428Y12857143D01*
X76214285Y13000000D01*
X76500000Y13142858D01*
X77214285Y13142858D01*
X77642857Y13000000D01*
X78928571Y10142858D02*
X78928571Y13142858D01*
X79642857Y13142858D01*
X80071428Y13000000D01*
X80357142Y12714286D01*
X80500000Y12428572D01*
X80642857Y11857143D01*
X80642857Y11428572D01*
X80500000Y10857143D01*
X80357142Y10571429D01*
X80071428Y10285715D01*
X79642857Y10142858D01*
X78928571Y10142858D01*
X85928571Y10142858D02*
X84928571Y11571429D01*
X84214285Y10142858D02*
X84214285Y13142858D01*
X85357142Y13142858D01*
X85642857Y13000000D01*
X85785714Y12857143D01*
X85928571Y12571429D01*
X85928571Y12142858D01*
X85785714Y11857143D01*
X85642857Y11714286D01*
X85357142Y11571429D01*
X84214285Y11571429D01*
X88357142Y10285715D02*
X88071428Y10142858D01*
X87500000Y10142858D01*
X87214285Y10285715D01*
X87071428Y10571429D01*
X87071428Y11714286D01*
X87214285Y12000000D01*
X87500000Y12142858D01*
X88071428Y12142858D01*
X88357142Y12000000D01*
X88500000Y11714286D01*
X88500000Y11428572D01*
X87071428Y11142858D01*
X89500000Y12142858D02*
X90214285Y10142858D01*
X90928571Y12142858D01*
X93642857Y10142858D02*
X91928571Y10142858D01*
X92785714Y10142858D02*
X92785714Y13142858D01*
X92500000Y12714286D01*
X92214285Y12428572D01*
X91928571Y12285715D01*
X94928571Y10428572D02*
X95071428Y10285715D01*
X94928571Y10142858D01*
X94785714Y10285715D01*
X94928571Y10428572D01*
X94928571Y10142858D01*
X97928571Y10142858D02*
X96214285Y10142858D01*
X97071428Y10142858D02*
X97071428Y13142858D01*
X96785714Y12714286D01*
X96500000Y12428572D01*
X96214285Y12285715D01*
D10*
X9930238Y94686429D02*
X9596904Y94686429D01*
X9596904Y94162620D02*
X9596904Y95162620D01*
X10073095Y95162620D01*
X10454047Y94162620D02*
X10454047Y95162620D01*
X10787380Y94448334D01*
X11120714Y95162620D01*
X11120714Y94162620D01*
X11596904Y94543572D02*
X12358809Y94543572D01*
X12739761Y95162620D02*
X13406428Y95162620D01*
X12977857Y94162620D01*
X13549285Y94067381D02*
X14311190Y94067381D01*
X14882619Y94686429D02*
X15025476Y94638810D01*
X15073095Y94591191D01*
X15120714Y94495953D01*
X15120714Y94353096D01*
X15073095Y94257858D01*
X15025476Y94210239D01*
X14930238Y94162620D01*
X14549285Y94162620D01*
X14549285Y95162620D01*
X14882619Y95162620D01*
X14977857Y95115000D01*
X15025476Y95067381D01*
X15073095Y94972143D01*
X15073095Y94876905D01*
X15025476Y94781667D01*
X14977857Y94734048D01*
X14882619Y94686429D01*
X14549285Y94686429D01*
X15549285Y95162620D02*
X15549285Y94353096D01*
X15596904Y94257858D01*
X15644523Y94210239D01*
X15739761Y94162620D01*
X15930238Y94162620D01*
X16025476Y94210239D01*
X16073095Y94257858D01*
X16120714Y94353096D01*
X16120714Y95162620D01*
X16549285Y94210239D02*
X16692142Y94162620D01*
X16930238Y94162620D01*
X17025476Y94210239D01*
X17073095Y94257858D01*
X17120714Y94353096D01*
X17120714Y94448334D01*
X17073095Y94543572D01*
X17025476Y94591191D01*
X16930238Y94638810D01*
X16739761Y94686429D01*
X16644523Y94734048D01*
X16596904Y94781667D01*
X16549285Y94876905D01*
X16549285Y94972143D01*
X16596904Y95067381D01*
X16644523Y95115000D01*
X16739761Y95162620D01*
X16977857Y95162620D01*
X17120714Y95115000D01*
X44280000Y43173334D02*
X44756190Y43173334D01*
X44184761Y42887620D02*
X44518095Y43887620D01*
X44851428Y42887620D01*
X45184761Y42887620D02*
X45184761Y43554286D01*
X45184761Y43363810D02*
X45232380Y43459048D01*
X45280000Y43506667D01*
X45375238Y43554286D01*
X45470476Y43554286D01*
X46232380Y42887620D02*
X46232380Y43887620D01*
X46232380Y42935239D02*
X46137142Y42887620D01*
X45946666Y42887620D01*
X45851428Y42935239D01*
X45803809Y42982858D01*
X45756190Y43078096D01*
X45756190Y43363810D01*
X45803809Y43459048D01*
X45851428Y43506667D01*
X45946666Y43554286D01*
X46137142Y43554286D01*
X46232380Y43506667D01*
X47137142Y43554286D02*
X47137142Y42887620D01*
X46708571Y43554286D02*
X46708571Y43030477D01*
X46756190Y42935239D01*
X46851428Y42887620D01*
X46994285Y42887620D01*
X47089523Y42935239D01*
X47137142Y42982858D01*
X47613333Y42887620D02*
X47613333Y43554286D01*
X47613333Y43887620D02*
X47565714Y43840000D01*
X47613333Y43792381D01*
X47660952Y43840000D01*
X47613333Y43887620D01*
X47613333Y43792381D01*
X48089523Y43554286D02*
X48089523Y42887620D01*
X48089523Y43459048D02*
X48137142Y43506667D01*
X48232380Y43554286D01*
X48375238Y43554286D01*
X48470476Y43506667D01*
X48518095Y43411429D01*
X48518095Y42887620D01*
X49137142Y42887620D02*
X49041904Y42935239D01*
X48994285Y42982858D01*
X48946666Y43078096D01*
X48946666Y43363810D01*
X48994285Y43459048D01*
X49041904Y43506667D01*
X49137142Y43554286D01*
X49280000Y43554286D01*
X49375238Y43506667D01*
X49422857Y43459048D01*
X49470476Y43363810D01*
X49470476Y43078096D01*
X49422857Y42982858D01*
X49375238Y42935239D01*
X49280000Y42887620D01*
X49137142Y42887620D01*
X50660952Y42887620D02*
X50660952Y43887620D01*
X51041904Y43887620D01*
X51137142Y43840000D01*
X51184761Y43792381D01*
X51232380Y43697143D01*
X51232380Y43554286D01*
X51184761Y43459048D01*
X51137142Y43411429D01*
X51041904Y43363810D01*
X50660952Y43363810D01*
X51660952Y42887620D02*
X51660952Y43554286D01*
X51660952Y43363810D02*
X51708571Y43459048D01*
X51756190Y43506667D01*
X51851428Y43554286D01*
X51946666Y43554286D01*
X52422857Y42887620D02*
X52327619Y42935239D01*
X52280000Y42982858D01*
X52232380Y43078096D01*
X52232380Y43363810D01*
X52280000Y43459048D01*
X52327619Y43506667D01*
X52422857Y43554286D01*
X52565714Y43554286D01*
X52660952Y43506667D01*
X52708571Y43459048D01*
X52756190Y43363810D01*
X52756190Y43078096D01*
X52708571Y42982858D01*
X52660952Y42935239D01*
X52565714Y42887620D01*
X52422857Y42887620D01*
X53946666Y42887620D02*
X53946666Y43554286D01*
X53946666Y43459048D02*
X53994285Y43506667D01*
X54089523Y43554286D01*
X54232380Y43554286D01*
X54327619Y43506667D01*
X54375238Y43411429D01*
X54375238Y42887620D01*
X54375238Y43411429D02*
X54422857Y43506667D01*
X54518095Y43554286D01*
X54660952Y43554286D01*
X54756190Y43506667D01*
X54803809Y43411429D01*
X54803809Y42887620D01*
X55280000Y42887620D02*
X55280000Y43554286D01*
X55280000Y43887620D02*
X55232380Y43840000D01*
X55280000Y43792381D01*
X55327619Y43840000D01*
X55280000Y43887620D01*
X55280000Y43792381D01*
X55756190Y43554286D02*
X55756190Y42887620D01*
X55756190Y43459048D02*
X55803809Y43506667D01*
X55899047Y43554286D01*
X56041904Y43554286D01*
X56137142Y43506667D01*
X56184761Y43411429D01*
X56184761Y42887620D01*
X56660952Y42887620D02*
X56660952Y43554286D01*
X56660952Y43887620D02*
X56613333Y43840000D01*
X56660952Y43792381D01*
X56708571Y43840000D01*
X56660952Y43887620D01*
X56660952Y43792381D01*
X58375238Y43887620D02*
X57899047Y43887620D01*
X57851428Y43411429D01*
X57899047Y43459048D01*
X57994285Y43506667D01*
X58232380Y43506667D01*
X58327619Y43459048D01*
X58375238Y43411429D01*
X58422857Y43316191D01*
X58422857Y43078096D01*
X58375238Y42982858D01*
X58327619Y42935239D01*
X58232380Y42887620D01*
X57994285Y42887620D01*
X57899047Y42935239D01*
X57851428Y42982858D01*
X58708571Y43887620D02*
X59041904Y42887620D01*
X59375238Y43887620D01*
X81476190Y22119048D02*
X81380952Y22166667D01*
X81333333Y22214286D01*
X81285714Y22309524D01*
X81285714Y22357143D01*
X81333333Y22452381D01*
X81380952Y22500000D01*
X81476190Y22547620D01*
X81666666Y22547620D01*
X81761904Y22500000D01*
X81809523Y22452381D01*
X81857142Y22357143D01*
X81857142Y22309524D01*
X81809523Y22214286D01*
X81761904Y22166667D01*
X81666666Y22119048D01*
X81476190Y22119048D01*
X81380952Y22071429D01*
X81333333Y22023810D01*
X81285714Y21928572D01*
X81285714Y21738096D01*
X81333333Y21642858D01*
X81380952Y21595239D01*
X81476190Y21547620D01*
X81666666Y21547620D01*
X81761904Y21595239D01*
X81809523Y21642858D01*
X81857142Y21738096D01*
X81857142Y21928572D01*
X81809523Y22023810D01*
X81761904Y22071429D01*
X81666666Y22119048D01*
X82238095Y22452381D02*
X82285714Y22500000D01*
X82380952Y22547620D01*
X82619047Y22547620D01*
X82714285Y22500000D01*
X82761904Y22452381D01*
X82809523Y22357143D01*
X82809523Y22261905D01*
X82761904Y22119048D01*
X82190476Y21547620D01*
X82809523Y21547620D01*
X83714285Y22547620D02*
X83238095Y22547620D01*
X83190476Y22071429D01*
X83238095Y22119048D01*
X83333333Y22166667D01*
X83571428Y22166667D01*
X83666666Y22119048D01*
X83714285Y22071429D01*
X83761904Y21976191D01*
X83761904Y21738096D01*
X83714285Y21642858D01*
X83666666Y21595239D01*
X83571428Y21547620D01*
X83333333Y21547620D01*
X83238095Y21595239D01*
X83190476Y21642858D01*
X84666666Y22547620D02*
X84190476Y22547620D01*
X84142857Y22071429D01*
X84190476Y22119048D01*
X84285714Y22166667D01*
X84523809Y22166667D01*
X84619047Y22119048D01*
X84666666Y22071429D01*
X84714285Y21976191D01*
X84714285Y21738096D01*
X84666666Y21642858D01*
X84619047Y21595239D01*
X84523809Y21547620D01*
X84285714Y21547620D01*
X84190476Y21595239D01*
X84142857Y21642858D01*
X86452380Y80547620D02*
X85880952Y80547620D01*
X86166666Y80547620D02*
X86166666Y81547620D01*
X86071428Y81404762D01*
X85976190Y81309524D01*
X85880952Y81261905D01*
X87071428Y81547620D02*
X87166666Y81547620D01*
X87261904Y81500000D01*
X87309523Y81452381D01*
X87357142Y81357143D01*
X87404761Y81166667D01*
X87404761Y80928572D01*
X87357142Y80738096D01*
X87309523Y80642858D01*
X87261904Y80595239D01*
X87166666Y80547620D01*
X87071428Y80547620D01*
X86976190Y80595239D01*
X86928571Y80642858D01*
X86880952Y80738096D01*
X86833333Y80928572D01*
X86833333Y81166667D01*
X86880952Y81357143D01*
X86928571Y81452381D01*
X86976190Y81500000D01*
X87071428Y81547620D01*
X88023809Y81547620D02*
X88119047Y81547620D01*
X88214285Y81500000D01*
X88261904Y81452381D01*
X88309523Y81357143D01*
X88357142Y81166667D01*
X88357142Y80928572D01*
X88309523Y80738096D01*
X88261904Y80642858D01*
X88214285Y80595239D01*
X88119047Y80547620D01*
X88023809Y80547620D01*
X87928571Y80595239D01*
X87880952Y80642858D01*
X87833333Y80738096D01*
X87785714Y80928572D01*
X87785714Y81166667D01*
X87833333Y81357143D01*
X87880952Y81452381D01*
X87928571Y81500000D01*
X88023809Y81547620D01*
X89214285Y81214286D02*
X89214285Y80547620D01*
X88785714Y81214286D02*
X88785714Y80690477D01*
X88833333Y80595239D01*
X88928571Y80547620D01*
X89071428Y80547620D01*
X89166666Y80595239D01*
X89214285Y80642858D01*
X90023809Y81071429D02*
X89690476Y81071429D01*
X89690476Y80547620D02*
X89690476Y81547620D01*
X90166666Y81547620D01*
X82522142Y78177620D02*
X82617380Y78177620D01*
X82712619Y78130000D01*
X82760238Y78082381D01*
X82807857Y77987143D01*
X82855476Y77796667D01*
X82855476Y77558572D01*
X82807857Y77368096D01*
X82760238Y77272858D01*
X82712619Y77225239D01*
X82617380Y77177620D01*
X82522142Y77177620D01*
X82426904Y77225239D01*
X82379285Y77272858D01*
X82331666Y77368096D01*
X82284047Y77558572D01*
X82284047Y77796667D01*
X82331666Y77987143D01*
X82379285Y78082381D01*
X82426904Y78130000D01*
X82522142Y78177620D01*
X83284047Y77272858D02*
X83331666Y77225239D01*
X83284047Y77177620D01*
X83236428Y77225239D01*
X83284047Y77272858D01*
X83284047Y77177620D01*
X84284047Y77177620D02*
X83712619Y77177620D01*
X83998333Y77177620D02*
X83998333Y78177620D01*
X83903095Y78034762D01*
X83807857Y77939524D01*
X83712619Y77891905D01*
X85141190Y77844286D02*
X85141190Y77177620D01*
X84712619Y77844286D02*
X84712619Y77320477D01*
X84760238Y77225239D01*
X84855476Y77177620D01*
X84998333Y77177620D01*
X85093571Y77225239D01*
X85141190Y77272858D01*
X85950714Y77701429D02*
X85617380Y77701429D01*
X85617380Y77177620D02*
X85617380Y78177620D01*
X86093571Y78177620D01*
X17857142Y84547620D02*
X18523809Y84547620D01*
X18095238Y83547620D01*
X19333333Y84214286D02*
X19333333Y83547620D01*
X19095238Y84595239D02*
X18857142Y83880953D01*
X19476190Y83880953D01*
X20333333Y83547620D02*
X19857142Y83547620D01*
X19857142Y84547620D01*
X20619047Y83595239D02*
X20761904Y83547620D01*
X21000000Y83547620D01*
X21095238Y83595239D01*
X21142857Y83642858D01*
X21190476Y83738096D01*
X21190476Y83833334D01*
X21142857Y83928572D01*
X21095238Y83976191D01*
X21000000Y84023810D01*
X20809523Y84071429D01*
X20714285Y84119048D01*
X20666666Y84166667D01*
X20619047Y84261905D01*
X20619047Y84357143D01*
X20666666Y84452381D01*
X20714285Y84500000D01*
X20809523Y84547620D01*
X21047619Y84547620D01*
X21190476Y84500000D01*
X21809523Y84547620D02*
X21904761Y84547620D01*
X22000000Y84500000D01*
X22047619Y84452381D01*
X22095238Y84357143D01*
X22142857Y84166667D01*
X22142857Y83928572D01*
X22095238Y83738096D01*
X22047619Y83642858D01*
X22000000Y83595239D01*
X21904761Y83547620D01*
X21809523Y83547620D01*
X21714285Y83595239D01*
X21666666Y83642858D01*
X21619047Y83738096D01*
X21571428Y83928572D01*
X21571428Y84166667D01*
X21619047Y84357143D01*
X21666666Y84452381D01*
X21714285Y84500000D01*
X21809523Y84547620D01*
X23000000Y84214286D02*
X23000000Y83547620D01*
X22761904Y84595239D02*
X22523809Y83880953D01*
X23142857Y83880953D01*
X13597142Y62777620D02*
X13692380Y62777620D01*
X13787619Y62730000D01*
X13835238Y62682381D01*
X13882857Y62587143D01*
X13930476Y62396667D01*
X13930476Y62158572D01*
X13882857Y61968096D01*
X13835238Y61872858D01*
X13787619Y61825239D01*
X13692380Y61777620D01*
X13597142Y61777620D01*
X13501904Y61825239D01*
X13454285Y61872858D01*
X13406666Y61968096D01*
X13359047Y62158572D01*
X13359047Y62396667D01*
X13406666Y62587143D01*
X13454285Y62682381D01*
X13501904Y62730000D01*
X13597142Y62777620D01*
X14359047Y61872858D02*
X14406666Y61825239D01*
X14359047Y61777620D01*
X14311428Y61825239D01*
X14359047Y61872858D01*
X14359047Y61777620D01*
X15359047Y61777620D02*
X14787619Y61777620D01*
X15073333Y61777620D02*
X15073333Y62777620D01*
X14978095Y62634762D01*
X14882857Y62539524D01*
X14787619Y62491905D01*
X16216190Y62444286D02*
X16216190Y61777620D01*
X15787619Y62444286D02*
X15787619Y61920477D01*
X15835238Y61825239D01*
X15930476Y61777620D01*
X16073333Y61777620D01*
X16168571Y61825239D01*
X16216190Y61872858D01*
X17025714Y62301429D02*
X16692380Y62301429D01*
X16692380Y61777620D02*
X16692380Y62777620D01*
X17168571Y62777620D01*
X32857142Y84547620D02*
X33523809Y84547620D01*
X33095238Y83547620D01*
X34333333Y84214286D02*
X34333333Y83547620D01*
X34095238Y84595239D02*
X33857142Y83880953D01*
X34476190Y83880953D01*
X35333333Y83547620D02*
X34857142Y83547620D01*
X34857142Y84547620D01*
X35619047Y83595239D02*
X35761904Y83547620D01*
X36000000Y83547620D01*
X36095238Y83595239D01*
X36142857Y83642858D01*
X36190476Y83738096D01*
X36190476Y83833334D01*
X36142857Y83928572D01*
X36095238Y83976191D01*
X36000000Y84023810D01*
X35809523Y84071429D01*
X35714285Y84119048D01*
X35666666Y84166667D01*
X35619047Y84261905D01*
X35619047Y84357143D01*
X35666666Y84452381D01*
X35714285Y84500000D01*
X35809523Y84547620D01*
X36047619Y84547620D01*
X36190476Y84500000D01*
X36523809Y84547620D02*
X37142857Y84547620D01*
X36809523Y84166667D01*
X36952380Y84166667D01*
X37047619Y84119048D01*
X37095238Y84071429D01*
X37142857Y83976191D01*
X37142857Y83738096D01*
X37095238Y83642858D01*
X37047619Y83595239D01*
X36952380Y83547620D01*
X36666666Y83547620D01*
X36571428Y83595239D01*
X36523809Y83642858D01*
X37761904Y84547620D02*
X37857142Y84547620D01*
X37952380Y84500000D01*
X38000000Y84452381D01*
X38047619Y84357143D01*
X38095238Y84166667D01*
X38095238Y83928572D01*
X38047619Y83738096D01*
X38000000Y83642858D01*
X37952380Y83595239D01*
X37857142Y83547620D01*
X37761904Y83547620D01*
X37666666Y83595239D01*
X37619047Y83642858D01*
X37571428Y83738096D01*
X37523809Y83928572D01*
X37523809Y84166667D01*
X37571428Y84357143D01*
X37619047Y84452381D01*
X37666666Y84500000D01*
X37761904Y84547620D01*
X29472142Y62777620D02*
X29567380Y62777620D01*
X29662619Y62730000D01*
X29710238Y62682381D01*
X29757857Y62587143D01*
X29805476Y62396667D01*
X29805476Y62158572D01*
X29757857Y61968096D01*
X29710238Y61872858D01*
X29662619Y61825239D01*
X29567380Y61777620D01*
X29472142Y61777620D01*
X29376904Y61825239D01*
X29329285Y61872858D01*
X29281666Y61968096D01*
X29234047Y62158572D01*
X29234047Y62396667D01*
X29281666Y62587143D01*
X29329285Y62682381D01*
X29376904Y62730000D01*
X29472142Y62777620D01*
X30234047Y61872858D02*
X30281666Y61825239D01*
X30234047Y61777620D01*
X30186428Y61825239D01*
X30234047Y61872858D01*
X30234047Y61777620D01*
X31234047Y61777620D02*
X30662619Y61777620D01*
X30948333Y61777620D02*
X30948333Y62777620D01*
X30853095Y62634762D01*
X30757857Y62539524D01*
X30662619Y62491905D01*
X32091190Y62444286D02*
X32091190Y61777620D01*
X31662619Y62444286D02*
X31662619Y61920477D01*
X31710238Y61825239D01*
X31805476Y61777620D01*
X31948333Y61777620D01*
X32043571Y61825239D01*
X32091190Y61872858D01*
X32900714Y62301429D02*
X32567380Y62301429D01*
X32567380Y61777620D02*
X32567380Y62777620D01*
X33043571Y62777620D01*
X48857142Y84547620D02*
X49523809Y84547620D01*
X49095238Y83547620D01*
X50333333Y84214286D02*
X50333333Y83547620D01*
X50095238Y84595239D02*
X49857142Y83880953D01*
X50476190Y83880953D01*
X51333333Y83547620D02*
X50857142Y83547620D01*
X50857142Y84547620D01*
X51619047Y83595239D02*
X51761904Y83547620D01*
X52000000Y83547620D01*
X52095238Y83595239D01*
X52142857Y83642858D01*
X52190476Y83738096D01*
X52190476Y83833334D01*
X52142857Y83928572D01*
X52095238Y83976191D01*
X52000000Y84023810D01*
X51809523Y84071429D01*
X51714285Y84119048D01*
X51666666Y84166667D01*
X51619047Y84261905D01*
X51619047Y84357143D01*
X51666666Y84452381D01*
X51714285Y84500000D01*
X51809523Y84547620D01*
X52047619Y84547620D01*
X52190476Y84500000D01*
X52809523Y84547620D02*
X52904761Y84547620D01*
X53000000Y84500000D01*
X53047619Y84452381D01*
X53095238Y84357143D01*
X53142857Y84166667D01*
X53142857Y83928572D01*
X53095238Y83738096D01*
X53047619Y83642858D01*
X53000000Y83595239D01*
X52904761Y83547620D01*
X52809523Y83547620D01*
X52714285Y83595239D01*
X52666666Y83642858D01*
X52619047Y83738096D01*
X52571428Y83928572D01*
X52571428Y84166667D01*
X52619047Y84357143D01*
X52666666Y84452381D01*
X52714285Y84500000D01*
X52809523Y84547620D01*
X53761904Y84547620D02*
X53857142Y84547620D01*
X53952380Y84500000D01*
X54000000Y84452381D01*
X54047619Y84357143D01*
X54095238Y84166667D01*
X54095238Y83928572D01*
X54047619Y83738096D01*
X54000000Y83642858D01*
X53952380Y83595239D01*
X53857142Y83547620D01*
X53761904Y83547620D01*
X53666666Y83595239D01*
X53619047Y83642858D01*
X53571428Y83738096D01*
X53523809Y83928572D01*
X53523809Y84166667D01*
X53571428Y84357143D01*
X53619047Y84452381D01*
X53666666Y84500000D01*
X53761904Y84547620D01*
X44712142Y62777620D02*
X44807380Y62777620D01*
X44902619Y62730000D01*
X44950238Y62682381D01*
X44997857Y62587143D01*
X45045476Y62396667D01*
X45045476Y62158572D01*
X44997857Y61968096D01*
X44950238Y61872858D01*
X44902619Y61825239D01*
X44807380Y61777620D01*
X44712142Y61777620D01*
X44616904Y61825239D01*
X44569285Y61872858D01*
X44521666Y61968096D01*
X44474047Y62158572D01*
X44474047Y62396667D01*
X44521666Y62587143D01*
X44569285Y62682381D01*
X44616904Y62730000D01*
X44712142Y62777620D01*
X45474047Y61872858D02*
X45521666Y61825239D01*
X45474047Y61777620D01*
X45426428Y61825239D01*
X45474047Y61872858D01*
X45474047Y61777620D01*
X46474047Y61777620D02*
X45902619Y61777620D01*
X46188333Y61777620D02*
X46188333Y62777620D01*
X46093095Y62634762D01*
X45997857Y62539524D01*
X45902619Y62491905D01*
X47331190Y62444286D02*
X47331190Y61777620D01*
X46902619Y62444286D02*
X46902619Y61920477D01*
X46950238Y61825239D01*
X47045476Y61777620D01*
X47188333Y61777620D01*
X47283571Y61825239D01*
X47331190Y61872858D01*
X48140714Y62301429D02*
X47807380Y62301429D01*
X47807380Y61777620D02*
X47807380Y62777620D01*
X48283571Y62777620D01*
D12*
X76945000Y79000000D02*
X81185000Y79000000D01*
X76945000Y76260000D02*
X81185000Y76260000D01*
X76945000Y79000000D02*
X76945000Y78295000D01*
X76945000Y76965000D02*
X76945000Y76260000D01*
X81185000Y79000000D02*
X81185000Y78295000D01*
X81185000Y76965000D02*
X81185000Y76260000D01*
X90250000Y85070000D02*
G75*
G03*
X90250000Y85070000I-2620000J0D01*
G01*
X85050000Y85070000D02*
X90210000Y85070000D01*
X85050000Y85110000D02*
X90210000Y85110000D01*
X85051000Y85150000D02*
X90209000Y85150000D01*
X85052000Y85190000D02*
X90208000Y85190000D01*
X85054000Y85230000D02*
X90206000Y85230000D01*
X85057000Y85270000D02*
X90203000Y85270000D01*
X85061000Y85310000D02*
X86590000Y85310000D01*
X88670000Y85310000D02*
X90199000Y85310000D01*
X85065000Y85350000D02*
X86590000Y85350000D01*
X88670000Y85350000D02*
X90195000Y85350000D01*
X85069000Y85390000D02*
X86590000Y85390000D01*
X88670000Y85390000D02*
X90191000Y85390000D01*
X85074000Y85430000D02*
X86590000Y85430000D01*
X88670000Y85430000D02*
X90186000Y85430000D01*
X85080000Y85470000D02*
X86590000Y85470000D01*
X88670000Y85470000D02*
X90180000Y85470000D01*
X85087000Y85510000D02*
X86590000Y85510000D01*
X88670000Y85510000D02*
X90173000Y85510000D01*
X85094000Y85550000D02*
X86590000Y85550000D01*
X88670000Y85550000D02*
X90166000Y85550000D01*
X85102000Y85590000D02*
X86590000Y85590000D01*
X88670000Y85590000D02*
X90158000Y85590000D01*
X85110000Y85630000D02*
X86590000Y85630000D01*
X88670000Y85630000D02*
X90150000Y85630000D01*
X85119000Y85670000D02*
X86590000Y85670000D01*
X88670000Y85670000D02*
X90141000Y85670000D01*
X85129000Y85710000D02*
X86590000Y85710000D01*
X88670000Y85710000D02*
X90131000Y85710000D01*
X85139000Y85750000D02*
X86590000Y85750000D01*
X88670000Y85750000D02*
X90121000Y85750000D01*
X85150000Y85791000D02*
X86590000Y85791000D01*
X88670000Y85791000D02*
X90110000Y85791000D01*
X85162000Y85831000D02*
X86590000Y85831000D01*
X88670000Y85831000D02*
X90098000Y85831000D01*
X85175000Y85871000D02*
X86590000Y85871000D01*
X88670000Y85871000D02*
X90085000Y85871000D01*
X85188000Y85911000D02*
X86590000Y85911000D01*
X88670000Y85911000D02*
X90072000Y85911000D01*
X85202000Y85951000D02*
X86590000Y85951000D01*
X88670000Y85951000D02*
X90058000Y85951000D01*
X85216000Y85991000D02*
X86590000Y85991000D01*
X88670000Y85991000D02*
X90044000Y85991000D01*
X85232000Y86031000D02*
X86590000Y86031000D01*
X88670000Y86031000D02*
X90028000Y86031000D01*
X85248000Y86071000D02*
X86590000Y86071000D01*
X88670000Y86071000D02*
X90012000Y86071000D01*
X85265000Y86111000D02*
X86590000Y86111000D01*
X88670000Y86111000D02*
X89995000Y86111000D01*
X85282000Y86151000D02*
X86590000Y86151000D01*
X88670000Y86151000D02*
X89978000Y86151000D01*
X85301000Y86191000D02*
X86590000Y86191000D01*
X88670000Y86191000D02*
X89959000Y86191000D01*
X85320000Y86231000D02*
X86590000Y86231000D01*
X88670000Y86231000D02*
X89940000Y86231000D01*
X85340000Y86271000D02*
X86590000Y86271000D01*
X88670000Y86271000D02*
X89920000Y86271000D01*
X85362000Y86311000D02*
X86590000Y86311000D01*
X88670000Y86311000D02*
X89898000Y86311000D01*
X85383000Y86351000D02*
X86590000Y86351000D01*
X88670000Y86351000D02*
X89877000Y86351000D01*
X85406000Y86391000D02*
X86590000Y86391000D01*
X88670000Y86391000D02*
X89854000Y86391000D01*
X85430000Y86431000D02*
X86590000Y86431000D01*
X88670000Y86431000D02*
X89830000Y86431000D01*
X85455000Y86471000D02*
X86590000Y86471000D01*
X88670000Y86471000D02*
X89805000Y86471000D01*
X85481000Y86511000D02*
X86590000Y86511000D01*
X88670000Y86511000D02*
X89779000Y86511000D01*
X85508000Y86551000D02*
X86590000Y86551000D01*
X88670000Y86551000D02*
X89752000Y86551000D01*
X85535000Y86591000D02*
X86590000Y86591000D01*
X88670000Y86591000D02*
X89725000Y86591000D01*
X85565000Y86631000D02*
X86590000Y86631000D01*
X88670000Y86631000D02*
X89695000Y86631000D01*
X85595000Y86671000D02*
X86590000Y86671000D01*
X88670000Y86671000D02*
X89665000Y86671000D01*
X85626000Y86711000D02*
X86590000Y86711000D01*
X88670000Y86711000D02*
X89634000Y86711000D01*
X85659000Y86751000D02*
X86590000Y86751000D01*
X88670000Y86751000D02*
X89601000Y86751000D01*
X85693000Y86791000D02*
X86590000Y86791000D01*
X88670000Y86791000D02*
X89567000Y86791000D01*
X85729000Y86831000D02*
X86590000Y86831000D01*
X88670000Y86831000D02*
X89531000Y86831000D01*
X85766000Y86871000D02*
X86590000Y86871000D01*
X88670000Y86871000D02*
X89494000Y86871000D01*
X85804000Y86911000D02*
X86590000Y86911000D01*
X88670000Y86911000D02*
X89456000Y86911000D01*
X85845000Y86951000D02*
X86590000Y86951000D01*
X88670000Y86951000D02*
X89415000Y86951000D01*
X85887000Y86991000D02*
X86590000Y86991000D01*
X88670000Y86991000D02*
X89373000Y86991000D01*
X85931000Y87031000D02*
X86590000Y87031000D01*
X88670000Y87031000D02*
X89329000Y87031000D01*
X85977000Y87071000D02*
X86590000Y87071000D01*
X88670000Y87071000D02*
X89283000Y87071000D01*
X86025000Y87111000D02*
X86590000Y87111000D01*
X88670000Y87111000D02*
X89235000Y87111000D01*
X86076000Y87151000D02*
X86590000Y87151000D01*
X88670000Y87151000D02*
X89184000Y87151000D01*
X86130000Y87191000D02*
X86590000Y87191000D01*
X88670000Y87191000D02*
X89130000Y87191000D01*
X86187000Y87231000D02*
X86590000Y87231000D01*
X88670000Y87231000D02*
X89073000Y87231000D01*
X86247000Y87271000D02*
X86590000Y87271000D01*
X88670000Y87271000D02*
X89013000Y87271000D01*
X86311000Y87311000D02*
X86590000Y87311000D01*
X88670000Y87311000D02*
X88949000Y87311000D01*
X86379000Y87351000D02*
X86590000Y87351000D01*
X88670000Y87351000D02*
X88881000Y87351000D01*
X86452000Y87391000D02*
X88808000Y87391000D01*
X86532000Y87431000D02*
X88728000Y87431000D01*
X86619000Y87471000D02*
X88641000Y87471000D01*
X86715000Y87511000D02*
X88545000Y87511000D01*
X86825000Y87551000D02*
X88435000Y87551000D01*
X86953000Y87591000D02*
X88307000Y87591000D01*
X87112000Y87631000D02*
X88148000Y87631000D01*
X87346000Y87671000D02*
X87914000Y87671000D01*
X86155000Y82265225D02*
X86155000Y82765225D01*
X85905000Y82515225D02*
X86405000Y82515225D01*
X22355000Y61500000D02*
X22355000Y60795000D01*
X22355000Y63535000D02*
X22355000Y62830000D01*
X18115000Y61500000D02*
X18115000Y60795000D01*
X18115000Y63535000D02*
X18115000Y62830000D01*
X18115000Y60795000D02*
X22355000Y60795000D01*
X18115000Y63535000D02*
X22355000Y63535000D01*
X33355000Y63535000D02*
X37595000Y63535000D01*
X33355000Y60795000D02*
X37595000Y60795000D01*
X33355000Y63535000D02*
X33355000Y62830000D01*
X33355000Y61500000D02*
X33355000Y60795000D01*
X37595000Y63535000D02*
X37595000Y62830000D01*
X37595000Y61500000D02*
X37595000Y60795000D01*
X49230000Y63535000D02*
X53470000Y63535000D01*
X49230000Y60795000D02*
X53470000Y60795000D01*
X49230000Y63535000D02*
X49230000Y62830000D01*
X49230000Y61500000D02*
X49230000Y60795000D01*
X53470000Y63535000D02*
X53470000Y62830000D01*
X53470000Y61500000D02*
X53470000Y60795000D01*
X12985000Y31531000D02*
X12985000Y28871000D01*
X33365000Y31531000D02*
X12985000Y31531000D01*
X33365000Y28871000D02*
X12985000Y28871000D01*
X33365000Y31531000D02*
X33365000Y28871000D01*
X34635000Y31531000D02*
X35965000Y31531000D01*
X35965000Y31531000D02*
X35965000Y30201000D01*
X12615000Y31901000D02*
X12615000Y101000D01*
X12615000Y101000D02*
X36315000Y101000D01*
X36315000Y101000D02*
X36315000Y31901000D01*
X36315000Y31901000D02*
X12615000Y31901000D01*
X29555000Y39590000D02*
X29555000Y36930000D01*
X29555000Y39590000D02*
X16795000Y39590000D01*
X16795000Y39590000D02*
X16795000Y36930000D01*
X29555000Y36930000D02*
X16795000Y36930000D01*
X32155000Y36930000D02*
X30825000Y36930000D01*
X32155000Y38260000D02*
X32155000Y36930000D01*
X21255000Y64645000D02*
X22505000Y64645000D01*
X22505000Y64645000D02*
X22505000Y82545000D01*
X22505000Y82545000D02*
X18005000Y82545000D01*
X18005000Y82545000D02*
X18005000Y64645000D01*
X18005000Y64645000D02*
X19255000Y64645000D01*
X19255000Y64645000D02*
G75*
G02*
X21255000Y64645000I1000000J0D01*
G01*
X33245000Y64645000D02*
X34495000Y64645000D01*
X33245000Y82545000D02*
X33245000Y64645000D01*
X37745000Y82545000D02*
X33245000Y82545000D01*
X37745000Y64645000D02*
X37745000Y82545000D01*
X36495000Y64645000D02*
X37745000Y64645000D01*
X34495000Y64645000D02*
G75*
G02*
X36495000Y64645000I1000000J0D01*
G01*
X80085000Y24230000D02*
X85145000Y24230000D01*
X85145000Y24230000D02*
X85145000Y75150000D01*
X85145000Y75150000D02*
X73025000Y75150000D01*
X73025000Y75150000D02*
X73025000Y24230000D01*
X73025000Y24230000D02*
X78085000Y24230000D01*
X78085000Y24230000D02*
G75*
G02*
X80085000Y24230000I1000000J0D01*
G01*
X57495000Y13495000D02*
X57495000Y10955000D01*
X57495000Y10955000D02*
X60162000Y10955000D01*
X60162000Y13495000D02*
X60162000Y41562000D01*
X60162000Y8288000D02*
X60162000Y10955000D01*
X44795000Y10955000D02*
X42125000Y10955000D01*
X44795000Y10955000D02*
X44795000Y41562000D01*
X60162000Y41562000D02*
X42125000Y41562000D01*
X57495000Y13495000D02*
X60162000Y13495000D01*
X57495000Y13495000D02*
X57495000Y41562000D01*
X42128000Y41562000D02*
X42128000Y8288000D01*
X42128000Y8288000D02*
X60162000Y8288000D01*
X49120000Y64645000D02*
X50370000Y64645000D01*
X49120000Y82545000D02*
X49120000Y64645000D01*
X53620000Y82545000D02*
X49120000Y82545000D01*
X53620000Y64645000D02*
X53620000Y82545000D01*
X52370000Y64645000D02*
X53620000Y64645000D01*
X50370000Y64645000D02*
G75*
G02*
X52370000Y64645000I1000000J0D01*
G01*
X17720000Y97245000D02*
X81340000Y97245000D01*
X81340000Y97245000D02*
X81340000Y99905000D01*
X81340000Y99905000D02*
X17720000Y99905000D01*
X17720000Y99905000D02*
X17720000Y97245000D01*
X18670000Y99905000D02*
X18670000Y105905000D01*
X18670000Y105905000D02*
X19430000Y105905000D01*
X19430000Y105905000D02*
X19430000Y99905000D01*
X18730000Y99905000D02*
X18730000Y105905000D01*
X18850000Y99905000D02*
X18850000Y105905000D01*
X18970000Y99905000D02*
X18970000Y105905000D01*
X19090000Y99905000D02*
X19090000Y105905000D01*
X19210000Y99905000D02*
X19210000Y105905000D01*
X19330000Y99905000D02*
X19330000Y105905000D01*
X18670000Y96847929D02*
X18670000Y97245000D01*
X19430000Y96847929D02*
X19430000Y97245000D01*
X18670000Y94375000D02*
X18670000Y94762071D01*
X19430000Y94375000D02*
X19430000Y94762071D01*
X20320000Y97245000D02*
X20320000Y99905000D01*
X21210000Y99905000D02*
X21210000Y105905000D01*
X21210000Y105905000D02*
X21970000Y105905000D01*
X21970000Y105905000D02*
X21970000Y99905000D01*
X21210000Y96847929D02*
X21210000Y97245000D01*
X21970000Y96847929D02*
X21970000Y97245000D01*
X21210000Y94307929D02*
X21210000Y94762071D01*
X21970000Y94307929D02*
X21970000Y94762071D01*
X22860000Y97245000D02*
X22860000Y99905000D01*
X23750000Y99905000D02*
X23750000Y105905000D01*
X23750000Y105905000D02*
X24510000Y105905000D01*
X24510000Y105905000D02*
X24510000Y99905000D01*
X23750000Y96847929D02*
X23750000Y97245000D01*
X24510000Y96847929D02*
X24510000Y97245000D01*
X23750000Y94307929D02*
X23750000Y94762071D01*
X24510000Y94307929D02*
X24510000Y94762071D01*
X25400000Y97245000D02*
X25400000Y99905000D01*
X26290000Y99905000D02*
X26290000Y105905000D01*
X26290000Y105905000D02*
X27050000Y105905000D01*
X27050000Y105905000D02*
X27050000Y99905000D01*
X26290000Y96847929D02*
X26290000Y97245000D01*
X27050000Y96847929D02*
X27050000Y97245000D01*
X26290000Y94307929D02*
X26290000Y94762071D01*
X27050000Y94307929D02*
X27050000Y94762071D01*
X27940000Y97245000D02*
X27940000Y99905000D01*
X28830000Y99905000D02*
X28830000Y105905000D01*
X28830000Y105905000D02*
X29590000Y105905000D01*
X29590000Y105905000D02*
X29590000Y99905000D01*
X28830000Y96847929D02*
X28830000Y97245000D01*
X29590000Y96847929D02*
X29590000Y97245000D01*
X28830000Y94307929D02*
X28830000Y94762071D01*
X29590000Y94307929D02*
X29590000Y94762071D01*
X30480000Y97245000D02*
X30480000Y99905000D01*
X31370000Y99905000D02*
X31370000Y105905000D01*
X31370000Y105905000D02*
X32130000Y105905000D01*
X32130000Y105905000D02*
X32130000Y99905000D01*
X31370000Y96847929D02*
X31370000Y97245000D01*
X32130000Y96847929D02*
X32130000Y97245000D01*
X31370000Y94307929D02*
X31370000Y94762071D01*
X32130000Y94307929D02*
X32130000Y94762071D01*
X33020000Y97245000D02*
X33020000Y99905000D01*
X33910000Y99905000D02*
X33910000Y105905000D01*
X33910000Y105905000D02*
X34670000Y105905000D01*
X34670000Y105905000D02*
X34670000Y99905000D01*
X33910000Y96847929D02*
X33910000Y97245000D01*
X34670000Y96847929D02*
X34670000Y97245000D01*
X33910000Y94307929D02*
X33910000Y94762071D01*
X34670000Y94307929D02*
X34670000Y94762071D01*
X35560000Y97245000D02*
X35560000Y99905000D01*
X36450000Y99905000D02*
X36450000Y105905000D01*
X36450000Y105905000D02*
X37210000Y105905000D01*
X37210000Y105905000D02*
X37210000Y99905000D01*
X36450000Y96847929D02*
X36450000Y97245000D01*
X37210000Y96847929D02*
X37210000Y97245000D01*
X36450000Y94307929D02*
X36450000Y94762071D01*
X37210000Y94307929D02*
X37210000Y94762071D01*
X38100000Y97245000D02*
X38100000Y99905000D01*
X38990000Y99905000D02*
X38990000Y105905000D01*
X38990000Y105905000D02*
X39750000Y105905000D01*
X39750000Y105905000D02*
X39750000Y99905000D01*
X38990000Y96847929D02*
X38990000Y97245000D01*
X39750000Y96847929D02*
X39750000Y97245000D01*
X38990000Y94307929D02*
X38990000Y94762071D01*
X39750000Y94307929D02*
X39750000Y94762071D01*
X40640000Y97245000D02*
X40640000Y99905000D01*
X41530000Y99905000D02*
X41530000Y105905000D01*
X41530000Y105905000D02*
X42290000Y105905000D01*
X42290000Y105905000D02*
X42290000Y99905000D01*
X41530000Y96847929D02*
X41530000Y97245000D01*
X42290000Y96847929D02*
X42290000Y97245000D01*
X41530000Y94307929D02*
X41530000Y94762071D01*
X42290000Y94307929D02*
X42290000Y94762071D01*
X43180000Y97245000D02*
X43180000Y99905000D01*
X44070000Y99905000D02*
X44070000Y105905000D01*
X44070000Y105905000D02*
X44830000Y105905000D01*
X44830000Y105905000D02*
X44830000Y99905000D01*
X44070000Y96847929D02*
X44070000Y97245000D01*
X44830000Y96847929D02*
X44830000Y97245000D01*
X44070000Y94307929D02*
X44070000Y94762071D01*
X44830000Y94307929D02*
X44830000Y94762071D01*
X45720000Y97245000D02*
X45720000Y99905000D01*
X46610000Y99905000D02*
X46610000Y105905000D01*
X46610000Y105905000D02*
X47370000Y105905000D01*
X47370000Y105905000D02*
X47370000Y99905000D01*
X46610000Y96847929D02*
X46610000Y97245000D01*
X47370000Y96847929D02*
X47370000Y97245000D01*
X46610000Y94307929D02*
X46610000Y94762071D01*
X47370000Y94307929D02*
X47370000Y94762071D01*
X48260000Y97245000D02*
X48260000Y99905000D01*
X49150000Y99905000D02*
X49150000Y105905000D01*
X49150000Y105905000D02*
X49910000Y105905000D01*
X49910000Y105905000D02*
X49910000Y99905000D01*
X49150000Y96847929D02*
X49150000Y97245000D01*
X49910000Y96847929D02*
X49910000Y97245000D01*
X49150000Y94307929D02*
X49150000Y94762071D01*
X49910000Y94307929D02*
X49910000Y94762071D01*
X50800000Y97245000D02*
X50800000Y99905000D01*
X51690000Y99905000D02*
X51690000Y105905000D01*
X51690000Y105905000D02*
X52450000Y105905000D01*
X52450000Y105905000D02*
X52450000Y99905000D01*
X51690000Y96847929D02*
X51690000Y97245000D01*
X52450000Y96847929D02*
X52450000Y97245000D01*
X51690000Y94307929D02*
X51690000Y94762071D01*
X52450000Y94307929D02*
X52450000Y94762071D01*
X53340000Y97245000D02*
X53340000Y99905000D01*
X54230000Y99905000D02*
X54230000Y105905000D01*
X54230000Y105905000D02*
X54990000Y105905000D01*
X54990000Y105905000D02*
X54990000Y99905000D01*
X54230000Y96847929D02*
X54230000Y97245000D01*
X54990000Y96847929D02*
X54990000Y97245000D01*
X54230000Y94307929D02*
X54230000Y94762071D01*
X54990000Y94307929D02*
X54990000Y94762071D01*
X55880000Y97245000D02*
X55880000Y99905000D01*
X56770000Y99905000D02*
X56770000Y105905000D01*
X56770000Y105905000D02*
X57530000Y105905000D01*
X57530000Y105905000D02*
X57530000Y99905000D01*
X56770000Y96847929D02*
X56770000Y97245000D01*
X57530000Y96847929D02*
X57530000Y97245000D01*
X56770000Y94307929D02*
X56770000Y94762071D01*
X57530000Y94307929D02*
X57530000Y94762071D01*
X58420000Y97245000D02*
X58420000Y99905000D01*
X59310000Y99905000D02*
X59310000Y105905000D01*
X59310000Y105905000D02*
X60070000Y105905000D01*
X60070000Y105905000D02*
X60070000Y99905000D01*
X59310000Y96847929D02*
X59310000Y97245000D01*
X60070000Y96847929D02*
X60070000Y97245000D01*
X59310000Y94307929D02*
X59310000Y94762071D01*
X60070000Y94307929D02*
X60070000Y94762071D01*
X60960000Y97245000D02*
X60960000Y99905000D01*
X61850000Y99905000D02*
X61850000Y105905000D01*
X61850000Y105905000D02*
X62610000Y105905000D01*
X62610000Y105905000D02*
X62610000Y99905000D01*
X61850000Y96847929D02*
X61850000Y97245000D01*
X62610000Y96847929D02*
X62610000Y97245000D01*
X61850000Y94307929D02*
X61850000Y94762071D01*
X62610000Y94307929D02*
X62610000Y94762071D01*
X63500000Y97245000D02*
X63500000Y99905000D01*
X64390000Y99905000D02*
X64390000Y105905000D01*
X64390000Y105905000D02*
X65150000Y105905000D01*
X65150000Y105905000D02*
X65150000Y99905000D01*
X64390000Y96847929D02*
X64390000Y97245000D01*
X65150000Y96847929D02*
X65150000Y97245000D01*
X64390000Y94307929D02*
X64390000Y94762071D01*
X65150000Y94307929D02*
X65150000Y94762071D01*
X66040000Y97245000D02*
X66040000Y99905000D01*
X66930000Y99905000D02*
X66930000Y105905000D01*
X66930000Y105905000D02*
X67690000Y105905000D01*
X67690000Y105905000D02*
X67690000Y99905000D01*
X66930000Y96847929D02*
X66930000Y97245000D01*
X67690000Y96847929D02*
X67690000Y97245000D01*
X66930000Y94307929D02*
X66930000Y94762071D01*
X67690000Y94307929D02*
X67690000Y94762071D01*
X68580000Y97245000D02*
X68580000Y99905000D01*
X69470000Y99905000D02*
X69470000Y105905000D01*
X69470000Y105905000D02*
X70230000Y105905000D01*
X70230000Y105905000D02*
X70230000Y99905000D01*
X69470000Y96847929D02*
X69470000Y97245000D01*
X70230000Y96847929D02*
X70230000Y97245000D01*
X69470000Y94307929D02*
X69470000Y94762071D01*
X70230000Y94307929D02*
X70230000Y94762071D01*
X71120000Y97245000D02*
X71120000Y99905000D01*
X72010000Y99905000D02*
X72010000Y105905000D01*
X72010000Y105905000D02*
X72770000Y105905000D01*
X72770000Y105905000D02*
X72770000Y99905000D01*
X72010000Y96847929D02*
X72010000Y97245000D01*
X72770000Y96847929D02*
X72770000Y97245000D01*
X72010000Y94307929D02*
X72010000Y94762071D01*
X72770000Y94307929D02*
X72770000Y94762071D01*
X73660000Y97245000D02*
X73660000Y99905000D01*
X74550000Y99905000D02*
X74550000Y105905000D01*
X74550000Y105905000D02*
X75310000Y105905000D01*
X75310000Y105905000D02*
X75310000Y99905000D01*
X74550000Y96847929D02*
X74550000Y97245000D01*
X75310000Y96847929D02*
X75310000Y97245000D01*
X74550000Y94307929D02*
X74550000Y94762071D01*
X75310000Y94307929D02*
X75310000Y94762071D01*
X76200000Y97245000D02*
X76200000Y99905000D01*
X77090000Y99905000D02*
X77090000Y105905000D01*
X77090000Y105905000D02*
X77850000Y105905000D01*
X77850000Y105905000D02*
X77850000Y99905000D01*
X77090000Y96847929D02*
X77090000Y97245000D01*
X77850000Y96847929D02*
X77850000Y97245000D01*
X77090000Y94307929D02*
X77090000Y94762071D01*
X77850000Y94307929D02*
X77850000Y94762071D01*
X78740000Y97245000D02*
X78740000Y99905000D01*
X79630000Y99905000D02*
X79630000Y105905000D01*
X79630000Y105905000D02*
X80390000Y105905000D01*
X80390000Y105905000D02*
X80390000Y99905000D01*
X79630000Y96847929D02*
X79630000Y97245000D01*
X80390000Y96847929D02*
X80390000Y97245000D01*
X79630000Y94307929D02*
X79630000Y94762071D01*
X80390000Y94307929D02*
X80390000Y94762071D01*
X19050000Y91995000D02*
X17780000Y91995000D01*
X17780000Y91995000D02*
X17780000Y93265000D01*
D10*
X75108333Y77272858D02*
X75060714Y77225239D01*
X74917857Y77177620D01*
X74822619Y77177620D01*
X74679761Y77225239D01*
X74584523Y77320477D01*
X74536904Y77415715D01*
X74489285Y77606191D01*
X74489285Y77749048D01*
X74536904Y77939524D01*
X74584523Y78034762D01*
X74679761Y78130000D01*
X74822619Y78177620D01*
X74917857Y78177620D01*
X75060714Y78130000D01*
X75108333Y78082381D01*
X76060714Y77177620D02*
X75489285Y77177620D01*
X75775000Y77177620D02*
X75775000Y78177620D01*
X75679761Y78034762D01*
X75584523Y77939524D01*
X75489285Y77891905D01*
X88333333Y88642858D02*
X88285714Y88595239D01*
X88142857Y88547620D01*
X88047619Y88547620D01*
X87904761Y88595239D01*
X87809523Y88690477D01*
X87761904Y88785715D01*
X87714285Y88976191D01*
X87714285Y89119048D01*
X87761904Y89309524D01*
X87809523Y89404762D01*
X87904761Y89500000D01*
X88047619Y89547620D01*
X88142857Y89547620D01*
X88285714Y89500000D01*
X88333333Y89452381D01*
X88714285Y89452381D02*
X88761904Y89500000D01*
X88857142Y89547620D01*
X89095238Y89547620D01*
X89190476Y89500000D01*
X89238095Y89452381D01*
X89285714Y89357143D01*
X89285714Y89261905D01*
X89238095Y89119048D01*
X88666666Y88547620D01*
X89285714Y88547620D01*
X23963333Y61872858D02*
X23915714Y61825239D01*
X23772857Y61777620D01*
X23677619Y61777620D01*
X23534761Y61825239D01*
X23439523Y61920477D01*
X23391904Y62015715D01*
X23344285Y62206191D01*
X23344285Y62349048D01*
X23391904Y62539524D01*
X23439523Y62634762D01*
X23534761Y62730000D01*
X23677619Y62777620D01*
X23772857Y62777620D01*
X23915714Y62730000D01*
X23963333Y62682381D01*
X24296666Y62777620D02*
X24915714Y62777620D01*
X24582380Y62396667D01*
X24725238Y62396667D01*
X24820476Y62349048D01*
X24868095Y62301429D01*
X24915714Y62206191D01*
X24915714Y61968096D01*
X24868095Y61872858D01*
X24820476Y61825239D01*
X24725238Y61777620D01*
X24439523Y61777620D01*
X24344285Y61825239D01*
X24296666Y61872858D01*
X39203333Y61872858D02*
X39155714Y61825239D01*
X39012857Y61777620D01*
X38917619Y61777620D01*
X38774761Y61825239D01*
X38679523Y61920477D01*
X38631904Y62015715D01*
X38584285Y62206191D01*
X38584285Y62349048D01*
X38631904Y62539524D01*
X38679523Y62634762D01*
X38774761Y62730000D01*
X38917619Y62777620D01*
X39012857Y62777620D01*
X39155714Y62730000D01*
X39203333Y62682381D01*
X40060476Y62444286D02*
X40060476Y61777620D01*
X39822380Y62825239D02*
X39584285Y62110953D01*
X40203333Y62110953D01*
X55078333Y61872858D02*
X55030714Y61825239D01*
X54887857Y61777620D01*
X54792619Y61777620D01*
X54649761Y61825239D01*
X54554523Y61920477D01*
X54506904Y62015715D01*
X54459285Y62206191D01*
X54459285Y62349048D01*
X54506904Y62539524D01*
X54554523Y62634762D01*
X54649761Y62730000D01*
X54792619Y62777620D01*
X54887857Y62777620D01*
X55030714Y62730000D01*
X55078333Y62682381D01*
X55935476Y62777620D02*
X55745000Y62777620D01*
X55649761Y62730000D01*
X55602142Y62682381D01*
X55506904Y62539524D01*
X55459285Y62349048D01*
X55459285Y61968096D01*
X55506904Y61872858D01*
X55554523Y61825239D01*
X55649761Y61777620D01*
X55840238Y61777620D01*
X55935476Y61825239D01*
X55983095Y61872858D01*
X56030714Y61968096D01*
X56030714Y62206191D01*
X55983095Y62301429D01*
X55935476Y62349048D01*
X55840238Y62396667D01*
X55649761Y62396667D01*
X55554523Y62349048D01*
X55506904Y62301429D01*
X55459285Y62206191D01*
X13666666Y33547620D02*
X13666666Y32833334D01*
X13619047Y32690477D01*
X13523809Y32595239D01*
X13380952Y32547620D01*
X13285714Y32547620D01*
X14571428Y33214286D02*
X14571428Y32547620D01*
X14333333Y33595239D02*
X14095238Y32880953D01*
X14714285Y32880953D01*
X17738095Y32833334D02*
X18214285Y32833334D01*
X17642857Y32547620D02*
X17976190Y33547620D01*
X18309523Y32547620D01*
X18642857Y33071429D02*
X18976190Y33071429D01*
X19119047Y32547620D02*
X18642857Y32547620D01*
X18642857Y33547620D01*
X19119047Y33547620D01*
X19547619Y32928572D02*
X20309523Y32928572D01*
X20785714Y32547620D02*
X20785714Y33214286D01*
X20785714Y33119048D02*
X20833333Y33166667D01*
X20928571Y33214286D01*
X21071428Y33214286D01*
X21166666Y33166667D01*
X21214285Y33071429D01*
X21214285Y32547620D01*
X21214285Y33071429D02*
X21261904Y33166667D01*
X21357142Y33214286D01*
X21500000Y33214286D01*
X21595238Y33166667D01*
X21642857Y33071429D01*
X21642857Y32547620D01*
X22119047Y32547620D02*
X22119047Y33214286D01*
X22119047Y33547620D02*
X22071428Y33500000D01*
X22119047Y33452381D01*
X22166666Y33500000D01*
X22119047Y33547620D01*
X22119047Y33452381D01*
X23023809Y32595239D02*
X22928571Y32547620D01*
X22738095Y32547620D01*
X22642857Y32595239D01*
X22595238Y32642858D01*
X22547619Y32738096D01*
X22547619Y33023810D01*
X22595238Y33119048D01*
X22642857Y33166667D01*
X22738095Y33214286D01*
X22928571Y33214286D01*
X23023809Y33166667D01*
X23452380Y32547620D02*
X23452380Y33214286D01*
X23452380Y33023810D02*
X23500000Y33119048D01*
X23547619Y33166667D01*
X23642857Y33214286D01*
X23738095Y33214286D01*
X24214285Y32547620D02*
X24119047Y32595239D01*
X24071428Y32642858D01*
X24023809Y32738096D01*
X24023809Y33023810D01*
X24071428Y33119048D01*
X24119047Y33166667D01*
X24214285Y33214286D01*
X24357142Y33214286D01*
X24452380Y33166667D01*
X24500000Y33119048D01*
X24547619Y33023810D01*
X24547619Y32738096D01*
X24500000Y32642858D01*
X24452380Y32595239D01*
X24357142Y32547620D01*
X24214285Y32547620D01*
X24928571Y32595239D02*
X25071428Y32547620D01*
X25309523Y32547620D01*
X25404761Y32595239D01*
X25452380Y32642858D01*
X25500000Y32738096D01*
X25500000Y32833334D01*
X25452380Y32928572D01*
X25404761Y32976191D01*
X25309523Y33023810D01*
X25119047Y33071429D01*
X25023809Y33119048D01*
X24976190Y33166667D01*
X24928571Y33261905D01*
X24928571Y33357143D01*
X24976190Y33452381D01*
X25023809Y33500000D01*
X25119047Y33547620D01*
X25357142Y33547620D01*
X25500000Y33500000D01*
X25928571Y32547620D02*
X25928571Y33547620D01*
X26166666Y33547620D01*
X26309523Y33500000D01*
X26404761Y33404762D01*
X26452380Y33309524D01*
X26500000Y33119048D01*
X26500000Y32976191D01*
X26452380Y32785715D01*
X26404761Y32690477D01*
X26309523Y32595239D01*
X26166666Y32547620D01*
X25928571Y32547620D01*
X26928571Y32928572D02*
X27690476Y32928572D01*
X28642857Y32547620D02*
X28166666Y32547620D01*
X28166666Y33547620D01*
X29452380Y32547620D02*
X28976190Y32547620D01*
X28976190Y33547620D01*
X30357142Y32642858D02*
X30309523Y32595239D01*
X30166666Y32547620D01*
X30071428Y32547620D01*
X29928571Y32595239D01*
X29833333Y32690477D01*
X29785714Y32785715D01*
X29738095Y32976191D01*
X29738095Y33119048D01*
X29785714Y33309524D01*
X29833333Y33404762D01*
X29928571Y33500000D01*
X30071428Y33547620D01*
X30166666Y33547620D01*
X30309523Y33500000D01*
X30357142Y33452381D01*
X30785714Y32547620D02*
X30785714Y33547620D01*
X31357142Y32547620D01*
X31357142Y33547620D01*
X31690476Y33547620D02*
X32023809Y32547620D01*
X32357142Y33547620D01*
X33261666Y38807620D02*
X33261666Y38093334D01*
X33214047Y37950477D01*
X33118809Y37855239D01*
X32975952Y37807620D01*
X32880714Y37807620D01*
X34214047Y38807620D02*
X33737857Y38807620D01*
X33690238Y38331429D01*
X33737857Y38379048D01*
X33833095Y38426667D01*
X34071190Y38426667D01*
X34166428Y38379048D01*
X34214047Y38331429D01*
X34261666Y38236191D01*
X34261666Y37998096D01*
X34214047Y37902858D01*
X34166428Y37855239D01*
X34071190Y37807620D01*
X33833095Y37807620D01*
X33737857Y37855239D01*
X33690238Y37902858D01*
X14238095Y84547620D02*
X14238095Y83738096D01*
X14285714Y83642858D01*
X14333333Y83595239D01*
X14428571Y83547620D01*
X14619047Y83547620D01*
X14714285Y83595239D01*
X14761904Y83642858D01*
X14809523Y83738096D01*
X14809523Y84547620D01*
X15809523Y83547620D02*
X15238095Y83547620D01*
X15523809Y83547620D02*
X15523809Y84547620D01*
X15428571Y84404762D01*
X15333333Y84309524D01*
X15238095Y84261905D01*
X29738095Y84547620D02*
X29738095Y83738096D01*
X29785714Y83642858D01*
X29833333Y83595239D01*
X29928571Y83547620D01*
X30119047Y83547620D01*
X30214285Y83595239D01*
X30261904Y83642858D01*
X30309523Y83738096D01*
X30309523Y84547620D01*
X30738095Y84452381D02*
X30785714Y84500000D01*
X30880952Y84547620D01*
X31119047Y84547620D01*
X31214285Y84500000D01*
X31261904Y84452381D01*
X31309523Y84357143D01*
X31309523Y84261905D01*
X31261904Y84119048D01*
X30690476Y83547620D01*
X31309523Y83547620D01*
X75238095Y22547620D02*
X75238095Y21738096D01*
X75285714Y21642858D01*
X75333333Y21595239D01*
X75428571Y21547620D01*
X75619047Y21547620D01*
X75714285Y21595239D01*
X75761904Y21642858D01*
X75809523Y21738096D01*
X75809523Y22547620D01*
X76190476Y22547620D02*
X76809523Y22547620D01*
X76476190Y22166667D01*
X76619047Y22166667D01*
X76714285Y22119048D01*
X76761904Y22071429D01*
X76809523Y21976191D01*
X76809523Y21738096D01*
X76761904Y21642858D01*
X76714285Y21595239D01*
X76619047Y21547620D01*
X76333333Y21547620D01*
X76238095Y21595239D01*
X76190476Y21642858D01*
X40738095Y43547620D02*
X40738095Y42738096D01*
X40785714Y42642858D01*
X40833333Y42595239D01*
X40928571Y42547620D01*
X41119047Y42547620D01*
X41214285Y42595239D01*
X41261904Y42642858D01*
X41309523Y42738096D01*
X41309523Y43547620D01*
X42214285Y43214286D02*
X42214285Y42547620D01*
X41976190Y43595239D02*
X41738095Y42880953D01*
X42357142Y42880953D01*
X45738095Y84547620D02*
X45738095Y83738096D01*
X45785714Y83642858D01*
X45833333Y83595239D01*
X45928571Y83547620D01*
X46119047Y83547620D01*
X46214285Y83595239D01*
X46261904Y83642858D01*
X46309523Y83738096D01*
X46309523Y84547620D01*
X47261904Y84547620D02*
X46785714Y84547620D01*
X46738095Y84071429D01*
X46785714Y84119048D01*
X46880952Y84166667D01*
X47119047Y84166667D01*
X47214285Y84119048D01*
X47261904Y84071429D01*
X47309523Y83976191D01*
X47309523Y83738096D01*
X47261904Y83642858D01*
X47214285Y83595239D01*
X47119047Y83547620D01*
X46880952Y83547620D01*
X46785714Y83595239D01*
X46738095Y83642858D01*
X13666666Y97047620D02*
X13666666Y96333334D01*
X13619047Y96190477D01*
X13523809Y96095239D01*
X13380952Y96047620D01*
X13285714Y96047620D01*
X14666666Y96047620D02*
X14095238Y96047620D01*
X14380952Y96047620D02*
X14380952Y97047620D01*
X14285714Y96904762D01*
X14190476Y96809524D01*
X14095238Y96761905D01*
M02*
