G04 #@! TF.GenerationSoftware,KiCad,Pcbnew,(5.1.9)-1*
G04 #@! TF.CreationDate,2023-02-14T22:57:02+09:00*
G04 #@! TF.ProjectId,FM-7_SD,464d2d37-5f53-4442-9e6b-696361645f70,rev?*
G04 #@! TF.SameCoordinates,PX53920b0PY93c3260*
G04 #@! TF.FileFunction,Copper,L2,Bot*
G04 #@! TF.FilePolarity,Positive*
%FSLAX46Y46*%
G04 Gerber Fmt 4.6, Leading zero omitted, Abs format (unit mm)*
G04 Created by KiCad (PCBNEW (5.1.9)-1) date 2023-02-14 22:57:02*
%MOMM*%
%LPD*%
G01*
G04 APERTURE LIST*
G04 #@! TA.AperFunction,ComponentPad*
%ADD10C,1.600000*%
G04 #@! TD*
G04 #@! TA.AperFunction,ComponentPad*
%ADD11R,1.600000X1.600000*%
G04 #@! TD*
G04 #@! TA.AperFunction,ComponentPad*
%ADD12R,1.700000X1.700000*%
G04 #@! TD*
G04 #@! TA.AperFunction,ComponentPad*
%ADD13O,1.700000X1.700000*%
G04 #@! TD*
G04 #@! TA.AperFunction,ComponentPad*
%ADD14R,2.400000X1.600000*%
G04 #@! TD*
G04 #@! TA.AperFunction,ComponentPad*
%ADD15O,2.400000X1.600000*%
G04 #@! TD*
G04 #@! TA.AperFunction,ComponentPad*
%ADD16O,1.600000X1.600000*%
G04 #@! TD*
G04 #@! TA.AperFunction,ViaPad*
%ADD17C,0.500000*%
G04 #@! TD*
G04 #@! TA.AperFunction,Conductor*
%ADD18C,0.400000*%
G04 #@! TD*
G04 #@! TA.AperFunction,Conductor*
%ADD19C,0.200000*%
G04 #@! TD*
G04 #@! TA.AperFunction,Conductor*
%ADD20C,0.254000*%
G04 #@! TD*
G04 #@! TA.AperFunction,Conductor*
%ADD21C,0.100000*%
G04 #@! TD*
G04 APERTURE END LIST*
D10*
X77815000Y77630000D03*
X80315000Y77630000D03*
D11*
X87630000Y83820000D03*
D10*
X87630000Y86320000D03*
X21485000Y62165000D03*
X18985000Y62165000D03*
X34225000Y62165000D03*
X36725000Y62165000D03*
X50100000Y62165000D03*
X52600000Y62165000D03*
D12*
X34635000Y30201000D03*
D13*
X32095000Y30201000D03*
X29555000Y30201000D03*
X27015000Y30201000D03*
X24475000Y30201000D03*
X21935000Y30201000D03*
X19395000Y30201000D03*
X16855000Y30201000D03*
X14315000Y30201000D03*
X14315000Y2261000D03*
X14315000Y4801000D03*
X34635000Y2261000D03*
X34635000Y4801000D03*
D12*
X30825000Y38260000D03*
D13*
X28285000Y38260000D03*
X25745000Y38260000D03*
X23205000Y38260000D03*
X20665000Y38260000D03*
X18125000Y38260000D03*
D14*
X24065000Y65975000D03*
D15*
X16445000Y81215000D03*
X24065000Y68515000D03*
X16445000Y78675000D03*
X24065000Y71055000D03*
X16445000Y76135000D03*
X24065000Y73595000D03*
X16445000Y73595000D03*
X24065000Y76135000D03*
X16445000Y71055000D03*
X24065000Y78675000D03*
X16445000Y68515000D03*
X24065000Y81215000D03*
X16445000Y65975000D03*
X31685000Y65975000D03*
X39305000Y81215000D03*
X31685000Y68515000D03*
X39305000Y78675000D03*
X31685000Y71055000D03*
X39305000Y76135000D03*
X31685000Y73595000D03*
X39305000Y73595000D03*
X31685000Y76135000D03*
X39305000Y71055000D03*
X31685000Y78675000D03*
X39305000Y68515000D03*
X31685000Y81215000D03*
D14*
X39305000Y65975000D03*
X86705000Y25560000D03*
D15*
X71465000Y73820000D03*
X86705000Y28100000D03*
X71465000Y71280000D03*
X86705000Y30640000D03*
X71465000Y68740000D03*
X86705000Y33180000D03*
X71465000Y66200000D03*
X86705000Y35720000D03*
X71465000Y63660000D03*
X86705000Y38260000D03*
X71465000Y61120000D03*
X86705000Y40800000D03*
X71465000Y58580000D03*
X86705000Y43340000D03*
X71465000Y56040000D03*
X86705000Y45880000D03*
X71465000Y53500000D03*
X86705000Y48420000D03*
X71465000Y50960000D03*
X86705000Y50960000D03*
X71465000Y48420000D03*
X86705000Y53500000D03*
X71465000Y45880000D03*
X86705000Y56040000D03*
X71465000Y43340000D03*
X86705000Y58580000D03*
X71465000Y40800000D03*
X86705000Y61120000D03*
X71465000Y38260000D03*
X86705000Y63660000D03*
X71465000Y35720000D03*
X86705000Y66200000D03*
X71465000Y33180000D03*
X86705000Y68740000D03*
X71465000Y30640000D03*
X86705000Y71280000D03*
X71465000Y28100000D03*
X86705000Y73820000D03*
X71465000Y25560000D03*
D11*
X58765000Y12225000D03*
D16*
X58765000Y14765000D03*
X58765000Y17305000D03*
X43525000Y40165000D03*
X58765000Y19845000D03*
X43525000Y37625000D03*
X58765000Y22385000D03*
X43525000Y35085000D03*
X58765000Y24925000D03*
X43525000Y32545000D03*
X58765000Y27465000D03*
X43525000Y30005000D03*
X58765000Y30005000D03*
X43525000Y27465000D03*
X58765000Y32545000D03*
X43525000Y24925000D03*
X58765000Y35085000D03*
X43525000Y22385000D03*
X58765000Y37625000D03*
X43525000Y19845000D03*
X58765000Y40165000D03*
X43525000Y17305000D03*
X43525000Y14765000D03*
X43525000Y12225000D03*
X46065000Y21115000D03*
X46065000Y23655000D03*
X46065000Y31275000D03*
X46065000Y33815000D03*
D15*
X47560000Y65975000D03*
X55180000Y81215000D03*
X47560000Y68515000D03*
X55180000Y78675000D03*
X47560000Y71055000D03*
X55180000Y76135000D03*
X47560000Y73595000D03*
X55180000Y73595000D03*
X47560000Y76135000D03*
X55180000Y71055000D03*
X47560000Y78675000D03*
X55180000Y68515000D03*
X47560000Y81215000D03*
D14*
X55180000Y65975000D03*
D12*
X19050000Y93265000D03*
D13*
X19050000Y95805000D03*
X21590000Y93265000D03*
X21590000Y95805000D03*
X24130000Y93265000D03*
X24130000Y95805000D03*
X26670000Y93265000D03*
X26670000Y95805000D03*
X29210000Y93265000D03*
X29210000Y95805000D03*
X31750000Y93265000D03*
X31750000Y95805000D03*
X34290000Y93265000D03*
X34290000Y95805000D03*
X36830000Y93265000D03*
X36830000Y95805000D03*
X39370000Y93265000D03*
X39370000Y95805000D03*
X41910000Y93265000D03*
X41910000Y95805000D03*
X44450000Y93265000D03*
X44450000Y95805000D03*
X46990000Y93265000D03*
X46990000Y95805000D03*
X49530000Y93265000D03*
X49530000Y95805000D03*
X52070000Y93265000D03*
X52070000Y95805000D03*
X54610000Y93265000D03*
X54610000Y95805000D03*
X57150000Y93265000D03*
X57150000Y95805000D03*
X59690000Y93265000D03*
X59690000Y95805000D03*
X62230000Y93265000D03*
X62230000Y95805000D03*
X64770000Y93265000D03*
X64770000Y95805000D03*
X67310000Y93265000D03*
X67310000Y95805000D03*
X69850000Y93265000D03*
X69850000Y95805000D03*
X72390000Y93265000D03*
X72390000Y95805000D03*
X74930000Y93265000D03*
X74930000Y95805000D03*
X77470000Y93265000D03*
X77470000Y95805000D03*
X80010000Y93265000D03*
X80010000Y95805000D03*
D17*
X69416300Y52321000D03*
X50871800Y81869900D03*
X80165500Y59997900D03*
X84545700Y47065000D03*
X59159700Y89097100D03*
X36032700Y74017100D03*
X32010000Y58882300D03*
X33413700Y58850300D03*
X36119300Y60851900D03*
X57259700Y82142500D03*
X50875900Y86322800D03*
X59226300Y86662000D03*
X40996900Y74317400D03*
X33145900Y59621600D03*
X57957600Y82603500D03*
X75402700Y66105300D03*
X61775300Y45462700D03*
X32349400Y60625800D03*
X50832200Y77243800D03*
D18*
X34635000Y30201000D02*
X34635000Y31451300D01*
X31848000Y37009600D02*
X29535400Y37009600D01*
X29535400Y37009600D02*
X28285000Y38260000D01*
X34225000Y62165000D02*
X34225000Y39386600D01*
X34225000Y39386600D02*
X31848000Y37009600D01*
X34635000Y31451300D02*
X31848000Y34238300D01*
X31848000Y34238300D02*
X31848000Y37009600D01*
X31685000Y65975000D02*
X33285300Y65975000D01*
X31685000Y71055000D02*
X33285300Y71055000D01*
X33285300Y71055000D02*
X33285300Y65975000D01*
X87630000Y86320000D02*
X80315000Y79005000D01*
X80315000Y79005000D02*
X80315000Y77630000D01*
X80010000Y94554700D02*
X80557000Y94554700D01*
X80557000Y94554700D02*
X87630000Y87481700D01*
X87630000Y87481700D02*
X87630000Y86320000D01*
X85104700Y40800000D02*
X85104700Y46704300D01*
X85104700Y46704300D02*
X85196000Y46795600D01*
X85196000Y46795600D02*
X85196000Y47334400D01*
X85196000Y47334400D02*
X85104700Y47425700D01*
X85104700Y47425700D02*
X85104700Y72840300D01*
X85104700Y72840300D02*
X80315000Y77630000D01*
X86705000Y40800000D02*
X85104700Y40800000D01*
X77470000Y95805000D02*
X78720300Y95805000D01*
X80010000Y95179900D02*
X79345400Y95179900D01*
X79345400Y95179900D02*
X78720300Y95805000D01*
X80010000Y95179900D02*
X80010000Y94554700D01*
X80010000Y95805000D02*
X80010000Y95179900D01*
X39305000Y81215000D02*
X40905300Y81215000D01*
X49530000Y93265000D02*
X49530000Y92014700D01*
X49530000Y92014700D02*
X40905300Y83390000D01*
X40905300Y83390000D02*
X40905300Y81215000D01*
X27767000Y39521300D02*
X27015000Y38769300D01*
X27015000Y38769300D02*
X27015000Y30201000D01*
X29574700Y38260000D02*
X29574700Y38807000D01*
X29574700Y38807000D02*
X28860400Y39521300D01*
X28860400Y39521300D02*
X27767000Y39521300D01*
X21485000Y62165000D02*
X21485000Y45803300D01*
X21485000Y45803300D02*
X27767000Y39521300D01*
X30825000Y38260000D02*
X29574700Y38260000D01*
X39305000Y81215000D02*
X37704700Y81215000D01*
X37704700Y81215000D02*
X36725000Y80235300D01*
X36725000Y80235300D02*
X36725000Y62165000D01*
D19*
X69416300Y52321000D02*
X61534800Y44439500D01*
X61534800Y44439500D02*
X60880800Y44439500D01*
X60880800Y44439500D02*
X44625300Y28184000D01*
X44625300Y28184000D02*
X44625300Y27465000D01*
X43525000Y27465000D02*
X44625300Y27465000D01*
X55180000Y76135000D02*
X53679700Y76135000D01*
X53679700Y76135000D02*
X53679700Y79062000D01*
X53679700Y79062000D02*
X50871800Y81869900D01*
X72965300Y73820000D02*
X74771800Y72013500D01*
X74771800Y72013500D02*
X74771800Y65895400D01*
X74771800Y65895400D02*
X75013600Y65653600D01*
X75013600Y65653600D02*
X75013600Y44906900D01*
X75013600Y44906900D02*
X72176700Y42070000D01*
X72176700Y42070000D02*
X70709100Y42070000D01*
X70709100Y42070000D02*
X59744400Y31105300D01*
X59744400Y31105300D02*
X58765000Y31105300D01*
X71465000Y73820000D02*
X72965300Y73820000D01*
X58765000Y30005000D02*
X58765000Y31105300D01*
X71465000Y71280000D02*
X69964700Y71280000D01*
X58765000Y32545000D02*
X58765000Y33645300D01*
X58765000Y33645300D02*
X58627500Y33645300D01*
X58627500Y33645300D02*
X57663900Y34608900D01*
X57663900Y34608900D02*
X57663900Y40631700D01*
X57663900Y40631700D02*
X58297600Y41265400D01*
X58297600Y41265400D02*
X59560900Y41265400D01*
X59560900Y41265400D02*
X70525500Y52230000D01*
X70525500Y52230000D02*
X72203000Y52230000D01*
X72203000Y52230000D02*
X72981900Y53008900D01*
X72981900Y53008900D02*
X72981900Y59046700D01*
X72981900Y59046700D02*
X72178600Y59850000D01*
X72178600Y59850000D02*
X70751500Y59850000D01*
X70751500Y59850000D02*
X69964700Y60636800D01*
X69964700Y60636800D02*
X69964700Y71280000D01*
X72965300Y68740000D02*
X72965300Y66569700D01*
X72965300Y66569700D02*
X74201700Y65333300D01*
X74201700Y65333300D02*
X74201700Y46643000D01*
X74201700Y46643000D02*
X72027100Y44468400D01*
X72027100Y44468400D02*
X69248700Y44468400D01*
X69248700Y44468400D02*
X59865300Y35085000D01*
X71465000Y68740000D02*
X72965300Y68740000D01*
X58765000Y35085000D02*
X59865300Y35085000D01*
X71465000Y66200000D02*
X73797800Y63867200D01*
X73797800Y63867200D02*
X73797800Y48796100D01*
X73797800Y48796100D02*
X72151700Y47150000D01*
X72151700Y47150000D02*
X69390300Y47150000D01*
X69390300Y47150000D02*
X59865300Y37625000D01*
X58765000Y37625000D02*
X59865300Y37625000D01*
X59865300Y40165000D02*
X69453400Y49753100D01*
X69453400Y49753100D02*
X72296200Y49753100D01*
X72296200Y49753100D02*
X73382300Y50839200D01*
X73382300Y50839200D02*
X73382300Y63243000D01*
X73382300Y63243000D02*
X72965300Y63660000D01*
X71465000Y63660000D02*
X72965300Y63660000D01*
X58765000Y40165000D02*
X59865300Y40165000D01*
X86705000Y71280000D02*
X88205300Y71280000D01*
X58765000Y24925000D02*
X59865300Y24925000D01*
X59865300Y24925000D02*
X69480400Y34540100D01*
X69480400Y34540100D02*
X87488800Y34540100D01*
X87488800Y34540100D02*
X88615400Y35666700D01*
X88615400Y35666700D02*
X88615400Y70869900D01*
X88615400Y70869900D02*
X88205300Y71280000D01*
X80165500Y59997900D02*
X80165500Y47499700D01*
X80165500Y47499700D02*
X72195800Y39530000D01*
X72195800Y39530000D02*
X70750300Y39530000D01*
X70750300Y39530000D02*
X59785600Y28565300D01*
X59785600Y28565300D02*
X58765000Y28565300D01*
X58765000Y27465000D02*
X58765000Y28565300D01*
X24475000Y30201000D02*
X24475000Y31351300D01*
X20665000Y38260000D02*
X20665000Y35161300D01*
X20665000Y35161300D02*
X24475000Y31351300D01*
X18125000Y38260000D02*
X18125000Y37109700D01*
X18125000Y37109700D02*
X16855000Y35839700D01*
X16855000Y35839700D02*
X16855000Y30201000D01*
X59159700Y89097100D02*
X84545700Y63711100D01*
X84545700Y63711100D02*
X84545700Y47065000D01*
X52070000Y95805000D02*
X50919700Y95805000D01*
X50919700Y95805000D02*
X50919700Y95517300D01*
X50919700Y95517300D02*
X50057100Y94654700D01*
X50057100Y94654700D02*
X49231200Y94654700D01*
X49231200Y94654700D02*
X48248300Y93671800D01*
X48248300Y93671800D02*
X48248300Y92843100D01*
X48248300Y92843100D02*
X36032700Y80627500D01*
X36032700Y80627500D02*
X36032700Y74017100D01*
X39305000Y68515000D02*
X37804700Y68515000D01*
X54610000Y95805000D02*
X54610000Y94654700D01*
X54610000Y94654700D02*
X54322300Y94654700D01*
X54322300Y94654700D02*
X53459700Y93792100D01*
X53459700Y93792100D02*
X53459700Y92234300D01*
X53459700Y92234300D02*
X40935700Y79710300D01*
X40935700Y79710300D02*
X40935700Y75795800D01*
X40935700Y75795800D02*
X40004900Y74865000D01*
X40004900Y74865000D02*
X38586700Y74865000D01*
X38586700Y74865000D02*
X37804700Y74083000D01*
X37804700Y74083000D02*
X37804700Y68515000D01*
X40805300Y73595000D02*
X41052800Y73595000D01*
X41052800Y73595000D02*
X45412700Y77954900D01*
X45412700Y77954900D02*
X45412700Y82213000D01*
X45412700Y82213000D02*
X55999700Y92800000D01*
X55999700Y92800000D02*
X55999700Y93792100D01*
X55999700Y93792100D02*
X56862300Y94654700D01*
X56862300Y94654700D02*
X57150000Y94654700D01*
X39305000Y73595000D02*
X40805300Y73595000D01*
X57150000Y95805000D02*
X57150000Y94654700D01*
X24130000Y95805000D02*
X24130000Y94654700D01*
X24130000Y94654700D02*
X23842300Y94654700D01*
X23842300Y94654700D02*
X22979700Y93792100D01*
X22979700Y93792100D02*
X22979700Y92031400D01*
X22979700Y92031400D02*
X22564600Y91616300D01*
X22564600Y91616300D02*
X22564600Y73096500D01*
X22564600Y73096500D02*
X23336100Y72325000D01*
X23336100Y72325000D02*
X24816700Y72325000D01*
X24816700Y72325000D02*
X28420700Y68721000D01*
X28420700Y68721000D02*
X28420700Y62471600D01*
X28420700Y62471600D02*
X32010000Y58882300D01*
X29210000Y95805000D02*
X29210000Y94654700D01*
X29210000Y94654700D02*
X29497600Y94654700D01*
X29497600Y94654700D02*
X30406100Y93746200D01*
X30406100Y93746200D02*
X30406100Y92336100D01*
X30406100Y92336100D02*
X30144900Y92074900D01*
X30144900Y92074900D02*
X30144900Y61765700D01*
X30144900Y61765700D02*
X33060300Y58850300D01*
X33060300Y58850300D02*
X33413700Y58850300D01*
X34290000Y95805000D02*
X34290000Y94654700D01*
X34290000Y94654700D02*
X34577700Y94654700D01*
X34577700Y94654700D02*
X35440300Y93792100D01*
X35440300Y93792100D02*
X35440300Y61530900D01*
X35440300Y61530900D02*
X36119300Y60851900D01*
X69964700Y56040000D02*
X57259700Y68745000D01*
X57259700Y68745000D02*
X57259700Y82142500D01*
X71465000Y56040000D02*
X69964700Y56040000D01*
X24065000Y76135000D02*
X25565300Y76135000D01*
X77470000Y93265000D02*
X76319700Y93265000D01*
X76319700Y93265000D02*
X76319700Y93552700D01*
X76319700Y93552700D02*
X75457100Y94415300D01*
X75457100Y94415300D02*
X74631200Y94415300D01*
X74631200Y94415300D02*
X73660000Y95386500D01*
X73660000Y95386500D02*
X73660000Y96171000D01*
X73660000Y96171000D02*
X72072900Y97758100D01*
X72072900Y97758100D02*
X26974000Y97758100D01*
X26974000Y97758100D02*
X25482700Y96266800D01*
X25482700Y96266800D02*
X25482700Y92197300D01*
X25482700Y92197300D02*
X25565300Y92114700D01*
X25565300Y92114700D02*
X25565300Y76135000D01*
X16445000Y68515000D02*
X17945300Y68515000D01*
X21590000Y95805000D02*
X21590000Y94654700D01*
X21590000Y94654700D02*
X21302300Y94654700D01*
X21302300Y94654700D02*
X20439700Y93792100D01*
X20439700Y93792100D02*
X20439700Y71009400D01*
X20439700Y71009400D02*
X17945300Y68515000D01*
X54429900Y68515000D02*
X54429900Y69081000D01*
X54429900Y69081000D02*
X50281900Y73229000D01*
X50281900Y73229000D02*
X50281900Y85728800D01*
X50281900Y85728800D02*
X50875900Y86322800D01*
X55180000Y65975000D02*
X53679700Y65975000D01*
X54429900Y68515000D02*
X53679700Y67764800D01*
X53679700Y67764800D02*
X53679700Y65975000D01*
X55180000Y68515000D02*
X54429900Y68515000D01*
X59226300Y86662000D02*
X60689600Y86662000D01*
X60689600Y86662000D02*
X83262900Y64088700D01*
X83262900Y64088700D02*
X83262900Y41903800D01*
X83262900Y41903800D02*
X85485600Y39681100D01*
X85485600Y39681100D02*
X87550500Y39681100D01*
X87550500Y39681100D02*
X88205300Y40335900D01*
X88205300Y40335900D02*
X88205300Y43340000D01*
X86705000Y43340000D02*
X88205300Y43340000D01*
X40996900Y74317400D02*
X44612100Y77932600D01*
X44612100Y77932600D02*
X44612100Y82116800D01*
X44612100Y82116800D02*
X54610000Y92114700D01*
X54610000Y93265000D02*
X54610000Y92114700D01*
X40805300Y71055000D02*
X46059600Y76309300D01*
X46059600Y76309300D02*
X46059600Y82293600D01*
X46059600Y82293600D02*
X57031000Y93265000D01*
X57031000Y93265000D02*
X57150000Y93265000D01*
X39305000Y71055000D02*
X40805300Y71055000D01*
X27820300Y95805000D02*
X27820300Y96092500D01*
X27820300Y96092500D02*
X29085500Y97357700D01*
X29085500Y97357700D02*
X59772900Y97357700D01*
X59772900Y97357700D02*
X60843200Y96287400D01*
X60843200Y96287400D02*
X60843200Y92555700D01*
X60843200Y92555700D02*
X58585400Y90297900D01*
X58585400Y90297900D02*
X58585400Y84700700D01*
X58585400Y84700700D02*
X70736100Y72550000D01*
X70736100Y72550000D02*
X72162700Y72550000D01*
X72162700Y72550000D02*
X74371500Y70341200D01*
X74371500Y70341200D02*
X74371500Y65729600D01*
X74371500Y65729600D02*
X74602100Y65499000D01*
X74602100Y65499000D02*
X74602100Y46477100D01*
X74602100Y46477100D02*
X71465000Y43340000D01*
X26670000Y95805000D02*
X27820300Y95805000D01*
X31750000Y94654700D02*
X32037700Y94654700D01*
X32037700Y94654700D02*
X32900300Y93792100D01*
X32900300Y93792100D02*
X32900300Y92234300D01*
X32900300Y92234300D02*
X34218500Y90916100D01*
X34218500Y90916100D02*
X34218500Y64230700D01*
X34218500Y64230700D02*
X33115100Y63127300D01*
X33115100Y63127300D02*
X33115100Y59652400D01*
X33115100Y59652400D02*
X33145900Y59621600D01*
X31750000Y95805000D02*
X31750000Y94654700D01*
X71465000Y53500000D02*
X69964700Y53500000D01*
X36830000Y95805000D02*
X37980300Y95805000D01*
X37980300Y95805000D02*
X37980300Y96092600D01*
X37980300Y96092600D02*
X38845000Y96957300D01*
X38845000Y96957300D02*
X57634600Y96957300D01*
X57634600Y96957300D02*
X58314600Y96277300D01*
X58314600Y96277300D02*
X58314600Y92802600D01*
X58314600Y92802600D02*
X56680400Y91168400D01*
X56680400Y91168400D02*
X56680400Y66784300D01*
X56680400Y66784300D02*
X69964700Y53500000D01*
X69964700Y58580000D02*
X57957600Y70587100D01*
X57957600Y70587100D02*
X57957600Y82603500D01*
X71465000Y58580000D02*
X69964700Y58580000D01*
X16445000Y73595000D02*
X14944700Y73595000D01*
X58765000Y17305000D02*
X57664700Y17305000D01*
X57664700Y17305000D02*
X52468000Y22501700D01*
X52468000Y22501700D02*
X45650100Y22501700D01*
X45650100Y22501700D02*
X44496800Y23655000D01*
X44496800Y23655000D02*
X31919300Y23655000D01*
X31919300Y23655000D02*
X25745000Y29829300D01*
X25745000Y29829300D02*
X25745000Y35029900D01*
X25745000Y35029900D02*
X24475000Y36299900D01*
X24475000Y36299900D02*
X24475000Y38684300D01*
X24475000Y38684300D02*
X14944700Y48214600D01*
X14944700Y48214600D02*
X14944700Y73595000D01*
X16445000Y73595000D02*
X17945300Y73595000D01*
X19050000Y93265000D02*
X19050000Y74699700D01*
X19050000Y74699700D02*
X17945300Y73595000D01*
X75402700Y66105300D02*
X81351400Y60156600D01*
X81351400Y60156600D02*
X81351400Y39573200D01*
X81351400Y39573200D02*
X81351500Y39573200D01*
X81351500Y39573200D02*
X85204700Y35720000D01*
X86705000Y35720000D02*
X85204700Y35720000D01*
X61775300Y45462700D02*
X51261700Y55976300D01*
X51261700Y55976300D02*
X51261700Y71400200D01*
X51261700Y71400200D02*
X49060300Y73601600D01*
X49060300Y73601600D02*
X49060300Y81215000D01*
X47560000Y81215000D02*
X49060300Y81215000D01*
X47560000Y71055000D02*
X46059700Y71055000D01*
X47560000Y76135000D02*
X46059700Y74634700D01*
X46059700Y74634700D02*
X46059700Y71055000D01*
X31685000Y81215000D02*
X33185300Y81215000D01*
X32349400Y60625800D02*
X32349400Y63429400D01*
X32349400Y63429400D02*
X33785700Y64865700D01*
X33785700Y64865700D02*
X33785700Y80614600D01*
X33785700Y80614600D02*
X33185300Y81215000D01*
X55180000Y71055000D02*
X53679700Y71055000D01*
X50832200Y77243800D02*
X50832200Y73902500D01*
X50832200Y73902500D02*
X53679700Y71055000D01*
D20*
X99340000Y660000D02*
X660000Y660000D01*
X660000Y5220128D01*
X2765000Y5220128D01*
X2765000Y4779872D01*
X2850890Y4348075D01*
X3019369Y3941331D01*
X3263962Y3575271D01*
X3575271Y3263962D01*
X3941331Y3019369D01*
X4348075Y2850890D01*
X4779872Y2765000D01*
X5220128Y2765000D01*
X5651925Y2850890D01*
X6058669Y3019369D01*
X6424729Y3263962D01*
X6736038Y3575271D01*
X6980631Y3941331D01*
X7149110Y4348075D01*
X7235000Y4779872D01*
X7235000Y4947260D01*
X12830000Y4947260D01*
X12830000Y4654740D01*
X12887068Y4367842D01*
X12999010Y4097589D01*
X13161525Y3854368D01*
X13368368Y3647525D01*
X13542760Y3531000D01*
X13368368Y3414475D01*
X13161525Y3207632D01*
X12999010Y2964411D01*
X12887068Y2694158D01*
X12830000Y2407260D01*
X12830000Y2114740D01*
X12887068Y1827842D01*
X12999010Y1557589D01*
X13161525Y1314368D01*
X13368368Y1107525D01*
X13611589Y945010D01*
X13881842Y833068D01*
X14168740Y776000D01*
X14461260Y776000D01*
X14748158Y833068D01*
X15018411Y945010D01*
X15261632Y1107525D01*
X15468475Y1314368D01*
X15630990Y1557589D01*
X15742932Y1827842D01*
X15800000Y2114740D01*
X15800000Y2407260D01*
X15742932Y2694158D01*
X15630990Y2964411D01*
X15468475Y3207632D01*
X15261632Y3414475D01*
X15087240Y3531000D01*
X15261632Y3647525D01*
X15468475Y3854368D01*
X15630990Y4097589D01*
X15742932Y4367842D01*
X15800000Y4654740D01*
X15800000Y4947260D01*
X33150000Y4947260D01*
X33150000Y4654740D01*
X33207068Y4367842D01*
X33319010Y4097589D01*
X33481525Y3854368D01*
X33688368Y3647525D01*
X33862760Y3531000D01*
X33688368Y3414475D01*
X33481525Y3207632D01*
X33319010Y2964411D01*
X33207068Y2694158D01*
X33150000Y2407260D01*
X33150000Y2114740D01*
X33207068Y1827842D01*
X33319010Y1557589D01*
X33481525Y1314368D01*
X33688368Y1107525D01*
X33931589Y945010D01*
X34201842Y833068D01*
X34488740Y776000D01*
X34781260Y776000D01*
X35068158Y833068D01*
X35338411Y945010D01*
X35581632Y1107525D01*
X35788475Y1314368D01*
X35950990Y1557589D01*
X36062932Y1827842D01*
X36120000Y2114740D01*
X36120000Y2407260D01*
X36062932Y2694158D01*
X35950990Y2964411D01*
X35788475Y3207632D01*
X35581632Y3414475D01*
X35407240Y3531000D01*
X35581632Y3647525D01*
X35788475Y3854368D01*
X35950990Y4097589D01*
X36062932Y4367842D01*
X36120000Y4654740D01*
X36120000Y4947260D01*
X36065723Y5220128D01*
X92765000Y5220128D01*
X92765000Y4779872D01*
X92850890Y4348075D01*
X93019369Y3941331D01*
X93263962Y3575271D01*
X93575271Y3263962D01*
X93941331Y3019369D01*
X94348075Y2850890D01*
X94779872Y2765000D01*
X95220128Y2765000D01*
X95651925Y2850890D01*
X96058669Y3019369D01*
X96424729Y3263962D01*
X96736038Y3575271D01*
X96980631Y3941331D01*
X97149110Y4348075D01*
X97235000Y4779872D01*
X97235000Y5220128D01*
X97149110Y5651925D01*
X96980631Y6058669D01*
X96736038Y6424729D01*
X96424729Y6736038D01*
X96058669Y6980631D01*
X95651925Y7149110D01*
X95220128Y7235000D01*
X94779872Y7235000D01*
X94348075Y7149110D01*
X93941331Y6980631D01*
X93575271Y6736038D01*
X93263962Y6424729D01*
X93019369Y6058669D01*
X92850890Y5651925D01*
X92765000Y5220128D01*
X36065723Y5220128D01*
X36062932Y5234158D01*
X35950990Y5504411D01*
X35788475Y5747632D01*
X35581632Y5954475D01*
X35338411Y6116990D01*
X35068158Y6228932D01*
X34781260Y6286000D01*
X34488740Y6286000D01*
X34201842Y6228932D01*
X33931589Y6116990D01*
X33688368Y5954475D01*
X33481525Y5747632D01*
X33319010Y5504411D01*
X33207068Y5234158D01*
X33150000Y4947260D01*
X15800000Y4947260D01*
X15742932Y5234158D01*
X15630990Y5504411D01*
X15468475Y5747632D01*
X15261632Y5954475D01*
X15018411Y6116990D01*
X14748158Y6228932D01*
X14461260Y6286000D01*
X14168740Y6286000D01*
X13881842Y6228932D01*
X13611589Y6116990D01*
X13368368Y5954475D01*
X13161525Y5747632D01*
X12999010Y5504411D01*
X12887068Y5234158D01*
X12830000Y4947260D01*
X7235000Y4947260D01*
X7235000Y5220128D01*
X7149110Y5651925D01*
X6980631Y6058669D01*
X6736038Y6424729D01*
X6424729Y6736038D01*
X6058669Y6980631D01*
X5651925Y7149110D01*
X5220128Y7235000D01*
X4779872Y7235000D01*
X4348075Y7149110D01*
X3941331Y6980631D01*
X3575271Y6736038D01*
X3263962Y6424729D01*
X3019369Y6058669D01*
X2850890Y5651925D01*
X2765000Y5220128D01*
X660000Y5220128D01*
X660000Y12366335D01*
X42090000Y12366335D01*
X42090000Y12083665D01*
X42145147Y11806426D01*
X42253320Y11545273D01*
X42410363Y11310241D01*
X42610241Y11110363D01*
X42845273Y10953320D01*
X43106426Y10845147D01*
X43383665Y10790000D01*
X43666335Y10790000D01*
X43943574Y10845147D01*
X44204727Y10953320D01*
X44439759Y11110363D01*
X44639637Y11310241D01*
X44796680Y11545273D01*
X44904853Y11806426D01*
X44960000Y12083665D01*
X44960000Y12366335D01*
X44904853Y12643574D01*
X44796680Y12904727D01*
X44639637Y13139759D01*
X44439759Y13339637D01*
X44204727Y13496680D01*
X44194135Y13501067D01*
X44380131Y13612615D01*
X44588519Y13801586D01*
X44756037Y14027580D01*
X44876246Y14281913D01*
X44916904Y14415961D01*
X44794915Y14638000D01*
X43652000Y14638000D01*
X43652000Y14618000D01*
X43398000Y14618000D01*
X43398000Y14638000D01*
X42255085Y14638000D01*
X42133096Y14415961D01*
X42173754Y14281913D01*
X42293963Y14027580D01*
X42461481Y13801586D01*
X42669869Y13612615D01*
X42855865Y13501067D01*
X42845273Y13496680D01*
X42610241Y13339637D01*
X42410363Y13139759D01*
X42253320Y12904727D01*
X42145147Y12643574D01*
X42090000Y12366335D01*
X660000Y12366335D01*
X660000Y30347260D01*
X12830000Y30347260D01*
X12830000Y30054740D01*
X12887068Y29767842D01*
X12999010Y29497589D01*
X13161525Y29254368D01*
X13368368Y29047525D01*
X13611589Y28885010D01*
X13881842Y28773068D01*
X14168740Y28716000D01*
X14461260Y28716000D01*
X14748158Y28773068D01*
X15018411Y28885010D01*
X15261632Y29047525D01*
X15468475Y29254368D01*
X15585000Y29428760D01*
X15701525Y29254368D01*
X15908368Y29047525D01*
X16151589Y28885010D01*
X16421842Y28773068D01*
X16708740Y28716000D01*
X17001260Y28716000D01*
X17288158Y28773068D01*
X17558411Y28885010D01*
X17801632Y29047525D01*
X18008475Y29254368D01*
X18125000Y29428760D01*
X18241525Y29254368D01*
X18448368Y29047525D01*
X18691589Y28885010D01*
X18961842Y28773068D01*
X19248740Y28716000D01*
X19541260Y28716000D01*
X19828158Y28773068D01*
X20098411Y28885010D01*
X20341632Y29047525D01*
X20548475Y29254368D01*
X20665000Y29428760D01*
X20781525Y29254368D01*
X20988368Y29047525D01*
X21231589Y28885010D01*
X21501842Y28773068D01*
X21788740Y28716000D01*
X22081260Y28716000D01*
X22368158Y28773068D01*
X22638411Y28885010D01*
X22881632Y29047525D01*
X23088475Y29254368D01*
X23205000Y29428760D01*
X23321525Y29254368D01*
X23528368Y29047525D01*
X23771589Y28885010D01*
X24041842Y28773068D01*
X24328740Y28716000D01*
X24621260Y28716000D01*
X24908158Y28773068D01*
X25178411Y28885010D01*
X25421632Y29047525D01*
X25454480Y29080373D01*
X31374046Y23160807D01*
X31397062Y23132762D01*
X31508980Y23040913D01*
X31636667Y22972663D01*
X31775215Y22930635D01*
X31919300Y22916444D01*
X31955405Y22920000D01*
X42193372Y22920000D01*
X42145147Y22803574D01*
X42090000Y22526335D01*
X42090000Y22243665D01*
X42145147Y21966426D01*
X42253320Y21705273D01*
X42410363Y21470241D01*
X42610241Y21270363D01*
X42842759Y21115000D01*
X42610241Y20959637D01*
X42410363Y20759759D01*
X42253320Y20524727D01*
X42145147Y20263574D01*
X42090000Y19986335D01*
X42090000Y19703665D01*
X42145147Y19426426D01*
X42253320Y19165273D01*
X42410363Y18930241D01*
X42610241Y18730363D01*
X42842759Y18575000D01*
X42610241Y18419637D01*
X42410363Y18219759D01*
X42253320Y17984727D01*
X42145147Y17723574D01*
X42090000Y17446335D01*
X42090000Y17163665D01*
X42145147Y16886426D01*
X42253320Y16625273D01*
X42410363Y16390241D01*
X42610241Y16190363D01*
X42845273Y16033320D01*
X42855865Y16028933D01*
X42669869Y15917385D01*
X42461481Y15728414D01*
X42293963Y15502420D01*
X42173754Y15248087D01*
X42133096Y15114039D01*
X42255085Y14892000D01*
X43398000Y14892000D01*
X43398000Y14912000D01*
X43652000Y14912000D01*
X43652000Y14892000D01*
X44794915Y14892000D01*
X44916904Y15114039D01*
X44876246Y15248087D01*
X44756037Y15502420D01*
X44588519Y15728414D01*
X44380131Y15917385D01*
X44194135Y16028933D01*
X44204727Y16033320D01*
X44439759Y16190363D01*
X44639637Y16390241D01*
X44796680Y16625273D01*
X44904853Y16886426D01*
X44960000Y17163665D01*
X44960000Y17446335D01*
X44904853Y17723574D01*
X44796680Y17984727D01*
X44639637Y18219759D01*
X44439759Y18419637D01*
X44207241Y18575000D01*
X44439759Y18730363D01*
X44639637Y18930241D01*
X44796680Y19165273D01*
X44904853Y19426426D01*
X44960000Y19703665D01*
X44960000Y19986335D01*
X44904853Y20263574D01*
X44899646Y20276144D01*
X44950363Y20200241D01*
X45150241Y20000363D01*
X45385273Y19843320D01*
X45646426Y19735147D01*
X45923665Y19680000D01*
X46206335Y19680000D01*
X46483574Y19735147D01*
X46744727Y19843320D01*
X46979759Y20000363D01*
X47179637Y20200241D01*
X47336680Y20435273D01*
X47444853Y20696426D01*
X47500000Y20973665D01*
X47500000Y21256335D01*
X47444853Y21533574D01*
X47348289Y21766700D01*
X52163554Y21766700D01*
X57119446Y16810807D01*
X57142462Y16782762D01*
X57170506Y16759747D01*
X57254380Y16690913D01*
X57382066Y16622663D01*
X57520615Y16580635D01*
X57523324Y16580368D01*
X57650363Y16390241D01*
X57850241Y16190363D01*
X58082759Y16035000D01*
X57850241Y15879637D01*
X57650363Y15679759D01*
X57493320Y15444727D01*
X57385147Y15183574D01*
X57330000Y14906335D01*
X57330000Y14623665D01*
X57385147Y14346426D01*
X57493320Y14085273D01*
X57650363Y13850241D01*
X57848961Y13651643D01*
X57840518Y13650812D01*
X57720820Y13614502D01*
X57610506Y13555537D01*
X57513815Y13476185D01*
X57434463Y13379494D01*
X57375498Y13269180D01*
X57339188Y13149482D01*
X57326928Y13025000D01*
X57326928Y11425000D01*
X57339188Y11300518D01*
X57375498Y11180820D01*
X57434463Y11070506D01*
X57513815Y10973815D01*
X57610506Y10894463D01*
X57720820Y10835498D01*
X57840518Y10799188D01*
X57965000Y10786928D01*
X59565000Y10786928D01*
X59689482Y10799188D01*
X59809180Y10835498D01*
X59919494Y10894463D01*
X60016185Y10973815D01*
X60095537Y11070506D01*
X60154502Y11180820D01*
X60190812Y11300518D01*
X60203072Y11425000D01*
X60203072Y13025000D01*
X60190812Y13149482D01*
X60154502Y13269180D01*
X60095537Y13379494D01*
X60016185Y13476185D01*
X59919494Y13555537D01*
X59809180Y13614502D01*
X59689482Y13650812D01*
X59681039Y13651643D01*
X59879637Y13850241D01*
X60036680Y14085273D01*
X60144853Y14346426D01*
X60200000Y14623665D01*
X60200000Y14906335D01*
X60144853Y15183574D01*
X60036680Y15444727D01*
X59879637Y15679759D01*
X59679759Y15879637D01*
X59447241Y16035000D01*
X59679759Y16190363D01*
X59879637Y16390241D01*
X60036680Y16625273D01*
X60144853Y16886426D01*
X60200000Y17163665D01*
X60200000Y17446335D01*
X60144853Y17723574D01*
X60036680Y17984727D01*
X59879637Y18219759D01*
X59679759Y18419637D01*
X59447241Y18575000D01*
X59679759Y18730363D01*
X59879637Y18930241D01*
X60036680Y19165273D01*
X60144853Y19426426D01*
X60200000Y19703665D01*
X60200000Y19986335D01*
X60144853Y20263574D01*
X60036680Y20524727D01*
X59879637Y20759759D01*
X59679759Y20959637D01*
X59447241Y21115000D01*
X59679759Y21270363D01*
X59879637Y21470241D01*
X60036680Y21705273D01*
X60144853Y21966426D01*
X60200000Y22243665D01*
X60200000Y22526335D01*
X60144853Y22803574D01*
X60036680Y23064727D01*
X59879637Y23299759D01*
X59679759Y23499637D01*
X59447241Y23655000D01*
X59679759Y23810363D01*
X59879637Y24010241D01*
X60006676Y24200368D01*
X60009385Y24200635D01*
X60147933Y24242663D01*
X60275620Y24310913D01*
X60387538Y24402762D01*
X60410559Y24430813D01*
X69757234Y33777487D01*
X69732818Y33731808D01*
X69650764Y33461309D01*
X69623057Y33180000D01*
X69650764Y32898691D01*
X69732818Y32628192D01*
X69866068Y32378899D01*
X70045392Y32160392D01*
X70263899Y31981068D01*
X70396858Y31910000D01*
X70263899Y31838932D01*
X70045392Y31659608D01*
X69866068Y31441101D01*
X69732818Y31191808D01*
X69650764Y30921309D01*
X69623057Y30640000D01*
X69650764Y30358691D01*
X69732818Y30088192D01*
X69866068Y29838899D01*
X70045392Y29620392D01*
X70263899Y29441068D01*
X70396858Y29370000D01*
X70263899Y29298932D01*
X70045392Y29119608D01*
X69866068Y28901101D01*
X69732818Y28651808D01*
X69650764Y28381309D01*
X69623057Y28100000D01*
X69650764Y27818691D01*
X69732818Y27548192D01*
X69866068Y27298899D01*
X70045392Y27080392D01*
X70263899Y26901068D01*
X70396858Y26830000D01*
X70263899Y26758932D01*
X70045392Y26579608D01*
X69866068Y26361101D01*
X69732818Y26111808D01*
X69650764Y25841309D01*
X69623057Y25560000D01*
X69650764Y25278691D01*
X69732818Y25008192D01*
X69866068Y24758899D01*
X70045392Y24540392D01*
X70263899Y24361068D01*
X70513192Y24227818D01*
X70783691Y24145764D01*
X70994508Y24125000D01*
X71935492Y24125000D01*
X72146309Y24145764D01*
X72416808Y24227818D01*
X72666101Y24361068D01*
X72884608Y24540392D01*
X73063932Y24758899D01*
X73197182Y25008192D01*
X73279236Y25278691D01*
X73306943Y25560000D01*
X73279236Y25841309D01*
X73197182Y26111808D01*
X73063932Y26361101D01*
X72884608Y26579608D01*
X72666101Y26758932D01*
X72533142Y26830000D01*
X72666101Y26901068D01*
X72884608Y27080392D01*
X73063932Y27298899D01*
X73197182Y27548192D01*
X73279236Y27818691D01*
X73306943Y28100000D01*
X73279236Y28381309D01*
X73197182Y28651808D01*
X73063932Y28901101D01*
X72884608Y29119608D01*
X72666101Y29298932D01*
X72533142Y29370000D01*
X72666101Y29441068D01*
X72884608Y29620392D01*
X73063932Y29838899D01*
X73197182Y30088192D01*
X73279236Y30358691D01*
X73306943Y30640000D01*
X73279236Y30921309D01*
X73197182Y31191808D01*
X73063932Y31441101D01*
X72884608Y31659608D01*
X72666101Y31838932D01*
X72533142Y31910000D01*
X72666101Y31981068D01*
X72884608Y32160392D01*
X73063932Y32378899D01*
X73197182Y32628192D01*
X73279236Y32898691D01*
X73306943Y33180000D01*
X73279236Y33461309D01*
X73197182Y33731808D01*
X73158007Y33805100D01*
X85011993Y33805100D01*
X84972818Y33731808D01*
X84890764Y33461309D01*
X84863057Y33180000D01*
X84890764Y32898691D01*
X84972818Y32628192D01*
X85106068Y32378899D01*
X85285392Y32160392D01*
X85503899Y31981068D01*
X85636858Y31910000D01*
X85503899Y31838932D01*
X85285392Y31659608D01*
X85106068Y31441101D01*
X84972818Y31191808D01*
X84890764Y30921309D01*
X84863057Y30640000D01*
X84890764Y30358691D01*
X84972818Y30088192D01*
X85106068Y29838899D01*
X85285392Y29620392D01*
X85503899Y29441068D01*
X85636858Y29370000D01*
X85503899Y29298932D01*
X85285392Y29119608D01*
X85106068Y28901101D01*
X84972818Y28651808D01*
X84890764Y28381309D01*
X84863057Y28100000D01*
X84890764Y27818691D01*
X84972818Y27548192D01*
X85106068Y27298899D01*
X85285392Y27080392D01*
X85398482Y26987581D01*
X85380518Y26985812D01*
X85260820Y26949502D01*
X85150506Y26890537D01*
X85053815Y26811185D01*
X84974463Y26714494D01*
X84915498Y26604180D01*
X84879188Y26484482D01*
X84866928Y26360000D01*
X84866928Y24760000D01*
X84879188Y24635518D01*
X84915498Y24515820D01*
X84974463Y24405506D01*
X85053815Y24308815D01*
X85150506Y24229463D01*
X85260820Y24170498D01*
X85380518Y24134188D01*
X85505000Y24121928D01*
X87905000Y24121928D01*
X88029482Y24134188D01*
X88149180Y24170498D01*
X88259494Y24229463D01*
X88356185Y24308815D01*
X88435537Y24405506D01*
X88494502Y24515820D01*
X88530812Y24635518D01*
X88543072Y24760000D01*
X88543072Y26360000D01*
X88530812Y26484482D01*
X88494502Y26604180D01*
X88435537Y26714494D01*
X88356185Y26811185D01*
X88259494Y26890537D01*
X88149180Y26949502D01*
X88029482Y26985812D01*
X88011518Y26987581D01*
X88124608Y27080392D01*
X88303932Y27298899D01*
X88437182Y27548192D01*
X88519236Y27818691D01*
X88546943Y28100000D01*
X88519236Y28381309D01*
X88437182Y28651808D01*
X88303932Y28901101D01*
X88124608Y29119608D01*
X87906101Y29298932D01*
X87773142Y29370000D01*
X87906101Y29441068D01*
X88124608Y29620392D01*
X88303932Y29838899D01*
X88437182Y30088192D01*
X88519236Y30358691D01*
X88546943Y30640000D01*
X88519236Y30921309D01*
X88437182Y31191808D01*
X88303932Y31441101D01*
X88124608Y31659608D01*
X87906101Y31838932D01*
X87773142Y31910000D01*
X87906101Y31981068D01*
X88124608Y32160392D01*
X88303932Y32378899D01*
X88437182Y32628192D01*
X88519236Y32898691D01*
X88546943Y33180000D01*
X88519236Y33461309D01*
X88437182Y33731808D01*
X88303932Y33981101D01*
X88153071Y34164925D01*
X89109597Y35121450D01*
X89137637Y35144462D01*
X89160650Y35172503D01*
X89160653Y35172506D01*
X89201630Y35222437D01*
X89229487Y35256380D01*
X89297737Y35384067D01*
X89339765Y35522615D01*
X89343580Y35561344D01*
X89353956Y35666700D01*
X89350400Y35702805D01*
X89350400Y70833795D01*
X89353956Y70869900D01*
X89339765Y71013986D01*
X89324118Y71065565D01*
X89297737Y71152533D01*
X89229487Y71280220D01*
X89137638Y71392138D01*
X89109587Y71415159D01*
X88750559Y71774187D01*
X88727538Y71802238D01*
X88615620Y71894087D01*
X88487933Y71962337D01*
X88349385Y72004365D01*
X88344702Y72004826D01*
X88303932Y72081101D01*
X88124608Y72299608D01*
X87906101Y72478932D01*
X87773142Y72550000D01*
X87906101Y72621068D01*
X88124608Y72800392D01*
X88303932Y73018899D01*
X88437182Y73268192D01*
X88519236Y73538691D01*
X88546943Y73820000D01*
X88519236Y74101309D01*
X88437182Y74371808D01*
X88303932Y74621101D01*
X88124608Y74839608D01*
X87906101Y75018932D01*
X87656808Y75152182D01*
X87386309Y75234236D01*
X87175492Y75255000D01*
X86234508Y75255000D01*
X86023691Y75234236D01*
X85753192Y75152182D01*
X85503899Y75018932D01*
X85285392Y74839608D01*
X85106068Y74621101D01*
X84972818Y74371808D01*
X84890764Y74101309D01*
X84863057Y73820000D01*
X84890764Y73538691D01*
X84972818Y73268192D01*
X85106068Y73018899D01*
X85285392Y72800392D01*
X85503899Y72621068D01*
X85636858Y72550000D01*
X85503899Y72478932D01*
X85285392Y72299608D01*
X85106068Y72081101D01*
X84972818Y71831808D01*
X84890764Y71561309D01*
X84863057Y71280000D01*
X84890764Y70998691D01*
X84972818Y70728192D01*
X85106068Y70478899D01*
X85285392Y70260392D01*
X85503899Y70081068D01*
X85636858Y70010000D01*
X85503899Y69938932D01*
X85285392Y69759608D01*
X85106068Y69541101D01*
X84972818Y69291808D01*
X84890764Y69021309D01*
X84863057Y68740000D01*
X84890764Y68458691D01*
X84972818Y68188192D01*
X85106068Y67938899D01*
X85285392Y67720392D01*
X85503899Y67541068D01*
X85636858Y67470000D01*
X85503899Y67398932D01*
X85285392Y67219608D01*
X85106068Y67001101D01*
X84972818Y66751808D01*
X84890764Y66481309D01*
X84863057Y66200000D01*
X84890764Y65918691D01*
X84972818Y65648192D01*
X85106068Y65398899D01*
X85285392Y65180392D01*
X85503899Y65001068D01*
X85636858Y64930000D01*
X85503899Y64858932D01*
X85285392Y64679608D01*
X85106068Y64461101D01*
X85011699Y64284548D01*
X71524912Y77771335D01*
X76380000Y77771335D01*
X76380000Y77488665D01*
X76435147Y77211426D01*
X76543320Y76950273D01*
X76700363Y76715241D01*
X76900241Y76515363D01*
X77135273Y76358320D01*
X77396426Y76250147D01*
X77673665Y76195000D01*
X77956335Y76195000D01*
X78233574Y76250147D01*
X78494727Y76358320D01*
X78729759Y76515363D01*
X78851694Y76637298D01*
X79501903Y76637298D01*
X79573486Y76393329D01*
X79828996Y76272429D01*
X80103184Y76203700D01*
X80385512Y76189783D01*
X80665130Y76231213D01*
X80931292Y76326397D01*
X81056514Y76393329D01*
X81128097Y76637298D01*
X80315000Y77450395D01*
X79501903Y76637298D01*
X78851694Y76637298D01*
X78929637Y76715241D01*
X79063692Y76915869D01*
X79078329Y76888486D01*
X79322298Y76816903D01*
X80135395Y77630000D01*
X80494605Y77630000D01*
X81307702Y76816903D01*
X81551671Y76888486D01*
X81672571Y77143996D01*
X81741300Y77418184D01*
X81755217Y77700512D01*
X81713787Y77980130D01*
X81618603Y78246292D01*
X81551671Y78371514D01*
X81307702Y78443097D01*
X80494605Y77630000D01*
X80135395Y77630000D01*
X79322298Y78443097D01*
X79078329Y78371514D01*
X79064676Y78342659D01*
X78929637Y78544759D01*
X78851694Y78622702D01*
X79501903Y78622702D01*
X80315000Y77809605D01*
X81128097Y78622702D01*
X81056514Y78866671D01*
X80801004Y78987571D01*
X80526816Y79056300D01*
X80244488Y79070217D01*
X79964870Y79028787D01*
X79698708Y78933603D01*
X79573486Y78866671D01*
X79501903Y78622702D01*
X78851694Y78622702D01*
X78729759Y78744637D01*
X78494727Y78901680D01*
X78233574Y79009853D01*
X77956335Y79065000D01*
X77673665Y79065000D01*
X77396426Y79009853D01*
X77135273Y78901680D01*
X76900241Y78744637D01*
X76700363Y78544759D01*
X76543320Y78309727D01*
X76435147Y78048574D01*
X76380000Y77771335D01*
X71524912Y77771335D01*
X64676247Y84620000D01*
X86191928Y84620000D01*
X86191928Y83020000D01*
X86204188Y82895518D01*
X86240498Y82775820D01*
X86299463Y82665506D01*
X86378815Y82568815D01*
X86475506Y82489463D01*
X86585820Y82430498D01*
X86705518Y82394188D01*
X86830000Y82381928D01*
X88430000Y82381928D01*
X88554482Y82394188D01*
X88674180Y82430498D01*
X88784494Y82489463D01*
X88881185Y82568815D01*
X88960537Y82665506D01*
X89019502Y82775820D01*
X89055812Y82895518D01*
X89068072Y83020000D01*
X89068072Y84620000D01*
X89055812Y84744482D01*
X89019502Y84864180D01*
X88960537Y84974494D01*
X88881185Y85071185D01*
X88784494Y85150537D01*
X88674180Y85209502D01*
X88554482Y85245812D01*
X88430000Y85258072D01*
X88422785Y85258072D01*
X88443097Y85327298D01*
X87630000Y86140395D01*
X86816903Y85327298D01*
X86837215Y85258072D01*
X86830000Y85258072D01*
X86705518Y85245812D01*
X86585820Y85209502D01*
X86475506Y85150537D01*
X86378815Y85071185D01*
X86299463Y84974494D01*
X86240498Y84864180D01*
X86204188Y84744482D01*
X86191928Y84620000D01*
X64676247Y84620000D01*
X63046759Y86249488D01*
X86189783Y86249488D01*
X86231213Y85969870D01*
X86326397Y85703708D01*
X86393329Y85578486D01*
X86637298Y85506903D01*
X87450395Y86320000D01*
X87809605Y86320000D01*
X88622702Y85506903D01*
X88866671Y85578486D01*
X88987571Y85833996D01*
X89056300Y86108184D01*
X89070217Y86390512D01*
X89028787Y86670130D01*
X88933603Y86936292D01*
X88866671Y87061514D01*
X88622702Y87133097D01*
X87809605Y86320000D01*
X87450395Y86320000D01*
X86637298Y87133097D01*
X86393329Y87061514D01*
X86272429Y86806004D01*
X86203700Y86531816D01*
X86189783Y86249488D01*
X63046759Y86249488D01*
X61983545Y87312702D01*
X86816903Y87312702D01*
X87630000Y86499605D01*
X88443097Y87312702D01*
X88371514Y87556671D01*
X88116004Y87677571D01*
X87841816Y87746300D01*
X87559488Y87760217D01*
X87279870Y87718787D01*
X87013708Y87623603D01*
X86888486Y87556671D01*
X86816903Y87312702D01*
X61983545Y87312702D01*
X60027994Y89268252D01*
X60010690Y89355245D01*
X59943977Y89516305D01*
X59847124Y89661255D01*
X59723855Y89784524D01*
X59578905Y89881377D01*
X59417845Y89948090D01*
X59320400Y89967473D01*
X59320400Y89993454D01*
X61337393Y92010446D01*
X61365438Y92033462D01*
X61377748Y92048462D01*
X61526589Y91949010D01*
X61796842Y91837068D01*
X62083740Y91780000D01*
X62376260Y91780000D01*
X62663158Y91837068D01*
X62933411Y91949010D01*
X63176632Y92111525D01*
X63383475Y92318368D01*
X63500000Y92492760D01*
X63616525Y92318368D01*
X63823368Y92111525D01*
X64066589Y91949010D01*
X64336842Y91837068D01*
X64623740Y91780000D01*
X64916260Y91780000D01*
X65203158Y91837068D01*
X65473411Y91949010D01*
X65716632Y92111525D01*
X65923475Y92318368D01*
X66040000Y92492760D01*
X66156525Y92318368D01*
X66363368Y92111525D01*
X66606589Y91949010D01*
X66876842Y91837068D01*
X67163740Y91780000D01*
X67456260Y91780000D01*
X67743158Y91837068D01*
X68013411Y91949010D01*
X68256632Y92111525D01*
X68463475Y92318368D01*
X68580000Y92492760D01*
X68696525Y92318368D01*
X68903368Y92111525D01*
X69146589Y91949010D01*
X69416842Y91837068D01*
X69703740Y91780000D01*
X69996260Y91780000D01*
X70283158Y91837068D01*
X70553411Y91949010D01*
X70796632Y92111525D01*
X71003475Y92318368D01*
X71120000Y92492760D01*
X71236525Y92318368D01*
X71443368Y92111525D01*
X71686589Y91949010D01*
X71956842Y91837068D01*
X72243740Y91780000D01*
X72536260Y91780000D01*
X72823158Y91837068D01*
X73093411Y91949010D01*
X73336632Y92111525D01*
X73543475Y92318368D01*
X73660000Y92492760D01*
X73776525Y92318368D01*
X73983368Y92111525D01*
X74226589Y91949010D01*
X74496842Y91837068D01*
X74783740Y91780000D01*
X75076260Y91780000D01*
X75363158Y91837068D01*
X75633411Y91949010D01*
X75876632Y92111525D01*
X76083475Y92318368D01*
X76200000Y92492760D01*
X76316525Y92318368D01*
X76523368Y92111525D01*
X76766589Y91949010D01*
X77036842Y91837068D01*
X77323740Y91780000D01*
X77616260Y91780000D01*
X77903158Y91837068D01*
X78173411Y91949010D01*
X78416632Y92111525D01*
X78623475Y92318368D01*
X78740000Y92492760D01*
X78856525Y92318368D01*
X79063368Y92111525D01*
X79306589Y91949010D01*
X79576842Y91837068D01*
X79863740Y91780000D01*
X80156260Y91780000D01*
X80443158Y91837068D01*
X80713411Y91949010D01*
X80956632Y92111525D01*
X81163475Y92318368D01*
X81325990Y92561589D01*
X81437932Y92831842D01*
X81495000Y93118740D01*
X81495000Y93411260D01*
X81437932Y93698158D01*
X81325990Y93968411D01*
X81163475Y94211632D01*
X80956632Y94418475D01*
X80780594Y94536100D01*
X81010269Y94707412D01*
X81205178Y94923645D01*
X81354157Y95173748D01*
X81370609Y95220128D01*
X92765000Y95220128D01*
X92765000Y94779872D01*
X92850890Y94348075D01*
X93019369Y93941331D01*
X93263962Y93575271D01*
X93575271Y93263962D01*
X93941331Y93019369D01*
X94348075Y92850890D01*
X94779872Y92765000D01*
X95220128Y92765000D01*
X95651925Y92850890D01*
X96058669Y93019369D01*
X96424729Y93263962D01*
X96736038Y93575271D01*
X96980631Y93941331D01*
X97149110Y94348075D01*
X97235000Y94779872D01*
X97235000Y95220128D01*
X97149110Y95651925D01*
X96980631Y96058669D01*
X96736038Y96424729D01*
X96424729Y96736038D01*
X96058669Y96980631D01*
X95651925Y97149110D01*
X95220128Y97235000D01*
X94779872Y97235000D01*
X94348075Y97149110D01*
X93941331Y96980631D01*
X93575271Y96736038D01*
X93263962Y96424729D01*
X93019369Y96058669D01*
X92850890Y95651925D01*
X92765000Y95220128D01*
X81370609Y95220128D01*
X81451481Y95448109D01*
X81330814Y95678000D01*
X80137000Y95678000D01*
X80137000Y95658000D01*
X79883000Y95658000D01*
X79883000Y95678000D01*
X77597000Y95678000D01*
X77597000Y95658000D01*
X77343000Y95658000D01*
X77343000Y95678000D01*
X77323000Y95678000D01*
X77323000Y95932000D01*
X77343000Y95932000D01*
X77343000Y97125155D01*
X77597000Y97125155D01*
X77597000Y95932000D01*
X79883000Y95932000D01*
X79883000Y97125155D01*
X80137000Y97125155D01*
X80137000Y95932000D01*
X81330814Y95932000D01*
X81451481Y96161891D01*
X81354157Y96436252D01*
X81205178Y96686355D01*
X81010269Y96902588D01*
X80776920Y97076641D01*
X80514099Y97201825D01*
X80366890Y97246476D01*
X80137000Y97125155D01*
X79883000Y97125155D01*
X79653110Y97246476D01*
X79505901Y97201825D01*
X79243080Y97076641D01*
X79009731Y96902588D01*
X78814822Y96686355D01*
X78740000Y96560745D01*
X78665178Y96686355D01*
X78470269Y96902588D01*
X78236920Y97076641D01*
X77974099Y97201825D01*
X77826890Y97246476D01*
X77597000Y97125155D01*
X77343000Y97125155D01*
X77113110Y97246476D01*
X76965901Y97201825D01*
X76703080Y97076641D01*
X76469731Y96902588D01*
X76274822Y96686355D01*
X76205195Y96569466D01*
X76083475Y96751632D01*
X75876632Y96958475D01*
X75633411Y97120990D01*
X75363158Y97232932D01*
X75076260Y97290000D01*
X74783740Y97290000D01*
X74496842Y97232932D01*
X74226589Y97120990D01*
X73983368Y96958475D01*
X73947670Y96922777D01*
X72618158Y98252288D01*
X72595138Y98280338D01*
X72483220Y98372187D01*
X72355533Y98440437D01*
X72216985Y98482465D01*
X72109005Y98493100D01*
X72072900Y98496656D01*
X72036795Y98493100D01*
X27010105Y98493100D01*
X26974000Y98496656D01*
X26829915Y98482465D01*
X26691366Y98440437D01*
X26563680Y98372187D01*
X26451762Y98280338D01*
X26428746Y98252293D01*
X25105780Y96929327D01*
X25076632Y96958475D01*
X24833411Y97120990D01*
X24563158Y97232932D01*
X24276260Y97290000D01*
X23983740Y97290000D01*
X23696842Y97232932D01*
X23426589Y97120990D01*
X23183368Y96958475D01*
X22976525Y96751632D01*
X22860000Y96577240D01*
X22743475Y96751632D01*
X22536632Y96958475D01*
X22293411Y97120990D01*
X22023158Y97232932D01*
X21736260Y97290000D01*
X21443740Y97290000D01*
X21156842Y97232932D01*
X20886589Y97120990D01*
X20643368Y96958475D01*
X20436525Y96751632D01*
X20320000Y96577240D01*
X20203475Y96751632D01*
X19996632Y96958475D01*
X19753411Y97120990D01*
X19483158Y97232932D01*
X19196260Y97290000D01*
X18903740Y97290000D01*
X18616842Y97232932D01*
X18346589Y97120990D01*
X18103368Y96958475D01*
X17896525Y96751632D01*
X17734010Y96508411D01*
X17622068Y96238158D01*
X17565000Y95951260D01*
X17565000Y95658740D01*
X17622068Y95371842D01*
X17734010Y95101589D01*
X17896525Y94858368D01*
X18028380Y94726513D01*
X17955820Y94704502D01*
X17845506Y94645537D01*
X17748815Y94566185D01*
X17669463Y94469494D01*
X17610498Y94359180D01*
X17574188Y94239482D01*
X17561928Y94115000D01*
X17561928Y92415000D01*
X17574188Y92290518D01*
X17610498Y92170820D01*
X17669463Y92060506D01*
X17748815Y91963815D01*
X17845506Y91884463D01*
X17955820Y91825498D01*
X18075518Y91789188D01*
X18200000Y91776928D01*
X18315000Y91776928D01*
X18315001Y75004148D01*
X17892038Y74581184D01*
X17864608Y74614608D01*
X17646101Y74793932D01*
X17513142Y74865000D01*
X17646101Y74936068D01*
X17864608Y75115392D01*
X18043932Y75333899D01*
X18177182Y75583192D01*
X18259236Y75853691D01*
X18286943Y76135000D01*
X18259236Y76416309D01*
X18177182Y76686808D01*
X18043932Y76936101D01*
X17864608Y77154608D01*
X17646101Y77333932D01*
X17513142Y77405000D01*
X17646101Y77476068D01*
X17864608Y77655392D01*
X18043932Y77873899D01*
X18177182Y78123192D01*
X18259236Y78393691D01*
X18286943Y78675000D01*
X18259236Y78956309D01*
X18177182Y79226808D01*
X18043932Y79476101D01*
X17864608Y79694608D01*
X17646101Y79873932D01*
X17513142Y79945000D01*
X17646101Y80016068D01*
X17864608Y80195392D01*
X18043932Y80413899D01*
X18177182Y80663192D01*
X18259236Y80933691D01*
X18286943Y81215000D01*
X18259236Y81496309D01*
X18177182Y81766808D01*
X18043932Y82016101D01*
X17864608Y82234608D01*
X17646101Y82413932D01*
X17396808Y82547182D01*
X17126309Y82629236D01*
X16915492Y82650000D01*
X15974508Y82650000D01*
X15763691Y82629236D01*
X15493192Y82547182D01*
X15243899Y82413932D01*
X15025392Y82234608D01*
X14846068Y82016101D01*
X14712818Y81766808D01*
X14630764Y81496309D01*
X14603057Y81215000D01*
X14630764Y80933691D01*
X14712818Y80663192D01*
X14846068Y80413899D01*
X15025392Y80195392D01*
X15243899Y80016068D01*
X15376858Y79945000D01*
X15243899Y79873932D01*
X15025392Y79694608D01*
X14846068Y79476101D01*
X14712818Y79226808D01*
X14630764Y78956309D01*
X14603057Y78675000D01*
X14630764Y78393691D01*
X14712818Y78123192D01*
X14846068Y77873899D01*
X15025392Y77655392D01*
X15243899Y77476068D01*
X15376858Y77405000D01*
X15243899Y77333932D01*
X15025392Y77154608D01*
X14846068Y76936101D01*
X14712818Y76686808D01*
X14630764Y76416309D01*
X14603057Y76135000D01*
X14630764Y75853691D01*
X14712818Y75583192D01*
X14846068Y75333899D01*
X15025392Y75115392D01*
X15243899Y74936068D01*
X15376858Y74865000D01*
X15243899Y74793932D01*
X15025392Y74614608D01*
X14846068Y74396101D01*
X14805298Y74319826D01*
X14800615Y74319365D01*
X14662067Y74277337D01*
X14534380Y74209087D01*
X14422462Y74117238D01*
X14330613Y74005320D01*
X14262363Y73877633D01*
X14220335Y73739085D01*
X14206144Y73595000D01*
X14209701Y73558885D01*
X14209700Y48250705D01*
X14206144Y48214600D01*
X14220215Y48071735D01*
X14220335Y48070516D01*
X14262363Y47931968D01*
X14330613Y47804281D01*
X14422462Y47692363D01*
X14450508Y47669346D01*
X22531481Y39588372D01*
X22501589Y39575990D01*
X22258368Y39413475D01*
X22051525Y39206632D01*
X21935000Y39032240D01*
X21818475Y39206632D01*
X21611632Y39413475D01*
X21368411Y39575990D01*
X21098158Y39687932D01*
X20811260Y39745000D01*
X20518740Y39745000D01*
X20231842Y39687932D01*
X19961589Y39575990D01*
X19718368Y39413475D01*
X19511525Y39206632D01*
X19395000Y39032240D01*
X19278475Y39206632D01*
X19071632Y39413475D01*
X18828411Y39575990D01*
X18558158Y39687932D01*
X18271260Y39745000D01*
X17978740Y39745000D01*
X17691842Y39687932D01*
X17421589Y39575990D01*
X17178368Y39413475D01*
X16971525Y39206632D01*
X16809010Y38963411D01*
X16697068Y38693158D01*
X16640000Y38406260D01*
X16640000Y38113740D01*
X16697068Y37826842D01*
X16809010Y37556589D01*
X16971525Y37313368D01*
X17130373Y37154520D01*
X16360808Y36384954D01*
X16332762Y36361937D01*
X16240913Y36250019D01*
X16172663Y36122332D01*
X16143384Y36025813D01*
X16130635Y35983785D01*
X16116444Y35839700D01*
X16120000Y35803595D01*
X16120001Y31495883D01*
X15908368Y31354475D01*
X15701525Y31147632D01*
X15585000Y30973240D01*
X15468475Y31147632D01*
X15261632Y31354475D01*
X15018411Y31516990D01*
X14748158Y31628932D01*
X14461260Y31686000D01*
X14168740Y31686000D01*
X13881842Y31628932D01*
X13611589Y31516990D01*
X13368368Y31354475D01*
X13161525Y31147632D01*
X12999010Y30904411D01*
X12887068Y30634158D01*
X12830000Y30347260D01*
X660000Y30347260D01*
X660000Y95220128D01*
X2765000Y95220128D01*
X2765000Y94779872D01*
X2850890Y94348075D01*
X3019369Y93941331D01*
X3263962Y93575271D01*
X3575271Y93263962D01*
X3941331Y93019369D01*
X4348075Y92850890D01*
X4779872Y92765000D01*
X5220128Y92765000D01*
X5651925Y92850890D01*
X6058669Y93019369D01*
X6424729Y93263962D01*
X6736038Y93575271D01*
X6980631Y93941331D01*
X7149110Y94348075D01*
X7235000Y94779872D01*
X7235000Y95220128D01*
X7149110Y95651925D01*
X6980631Y96058669D01*
X6736038Y96424729D01*
X6424729Y96736038D01*
X6058669Y96980631D01*
X5651925Y97149110D01*
X5220128Y97235000D01*
X4779872Y97235000D01*
X4348075Y97149110D01*
X3941331Y96980631D01*
X3575271Y96736038D01*
X3263962Y96424729D01*
X3019369Y96058669D01*
X2850890Y95651925D01*
X2765000Y95220128D01*
X660000Y95220128D01*
X660000Y99340000D01*
X99340001Y99340000D01*
X99340000Y660000D01*
G04 #@! TA.AperFunction,Conductor*
D21*
G36*
X99340000Y660000D02*
G01*
X660000Y660000D01*
X660000Y5220128D01*
X2765000Y5220128D01*
X2765000Y4779872D01*
X2850890Y4348075D01*
X3019369Y3941331D01*
X3263962Y3575271D01*
X3575271Y3263962D01*
X3941331Y3019369D01*
X4348075Y2850890D01*
X4779872Y2765000D01*
X5220128Y2765000D01*
X5651925Y2850890D01*
X6058669Y3019369D01*
X6424729Y3263962D01*
X6736038Y3575271D01*
X6980631Y3941331D01*
X7149110Y4348075D01*
X7235000Y4779872D01*
X7235000Y4947260D01*
X12830000Y4947260D01*
X12830000Y4654740D01*
X12887068Y4367842D01*
X12999010Y4097589D01*
X13161525Y3854368D01*
X13368368Y3647525D01*
X13542760Y3531000D01*
X13368368Y3414475D01*
X13161525Y3207632D01*
X12999010Y2964411D01*
X12887068Y2694158D01*
X12830000Y2407260D01*
X12830000Y2114740D01*
X12887068Y1827842D01*
X12999010Y1557589D01*
X13161525Y1314368D01*
X13368368Y1107525D01*
X13611589Y945010D01*
X13881842Y833068D01*
X14168740Y776000D01*
X14461260Y776000D01*
X14748158Y833068D01*
X15018411Y945010D01*
X15261632Y1107525D01*
X15468475Y1314368D01*
X15630990Y1557589D01*
X15742932Y1827842D01*
X15800000Y2114740D01*
X15800000Y2407260D01*
X15742932Y2694158D01*
X15630990Y2964411D01*
X15468475Y3207632D01*
X15261632Y3414475D01*
X15087240Y3531000D01*
X15261632Y3647525D01*
X15468475Y3854368D01*
X15630990Y4097589D01*
X15742932Y4367842D01*
X15800000Y4654740D01*
X15800000Y4947260D01*
X33150000Y4947260D01*
X33150000Y4654740D01*
X33207068Y4367842D01*
X33319010Y4097589D01*
X33481525Y3854368D01*
X33688368Y3647525D01*
X33862760Y3531000D01*
X33688368Y3414475D01*
X33481525Y3207632D01*
X33319010Y2964411D01*
X33207068Y2694158D01*
X33150000Y2407260D01*
X33150000Y2114740D01*
X33207068Y1827842D01*
X33319010Y1557589D01*
X33481525Y1314368D01*
X33688368Y1107525D01*
X33931589Y945010D01*
X34201842Y833068D01*
X34488740Y776000D01*
X34781260Y776000D01*
X35068158Y833068D01*
X35338411Y945010D01*
X35581632Y1107525D01*
X35788475Y1314368D01*
X35950990Y1557589D01*
X36062932Y1827842D01*
X36120000Y2114740D01*
X36120000Y2407260D01*
X36062932Y2694158D01*
X35950990Y2964411D01*
X35788475Y3207632D01*
X35581632Y3414475D01*
X35407240Y3531000D01*
X35581632Y3647525D01*
X35788475Y3854368D01*
X35950990Y4097589D01*
X36062932Y4367842D01*
X36120000Y4654740D01*
X36120000Y4947260D01*
X36065723Y5220128D01*
X92765000Y5220128D01*
X92765000Y4779872D01*
X92850890Y4348075D01*
X93019369Y3941331D01*
X93263962Y3575271D01*
X93575271Y3263962D01*
X93941331Y3019369D01*
X94348075Y2850890D01*
X94779872Y2765000D01*
X95220128Y2765000D01*
X95651925Y2850890D01*
X96058669Y3019369D01*
X96424729Y3263962D01*
X96736038Y3575271D01*
X96980631Y3941331D01*
X97149110Y4348075D01*
X97235000Y4779872D01*
X97235000Y5220128D01*
X97149110Y5651925D01*
X96980631Y6058669D01*
X96736038Y6424729D01*
X96424729Y6736038D01*
X96058669Y6980631D01*
X95651925Y7149110D01*
X95220128Y7235000D01*
X94779872Y7235000D01*
X94348075Y7149110D01*
X93941331Y6980631D01*
X93575271Y6736038D01*
X93263962Y6424729D01*
X93019369Y6058669D01*
X92850890Y5651925D01*
X92765000Y5220128D01*
X36065723Y5220128D01*
X36062932Y5234158D01*
X35950990Y5504411D01*
X35788475Y5747632D01*
X35581632Y5954475D01*
X35338411Y6116990D01*
X35068158Y6228932D01*
X34781260Y6286000D01*
X34488740Y6286000D01*
X34201842Y6228932D01*
X33931589Y6116990D01*
X33688368Y5954475D01*
X33481525Y5747632D01*
X33319010Y5504411D01*
X33207068Y5234158D01*
X33150000Y4947260D01*
X15800000Y4947260D01*
X15742932Y5234158D01*
X15630990Y5504411D01*
X15468475Y5747632D01*
X15261632Y5954475D01*
X15018411Y6116990D01*
X14748158Y6228932D01*
X14461260Y6286000D01*
X14168740Y6286000D01*
X13881842Y6228932D01*
X13611589Y6116990D01*
X13368368Y5954475D01*
X13161525Y5747632D01*
X12999010Y5504411D01*
X12887068Y5234158D01*
X12830000Y4947260D01*
X7235000Y4947260D01*
X7235000Y5220128D01*
X7149110Y5651925D01*
X6980631Y6058669D01*
X6736038Y6424729D01*
X6424729Y6736038D01*
X6058669Y6980631D01*
X5651925Y7149110D01*
X5220128Y7235000D01*
X4779872Y7235000D01*
X4348075Y7149110D01*
X3941331Y6980631D01*
X3575271Y6736038D01*
X3263962Y6424729D01*
X3019369Y6058669D01*
X2850890Y5651925D01*
X2765000Y5220128D01*
X660000Y5220128D01*
X660000Y12366335D01*
X42090000Y12366335D01*
X42090000Y12083665D01*
X42145147Y11806426D01*
X42253320Y11545273D01*
X42410363Y11310241D01*
X42610241Y11110363D01*
X42845273Y10953320D01*
X43106426Y10845147D01*
X43383665Y10790000D01*
X43666335Y10790000D01*
X43943574Y10845147D01*
X44204727Y10953320D01*
X44439759Y11110363D01*
X44639637Y11310241D01*
X44796680Y11545273D01*
X44904853Y11806426D01*
X44960000Y12083665D01*
X44960000Y12366335D01*
X44904853Y12643574D01*
X44796680Y12904727D01*
X44639637Y13139759D01*
X44439759Y13339637D01*
X44204727Y13496680D01*
X44194135Y13501067D01*
X44380131Y13612615D01*
X44588519Y13801586D01*
X44756037Y14027580D01*
X44876246Y14281913D01*
X44916904Y14415961D01*
X44794915Y14638000D01*
X43652000Y14638000D01*
X43652000Y14618000D01*
X43398000Y14618000D01*
X43398000Y14638000D01*
X42255085Y14638000D01*
X42133096Y14415961D01*
X42173754Y14281913D01*
X42293963Y14027580D01*
X42461481Y13801586D01*
X42669869Y13612615D01*
X42855865Y13501067D01*
X42845273Y13496680D01*
X42610241Y13339637D01*
X42410363Y13139759D01*
X42253320Y12904727D01*
X42145147Y12643574D01*
X42090000Y12366335D01*
X660000Y12366335D01*
X660000Y30347260D01*
X12830000Y30347260D01*
X12830000Y30054740D01*
X12887068Y29767842D01*
X12999010Y29497589D01*
X13161525Y29254368D01*
X13368368Y29047525D01*
X13611589Y28885010D01*
X13881842Y28773068D01*
X14168740Y28716000D01*
X14461260Y28716000D01*
X14748158Y28773068D01*
X15018411Y28885010D01*
X15261632Y29047525D01*
X15468475Y29254368D01*
X15585000Y29428760D01*
X15701525Y29254368D01*
X15908368Y29047525D01*
X16151589Y28885010D01*
X16421842Y28773068D01*
X16708740Y28716000D01*
X17001260Y28716000D01*
X17288158Y28773068D01*
X17558411Y28885010D01*
X17801632Y29047525D01*
X18008475Y29254368D01*
X18125000Y29428760D01*
X18241525Y29254368D01*
X18448368Y29047525D01*
X18691589Y28885010D01*
X18961842Y28773068D01*
X19248740Y28716000D01*
X19541260Y28716000D01*
X19828158Y28773068D01*
X20098411Y28885010D01*
X20341632Y29047525D01*
X20548475Y29254368D01*
X20665000Y29428760D01*
X20781525Y29254368D01*
X20988368Y29047525D01*
X21231589Y28885010D01*
X21501842Y28773068D01*
X21788740Y28716000D01*
X22081260Y28716000D01*
X22368158Y28773068D01*
X22638411Y28885010D01*
X22881632Y29047525D01*
X23088475Y29254368D01*
X23205000Y29428760D01*
X23321525Y29254368D01*
X23528368Y29047525D01*
X23771589Y28885010D01*
X24041842Y28773068D01*
X24328740Y28716000D01*
X24621260Y28716000D01*
X24908158Y28773068D01*
X25178411Y28885010D01*
X25421632Y29047525D01*
X25454480Y29080373D01*
X31374046Y23160807D01*
X31397062Y23132762D01*
X31508980Y23040913D01*
X31636667Y22972663D01*
X31775215Y22930635D01*
X31919300Y22916444D01*
X31955405Y22920000D01*
X42193372Y22920000D01*
X42145147Y22803574D01*
X42090000Y22526335D01*
X42090000Y22243665D01*
X42145147Y21966426D01*
X42253320Y21705273D01*
X42410363Y21470241D01*
X42610241Y21270363D01*
X42842759Y21115000D01*
X42610241Y20959637D01*
X42410363Y20759759D01*
X42253320Y20524727D01*
X42145147Y20263574D01*
X42090000Y19986335D01*
X42090000Y19703665D01*
X42145147Y19426426D01*
X42253320Y19165273D01*
X42410363Y18930241D01*
X42610241Y18730363D01*
X42842759Y18575000D01*
X42610241Y18419637D01*
X42410363Y18219759D01*
X42253320Y17984727D01*
X42145147Y17723574D01*
X42090000Y17446335D01*
X42090000Y17163665D01*
X42145147Y16886426D01*
X42253320Y16625273D01*
X42410363Y16390241D01*
X42610241Y16190363D01*
X42845273Y16033320D01*
X42855865Y16028933D01*
X42669869Y15917385D01*
X42461481Y15728414D01*
X42293963Y15502420D01*
X42173754Y15248087D01*
X42133096Y15114039D01*
X42255085Y14892000D01*
X43398000Y14892000D01*
X43398000Y14912000D01*
X43652000Y14912000D01*
X43652000Y14892000D01*
X44794915Y14892000D01*
X44916904Y15114039D01*
X44876246Y15248087D01*
X44756037Y15502420D01*
X44588519Y15728414D01*
X44380131Y15917385D01*
X44194135Y16028933D01*
X44204727Y16033320D01*
X44439759Y16190363D01*
X44639637Y16390241D01*
X44796680Y16625273D01*
X44904853Y16886426D01*
X44960000Y17163665D01*
X44960000Y17446335D01*
X44904853Y17723574D01*
X44796680Y17984727D01*
X44639637Y18219759D01*
X44439759Y18419637D01*
X44207241Y18575000D01*
X44439759Y18730363D01*
X44639637Y18930241D01*
X44796680Y19165273D01*
X44904853Y19426426D01*
X44960000Y19703665D01*
X44960000Y19986335D01*
X44904853Y20263574D01*
X44899646Y20276144D01*
X44950363Y20200241D01*
X45150241Y20000363D01*
X45385273Y19843320D01*
X45646426Y19735147D01*
X45923665Y19680000D01*
X46206335Y19680000D01*
X46483574Y19735147D01*
X46744727Y19843320D01*
X46979759Y20000363D01*
X47179637Y20200241D01*
X47336680Y20435273D01*
X47444853Y20696426D01*
X47500000Y20973665D01*
X47500000Y21256335D01*
X47444853Y21533574D01*
X47348289Y21766700D01*
X52163554Y21766700D01*
X57119446Y16810807D01*
X57142462Y16782762D01*
X57170506Y16759747D01*
X57254380Y16690913D01*
X57382066Y16622663D01*
X57520615Y16580635D01*
X57523324Y16580368D01*
X57650363Y16390241D01*
X57850241Y16190363D01*
X58082759Y16035000D01*
X57850241Y15879637D01*
X57650363Y15679759D01*
X57493320Y15444727D01*
X57385147Y15183574D01*
X57330000Y14906335D01*
X57330000Y14623665D01*
X57385147Y14346426D01*
X57493320Y14085273D01*
X57650363Y13850241D01*
X57848961Y13651643D01*
X57840518Y13650812D01*
X57720820Y13614502D01*
X57610506Y13555537D01*
X57513815Y13476185D01*
X57434463Y13379494D01*
X57375498Y13269180D01*
X57339188Y13149482D01*
X57326928Y13025000D01*
X57326928Y11425000D01*
X57339188Y11300518D01*
X57375498Y11180820D01*
X57434463Y11070506D01*
X57513815Y10973815D01*
X57610506Y10894463D01*
X57720820Y10835498D01*
X57840518Y10799188D01*
X57965000Y10786928D01*
X59565000Y10786928D01*
X59689482Y10799188D01*
X59809180Y10835498D01*
X59919494Y10894463D01*
X60016185Y10973815D01*
X60095537Y11070506D01*
X60154502Y11180820D01*
X60190812Y11300518D01*
X60203072Y11425000D01*
X60203072Y13025000D01*
X60190812Y13149482D01*
X60154502Y13269180D01*
X60095537Y13379494D01*
X60016185Y13476185D01*
X59919494Y13555537D01*
X59809180Y13614502D01*
X59689482Y13650812D01*
X59681039Y13651643D01*
X59879637Y13850241D01*
X60036680Y14085273D01*
X60144853Y14346426D01*
X60200000Y14623665D01*
X60200000Y14906335D01*
X60144853Y15183574D01*
X60036680Y15444727D01*
X59879637Y15679759D01*
X59679759Y15879637D01*
X59447241Y16035000D01*
X59679759Y16190363D01*
X59879637Y16390241D01*
X60036680Y16625273D01*
X60144853Y16886426D01*
X60200000Y17163665D01*
X60200000Y17446335D01*
X60144853Y17723574D01*
X60036680Y17984727D01*
X59879637Y18219759D01*
X59679759Y18419637D01*
X59447241Y18575000D01*
X59679759Y18730363D01*
X59879637Y18930241D01*
X60036680Y19165273D01*
X60144853Y19426426D01*
X60200000Y19703665D01*
X60200000Y19986335D01*
X60144853Y20263574D01*
X60036680Y20524727D01*
X59879637Y20759759D01*
X59679759Y20959637D01*
X59447241Y21115000D01*
X59679759Y21270363D01*
X59879637Y21470241D01*
X60036680Y21705273D01*
X60144853Y21966426D01*
X60200000Y22243665D01*
X60200000Y22526335D01*
X60144853Y22803574D01*
X60036680Y23064727D01*
X59879637Y23299759D01*
X59679759Y23499637D01*
X59447241Y23655000D01*
X59679759Y23810363D01*
X59879637Y24010241D01*
X60006676Y24200368D01*
X60009385Y24200635D01*
X60147933Y24242663D01*
X60275620Y24310913D01*
X60387538Y24402762D01*
X60410559Y24430813D01*
X69757234Y33777487D01*
X69732818Y33731808D01*
X69650764Y33461309D01*
X69623057Y33180000D01*
X69650764Y32898691D01*
X69732818Y32628192D01*
X69866068Y32378899D01*
X70045392Y32160392D01*
X70263899Y31981068D01*
X70396858Y31910000D01*
X70263899Y31838932D01*
X70045392Y31659608D01*
X69866068Y31441101D01*
X69732818Y31191808D01*
X69650764Y30921309D01*
X69623057Y30640000D01*
X69650764Y30358691D01*
X69732818Y30088192D01*
X69866068Y29838899D01*
X70045392Y29620392D01*
X70263899Y29441068D01*
X70396858Y29370000D01*
X70263899Y29298932D01*
X70045392Y29119608D01*
X69866068Y28901101D01*
X69732818Y28651808D01*
X69650764Y28381309D01*
X69623057Y28100000D01*
X69650764Y27818691D01*
X69732818Y27548192D01*
X69866068Y27298899D01*
X70045392Y27080392D01*
X70263899Y26901068D01*
X70396858Y26830000D01*
X70263899Y26758932D01*
X70045392Y26579608D01*
X69866068Y26361101D01*
X69732818Y26111808D01*
X69650764Y25841309D01*
X69623057Y25560000D01*
X69650764Y25278691D01*
X69732818Y25008192D01*
X69866068Y24758899D01*
X70045392Y24540392D01*
X70263899Y24361068D01*
X70513192Y24227818D01*
X70783691Y24145764D01*
X70994508Y24125000D01*
X71935492Y24125000D01*
X72146309Y24145764D01*
X72416808Y24227818D01*
X72666101Y24361068D01*
X72884608Y24540392D01*
X73063932Y24758899D01*
X73197182Y25008192D01*
X73279236Y25278691D01*
X73306943Y25560000D01*
X73279236Y25841309D01*
X73197182Y26111808D01*
X73063932Y26361101D01*
X72884608Y26579608D01*
X72666101Y26758932D01*
X72533142Y26830000D01*
X72666101Y26901068D01*
X72884608Y27080392D01*
X73063932Y27298899D01*
X73197182Y27548192D01*
X73279236Y27818691D01*
X73306943Y28100000D01*
X73279236Y28381309D01*
X73197182Y28651808D01*
X73063932Y28901101D01*
X72884608Y29119608D01*
X72666101Y29298932D01*
X72533142Y29370000D01*
X72666101Y29441068D01*
X72884608Y29620392D01*
X73063932Y29838899D01*
X73197182Y30088192D01*
X73279236Y30358691D01*
X73306943Y30640000D01*
X73279236Y30921309D01*
X73197182Y31191808D01*
X73063932Y31441101D01*
X72884608Y31659608D01*
X72666101Y31838932D01*
X72533142Y31910000D01*
X72666101Y31981068D01*
X72884608Y32160392D01*
X73063932Y32378899D01*
X73197182Y32628192D01*
X73279236Y32898691D01*
X73306943Y33180000D01*
X73279236Y33461309D01*
X73197182Y33731808D01*
X73158007Y33805100D01*
X85011993Y33805100D01*
X84972818Y33731808D01*
X84890764Y33461309D01*
X84863057Y33180000D01*
X84890764Y32898691D01*
X84972818Y32628192D01*
X85106068Y32378899D01*
X85285392Y32160392D01*
X85503899Y31981068D01*
X85636858Y31910000D01*
X85503899Y31838932D01*
X85285392Y31659608D01*
X85106068Y31441101D01*
X84972818Y31191808D01*
X84890764Y30921309D01*
X84863057Y30640000D01*
X84890764Y30358691D01*
X84972818Y30088192D01*
X85106068Y29838899D01*
X85285392Y29620392D01*
X85503899Y29441068D01*
X85636858Y29370000D01*
X85503899Y29298932D01*
X85285392Y29119608D01*
X85106068Y28901101D01*
X84972818Y28651808D01*
X84890764Y28381309D01*
X84863057Y28100000D01*
X84890764Y27818691D01*
X84972818Y27548192D01*
X85106068Y27298899D01*
X85285392Y27080392D01*
X85398482Y26987581D01*
X85380518Y26985812D01*
X85260820Y26949502D01*
X85150506Y26890537D01*
X85053815Y26811185D01*
X84974463Y26714494D01*
X84915498Y26604180D01*
X84879188Y26484482D01*
X84866928Y26360000D01*
X84866928Y24760000D01*
X84879188Y24635518D01*
X84915498Y24515820D01*
X84974463Y24405506D01*
X85053815Y24308815D01*
X85150506Y24229463D01*
X85260820Y24170498D01*
X85380518Y24134188D01*
X85505000Y24121928D01*
X87905000Y24121928D01*
X88029482Y24134188D01*
X88149180Y24170498D01*
X88259494Y24229463D01*
X88356185Y24308815D01*
X88435537Y24405506D01*
X88494502Y24515820D01*
X88530812Y24635518D01*
X88543072Y24760000D01*
X88543072Y26360000D01*
X88530812Y26484482D01*
X88494502Y26604180D01*
X88435537Y26714494D01*
X88356185Y26811185D01*
X88259494Y26890537D01*
X88149180Y26949502D01*
X88029482Y26985812D01*
X88011518Y26987581D01*
X88124608Y27080392D01*
X88303932Y27298899D01*
X88437182Y27548192D01*
X88519236Y27818691D01*
X88546943Y28100000D01*
X88519236Y28381309D01*
X88437182Y28651808D01*
X88303932Y28901101D01*
X88124608Y29119608D01*
X87906101Y29298932D01*
X87773142Y29370000D01*
X87906101Y29441068D01*
X88124608Y29620392D01*
X88303932Y29838899D01*
X88437182Y30088192D01*
X88519236Y30358691D01*
X88546943Y30640000D01*
X88519236Y30921309D01*
X88437182Y31191808D01*
X88303932Y31441101D01*
X88124608Y31659608D01*
X87906101Y31838932D01*
X87773142Y31910000D01*
X87906101Y31981068D01*
X88124608Y32160392D01*
X88303932Y32378899D01*
X88437182Y32628192D01*
X88519236Y32898691D01*
X88546943Y33180000D01*
X88519236Y33461309D01*
X88437182Y33731808D01*
X88303932Y33981101D01*
X88153071Y34164925D01*
X89109597Y35121450D01*
X89137637Y35144462D01*
X89160650Y35172503D01*
X89160653Y35172506D01*
X89201630Y35222437D01*
X89229487Y35256380D01*
X89297737Y35384067D01*
X89339765Y35522615D01*
X89343580Y35561344D01*
X89353956Y35666700D01*
X89350400Y35702805D01*
X89350400Y70833795D01*
X89353956Y70869900D01*
X89339765Y71013986D01*
X89324118Y71065565D01*
X89297737Y71152533D01*
X89229487Y71280220D01*
X89137638Y71392138D01*
X89109587Y71415159D01*
X88750559Y71774187D01*
X88727538Y71802238D01*
X88615620Y71894087D01*
X88487933Y71962337D01*
X88349385Y72004365D01*
X88344702Y72004826D01*
X88303932Y72081101D01*
X88124608Y72299608D01*
X87906101Y72478932D01*
X87773142Y72550000D01*
X87906101Y72621068D01*
X88124608Y72800392D01*
X88303932Y73018899D01*
X88437182Y73268192D01*
X88519236Y73538691D01*
X88546943Y73820000D01*
X88519236Y74101309D01*
X88437182Y74371808D01*
X88303932Y74621101D01*
X88124608Y74839608D01*
X87906101Y75018932D01*
X87656808Y75152182D01*
X87386309Y75234236D01*
X87175492Y75255000D01*
X86234508Y75255000D01*
X86023691Y75234236D01*
X85753192Y75152182D01*
X85503899Y75018932D01*
X85285392Y74839608D01*
X85106068Y74621101D01*
X84972818Y74371808D01*
X84890764Y74101309D01*
X84863057Y73820000D01*
X84890764Y73538691D01*
X84972818Y73268192D01*
X85106068Y73018899D01*
X85285392Y72800392D01*
X85503899Y72621068D01*
X85636858Y72550000D01*
X85503899Y72478932D01*
X85285392Y72299608D01*
X85106068Y72081101D01*
X84972818Y71831808D01*
X84890764Y71561309D01*
X84863057Y71280000D01*
X84890764Y70998691D01*
X84972818Y70728192D01*
X85106068Y70478899D01*
X85285392Y70260392D01*
X85503899Y70081068D01*
X85636858Y70010000D01*
X85503899Y69938932D01*
X85285392Y69759608D01*
X85106068Y69541101D01*
X84972818Y69291808D01*
X84890764Y69021309D01*
X84863057Y68740000D01*
X84890764Y68458691D01*
X84972818Y68188192D01*
X85106068Y67938899D01*
X85285392Y67720392D01*
X85503899Y67541068D01*
X85636858Y67470000D01*
X85503899Y67398932D01*
X85285392Y67219608D01*
X85106068Y67001101D01*
X84972818Y66751808D01*
X84890764Y66481309D01*
X84863057Y66200000D01*
X84890764Y65918691D01*
X84972818Y65648192D01*
X85106068Y65398899D01*
X85285392Y65180392D01*
X85503899Y65001068D01*
X85636858Y64930000D01*
X85503899Y64858932D01*
X85285392Y64679608D01*
X85106068Y64461101D01*
X85011699Y64284548D01*
X71524912Y77771335D01*
X76380000Y77771335D01*
X76380000Y77488665D01*
X76435147Y77211426D01*
X76543320Y76950273D01*
X76700363Y76715241D01*
X76900241Y76515363D01*
X77135273Y76358320D01*
X77396426Y76250147D01*
X77673665Y76195000D01*
X77956335Y76195000D01*
X78233574Y76250147D01*
X78494727Y76358320D01*
X78729759Y76515363D01*
X78851694Y76637298D01*
X79501903Y76637298D01*
X79573486Y76393329D01*
X79828996Y76272429D01*
X80103184Y76203700D01*
X80385512Y76189783D01*
X80665130Y76231213D01*
X80931292Y76326397D01*
X81056514Y76393329D01*
X81128097Y76637298D01*
X80315000Y77450395D01*
X79501903Y76637298D01*
X78851694Y76637298D01*
X78929637Y76715241D01*
X79063692Y76915869D01*
X79078329Y76888486D01*
X79322298Y76816903D01*
X80135395Y77630000D01*
X80494605Y77630000D01*
X81307702Y76816903D01*
X81551671Y76888486D01*
X81672571Y77143996D01*
X81741300Y77418184D01*
X81755217Y77700512D01*
X81713787Y77980130D01*
X81618603Y78246292D01*
X81551671Y78371514D01*
X81307702Y78443097D01*
X80494605Y77630000D01*
X80135395Y77630000D01*
X79322298Y78443097D01*
X79078329Y78371514D01*
X79064676Y78342659D01*
X78929637Y78544759D01*
X78851694Y78622702D01*
X79501903Y78622702D01*
X80315000Y77809605D01*
X81128097Y78622702D01*
X81056514Y78866671D01*
X80801004Y78987571D01*
X80526816Y79056300D01*
X80244488Y79070217D01*
X79964870Y79028787D01*
X79698708Y78933603D01*
X79573486Y78866671D01*
X79501903Y78622702D01*
X78851694Y78622702D01*
X78729759Y78744637D01*
X78494727Y78901680D01*
X78233574Y79009853D01*
X77956335Y79065000D01*
X77673665Y79065000D01*
X77396426Y79009853D01*
X77135273Y78901680D01*
X76900241Y78744637D01*
X76700363Y78544759D01*
X76543320Y78309727D01*
X76435147Y78048574D01*
X76380000Y77771335D01*
X71524912Y77771335D01*
X64676247Y84620000D01*
X86191928Y84620000D01*
X86191928Y83020000D01*
X86204188Y82895518D01*
X86240498Y82775820D01*
X86299463Y82665506D01*
X86378815Y82568815D01*
X86475506Y82489463D01*
X86585820Y82430498D01*
X86705518Y82394188D01*
X86830000Y82381928D01*
X88430000Y82381928D01*
X88554482Y82394188D01*
X88674180Y82430498D01*
X88784494Y82489463D01*
X88881185Y82568815D01*
X88960537Y82665506D01*
X89019502Y82775820D01*
X89055812Y82895518D01*
X89068072Y83020000D01*
X89068072Y84620000D01*
X89055812Y84744482D01*
X89019502Y84864180D01*
X88960537Y84974494D01*
X88881185Y85071185D01*
X88784494Y85150537D01*
X88674180Y85209502D01*
X88554482Y85245812D01*
X88430000Y85258072D01*
X88422785Y85258072D01*
X88443097Y85327298D01*
X87630000Y86140395D01*
X86816903Y85327298D01*
X86837215Y85258072D01*
X86830000Y85258072D01*
X86705518Y85245812D01*
X86585820Y85209502D01*
X86475506Y85150537D01*
X86378815Y85071185D01*
X86299463Y84974494D01*
X86240498Y84864180D01*
X86204188Y84744482D01*
X86191928Y84620000D01*
X64676247Y84620000D01*
X63046759Y86249488D01*
X86189783Y86249488D01*
X86231213Y85969870D01*
X86326397Y85703708D01*
X86393329Y85578486D01*
X86637298Y85506903D01*
X87450395Y86320000D01*
X87809605Y86320000D01*
X88622702Y85506903D01*
X88866671Y85578486D01*
X88987571Y85833996D01*
X89056300Y86108184D01*
X89070217Y86390512D01*
X89028787Y86670130D01*
X88933603Y86936292D01*
X88866671Y87061514D01*
X88622702Y87133097D01*
X87809605Y86320000D01*
X87450395Y86320000D01*
X86637298Y87133097D01*
X86393329Y87061514D01*
X86272429Y86806004D01*
X86203700Y86531816D01*
X86189783Y86249488D01*
X63046759Y86249488D01*
X61983545Y87312702D01*
X86816903Y87312702D01*
X87630000Y86499605D01*
X88443097Y87312702D01*
X88371514Y87556671D01*
X88116004Y87677571D01*
X87841816Y87746300D01*
X87559488Y87760217D01*
X87279870Y87718787D01*
X87013708Y87623603D01*
X86888486Y87556671D01*
X86816903Y87312702D01*
X61983545Y87312702D01*
X60027994Y89268252D01*
X60010690Y89355245D01*
X59943977Y89516305D01*
X59847124Y89661255D01*
X59723855Y89784524D01*
X59578905Y89881377D01*
X59417845Y89948090D01*
X59320400Y89967473D01*
X59320400Y89993454D01*
X61337393Y92010446D01*
X61365438Y92033462D01*
X61377748Y92048462D01*
X61526589Y91949010D01*
X61796842Y91837068D01*
X62083740Y91780000D01*
X62376260Y91780000D01*
X62663158Y91837068D01*
X62933411Y91949010D01*
X63176632Y92111525D01*
X63383475Y92318368D01*
X63500000Y92492760D01*
X63616525Y92318368D01*
X63823368Y92111525D01*
X64066589Y91949010D01*
X64336842Y91837068D01*
X64623740Y91780000D01*
X64916260Y91780000D01*
X65203158Y91837068D01*
X65473411Y91949010D01*
X65716632Y92111525D01*
X65923475Y92318368D01*
X66040000Y92492760D01*
X66156525Y92318368D01*
X66363368Y92111525D01*
X66606589Y91949010D01*
X66876842Y91837068D01*
X67163740Y91780000D01*
X67456260Y91780000D01*
X67743158Y91837068D01*
X68013411Y91949010D01*
X68256632Y92111525D01*
X68463475Y92318368D01*
X68580000Y92492760D01*
X68696525Y92318368D01*
X68903368Y92111525D01*
X69146589Y91949010D01*
X69416842Y91837068D01*
X69703740Y91780000D01*
X69996260Y91780000D01*
X70283158Y91837068D01*
X70553411Y91949010D01*
X70796632Y92111525D01*
X71003475Y92318368D01*
X71120000Y92492760D01*
X71236525Y92318368D01*
X71443368Y92111525D01*
X71686589Y91949010D01*
X71956842Y91837068D01*
X72243740Y91780000D01*
X72536260Y91780000D01*
X72823158Y91837068D01*
X73093411Y91949010D01*
X73336632Y92111525D01*
X73543475Y92318368D01*
X73660000Y92492760D01*
X73776525Y92318368D01*
X73983368Y92111525D01*
X74226589Y91949010D01*
X74496842Y91837068D01*
X74783740Y91780000D01*
X75076260Y91780000D01*
X75363158Y91837068D01*
X75633411Y91949010D01*
X75876632Y92111525D01*
X76083475Y92318368D01*
X76200000Y92492760D01*
X76316525Y92318368D01*
X76523368Y92111525D01*
X76766589Y91949010D01*
X77036842Y91837068D01*
X77323740Y91780000D01*
X77616260Y91780000D01*
X77903158Y91837068D01*
X78173411Y91949010D01*
X78416632Y92111525D01*
X78623475Y92318368D01*
X78740000Y92492760D01*
X78856525Y92318368D01*
X79063368Y92111525D01*
X79306589Y91949010D01*
X79576842Y91837068D01*
X79863740Y91780000D01*
X80156260Y91780000D01*
X80443158Y91837068D01*
X80713411Y91949010D01*
X80956632Y92111525D01*
X81163475Y92318368D01*
X81325990Y92561589D01*
X81437932Y92831842D01*
X81495000Y93118740D01*
X81495000Y93411260D01*
X81437932Y93698158D01*
X81325990Y93968411D01*
X81163475Y94211632D01*
X80956632Y94418475D01*
X80780594Y94536100D01*
X81010269Y94707412D01*
X81205178Y94923645D01*
X81354157Y95173748D01*
X81370609Y95220128D01*
X92765000Y95220128D01*
X92765000Y94779872D01*
X92850890Y94348075D01*
X93019369Y93941331D01*
X93263962Y93575271D01*
X93575271Y93263962D01*
X93941331Y93019369D01*
X94348075Y92850890D01*
X94779872Y92765000D01*
X95220128Y92765000D01*
X95651925Y92850890D01*
X96058669Y93019369D01*
X96424729Y93263962D01*
X96736038Y93575271D01*
X96980631Y93941331D01*
X97149110Y94348075D01*
X97235000Y94779872D01*
X97235000Y95220128D01*
X97149110Y95651925D01*
X96980631Y96058669D01*
X96736038Y96424729D01*
X96424729Y96736038D01*
X96058669Y96980631D01*
X95651925Y97149110D01*
X95220128Y97235000D01*
X94779872Y97235000D01*
X94348075Y97149110D01*
X93941331Y96980631D01*
X93575271Y96736038D01*
X93263962Y96424729D01*
X93019369Y96058669D01*
X92850890Y95651925D01*
X92765000Y95220128D01*
X81370609Y95220128D01*
X81451481Y95448109D01*
X81330814Y95678000D01*
X80137000Y95678000D01*
X80137000Y95658000D01*
X79883000Y95658000D01*
X79883000Y95678000D01*
X77597000Y95678000D01*
X77597000Y95658000D01*
X77343000Y95658000D01*
X77343000Y95678000D01*
X77323000Y95678000D01*
X77323000Y95932000D01*
X77343000Y95932000D01*
X77343000Y97125155D01*
X77597000Y97125155D01*
X77597000Y95932000D01*
X79883000Y95932000D01*
X79883000Y97125155D01*
X80137000Y97125155D01*
X80137000Y95932000D01*
X81330814Y95932000D01*
X81451481Y96161891D01*
X81354157Y96436252D01*
X81205178Y96686355D01*
X81010269Y96902588D01*
X80776920Y97076641D01*
X80514099Y97201825D01*
X80366890Y97246476D01*
X80137000Y97125155D01*
X79883000Y97125155D01*
X79653110Y97246476D01*
X79505901Y97201825D01*
X79243080Y97076641D01*
X79009731Y96902588D01*
X78814822Y96686355D01*
X78740000Y96560745D01*
X78665178Y96686355D01*
X78470269Y96902588D01*
X78236920Y97076641D01*
X77974099Y97201825D01*
X77826890Y97246476D01*
X77597000Y97125155D01*
X77343000Y97125155D01*
X77113110Y97246476D01*
X76965901Y97201825D01*
X76703080Y97076641D01*
X76469731Y96902588D01*
X76274822Y96686355D01*
X76205195Y96569466D01*
X76083475Y96751632D01*
X75876632Y96958475D01*
X75633411Y97120990D01*
X75363158Y97232932D01*
X75076260Y97290000D01*
X74783740Y97290000D01*
X74496842Y97232932D01*
X74226589Y97120990D01*
X73983368Y96958475D01*
X73947670Y96922777D01*
X72618158Y98252288D01*
X72595138Y98280338D01*
X72483220Y98372187D01*
X72355533Y98440437D01*
X72216985Y98482465D01*
X72109005Y98493100D01*
X72072900Y98496656D01*
X72036795Y98493100D01*
X27010105Y98493100D01*
X26974000Y98496656D01*
X26829915Y98482465D01*
X26691366Y98440437D01*
X26563680Y98372187D01*
X26451762Y98280338D01*
X26428746Y98252293D01*
X25105780Y96929327D01*
X25076632Y96958475D01*
X24833411Y97120990D01*
X24563158Y97232932D01*
X24276260Y97290000D01*
X23983740Y97290000D01*
X23696842Y97232932D01*
X23426589Y97120990D01*
X23183368Y96958475D01*
X22976525Y96751632D01*
X22860000Y96577240D01*
X22743475Y96751632D01*
X22536632Y96958475D01*
X22293411Y97120990D01*
X22023158Y97232932D01*
X21736260Y97290000D01*
X21443740Y97290000D01*
X21156842Y97232932D01*
X20886589Y97120990D01*
X20643368Y96958475D01*
X20436525Y96751632D01*
X20320000Y96577240D01*
X20203475Y96751632D01*
X19996632Y96958475D01*
X19753411Y97120990D01*
X19483158Y97232932D01*
X19196260Y97290000D01*
X18903740Y97290000D01*
X18616842Y97232932D01*
X18346589Y97120990D01*
X18103368Y96958475D01*
X17896525Y96751632D01*
X17734010Y96508411D01*
X17622068Y96238158D01*
X17565000Y95951260D01*
X17565000Y95658740D01*
X17622068Y95371842D01*
X17734010Y95101589D01*
X17896525Y94858368D01*
X18028380Y94726513D01*
X17955820Y94704502D01*
X17845506Y94645537D01*
X17748815Y94566185D01*
X17669463Y94469494D01*
X17610498Y94359180D01*
X17574188Y94239482D01*
X17561928Y94115000D01*
X17561928Y92415000D01*
X17574188Y92290518D01*
X17610498Y92170820D01*
X17669463Y92060506D01*
X17748815Y91963815D01*
X17845506Y91884463D01*
X17955820Y91825498D01*
X18075518Y91789188D01*
X18200000Y91776928D01*
X18315000Y91776928D01*
X18315001Y75004148D01*
X17892038Y74581184D01*
X17864608Y74614608D01*
X17646101Y74793932D01*
X17513142Y74865000D01*
X17646101Y74936068D01*
X17864608Y75115392D01*
X18043932Y75333899D01*
X18177182Y75583192D01*
X18259236Y75853691D01*
X18286943Y76135000D01*
X18259236Y76416309D01*
X18177182Y76686808D01*
X18043932Y76936101D01*
X17864608Y77154608D01*
X17646101Y77333932D01*
X17513142Y77405000D01*
X17646101Y77476068D01*
X17864608Y77655392D01*
X18043932Y77873899D01*
X18177182Y78123192D01*
X18259236Y78393691D01*
X18286943Y78675000D01*
X18259236Y78956309D01*
X18177182Y79226808D01*
X18043932Y79476101D01*
X17864608Y79694608D01*
X17646101Y79873932D01*
X17513142Y79945000D01*
X17646101Y80016068D01*
X17864608Y80195392D01*
X18043932Y80413899D01*
X18177182Y80663192D01*
X18259236Y80933691D01*
X18286943Y81215000D01*
X18259236Y81496309D01*
X18177182Y81766808D01*
X18043932Y82016101D01*
X17864608Y82234608D01*
X17646101Y82413932D01*
X17396808Y82547182D01*
X17126309Y82629236D01*
X16915492Y82650000D01*
X15974508Y82650000D01*
X15763691Y82629236D01*
X15493192Y82547182D01*
X15243899Y82413932D01*
X15025392Y82234608D01*
X14846068Y82016101D01*
X14712818Y81766808D01*
X14630764Y81496309D01*
X14603057Y81215000D01*
X14630764Y80933691D01*
X14712818Y80663192D01*
X14846068Y80413899D01*
X15025392Y80195392D01*
X15243899Y80016068D01*
X15376858Y79945000D01*
X15243899Y79873932D01*
X15025392Y79694608D01*
X14846068Y79476101D01*
X14712818Y79226808D01*
X14630764Y78956309D01*
X14603057Y78675000D01*
X14630764Y78393691D01*
X14712818Y78123192D01*
X14846068Y77873899D01*
X15025392Y77655392D01*
X15243899Y77476068D01*
X15376858Y77405000D01*
X15243899Y77333932D01*
X15025392Y77154608D01*
X14846068Y76936101D01*
X14712818Y76686808D01*
X14630764Y76416309D01*
X14603057Y76135000D01*
X14630764Y75853691D01*
X14712818Y75583192D01*
X14846068Y75333899D01*
X15025392Y75115392D01*
X15243899Y74936068D01*
X15376858Y74865000D01*
X15243899Y74793932D01*
X15025392Y74614608D01*
X14846068Y74396101D01*
X14805298Y74319826D01*
X14800615Y74319365D01*
X14662067Y74277337D01*
X14534380Y74209087D01*
X14422462Y74117238D01*
X14330613Y74005320D01*
X14262363Y73877633D01*
X14220335Y73739085D01*
X14206144Y73595000D01*
X14209701Y73558885D01*
X14209700Y48250705D01*
X14206144Y48214600D01*
X14220215Y48071735D01*
X14220335Y48070516D01*
X14262363Y47931968D01*
X14330613Y47804281D01*
X14422462Y47692363D01*
X14450508Y47669346D01*
X22531481Y39588372D01*
X22501589Y39575990D01*
X22258368Y39413475D01*
X22051525Y39206632D01*
X21935000Y39032240D01*
X21818475Y39206632D01*
X21611632Y39413475D01*
X21368411Y39575990D01*
X21098158Y39687932D01*
X20811260Y39745000D01*
X20518740Y39745000D01*
X20231842Y39687932D01*
X19961589Y39575990D01*
X19718368Y39413475D01*
X19511525Y39206632D01*
X19395000Y39032240D01*
X19278475Y39206632D01*
X19071632Y39413475D01*
X18828411Y39575990D01*
X18558158Y39687932D01*
X18271260Y39745000D01*
X17978740Y39745000D01*
X17691842Y39687932D01*
X17421589Y39575990D01*
X17178368Y39413475D01*
X16971525Y39206632D01*
X16809010Y38963411D01*
X16697068Y38693158D01*
X16640000Y38406260D01*
X16640000Y38113740D01*
X16697068Y37826842D01*
X16809010Y37556589D01*
X16971525Y37313368D01*
X17130373Y37154520D01*
X16360808Y36384954D01*
X16332762Y36361937D01*
X16240913Y36250019D01*
X16172663Y36122332D01*
X16143384Y36025813D01*
X16130635Y35983785D01*
X16116444Y35839700D01*
X16120000Y35803595D01*
X16120001Y31495883D01*
X15908368Y31354475D01*
X15701525Y31147632D01*
X15585000Y30973240D01*
X15468475Y31147632D01*
X15261632Y31354475D01*
X15018411Y31516990D01*
X14748158Y31628932D01*
X14461260Y31686000D01*
X14168740Y31686000D01*
X13881842Y31628932D01*
X13611589Y31516990D01*
X13368368Y31354475D01*
X13161525Y31147632D01*
X12999010Y30904411D01*
X12887068Y30634158D01*
X12830000Y30347260D01*
X660000Y30347260D01*
X660000Y95220128D01*
X2765000Y95220128D01*
X2765000Y94779872D01*
X2850890Y94348075D01*
X3019369Y93941331D01*
X3263962Y93575271D01*
X3575271Y93263962D01*
X3941331Y93019369D01*
X4348075Y92850890D01*
X4779872Y92765000D01*
X5220128Y92765000D01*
X5651925Y92850890D01*
X6058669Y93019369D01*
X6424729Y93263962D01*
X6736038Y93575271D01*
X6980631Y93941331D01*
X7149110Y94348075D01*
X7235000Y94779872D01*
X7235000Y95220128D01*
X7149110Y95651925D01*
X6980631Y96058669D01*
X6736038Y96424729D01*
X6424729Y96736038D01*
X6058669Y96980631D01*
X5651925Y97149110D01*
X5220128Y97235000D01*
X4779872Y97235000D01*
X4348075Y97149110D01*
X3941331Y96980631D01*
X3575271Y96736038D01*
X3263962Y96424729D01*
X3019369Y96058669D01*
X2850890Y95651925D01*
X2765000Y95220128D01*
X660000Y95220128D01*
X660000Y99340000D01*
X99340001Y99340000D01*
X99340000Y660000D01*
G37*
G04 #@! TD.AperFunction*
D20*
X37513096Y80865961D02*
X37530633Y80783182D01*
X37641285Y80523354D01*
X37800500Y80290105D01*
X38002161Y80092399D01*
X38231741Y79942265D01*
X38103899Y79873932D01*
X37885392Y79694608D01*
X37706068Y79476101D01*
X37572818Y79226808D01*
X37490764Y78956309D01*
X37463057Y78675000D01*
X37490764Y78393691D01*
X37572818Y78123192D01*
X37706068Y77873899D01*
X37885392Y77655392D01*
X38103899Y77476068D01*
X38236858Y77405000D01*
X38103899Y77333932D01*
X37885392Y77154608D01*
X37706068Y76936101D01*
X37572818Y76686808D01*
X37490764Y76416309D01*
X37463057Y76135000D01*
X37490764Y75853691D01*
X37572818Y75583192D01*
X37706068Y75333899D01*
X37845840Y75163587D01*
X37310508Y74628254D01*
X37282462Y74605237D01*
X37190613Y74493319D01*
X37122363Y74365632D01*
X37099232Y74289380D01*
X37080335Y74227085D01*
X37066144Y74083000D01*
X37069700Y74046895D01*
X37069701Y68551115D01*
X37066144Y68515000D01*
X37080335Y68370915D01*
X37122363Y68232367D01*
X37190613Y68104680D01*
X37282462Y67992762D01*
X37394380Y67900913D01*
X37522067Y67832663D01*
X37660615Y67790635D01*
X37665298Y67790174D01*
X37706068Y67713899D01*
X37885392Y67495392D01*
X37998482Y67402581D01*
X37980518Y67400812D01*
X37860820Y67364502D01*
X37750506Y67305537D01*
X37653815Y67226185D01*
X37574463Y67129494D01*
X37515498Y67019180D01*
X37479188Y66899482D01*
X37466928Y66775000D01*
X37466928Y65175000D01*
X37479188Y65050518D01*
X37515498Y64930820D01*
X37574463Y64820506D01*
X37653815Y64723815D01*
X37750506Y64644463D01*
X37860820Y64585498D01*
X37980518Y64549188D01*
X38105000Y64536928D01*
X40505000Y64536928D01*
X40629482Y64549188D01*
X40749180Y64585498D01*
X40859494Y64644463D01*
X40956185Y64723815D01*
X41035537Y64820506D01*
X41094502Y64930820D01*
X41130812Y65050518D01*
X41143072Y65175000D01*
X41143072Y66775000D01*
X41130812Y66899482D01*
X41094502Y67019180D01*
X41035537Y67129494D01*
X40956185Y67226185D01*
X40859494Y67305537D01*
X40749180Y67364502D01*
X40629482Y67400812D01*
X40611518Y67402581D01*
X40724608Y67495392D01*
X40903932Y67713899D01*
X41037182Y67963192D01*
X41119236Y68233691D01*
X41146943Y68515000D01*
X41119236Y68796309D01*
X41037182Y69066808D01*
X40903932Y69316101D01*
X40724608Y69534608D01*
X40506101Y69713932D01*
X40373142Y69785000D01*
X40506101Y69856068D01*
X40724608Y70035392D01*
X40903932Y70253899D01*
X40944702Y70330174D01*
X40949385Y70330635D01*
X41087933Y70372663D01*
X41215620Y70440913D01*
X41327538Y70532762D01*
X41350559Y70560813D01*
X45324700Y74534953D01*
X45324701Y71091115D01*
X45321144Y71055000D01*
X45335335Y70910915D01*
X45377363Y70772367D01*
X45445613Y70644680D01*
X45537462Y70532762D01*
X45649380Y70440913D01*
X45777067Y70372663D01*
X45915615Y70330635D01*
X45920298Y70330174D01*
X45961068Y70253899D01*
X46140392Y70035392D01*
X46358899Y69856068D01*
X46491858Y69785000D01*
X46358899Y69713932D01*
X46140392Y69534608D01*
X45961068Y69316101D01*
X45827818Y69066808D01*
X45745764Y68796309D01*
X45718057Y68515000D01*
X45745764Y68233691D01*
X45827818Y67963192D01*
X45961068Y67713899D01*
X46140392Y67495392D01*
X46358899Y67316068D01*
X46491858Y67245000D01*
X46358899Y67173932D01*
X46140392Y66994608D01*
X45961068Y66776101D01*
X45827818Y66526808D01*
X45745764Y66256309D01*
X45718057Y65975000D01*
X45745764Y65693691D01*
X45827818Y65423192D01*
X45961068Y65173899D01*
X46140392Y64955392D01*
X46358899Y64776068D01*
X46608192Y64642818D01*
X46878691Y64560764D01*
X47089508Y64540000D01*
X48030492Y64540000D01*
X48241309Y64560764D01*
X48511808Y64642818D01*
X48761101Y64776068D01*
X48979608Y64955392D01*
X49158932Y65173899D01*
X49292182Y65423192D01*
X49374236Y65693691D01*
X49401943Y65975000D01*
X49374236Y66256309D01*
X49292182Y66526808D01*
X49158932Y66776101D01*
X48979608Y66994608D01*
X48761101Y67173932D01*
X48628142Y67245000D01*
X48761101Y67316068D01*
X48979608Y67495392D01*
X49158932Y67713899D01*
X49292182Y67963192D01*
X49374236Y68233691D01*
X49401943Y68515000D01*
X49374236Y68796309D01*
X49292182Y69066808D01*
X49158932Y69316101D01*
X48979608Y69534608D01*
X48761101Y69713932D01*
X48628142Y69785000D01*
X48761101Y69856068D01*
X48979608Y70035392D01*
X49158932Y70253899D01*
X49292182Y70503192D01*
X49374236Y70773691D01*
X49401943Y71055000D01*
X49374236Y71336309D01*
X49292182Y71606808D01*
X49158932Y71856101D01*
X48979608Y72074608D01*
X48761101Y72253932D01*
X48628142Y72325000D01*
X48761101Y72396068D01*
X48979608Y72575392D01*
X49010013Y72612441D01*
X50526701Y71095752D01*
X50526700Y63541487D01*
X50518574Y63544853D01*
X50241335Y63600000D01*
X49958665Y63600000D01*
X49681426Y63544853D01*
X49420273Y63436680D01*
X49185241Y63279637D01*
X48985363Y63079759D01*
X48828320Y62844727D01*
X48720147Y62583574D01*
X48665000Y62306335D01*
X48665000Y62023665D01*
X48720147Y61746426D01*
X48828320Y61485273D01*
X48985363Y61250241D01*
X49185241Y61050363D01*
X49420273Y60893320D01*
X49681426Y60785147D01*
X49958665Y60730000D01*
X50241335Y60730000D01*
X50518574Y60785147D01*
X50526700Y60788513D01*
X50526700Y56012405D01*
X50523144Y55976300D01*
X50526700Y55940196D01*
X50537335Y55832216D01*
X50579363Y55693668D01*
X50647613Y55565981D01*
X50739462Y55454063D01*
X50767508Y55431046D01*
X60907006Y45291547D01*
X60924310Y45204555D01*
X60936759Y45174500D01*
X60916905Y45174500D01*
X60880800Y45178056D01*
X60736715Y45163865D01*
X60598166Y45121837D01*
X60470480Y45053587D01*
X60358562Y44961738D01*
X60335546Y44933693D01*
X47342509Y31940655D01*
X47336680Y31954727D01*
X47179637Y32189759D01*
X46979759Y32389637D01*
X46747241Y32545000D01*
X46979759Y32700363D01*
X47179637Y32900241D01*
X47336680Y33135273D01*
X47444853Y33396426D01*
X47500000Y33673665D01*
X47500000Y33956335D01*
X47444853Y34233574D01*
X47336680Y34494727D01*
X47179637Y34729759D01*
X46979759Y34929637D01*
X46744727Y35086680D01*
X46483574Y35194853D01*
X46206335Y35250000D01*
X45923665Y35250000D01*
X45646426Y35194853D01*
X45385273Y35086680D01*
X45150241Y34929637D01*
X44950363Y34729759D01*
X44899646Y34653856D01*
X44904853Y34666426D01*
X44960000Y34943665D01*
X44960000Y35226335D01*
X44904853Y35503574D01*
X44796680Y35764727D01*
X44639637Y35999759D01*
X44439759Y36199637D01*
X44207241Y36355000D01*
X44439759Y36510363D01*
X44639637Y36710241D01*
X44796680Y36945273D01*
X44904853Y37206426D01*
X44960000Y37483665D01*
X44960000Y37766335D01*
X44904853Y38043574D01*
X44796680Y38304727D01*
X44639637Y38539759D01*
X44439759Y38739637D01*
X44207241Y38895000D01*
X44439759Y39050363D01*
X44639637Y39250241D01*
X44796680Y39485273D01*
X44904853Y39746426D01*
X44960000Y40023665D01*
X44960000Y40306335D01*
X44904853Y40583574D01*
X44796680Y40844727D01*
X44639637Y41079759D01*
X44439759Y41279637D01*
X44204727Y41436680D01*
X43943574Y41544853D01*
X43666335Y41600000D01*
X43383665Y41600000D01*
X43106426Y41544853D01*
X42845273Y41436680D01*
X42610241Y41279637D01*
X42410363Y41079759D01*
X42253320Y40844727D01*
X42145147Y40583574D01*
X42090000Y40306335D01*
X42090000Y40023665D01*
X42145147Y39746426D01*
X42253320Y39485273D01*
X42410363Y39250241D01*
X42610241Y39050363D01*
X42842759Y38895000D01*
X42610241Y38739637D01*
X42410363Y38539759D01*
X42253320Y38304727D01*
X42145147Y38043574D01*
X42090000Y37766335D01*
X42090000Y37483665D01*
X42145147Y37206426D01*
X42253320Y36945273D01*
X42410363Y36710241D01*
X42610241Y36510363D01*
X42842759Y36355000D01*
X42610241Y36199637D01*
X42410363Y35999759D01*
X42253320Y35764727D01*
X42145147Y35503574D01*
X42090000Y35226335D01*
X42090000Y34943665D01*
X42145147Y34666426D01*
X42253320Y34405273D01*
X42410363Y34170241D01*
X42610241Y33970363D01*
X42842759Y33815000D01*
X42610241Y33659637D01*
X42410363Y33459759D01*
X42253320Y33224727D01*
X42145147Y32963574D01*
X42090000Y32686335D01*
X42090000Y32403665D01*
X42145147Y32126426D01*
X42253320Y31865273D01*
X42410363Y31630241D01*
X42610241Y31430363D01*
X42842759Y31275000D01*
X42610241Y31119637D01*
X42410363Y30919759D01*
X42253320Y30684727D01*
X42145147Y30423574D01*
X42090000Y30146335D01*
X42090000Y29863665D01*
X42145147Y29586426D01*
X42253320Y29325273D01*
X42410363Y29090241D01*
X42610241Y28890363D01*
X42842759Y28735000D01*
X42610241Y28579637D01*
X42410363Y28379759D01*
X42253320Y28144727D01*
X42145147Y27883574D01*
X42090000Y27606335D01*
X42090000Y27323665D01*
X42145147Y27046426D01*
X42253320Y26785273D01*
X42410363Y26550241D01*
X42610241Y26350363D01*
X42842759Y26195000D01*
X42610241Y26039637D01*
X42410363Y25839759D01*
X42253320Y25604727D01*
X42145147Y25343574D01*
X42090000Y25066335D01*
X42090000Y24783665D01*
X42145147Y24506426D01*
X42193372Y24390000D01*
X32223747Y24390000D01*
X27715855Y28897892D01*
X27781920Y28929359D01*
X28015269Y29103412D01*
X28210178Y29319645D01*
X28279805Y29436534D01*
X28401525Y29254368D01*
X28608368Y29047525D01*
X28851589Y28885010D01*
X29121842Y28773068D01*
X29408740Y28716000D01*
X29701260Y28716000D01*
X29988158Y28773068D01*
X30258411Y28885010D01*
X30501632Y29047525D01*
X30708475Y29254368D01*
X30825000Y29428760D01*
X30941525Y29254368D01*
X31148368Y29047525D01*
X31391589Y28885010D01*
X31661842Y28773068D01*
X31948740Y28716000D01*
X32241260Y28716000D01*
X32528158Y28773068D01*
X32798411Y28885010D01*
X33041632Y29047525D01*
X33173487Y29179380D01*
X33195498Y29106820D01*
X33254463Y28996506D01*
X33333815Y28899815D01*
X33430506Y28820463D01*
X33540820Y28761498D01*
X33660518Y28725188D01*
X33785000Y28712928D01*
X35485000Y28712928D01*
X35609482Y28725188D01*
X35729180Y28761498D01*
X35839494Y28820463D01*
X35936185Y28899815D01*
X36015537Y28996506D01*
X36074502Y29106820D01*
X36110812Y29226518D01*
X36123072Y29351000D01*
X36123072Y31051000D01*
X36110812Y31175482D01*
X36074502Y31295180D01*
X36015537Y31405494D01*
X35936185Y31502185D01*
X35839494Y31581537D01*
X35729180Y31640502D01*
X35609482Y31676812D01*
X35485000Y31689072D01*
X35435445Y31689072D01*
X35410172Y31772387D01*
X35332636Y31917446D01*
X35287715Y31972182D01*
X35228291Y32044591D01*
X35196427Y32070741D01*
X32683000Y34584167D01*
X32683000Y36663733D01*
X34786432Y38767163D01*
X34818291Y38793309D01*
X34922636Y38920454D01*
X35000172Y39065513D01*
X35047918Y39222911D01*
X35060000Y39345581D01*
X35060000Y39345582D01*
X35064040Y39386600D01*
X35060000Y39427618D01*
X35060000Y60871754D01*
X35251006Y60680747D01*
X35268310Y60593755D01*
X35335023Y60432695D01*
X35431876Y60287745D01*
X35555145Y60164476D01*
X35700095Y60067623D01*
X35861155Y60000910D01*
X36032135Y59966900D01*
X36206465Y59966900D01*
X36377445Y60000910D01*
X36538505Y60067623D01*
X36683455Y60164476D01*
X36806724Y60287745D01*
X36903577Y60432695D01*
X36970290Y60593755D01*
X37002452Y60755445D01*
X37075130Y60766213D01*
X37341292Y60861397D01*
X37466514Y60928329D01*
X37538097Y61172298D01*
X36725000Y61985395D01*
X36710858Y61971252D01*
X36531253Y62150857D01*
X36545395Y62165000D01*
X36904605Y62165000D01*
X37717702Y61351903D01*
X37961671Y61423486D01*
X38082571Y61678996D01*
X38151300Y61953184D01*
X38165217Y62235512D01*
X38123787Y62515130D01*
X38028603Y62781292D01*
X37961671Y62906514D01*
X37717702Y62978097D01*
X36904605Y62165000D01*
X36545395Y62165000D01*
X36531253Y62179142D01*
X36710858Y62358747D01*
X36725000Y62344605D01*
X37538097Y63157702D01*
X37466514Y63401671D01*
X37211004Y63522571D01*
X36936816Y63591300D01*
X36654488Y63605217D01*
X36374870Y63563787D01*
X36175300Y63492417D01*
X36175300Y73143127D01*
X36290845Y73166110D01*
X36451905Y73232823D01*
X36596855Y73329676D01*
X36720124Y73452945D01*
X36816977Y73597895D01*
X36883690Y73758955D01*
X36917700Y73929935D01*
X36917700Y74104265D01*
X36883690Y74275245D01*
X36816977Y74436305D01*
X36767700Y74510053D01*
X36767700Y80323054D01*
X37532644Y81087998D01*
X37635084Y81087998D01*
X37513096Y80865961D01*
G04 #@! TA.AperFunction,Conductor*
D21*
G36*
X37513096Y80865961D02*
G01*
X37530633Y80783182D01*
X37641285Y80523354D01*
X37800500Y80290105D01*
X38002161Y80092399D01*
X38231741Y79942265D01*
X38103899Y79873932D01*
X37885392Y79694608D01*
X37706068Y79476101D01*
X37572818Y79226808D01*
X37490764Y78956309D01*
X37463057Y78675000D01*
X37490764Y78393691D01*
X37572818Y78123192D01*
X37706068Y77873899D01*
X37885392Y77655392D01*
X38103899Y77476068D01*
X38236858Y77405000D01*
X38103899Y77333932D01*
X37885392Y77154608D01*
X37706068Y76936101D01*
X37572818Y76686808D01*
X37490764Y76416309D01*
X37463057Y76135000D01*
X37490764Y75853691D01*
X37572818Y75583192D01*
X37706068Y75333899D01*
X37845840Y75163587D01*
X37310508Y74628254D01*
X37282462Y74605237D01*
X37190613Y74493319D01*
X37122363Y74365632D01*
X37099232Y74289380D01*
X37080335Y74227085D01*
X37066144Y74083000D01*
X37069700Y74046895D01*
X37069701Y68551115D01*
X37066144Y68515000D01*
X37080335Y68370915D01*
X37122363Y68232367D01*
X37190613Y68104680D01*
X37282462Y67992762D01*
X37394380Y67900913D01*
X37522067Y67832663D01*
X37660615Y67790635D01*
X37665298Y67790174D01*
X37706068Y67713899D01*
X37885392Y67495392D01*
X37998482Y67402581D01*
X37980518Y67400812D01*
X37860820Y67364502D01*
X37750506Y67305537D01*
X37653815Y67226185D01*
X37574463Y67129494D01*
X37515498Y67019180D01*
X37479188Y66899482D01*
X37466928Y66775000D01*
X37466928Y65175000D01*
X37479188Y65050518D01*
X37515498Y64930820D01*
X37574463Y64820506D01*
X37653815Y64723815D01*
X37750506Y64644463D01*
X37860820Y64585498D01*
X37980518Y64549188D01*
X38105000Y64536928D01*
X40505000Y64536928D01*
X40629482Y64549188D01*
X40749180Y64585498D01*
X40859494Y64644463D01*
X40956185Y64723815D01*
X41035537Y64820506D01*
X41094502Y64930820D01*
X41130812Y65050518D01*
X41143072Y65175000D01*
X41143072Y66775000D01*
X41130812Y66899482D01*
X41094502Y67019180D01*
X41035537Y67129494D01*
X40956185Y67226185D01*
X40859494Y67305537D01*
X40749180Y67364502D01*
X40629482Y67400812D01*
X40611518Y67402581D01*
X40724608Y67495392D01*
X40903932Y67713899D01*
X41037182Y67963192D01*
X41119236Y68233691D01*
X41146943Y68515000D01*
X41119236Y68796309D01*
X41037182Y69066808D01*
X40903932Y69316101D01*
X40724608Y69534608D01*
X40506101Y69713932D01*
X40373142Y69785000D01*
X40506101Y69856068D01*
X40724608Y70035392D01*
X40903932Y70253899D01*
X40944702Y70330174D01*
X40949385Y70330635D01*
X41087933Y70372663D01*
X41215620Y70440913D01*
X41327538Y70532762D01*
X41350559Y70560813D01*
X45324700Y74534953D01*
X45324701Y71091115D01*
X45321144Y71055000D01*
X45335335Y70910915D01*
X45377363Y70772367D01*
X45445613Y70644680D01*
X45537462Y70532762D01*
X45649380Y70440913D01*
X45777067Y70372663D01*
X45915615Y70330635D01*
X45920298Y70330174D01*
X45961068Y70253899D01*
X46140392Y70035392D01*
X46358899Y69856068D01*
X46491858Y69785000D01*
X46358899Y69713932D01*
X46140392Y69534608D01*
X45961068Y69316101D01*
X45827818Y69066808D01*
X45745764Y68796309D01*
X45718057Y68515000D01*
X45745764Y68233691D01*
X45827818Y67963192D01*
X45961068Y67713899D01*
X46140392Y67495392D01*
X46358899Y67316068D01*
X46491858Y67245000D01*
X46358899Y67173932D01*
X46140392Y66994608D01*
X45961068Y66776101D01*
X45827818Y66526808D01*
X45745764Y66256309D01*
X45718057Y65975000D01*
X45745764Y65693691D01*
X45827818Y65423192D01*
X45961068Y65173899D01*
X46140392Y64955392D01*
X46358899Y64776068D01*
X46608192Y64642818D01*
X46878691Y64560764D01*
X47089508Y64540000D01*
X48030492Y64540000D01*
X48241309Y64560764D01*
X48511808Y64642818D01*
X48761101Y64776068D01*
X48979608Y64955392D01*
X49158932Y65173899D01*
X49292182Y65423192D01*
X49374236Y65693691D01*
X49401943Y65975000D01*
X49374236Y66256309D01*
X49292182Y66526808D01*
X49158932Y66776101D01*
X48979608Y66994608D01*
X48761101Y67173932D01*
X48628142Y67245000D01*
X48761101Y67316068D01*
X48979608Y67495392D01*
X49158932Y67713899D01*
X49292182Y67963192D01*
X49374236Y68233691D01*
X49401943Y68515000D01*
X49374236Y68796309D01*
X49292182Y69066808D01*
X49158932Y69316101D01*
X48979608Y69534608D01*
X48761101Y69713932D01*
X48628142Y69785000D01*
X48761101Y69856068D01*
X48979608Y70035392D01*
X49158932Y70253899D01*
X49292182Y70503192D01*
X49374236Y70773691D01*
X49401943Y71055000D01*
X49374236Y71336309D01*
X49292182Y71606808D01*
X49158932Y71856101D01*
X48979608Y72074608D01*
X48761101Y72253932D01*
X48628142Y72325000D01*
X48761101Y72396068D01*
X48979608Y72575392D01*
X49010013Y72612441D01*
X50526701Y71095752D01*
X50526700Y63541487D01*
X50518574Y63544853D01*
X50241335Y63600000D01*
X49958665Y63600000D01*
X49681426Y63544853D01*
X49420273Y63436680D01*
X49185241Y63279637D01*
X48985363Y63079759D01*
X48828320Y62844727D01*
X48720147Y62583574D01*
X48665000Y62306335D01*
X48665000Y62023665D01*
X48720147Y61746426D01*
X48828320Y61485273D01*
X48985363Y61250241D01*
X49185241Y61050363D01*
X49420273Y60893320D01*
X49681426Y60785147D01*
X49958665Y60730000D01*
X50241335Y60730000D01*
X50518574Y60785147D01*
X50526700Y60788513D01*
X50526700Y56012405D01*
X50523144Y55976300D01*
X50526700Y55940196D01*
X50537335Y55832216D01*
X50579363Y55693668D01*
X50647613Y55565981D01*
X50739462Y55454063D01*
X50767508Y55431046D01*
X60907006Y45291547D01*
X60924310Y45204555D01*
X60936759Y45174500D01*
X60916905Y45174500D01*
X60880800Y45178056D01*
X60736715Y45163865D01*
X60598166Y45121837D01*
X60470480Y45053587D01*
X60358562Y44961738D01*
X60335546Y44933693D01*
X47342509Y31940655D01*
X47336680Y31954727D01*
X47179637Y32189759D01*
X46979759Y32389637D01*
X46747241Y32545000D01*
X46979759Y32700363D01*
X47179637Y32900241D01*
X47336680Y33135273D01*
X47444853Y33396426D01*
X47500000Y33673665D01*
X47500000Y33956335D01*
X47444853Y34233574D01*
X47336680Y34494727D01*
X47179637Y34729759D01*
X46979759Y34929637D01*
X46744727Y35086680D01*
X46483574Y35194853D01*
X46206335Y35250000D01*
X45923665Y35250000D01*
X45646426Y35194853D01*
X45385273Y35086680D01*
X45150241Y34929637D01*
X44950363Y34729759D01*
X44899646Y34653856D01*
X44904853Y34666426D01*
X44960000Y34943665D01*
X44960000Y35226335D01*
X44904853Y35503574D01*
X44796680Y35764727D01*
X44639637Y35999759D01*
X44439759Y36199637D01*
X44207241Y36355000D01*
X44439759Y36510363D01*
X44639637Y36710241D01*
X44796680Y36945273D01*
X44904853Y37206426D01*
X44960000Y37483665D01*
X44960000Y37766335D01*
X44904853Y38043574D01*
X44796680Y38304727D01*
X44639637Y38539759D01*
X44439759Y38739637D01*
X44207241Y38895000D01*
X44439759Y39050363D01*
X44639637Y39250241D01*
X44796680Y39485273D01*
X44904853Y39746426D01*
X44960000Y40023665D01*
X44960000Y40306335D01*
X44904853Y40583574D01*
X44796680Y40844727D01*
X44639637Y41079759D01*
X44439759Y41279637D01*
X44204727Y41436680D01*
X43943574Y41544853D01*
X43666335Y41600000D01*
X43383665Y41600000D01*
X43106426Y41544853D01*
X42845273Y41436680D01*
X42610241Y41279637D01*
X42410363Y41079759D01*
X42253320Y40844727D01*
X42145147Y40583574D01*
X42090000Y40306335D01*
X42090000Y40023665D01*
X42145147Y39746426D01*
X42253320Y39485273D01*
X42410363Y39250241D01*
X42610241Y39050363D01*
X42842759Y38895000D01*
X42610241Y38739637D01*
X42410363Y38539759D01*
X42253320Y38304727D01*
X42145147Y38043574D01*
X42090000Y37766335D01*
X42090000Y37483665D01*
X42145147Y37206426D01*
X42253320Y36945273D01*
X42410363Y36710241D01*
X42610241Y36510363D01*
X42842759Y36355000D01*
X42610241Y36199637D01*
X42410363Y35999759D01*
X42253320Y35764727D01*
X42145147Y35503574D01*
X42090000Y35226335D01*
X42090000Y34943665D01*
X42145147Y34666426D01*
X42253320Y34405273D01*
X42410363Y34170241D01*
X42610241Y33970363D01*
X42842759Y33815000D01*
X42610241Y33659637D01*
X42410363Y33459759D01*
X42253320Y33224727D01*
X42145147Y32963574D01*
X42090000Y32686335D01*
X42090000Y32403665D01*
X42145147Y32126426D01*
X42253320Y31865273D01*
X42410363Y31630241D01*
X42610241Y31430363D01*
X42842759Y31275000D01*
X42610241Y31119637D01*
X42410363Y30919759D01*
X42253320Y30684727D01*
X42145147Y30423574D01*
X42090000Y30146335D01*
X42090000Y29863665D01*
X42145147Y29586426D01*
X42253320Y29325273D01*
X42410363Y29090241D01*
X42610241Y28890363D01*
X42842759Y28735000D01*
X42610241Y28579637D01*
X42410363Y28379759D01*
X42253320Y28144727D01*
X42145147Y27883574D01*
X42090000Y27606335D01*
X42090000Y27323665D01*
X42145147Y27046426D01*
X42253320Y26785273D01*
X42410363Y26550241D01*
X42610241Y26350363D01*
X42842759Y26195000D01*
X42610241Y26039637D01*
X42410363Y25839759D01*
X42253320Y25604727D01*
X42145147Y25343574D01*
X42090000Y25066335D01*
X42090000Y24783665D01*
X42145147Y24506426D01*
X42193372Y24390000D01*
X32223747Y24390000D01*
X27715855Y28897892D01*
X27781920Y28929359D01*
X28015269Y29103412D01*
X28210178Y29319645D01*
X28279805Y29436534D01*
X28401525Y29254368D01*
X28608368Y29047525D01*
X28851589Y28885010D01*
X29121842Y28773068D01*
X29408740Y28716000D01*
X29701260Y28716000D01*
X29988158Y28773068D01*
X30258411Y28885010D01*
X30501632Y29047525D01*
X30708475Y29254368D01*
X30825000Y29428760D01*
X30941525Y29254368D01*
X31148368Y29047525D01*
X31391589Y28885010D01*
X31661842Y28773068D01*
X31948740Y28716000D01*
X32241260Y28716000D01*
X32528158Y28773068D01*
X32798411Y28885010D01*
X33041632Y29047525D01*
X33173487Y29179380D01*
X33195498Y29106820D01*
X33254463Y28996506D01*
X33333815Y28899815D01*
X33430506Y28820463D01*
X33540820Y28761498D01*
X33660518Y28725188D01*
X33785000Y28712928D01*
X35485000Y28712928D01*
X35609482Y28725188D01*
X35729180Y28761498D01*
X35839494Y28820463D01*
X35936185Y28899815D01*
X36015537Y28996506D01*
X36074502Y29106820D01*
X36110812Y29226518D01*
X36123072Y29351000D01*
X36123072Y31051000D01*
X36110812Y31175482D01*
X36074502Y31295180D01*
X36015537Y31405494D01*
X35936185Y31502185D01*
X35839494Y31581537D01*
X35729180Y31640502D01*
X35609482Y31676812D01*
X35485000Y31689072D01*
X35435445Y31689072D01*
X35410172Y31772387D01*
X35332636Y31917446D01*
X35287715Y31972182D01*
X35228291Y32044591D01*
X35196427Y32070741D01*
X32683000Y34584167D01*
X32683000Y36663733D01*
X34786432Y38767163D01*
X34818291Y38793309D01*
X34922636Y38920454D01*
X35000172Y39065513D01*
X35047918Y39222911D01*
X35060000Y39345581D01*
X35060000Y39345582D01*
X35064040Y39386600D01*
X35060000Y39427618D01*
X35060000Y60871754D01*
X35251006Y60680747D01*
X35268310Y60593755D01*
X35335023Y60432695D01*
X35431876Y60287745D01*
X35555145Y60164476D01*
X35700095Y60067623D01*
X35861155Y60000910D01*
X36032135Y59966900D01*
X36206465Y59966900D01*
X36377445Y60000910D01*
X36538505Y60067623D01*
X36683455Y60164476D01*
X36806724Y60287745D01*
X36903577Y60432695D01*
X36970290Y60593755D01*
X37002452Y60755445D01*
X37075130Y60766213D01*
X37341292Y60861397D01*
X37466514Y60928329D01*
X37538097Y61172298D01*
X36725000Y61985395D01*
X36710858Y61971252D01*
X36531253Y62150857D01*
X36545395Y62165000D01*
X36904605Y62165000D01*
X37717702Y61351903D01*
X37961671Y61423486D01*
X38082571Y61678996D01*
X38151300Y61953184D01*
X38165217Y62235512D01*
X38123787Y62515130D01*
X38028603Y62781292D01*
X37961671Y62906514D01*
X37717702Y62978097D01*
X36904605Y62165000D01*
X36545395Y62165000D01*
X36531253Y62179142D01*
X36710858Y62358747D01*
X36725000Y62344605D01*
X37538097Y63157702D01*
X37466514Y63401671D01*
X37211004Y63522571D01*
X36936816Y63591300D01*
X36654488Y63605217D01*
X36374870Y63563787D01*
X36175300Y63492417D01*
X36175300Y73143127D01*
X36290845Y73166110D01*
X36451905Y73232823D01*
X36596855Y73329676D01*
X36720124Y73452945D01*
X36816977Y73597895D01*
X36883690Y73758955D01*
X36917700Y73929935D01*
X36917700Y74104265D01*
X36883690Y74275245D01*
X36816977Y74436305D01*
X36767700Y74510053D01*
X36767700Y80323054D01*
X37532644Y81087998D01*
X37635084Y81087998D01*
X37513096Y80865961D01*
G37*
G04 #@! TD.AperFunction*
D20*
X27131525Y37313368D02*
X27338368Y37106525D01*
X27581589Y36944010D01*
X27851842Y36832068D01*
X28138740Y36775000D01*
X28431260Y36775000D01*
X28562939Y36801193D01*
X28915963Y36448168D01*
X28942109Y36416309D01*
X28973968Y36390163D01*
X28973970Y36390161D01*
X29042297Y36334087D01*
X29069254Y36311964D01*
X29214313Y36234428D01*
X29371711Y36186682D01*
X29494381Y36174600D01*
X29494382Y36174600D01*
X29535400Y36170560D01*
X29576418Y36174600D01*
X31013001Y36174600D01*
X31013000Y34279319D01*
X31008960Y34238300D01*
X31013000Y34197282D01*
X31025082Y34074612D01*
X31072828Y33917214D01*
X31150364Y33772155D01*
X31254709Y33645009D01*
X31286579Y33618854D01*
X33371950Y31533482D01*
X33333815Y31502185D01*
X33254463Y31405494D01*
X33195498Y31295180D01*
X33173487Y31222620D01*
X33041632Y31354475D01*
X32798411Y31516990D01*
X32528158Y31628932D01*
X32241260Y31686000D01*
X31948740Y31686000D01*
X31661842Y31628932D01*
X31391589Y31516990D01*
X31148368Y31354475D01*
X30941525Y31147632D01*
X30825000Y30973240D01*
X30708475Y31147632D01*
X30501632Y31354475D01*
X30258411Y31516990D01*
X29988158Y31628932D01*
X29701260Y31686000D01*
X29408740Y31686000D01*
X29121842Y31628932D01*
X28851589Y31516990D01*
X28608368Y31354475D01*
X28401525Y31147632D01*
X28279805Y30965466D01*
X28210178Y31082355D01*
X28015269Y31298588D01*
X27781920Y31472641D01*
X27519099Y31597825D01*
X27371890Y31642476D01*
X27142000Y31521155D01*
X27142000Y30328000D01*
X27162000Y30328000D01*
X27162000Y30074000D01*
X27142000Y30074000D01*
X27142000Y30054000D01*
X26888000Y30054000D01*
X26888000Y30074000D01*
X26868000Y30074000D01*
X26868000Y30328000D01*
X26888000Y30328000D01*
X26888000Y31521155D01*
X26658110Y31642476D01*
X26510901Y31597825D01*
X26480000Y31583107D01*
X26480000Y34993806D01*
X26483555Y35029901D01*
X26480000Y35065996D01*
X26480000Y35066005D01*
X26469365Y35173985D01*
X26427337Y35312533D01*
X26359087Y35440220D01*
X26267238Y35552138D01*
X26239193Y35575154D01*
X25210000Y36604346D01*
X25210000Y36874252D01*
X25311842Y36832068D01*
X25598740Y36775000D01*
X25891260Y36775000D01*
X26178158Y36832068D01*
X26448411Y36944010D01*
X26691632Y37106525D01*
X26898475Y37313368D01*
X27015000Y37487760D01*
X27131525Y37313368D01*
G04 #@! TA.AperFunction,Conductor*
D21*
G36*
X27131525Y37313368D02*
G01*
X27338368Y37106525D01*
X27581589Y36944010D01*
X27851842Y36832068D01*
X28138740Y36775000D01*
X28431260Y36775000D01*
X28562939Y36801193D01*
X28915963Y36448168D01*
X28942109Y36416309D01*
X28973968Y36390163D01*
X28973970Y36390161D01*
X29042297Y36334087D01*
X29069254Y36311964D01*
X29214313Y36234428D01*
X29371711Y36186682D01*
X29494381Y36174600D01*
X29494382Y36174600D01*
X29535400Y36170560D01*
X29576418Y36174600D01*
X31013001Y36174600D01*
X31013000Y34279319D01*
X31008960Y34238300D01*
X31013000Y34197282D01*
X31025082Y34074612D01*
X31072828Y33917214D01*
X31150364Y33772155D01*
X31254709Y33645009D01*
X31286579Y33618854D01*
X33371950Y31533482D01*
X33333815Y31502185D01*
X33254463Y31405494D01*
X33195498Y31295180D01*
X33173487Y31222620D01*
X33041632Y31354475D01*
X32798411Y31516990D01*
X32528158Y31628932D01*
X32241260Y31686000D01*
X31948740Y31686000D01*
X31661842Y31628932D01*
X31391589Y31516990D01*
X31148368Y31354475D01*
X30941525Y31147632D01*
X30825000Y30973240D01*
X30708475Y31147632D01*
X30501632Y31354475D01*
X30258411Y31516990D01*
X29988158Y31628932D01*
X29701260Y31686000D01*
X29408740Y31686000D01*
X29121842Y31628932D01*
X28851589Y31516990D01*
X28608368Y31354475D01*
X28401525Y31147632D01*
X28279805Y30965466D01*
X28210178Y31082355D01*
X28015269Y31298588D01*
X27781920Y31472641D01*
X27519099Y31597825D01*
X27371890Y31642476D01*
X27142000Y31521155D01*
X27142000Y30328000D01*
X27162000Y30328000D01*
X27162000Y30074000D01*
X27142000Y30074000D01*
X27142000Y30054000D01*
X26888000Y30054000D01*
X26888000Y30074000D01*
X26868000Y30074000D01*
X26868000Y30328000D01*
X26888000Y30328000D01*
X26888000Y31521155D01*
X26658110Y31642476D01*
X26510901Y31597825D01*
X26480000Y31583107D01*
X26480000Y34993806D01*
X26483555Y35029901D01*
X26480000Y35065996D01*
X26480000Y35066005D01*
X26469365Y35173985D01*
X26427337Y35312533D01*
X26359087Y35440220D01*
X26267238Y35552138D01*
X26239193Y35575154D01*
X25210000Y36604346D01*
X25210000Y36874252D01*
X25311842Y36832068D01*
X25598740Y36775000D01*
X25891260Y36775000D01*
X26178158Y36832068D01*
X26448411Y36944010D01*
X26691632Y37106525D01*
X26898475Y37313368D01*
X27015000Y37487760D01*
X27131525Y37313368D01*
G37*
G04 #@! TD.AperFunction*
D20*
X21443740Y91780000D02*
X21736260Y91780000D01*
X21853244Y91803270D01*
X21840235Y91760385D01*
X21826044Y91616300D01*
X21829600Y91580195D01*
X21829601Y73132615D01*
X21826044Y73096500D01*
X21840235Y72952415D01*
X21869348Y72856444D01*
X21882264Y72813867D01*
X21950514Y72686180D01*
X22042363Y72574262D01*
X22070408Y72551246D01*
X22601062Y72020591D01*
X22466068Y71856101D01*
X22332818Y71606808D01*
X22250764Y71336309D01*
X22223057Y71055000D01*
X22250764Y70773691D01*
X22332818Y70503192D01*
X22466068Y70253899D01*
X22645392Y70035392D01*
X22863899Y69856068D01*
X22996858Y69785000D01*
X22863899Y69713932D01*
X22645392Y69534608D01*
X22466068Y69316101D01*
X22332818Y69066808D01*
X22250764Y68796309D01*
X22223057Y68515000D01*
X22250764Y68233691D01*
X22332818Y67963192D01*
X22466068Y67713899D01*
X22645392Y67495392D01*
X22758482Y67402581D01*
X22740518Y67400812D01*
X22620820Y67364502D01*
X22510506Y67305537D01*
X22413815Y67226185D01*
X22334463Y67129494D01*
X22275498Y67019180D01*
X22239188Y66899482D01*
X22226928Y66775000D01*
X22226928Y65175000D01*
X22239188Y65050518D01*
X22275498Y64930820D01*
X22334463Y64820506D01*
X22413815Y64723815D01*
X22510506Y64644463D01*
X22620820Y64585498D01*
X22740518Y64549188D01*
X22865000Y64536928D01*
X25265000Y64536928D01*
X25389482Y64549188D01*
X25509180Y64585498D01*
X25619494Y64644463D01*
X25716185Y64723815D01*
X25795537Y64820506D01*
X25854502Y64930820D01*
X25890812Y65050518D01*
X25903072Y65175000D01*
X25903072Y66775000D01*
X25890812Y66899482D01*
X25854502Y67019180D01*
X25795537Y67129494D01*
X25716185Y67226185D01*
X25619494Y67305537D01*
X25509180Y67364502D01*
X25389482Y67400812D01*
X25371518Y67402581D01*
X25484608Y67495392D01*
X25663932Y67713899D01*
X25797182Y67963192D01*
X25879236Y68233691D01*
X25906943Y68515000D01*
X25879236Y68796309D01*
X25797182Y69066808D01*
X25663932Y69316101D01*
X25484608Y69534608D01*
X25266101Y69713932D01*
X25133142Y69785000D01*
X25266101Y69856068D01*
X25484608Y70035392D01*
X25663932Y70253899D01*
X25728171Y70374082D01*
X27685700Y68416553D01*
X27685701Y62507715D01*
X27682144Y62471600D01*
X27696335Y62327515D01*
X27731002Y62213236D01*
X27738364Y62188967D01*
X27806614Y62061280D01*
X27898463Y61949362D01*
X27926508Y61926346D01*
X31141706Y58711147D01*
X31159010Y58624155D01*
X31225723Y58463095D01*
X31322576Y58318145D01*
X31445845Y58194876D01*
X31590795Y58098023D01*
X31751855Y58031310D01*
X31922835Y57997300D01*
X32097165Y57997300D01*
X32268145Y58031310D01*
X32429205Y58098023D01*
X32574155Y58194876D01*
X32631038Y58251759D01*
X32649980Y58236213D01*
X32777667Y58167963D01*
X32895365Y58132260D01*
X32994495Y58066023D01*
X33155555Y57999310D01*
X33326535Y57965300D01*
X33390000Y57965300D01*
X33390001Y39732470D01*
X32310584Y38653052D01*
X32313072Y39110000D01*
X32300812Y39234482D01*
X32264502Y39354180D01*
X32205537Y39464494D01*
X32126185Y39561185D01*
X32029494Y39640537D01*
X31919180Y39699502D01*
X31799482Y39735812D01*
X31675000Y39748072D01*
X31110750Y39745000D01*
X30952000Y39586250D01*
X30952000Y38387000D01*
X30972000Y38387000D01*
X30972000Y38133000D01*
X30952000Y38133000D01*
X30952000Y38113000D01*
X30698000Y38113000D01*
X30698000Y38133000D01*
X30678000Y38133000D01*
X30678000Y38387000D01*
X30698000Y38387000D01*
X30698000Y39586250D01*
X30539250Y39745000D01*
X29975000Y39748072D01*
X29850518Y39735812D01*
X29730820Y39699502D01*
X29620506Y39640537D01*
X29523815Y39561185D01*
X29444463Y39464494D01*
X29385498Y39354180D01*
X29363487Y39281620D01*
X29231632Y39413475D01*
X28988411Y39575990D01*
X28718158Y39687932D01*
X28431260Y39745000D01*
X28138740Y39745000D01*
X27851842Y39687932D01*
X27581589Y39575990D01*
X27338368Y39413475D01*
X27131525Y39206632D01*
X27015000Y39032240D01*
X26898475Y39206632D01*
X26691632Y39413475D01*
X26448411Y39575990D01*
X26178158Y39687932D01*
X25891260Y39745000D01*
X25598740Y39745000D01*
X25311842Y39687932D01*
X25041589Y39575990D01*
X24798368Y39413475D01*
X24791820Y39406927D01*
X15679700Y48519046D01*
X15679700Y62306335D01*
X17550000Y62306335D01*
X17550000Y62023665D01*
X17605147Y61746426D01*
X17713320Y61485273D01*
X17870363Y61250241D01*
X18070241Y61050363D01*
X18305273Y60893320D01*
X18566426Y60785147D01*
X18843665Y60730000D01*
X19126335Y60730000D01*
X19403574Y60785147D01*
X19664727Y60893320D01*
X19899759Y61050363D01*
X20021694Y61172298D01*
X20671903Y61172298D01*
X20743486Y60928329D01*
X20998996Y60807429D01*
X21273184Y60738700D01*
X21555512Y60724783D01*
X21835130Y60766213D01*
X22101292Y60861397D01*
X22226514Y60928329D01*
X22298097Y61172298D01*
X21485000Y61985395D01*
X20671903Y61172298D01*
X20021694Y61172298D01*
X20099637Y61250241D01*
X20233692Y61450869D01*
X20248329Y61423486D01*
X20492298Y61351903D01*
X21305395Y62165000D01*
X21664605Y62165000D01*
X22477702Y61351903D01*
X22721671Y61423486D01*
X22842571Y61678996D01*
X22911300Y61953184D01*
X22925217Y62235512D01*
X22883787Y62515130D01*
X22788603Y62781292D01*
X22721671Y62906514D01*
X22477702Y62978097D01*
X21664605Y62165000D01*
X21305395Y62165000D01*
X20492298Y62978097D01*
X20248329Y62906514D01*
X20234676Y62877659D01*
X20099637Y63079759D01*
X20021694Y63157702D01*
X20671903Y63157702D01*
X21485000Y62344605D01*
X22298097Y63157702D01*
X22226514Y63401671D01*
X21971004Y63522571D01*
X21696816Y63591300D01*
X21414488Y63605217D01*
X21134870Y63563787D01*
X20868708Y63468603D01*
X20743486Y63401671D01*
X20671903Y63157702D01*
X20021694Y63157702D01*
X19899759Y63279637D01*
X19664727Y63436680D01*
X19403574Y63544853D01*
X19126335Y63600000D01*
X18843665Y63600000D01*
X18566426Y63544853D01*
X18305273Y63436680D01*
X18070241Y63279637D01*
X17870363Y63079759D01*
X17713320Y62844727D01*
X17605147Y62583574D01*
X17550000Y62306335D01*
X15679700Y62306335D01*
X15679700Y64586242D01*
X15763691Y64560764D01*
X15974508Y64540000D01*
X16915492Y64540000D01*
X17126309Y64560764D01*
X17396808Y64642818D01*
X17646101Y64776068D01*
X17864608Y64955392D01*
X18043932Y65173899D01*
X18177182Y65423192D01*
X18259236Y65693691D01*
X18286943Y65975000D01*
X18259236Y66256309D01*
X18177182Y66526808D01*
X18043932Y66776101D01*
X17864608Y66994608D01*
X17646101Y67173932D01*
X17513142Y67245000D01*
X17646101Y67316068D01*
X17864608Y67495392D01*
X18043932Y67713899D01*
X18084702Y67790174D01*
X18089385Y67790635D01*
X18227933Y67832663D01*
X18355620Y67900913D01*
X18467538Y67992762D01*
X18490559Y68020812D01*
X20933893Y70464146D01*
X20961938Y70487162D01*
X21053787Y70599080D01*
X21122037Y70726767D01*
X21164065Y70865315D01*
X21174700Y70973295D01*
X21174700Y70973304D01*
X21178255Y71009399D01*
X21174700Y71045494D01*
X21174700Y91833516D01*
X21443740Y91780000D01*
G04 #@! TA.AperFunction,Conductor*
D21*
G36*
X21443740Y91780000D02*
G01*
X21736260Y91780000D01*
X21853244Y91803270D01*
X21840235Y91760385D01*
X21826044Y91616300D01*
X21829600Y91580195D01*
X21829601Y73132615D01*
X21826044Y73096500D01*
X21840235Y72952415D01*
X21869348Y72856444D01*
X21882264Y72813867D01*
X21950514Y72686180D01*
X22042363Y72574262D01*
X22070408Y72551246D01*
X22601062Y72020591D01*
X22466068Y71856101D01*
X22332818Y71606808D01*
X22250764Y71336309D01*
X22223057Y71055000D01*
X22250764Y70773691D01*
X22332818Y70503192D01*
X22466068Y70253899D01*
X22645392Y70035392D01*
X22863899Y69856068D01*
X22996858Y69785000D01*
X22863899Y69713932D01*
X22645392Y69534608D01*
X22466068Y69316101D01*
X22332818Y69066808D01*
X22250764Y68796309D01*
X22223057Y68515000D01*
X22250764Y68233691D01*
X22332818Y67963192D01*
X22466068Y67713899D01*
X22645392Y67495392D01*
X22758482Y67402581D01*
X22740518Y67400812D01*
X22620820Y67364502D01*
X22510506Y67305537D01*
X22413815Y67226185D01*
X22334463Y67129494D01*
X22275498Y67019180D01*
X22239188Y66899482D01*
X22226928Y66775000D01*
X22226928Y65175000D01*
X22239188Y65050518D01*
X22275498Y64930820D01*
X22334463Y64820506D01*
X22413815Y64723815D01*
X22510506Y64644463D01*
X22620820Y64585498D01*
X22740518Y64549188D01*
X22865000Y64536928D01*
X25265000Y64536928D01*
X25389482Y64549188D01*
X25509180Y64585498D01*
X25619494Y64644463D01*
X25716185Y64723815D01*
X25795537Y64820506D01*
X25854502Y64930820D01*
X25890812Y65050518D01*
X25903072Y65175000D01*
X25903072Y66775000D01*
X25890812Y66899482D01*
X25854502Y67019180D01*
X25795537Y67129494D01*
X25716185Y67226185D01*
X25619494Y67305537D01*
X25509180Y67364502D01*
X25389482Y67400812D01*
X25371518Y67402581D01*
X25484608Y67495392D01*
X25663932Y67713899D01*
X25797182Y67963192D01*
X25879236Y68233691D01*
X25906943Y68515000D01*
X25879236Y68796309D01*
X25797182Y69066808D01*
X25663932Y69316101D01*
X25484608Y69534608D01*
X25266101Y69713932D01*
X25133142Y69785000D01*
X25266101Y69856068D01*
X25484608Y70035392D01*
X25663932Y70253899D01*
X25728171Y70374082D01*
X27685700Y68416553D01*
X27685701Y62507715D01*
X27682144Y62471600D01*
X27696335Y62327515D01*
X27731002Y62213236D01*
X27738364Y62188967D01*
X27806614Y62061280D01*
X27898463Y61949362D01*
X27926508Y61926346D01*
X31141706Y58711147D01*
X31159010Y58624155D01*
X31225723Y58463095D01*
X31322576Y58318145D01*
X31445845Y58194876D01*
X31590795Y58098023D01*
X31751855Y58031310D01*
X31922835Y57997300D01*
X32097165Y57997300D01*
X32268145Y58031310D01*
X32429205Y58098023D01*
X32574155Y58194876D01*
X32631038Y58251759D01*
X32649980Y58236213D01*
X32777667Y58167963D01*
X32895365Y58132260D01*
X32994495Y58066023D01*
X33155555Y57999310D01*
X33326535Y57965300D01*
X33390000Y57965300D01*
X33390001Y39732470D01*
X32310584Y38653052D01*
X32313072Y39110000D01*
X32300812Y39234482D01*
X32264502Y39354180D01*
X32205537Y39464494D01*
X32126185Y39561185D01*
X32029494Y39640537D01*
X31919180Y39699502D01*
X31799482Y39735812D01*
X31675000Y39748072D01*
X31110750Y39745000D01*
X30952000Y39586250D01*
X30952000Y38387000D01*
X30972000Y38387000D01*
X30972000Y38133000D01*
X30952000Y38133000D01*
X30952000Y38113000D01*
X30698000Y38113000D01*
X30698000Y38133000D01*
X30678000Y38133000D01*
X30678000Y38387000D01*
X30698000Y38387000D01*
X30698000Y39586250D01*
X30539250Y39745000D01*
X29975000Y39748072D01*
X29850518Y39735812D01*
X29730820Y39699502D01*
X29620506Y39640537D01*
X29523815Y39561185D01*
X29444463Y39464494D01*
X29385498Y39354180D01*
X29363487Y39281620D01*
X29231632Y39413475D01*
X28988411Y39575990D01*
X28718158Y39687932D01*
X28431260Y39745000D01*
X28138740Y39745000D01*
X27851842Y39687932D01*
X27581589Y39575990D01*
X27338368Y39413475D01*
X27131525Y39206632D01*
X27015000Y39032240D01*
X26898475Y39206632D01*
X26691632Y39413475D01*
X26448411Y39575990D01*
X26178158Y39687932D01*
X25891260Y39745000D01*
X25598740Y39745000D01*
X25311842Y39687932D01*
X25041589Y39575990D01*
X24798368Y39413475D01*
X24791820Y39406927D01*
X15679700Y48519046D01*
X15679700Y62306335D01*
X17550000Y62306335D01*
X17550000Y62023665D01*
X17605147Y61746426D01*
X17713320Y61485273D01*
X17870363Y61250241D01*
X18070241Y61050363D01*
X18305273Y60893320D01*
X18566426Y60785147D01*
X18843665Y60730000D01*
X19126335Y60730000D01*
X19403574Y60785147D01*
X19664727Y60893320D01*
X19899759Y61050363D01*
X20021694Y61172298D01*
X20671903Y61172298D01*
X20743486Y60928329D01*
X20998996Y60807429D01*
X21273184Y60738700D01*
X21555512Y60724783D01*
X21835130Y60766213D01*
X22101292Y60861397D01*
X22226514Y60928329D01*
X22298097Y61172298D01*
X21485000Y61985395D01*
X20671903Y61172298D01*
X20021694Y61172298D01*
X20099637Y61250241D01*
X20233692Y61450869D01*
X20248329Y61423486D01*
X20492298Y61351903D01*
X21305395Y62165000D01*
X21664605Y62165000D01*
X22477702Y61351903D01*
X22721671Y61423486D01*
X22842571Y61678996D01*
X22911300Y61953184D01*
X22925217Y62235512D01*
X22883787Y62515130D01*
X22788603Y62781292D01*
X22721671Y62906514D01*
X22477702Y62978097D01*
X21664605Y62165000D01*
X21305395Y62165000D01*
X20492298Y62978097D01*
X20248329Y62906514D01*
X20234676Y62877659D01*
X20099637Y63079759D01*
X20021694Y63157702D01*
X20671903Y63157702D01*
X21485000Y62344605D01*
X22298097Y63157702D01*
X22226514Y63401671D01*
X21971004Y63522571D01*
X21696816Y63591300D01*
X21414488Y63605217D01*
X21134870Y63563787D01*
X20868708Y63468603D01*
X20743486Y63401671D01*
X20671903Y63157702D01*
X20021694Y63157702D01*
X19899759Y63279637D01*
X19664727Y63436680D01*
X19403574Y63544853D01*
X19126335Y63600000D01*
X18843665Y63600000D01*
X18566426Y63544853D01*
X18305273Y63436680D01*
X18070241Y63279637D01*
X17870363Y63079759D01*
X17713320Y62844727D01*
X17605147Y62583574D01*
X17550000Y62306335D01*
X15679700Y62306335D01*
X15679700Y64586242D01*
X15763691Y64560764D01*
X15974508Y64540000D01*
X16915492Y64540000D01*
X17126309Y64560764D01*
X17396808Y64642818D01*
X17646101Y64776068D01*
X17864608Y64955392D01*
X18043932Y65173899D01*
X18177182Y65423192D01*
X18259236Y65693691D01*
X18286943Y65975000D01*
X18259236Y66256309D01*
X18177182Y66526808D01*
X18043932Y66776101D01*
X17864608Y66994608D01*
X17646101Y67173932D01*
X17513142Y67245000D01*
X17646101Y67316068D01*
X17864608Y67495392D01*
X18043932Y67713899D01*
X18084702Y67790174D01*
X18089385Y67790635D01*
X18227933Y67832663D01*
X18355620Y67900913D01*
X18467538Y67992762D01*
X18490559Y68020812D01*
X20933893Y70464146D01*
X20961938Y70487162D01*
X21053787Y70599080D01*
X21122037Y70726767D01*
X21164065Y70865315D01*
X21174700Y70973295D01*
X21174700Y70973304D01*
X21178255Y71009399D01*
X21174700Y71045494D01*
X21174700Y91833516D01*
X21443740Y91780000D01*
G37*
G04 #@! TD.AperFunction*
D20*
X86832000Y40927000D02*
X86852000Y40927000D01*
X86852000Y40673000D01*
X86832000Y40673000D01*
X86832000Y40653000D01*
X86578000Y40653000D01*
X86578000Y40673000D01*
X86558000Y40673000D01*
X86558000Y40927000D01*
X86578000Y40927000D01*
X86578000Y40947000D01*
X86832000Y40947000D01*
X86832000Y40927000D01*
G04 #@! TA.AperFunction,Conductor*
D21*
G36*
X86832000Y40927000D02*
G01*
X86852000Y40927000D01*
X86852000Y40673000D01*
X86832000Y40673000D01*
X86832000Y40653000D01*
X86578000Y40653000D01*
X86578000Y40673000D01*
X86558000Y40673000D01*
X86558000Y40927000D01*
X86578000Y40927000D01*
X86578000Y40947000D01*
X86832000Y40947000D01*
X86832000Y40927000D01*
G37*
G04 #@! TD.AperFunction*
D20*
X53437770Y69033683D02*
X53365764Y68796309D01*
X53338057Y68515000D01*
X53342755Y68467301D01*
X53185508Y68310054D01*
X53157462Y68287037D01*
X53065613Y68175119D01*
X52997363Y68047432D01*
X52980779Y67992762D01*
X52955335Y67908885D01*
X52941144Y67764800D01*
X52944700Y67728695D01*
X52944701Y66011115D01*
X52941144Y65975000D01*
X52955335Y65830915D01*
X52997363Y65692367D01*
X53065613Y65564680D01*
X53157462Y65452762D01*
X53269380Y65360913D01*
X53341928Y65322135D01*
X53341928Y65175000D01*
X53354188Y65050518D01*
X53390498Y64930820D01*
X53449463Y64820506D01*
X53528815Y64723815D01*
X53625506Y64644463D01*
X53735820Y64585498D01*
X53855518Y64549188D01*
X53980000Y64536928D01*
X56380000Y64536928D01*
X56504482Y64549188D01*
X56624180Y64585498D01*
X56734494Y64644463D01*
X56831185Y64723815D01*
X56910537Y64820506D01*
X56969502Y64930820D01*
X57005812Y65050518D01*
X57018072Y65175000D01*
X57018072Y65407182D01*
X69237484Y53187769D01*
X69158155Y53171990D01*
X68997095Y53105277D01*
X68852145Y53008424D01*
X68728876Y52885155D01*
X68632023Y52740205D01*
X68565310Y52579145D01*
X68548006Y52492153D01*
X62259441Y46203588D01*
X62194505Y46246977D01*
X62033445Y46313690D01*
X61946453Y46330994D01*
X51996700Y56280746D01*
X51996700Y60862930D01*
X52113996Y60807429D01*
X52388184Y60738700D01*
X52670512Y60724783D01*
X52950130Y60766213D01*
X53216292Y60861397D01*
X53341514Y60928329D01*
X53413097Y61172298D01*
X52600000Y61985395D01*
X52585858Y61971252D01*
X52406253Y62150857D01*
X52420395Y62165000D01*
X52779605Y62165000D01*
X53592702Y61351903D01*
X53836671Y61423486D01*
X53957571Y61678996D01*
X54026300Y61953184D01*
X54040217Y62235512D01*
X53998787Y62515130D01*
X53903603Y62781292D01*
X53836671Y62906514D01*
X53592702Y62978097D01*
X52779605Y62165000D01*
X52420395Y62165000D01*
X52406253Y62179142D01*
X52585858Y62358747D01*
X52600000Y62344605D01*
X53413097Y63157702D01*
X53341514Y63401671D01*
X53086004Y63522571D01*
X52811816Y63591300D01*
X52529488Y63605217D01*
X52249870Y63563787D01*
X51996700Y63473249D01*
X51996700Y70474753D01*
X53437770Y69033683D01*
G04 #@! TA.AperFunction,Conductor*
D21*
G36*
X53437770Y69033683D02*
G01*
X53365764Y68796309D01*
X53338057Y68515000D01*
X53342755Y68467301D01*
X53185508Y68310054D01*
X53157462Y68287037D01*
X53065613Y68175119D01*
X52997363Y68047432D01*
X52980779Y67992762D01*
X52955335Y67908885D01*
X52941144Y67764800D01*
X52944700Y67728695D01*
X52944701Y66011115D01*
X52941144Y65975000D01*
X52955335Y65830915D01*
X52997363Y65692367D01*
X53065613Y65564680D01*
X53157462Y65452762D01*
X53269380Y65360913D01*
X53341928Y65322135D01*
X53341928Y65175000D01*
X53354188Y65050518D01*
X53390498Y64930820D01*
X53449463Y64820506D01*
X53528815Y64723815D01*
X53625506Y64644463D01*
X53735820Y64585498D01*
X53855518Y64549188D01*
X53980000Y64536928D01*
X56380000Y64536928D01*
X56504482Y64549188D01*
X56624180Y64585498D01*
X56734494Y64644463D01*
X56831185Y64723815D01*
X56910537Y64820506D01*
X56969502Y64930820D01*
X57005812Y65050518D01*
X57018072Y65175000D01*
X57018072Y65407182D01*
X69237484Y53187769D01*
X69158155Y53171990D01*
X68997095Y53105277D01*
X68852145Y53008424D01*
X68728876Y52885155D01*
X68632023Y52740205D01*
X68565310Y52579145D01*
X68548006Y52492153D01*
X62259441Y46203588D01*
X62194505Y46246977D01*
X62033445Y46313690D01*
X61946453Y46330994D01*
X51996700Y56280746D01*
X51996700Y60862930D01*
X52113996Y60807429D01*
X52388184Y60738700D01*
X52670512Y60724783D01*
X52950130Y60766213D01*
X53216292Y60861397D01*
X53341514Y60928329D01*
X53413097Y61172298D01*
X52600000Y61985395D01*
X52585858Y61971252D01*
X52406253Y62150857D01*
X52420395Y62165000D01*
X52779605Y62165000D01*
X53592702Y61351903D01*
X53836671Y61423486D01*
X53957571Y61678996D01*
X54026300Y61953184D01*
X54040217Y62235512D01*
X53998787Y62515130D01*
X53903603Y62781292D01*
X53836671Y62906514D01*
X53592702Y62978097D01*
X52779605Y62165000D01*
X52420395Y62165000D01*
X52406253Y62179142D01*
X52585858Y62358747D01*
X52600000Y62344605D01*
X53413097Y63157702D01*
X53341514Y63401671D01*
X53086004Y63522571D01*
X52811816Y63591300D01*
X52529488Y63605217D01*
X52249870Y63563787D01*
X51996700Y63473249D01*
X51996700Y70474753D01*
X53437770Y69033683D01*
G37*
G04 #@! TD.AperFunction*
D20*
X55945400Y91132295D02*
X55945400Y82605028D01*
X55707000Y82650000D01*
X55307000Y82650000D01*
X55307000Y81342000D01*
X55327000Y81342000D01*
X55327000Y81088000D01*
X55307000Y81088000D01*
X55307000Y81068000D01*
X55053000Y81068000D01*
X55053000Y81088000D01*
X53510085Y81088000D01*
X53388096Y80865961D01*
X53405633Y80783182D01*
X53516285Y80523354D01*
X53675500Y80290105D01*
X53877161Y80092399D01*
X54106741Y79942265D01*
X53978899Y79873932D01*
X53939527Y79841620D01*
X52217108Y81564039D01*
X53388096Y81564039D01*
X53510085Y81342000D01*
X55053000Y81342000D01*
X55053000Y82650000D01*
X54653000Y82650000D01*
X54375486Y82597650D01*
X54113517Y82492166D01*
X53877161Y82337601D01*
X53675500Y82139895D01*
X53516285Y81906646D01*
X53405633Y81646818D01*
X53388096Y81564039D01*
X52217108Y81564039D01*
X51740094Y82041052D01*
X51722790Y82128045D01*
X51656077Y82289105D01*
X51559224Y82434055D01*
X51435955Y82557324D01*
X51291005Y82654177D01*
X51129945Y82720890D01*
X51016900Y82743376D01*
X51016900Y85424354D01*
X51047053Y85454506D01*
X51134045Y85471810D01*
X51295105Y85538523D01*
X51440055Y85635376D01*
X51563324Y85758645D01*
X51660177Y85903595D01*
X51726890Y86064655D01*
X51760900Y86235635D01*
X51760900Y86409965D01*
X51726890Y86580945D01*
X51660177Y86742005D01*
X51615025Y86809579D01*
X55944713Y91139267D01*
X55945400Y91132295D01*
G04 #@! TA.AperFunction,Conductor*
D21*
G36*
X55945400Y91132295D02*
G01*
X55945400Y82605028D01*
X55707000Y82650000D01*
X55307000Y82650000D01*
X55307000Y81342000D01*
X55327000Y81342000D01*
X55327000Y81088000D01*
X55307000Y81088000D01*
X55307000Y81068000D01*
X55053000Y81068000D01*
X55053000Y81088000D01*
X53510085Y81088000D01*
X53388096Y80865961D01*
X53405633Y80783182D01*
X53516285Y80523354D01*
X53675500Y80290105D01*
X53877161Y80092399D01*
X54106741Y79942265D01*
X53978899Y79873932D01*
X53939527Y79841620D01*
X52217108Y81564039D01*
X53388096Y81564039D01*
X53510085Y81342000D01*
X55053000Y81342000D01*
X55053000Y82650000D01*
X54653000Y82650000D01*
X54375486Y82597650D01*
X54113517Y82492166D01*
X53877161Y82337601D01*
X53675500Y82139895D01*
X53516285Y81906646D01*
X53405633Y81646818D01*
X53388096Y81564039D01*
X52217108Y81564039D01*
X51740094Y82041052D01*
X51722790Y82128045D01*
X51656077Y82289105D01*
X51559224Y82434055D01*
X51435955Y82557324D01*
X51291005Y82654177D01*
X51129945Y82720890D01*
X51016900Y82743376D01*
X51016900Y85424354D01*
X51047053Y85454506D01*
X51134045Y85471810D01*
X51295105Y85538523D01*
X51440055Y85635376D01*
X51563324Y85758645D01*
X51660177Y85903595D01*
X51726890Y86064655D01*
X51760900Y86235635D01*
X51760900Y86409965D01*
X51726890Y86580945D01*
X51660177Y86742005D01*
X51615025Y86809579D01*
X55944713Y91139267D01*
X55945400Y91132295D01*
G37*
G04 #@! TD.AperFunction*
D20*
X49657000Y93392000D02*
X49677000Y93392000D01*
X49677000Y93138000D01*
X49657000Y93138000D01*
X49657000Y91944845D01*
X49886890Y91823524D01*
X50034099Y91868175D01*
X50296920Y91993359D01*
X50530269Y92167412D01*
X50725178Y92383645D01*
X50794805Y92500534D01*
X50916525Y92318368D01*
X51123368Y92111525D01*
X51366589Y91949010D01*
X51636842Y91837068D01*
X51923740Y91780000D01*
X51965953Y91780000D01*
X41080951Y80894997D01*
X40974915Y81088000D01*
X39432000Y81088000D01*
X39432000Y81068000D01*
X39178000Y81068000D01*
X39178000Y81088000D01*
X39158000Y81088000D01*
X39158000Y81342000D01*
X39178000Y81342000D01*
X39178000Y82650000D01*
X39432000Y82650000D01*
X39432000Y81342000D01*
X40974915Y81342000D01*
X41096904Y81564039D01*
X41079367Y81646818D01*
X40968715Y81906646D01*
X40809500Y82139895D01*
X40607839Y82337601D01*
X40371483Y82492166D01*
X40109514Y82597650D01*
X39832000Y82650000D01*
X39432000Y82650000D01*
X39178000Y82650000D01*
X39094646Y82650000D01*
X48576886Y92132239D01*
X48763080Y91993359D01*
X49025901Y91868175D01*
X49173110Y91823524D01*
X49403000Y91944845D01*
X49403000Y93138000D01*
X49383000Y93138000D01*
X49383000Y93392000D01*
X49403000Y93392000D01*
X49403000Y93412000D01*
X49657000Y93412000D01*
X49657000Y93392000D01*
G04 #@! TA.AperFunction,Conductor*
D21*
G36*
X49657000Y93392000D02*
G01*
X49677000Y93392000D01*
X49677000Y93138000D01*
X49657000Y93138000D01*
X49657000Y91944845D01*
X49886890Y91823524D01*
X50034099Y91868175D01*
X50296920Y91993359D01*
X50530269Y92167412D01*
X50725178Y92383645D01*
X50794805Y92500534D01*
X50916525Y92318368D01*
X51123368Y92111525D01*
X51366589Y91949010D01*
X51636842Y91837068D01*
X51923740Y91780000D01*
X51965953Y91780000D01*
X41080951Y80894997D01*
X40974915Y81088000D01*
X39432000Y81088000D01*
X39432000Y81068000D01*
X39178000Y81068000D01*
X39178000Y81088000D01*
X39158000Y81088000D01*
X39158000Y81342000D01*
X39178000Y81342000D01*
X39178000Y82650000D01*
X39432000Y82650000D01*
X39432000Y81342000D01*
X40974915Y81342000D01*
X41096904Y81564039D01*
X41079367Y81646818D01*
X40968715Y81906646D01*
X40809500Y82139895D01*
X40607839Y82337601D01*
X40371483Y82492166D01*
X40109514Y82597650D01*
X39832000Y82650000D01*
X39432000Y82650000D01*
X39178000Y82650000D01*
X39094646Y82650000D01*
X48576886Y92132239D01*
X48763080Y91993359D01*
X49025901Y91868175D01*
X49173110Y91823524D01*
X49403000Y91944845D01*
X49403000Y93138000D01*
X49383000Y93138000D01*
X49383000Y93392000D01*
X49403000Y93392000D01*
X49403000Y93412000D01*
X49657000Y93412000D01*
X49657000Y93392000D01*
G37*
G04 #@! TD.AperFunction*
D20*
X24796993Y91925781D02*
X24800364Y91914667D01*
X24830300Y91858661D01*
X24830301Y82605047D01*
X24592000Y82650000D01*
X24192000Y82650000D01*
X24192000Y81342000D01*
X24212000Y81342000D01*
X24212000Y81088000D01*
X24192000Y81088000D01*
X24192000Y81068000D01*
X23938000Y81068000D01*
X23938000Y81088000D01*
X23918000Y81088000D01*
X23918000Y81342000D01*
X23938000Y81342000D01*
X23938000Y82650000D01*
X23538000Y82650000D01*
X23299600Y82605028D01*
X23299600Y91311854D01*
X23473887Y91486141D01*
X23501938Y91509162D01*
X23593787Y91621080D01*
X23662037Y91748767D01*
X23689718Y91840019D01*
X23696842Y91837068D01*
X23983740Y91780000D01*
X24276260Y91780000D01*
X24563158Y91837068D01*
X24794798Y91933016D01*
X24796993Y91925781D01*
G04 #@! TA.AperFunction,Conductor*
D21*
G36*
X24796993Y91925781D02*
G01*
X24800364Y91914667D01*
X24830300Y91858661D01*
X24830301Y82605047D01*
X24592000Y82650000D01*
X24192000Y82650000D01*
X24192000Y81342000D01*
X24212000Y81342000D01*
X24212000Y81088000D01*
X24192000Y81088000D01*
X24192000Y81068000D01*
X23938000Y81068000D01*
X23938000Y81088000D01*
X23918000Y81088000D01*
X23918000Y81342000D01*
X23938000Y81342000D01*
X23938000Y82650000D01*
X23538000Y82650000D01*
X23299600Y82605028D01*
X23299600Y91311854D01*
X23473887Y91486141D01*
X23501938Y91509162D01*
X23593787Y91621080D01*
X23662037Y91748767D01*
X23689718Y91840019D01*
X23696842Y91837068D01*
X23983740Y91780000D01*
X24276260Y91780000D01*
X24563158Y91837068D01*
X24794798Y91933016D01*
X24796993Y91925781D01*
G37*
G04 #@! TD.AperFunction*
D20*
X47117000Y95932000D02*
X47137000Y95932000D01*
X47137000Y95678000D01*
X47117000Y95678000D01*
X47117000Y95658000D01*
X46863000Y95658000D01*
X46863000Y95678000D01*
X46843000Y95678000D01*
X46843000Y95932000D01*
X46863000Y95932000D01*
X46863000Y95952000D01*
X47117000Y95952000D01*
X47117000Y95932000D01*
G04 #@! TA.AperFunction,Conductor*
D21*
G36*
X47117000Y95932000D02*
G01*
X47137000Y95932000D01*
X47137000Y95678000D01*
X47117000Y95678000D01*
X47117000Y95658000D01*
X46863000Y95658000D01*
X46863000Y95678000D01*
X46843000Y95678000D01*
X46843000Y95932000D01*
X46863000Y95932000D01*
X46863000Y95952000D01*
X47117000Y95952000D01*
X47117000Y95932000D01*
G37*
G04 #@! TD.AperFunction*
M02*
