G04 #@! TF.GenerationSoftware,KiCad,Pcbnew,(5.1.9)-1*
G04 #@! TF.CreationDate,2023-02-15T09:39:51+09:00*
G04 #@! TF.ProjectId,FM-7_SD,464d2d37-5f53-4442-9e6b-696361645f70,rev?*
G04 #@! TF.SameCoordinates,PX53920b0PY93c3260*
G04 #@! TF.FileFunction,Copper,L2,Bot*
G04 #@! TF.FilePolarity,Positive*
%FSLAX46Y46*%
G04 Gerber Fmt 4.6, Leading zero omitted, Abs format (unit mm)*
G04 Created by KiCad (PCBNEW (5.1.9)-1) date 2023-02-15 09:39:51*
%MOMM*%
%LPD*%
G01*
G04 APERTURE LIST*
G04 #@! TA.AperFunction,ComponentPad*
%ADD10C,1.600000*%
G04 #@! TD*
G04 #@! TA.AperFunction,ComponentPad*
%ADD11R,1.600000X1.600000*%
G04 #@! TD*
G04 #@! TA.AperFunction,ComponentPad*
%ADD12R,1.700000X1.700000*%
G04 #@! TD*
G04 #@! TA.AperFunction,ComponentPad*
%ADD13O,1.700000X1.700000*%
G04 #@! TD*
G04 #@! TA.AperFunction,ComponentPad*
%ADD14R,1.600000X2.400000*%
G04 #@! TD*
G04 #@! TA.AperFunction,ComponentPad*
%ADD15O,1.600000X2.400000*%
G04 #@! TD*
G04 #@! TA.AperFunction,ComponentPad*
%ADD16R,2.400000X1.600000*%
G04 #@! TD*
G04 #@! TA.AperFunction,ComponentPad*
%ADD17O,2.400000X1.600000*%
G04 #@! TD*
G04 #@! TA.AperFunction,ComponentPad*
%ADD18O,1.600000X1.600000*%
G04 #@! TD*
G04 #@! TA.AperFunction,ComponentPad*
%ADD19C,1.550000*%
G04 #@! TD*
G04 #@! TA.AperFunction,ViaPad*
%ADD20C,0.500000*%
G04 #@! TD*
G04 #@! TA.AperFunction,Conductor*
%ADD21C,0.400000*%
G04 #@! TD*
G04 #@! TA.AperFunction,Conductor*
%ADD22C,0.200000*%
G04 #@! TD*
G04 #@! TA.AperFunction,Conductor*
%ADD23C,0.254000*%
G04 #@! TD*
G04 #@! TA.AperFunction,Conductor*
%ADD24C,0.100000*%
G04 #@! TD*
G04 APERTURE END LIST*
D10*
X107025000Y59200000D03*
X109525000Y59200000D03*
D11*
X95250000Y58420000D03*
D10*
X92750000Y58420000D03*
X87695000Y13865000D03*
X87695000Y11365000D03*
X87695000Y26605000D03*
X87695000Y29105000D03*
X87695000Y42480000D03*
X87695000Y44980000D03*
D12*
X34635000Y30201000D03*
D13*
X32095000Y30201000D03*
X29555000Y30201000D03*
X27015000Y30201000D03*
X24475000Y30201000D03*
X21935000Y30201000D03*
X19395000Y30201000D03*
X16855000Y30201000D03*
X14315000Y30201000D03*
X14315000Y2261000D03*
X14315000Y4801000D03*
X34635000Y2261000D03*
X34635000Y4801000D03*
D12*
X30825000Y38260000D03*
D13*
X28285000Y38260000D03*
X25745000Y38260000D03*
X23205000Y38260000D03*
X20665000Y38260000D03*
X18125000Y38260000D03*
D14*
X83885000Y16445000D03*
D15*
X68645000Y8825000D03*
X81345000Y16445000D03*
X71185000Y8825000D03*
X78805000Y16445000D03*
X73725000Y8825000D03*
X76265000Y16445000D03*
X76265000Y8825000D03*
X73725000Y16445000D03*
X78805000Y8825000D03*
X71185000Y16445000D03*
X81345000Y8825000D03*
X68645000Y16445000D03*
X83885000Y8825000D03*
X83885000Y24065000D03*
X68645000Y31685000D03*
X81345000Y24065000D03*
X71185000Y31685000D03*
X78805000Y24065000D03*
X73725000Y31685000D03*
X76265000Y24065000D03*
X76265000Y31685000D03*
X73725000Y24065000D03*
X78805000Y31685000D03*
X71185000Y24065000D03*
X81345000Y31685000D03*
X68645000Y24065000D03*
D14*
X83885000Y31685000D03*
D16*
X115915000Y7130000D03*
D17*
X100675000Y55390000D03*
X115915000Y9670000D03*
X100675000Y52850000D03*
X115915000Y12210000D03*
X100675000Y50310000D03*
X115915000Y14750000D03*
X100675000Y47770000D03*
X115915000Y17290000D03*
X100675000Y45230000D03*
X115915000Y19830000D03*
X100675000Y42690000D03*
X115915000Y22370000D03*
X100675000Y40150000D03*
X115915000Y24910000D03*
X100675000Y37610000D03*
X115915000Y27450000D03*
X100675000Y35070000D03*
X115915000Y29990000D03*
X100675000Y32530000D03*
X115915000Y32530000D03*
X100675000Y29990000D03*
X115915000Y35070000D03*
X100675000Y27450000D03*
X115915000Y37610000D03*
X100675000Y24910000D03*
X115915000Y40150000D03*
X100675000Y22370000D03*
X115915000Y42690000D03*
X100675000Y19830000D03*
X115915000Y45230000D03*
X100675000Y17290000D03*
X115915000Y47770000D03*
X100675000Y14750000D03*
X115915000Y50310000D03*
X100675000Y12210000D03*
X115915000Y52850000D03*
X100675000Y9670000D03*
X115915000Y55390000D03*
X100675000Y7130000D03*
D11*
X58765000Y12225000D03*
D18*
X58765000Y14765000D03*
X58765000Y17305000D03*
X43525000Y40165000D03*
X58765000Y19845000D03*
X43525000Y37625000D03*
X58765000Y22385000D03*
X43525000Y35085000D03*
X58765000Y24925000D03*
X43525000Y32545000D03*
X58765000Y27465000D03*
X43525000Y30005000D03*
X58765000Y30005000D03*
X43525000Y27465000D03*
X58765000Y32545000D03*
X43525000Y24925000D03*
X58765000Y35085000D03*
X43525000Y22385000D03*
X58765000Y37625000D03*
X43525000Y19845000D03*
X58765000Y40165000D03*
X43525000Y17305000D03*
X43525000Y14765000D03*
X43525000Y12225000D03*
X46065000Y21115000D03*
X46065000Y23655000D03*
X46065000Y31275000D03*
X46065000Y33815000D03*
D15*
X83885000Y39940000D03*
X68645000Y47560000D03*
X81345000Y39940000D03*
X71185000Y47560000D03*
X78805000Y39940000D03*
X73725000Y47560000D03*
X76265000Y39940000D03*
X76265000Y47560000D03*
X73725000Y39940000D03*
X78805000Y47560000D03*
X71185000Y39940000D03*
X81345000Y47560000D03*
X68645000Y39940000D03*
D14*
X83885000Y47560000D03*
G04 #@! TA.AperFunction,ComponentPad*
G36*
G01*
X33775001Y58475000D02*
X32724999Y58475000D01*
G75*
G02*
X32475000Y58724999I0J249999D01*
G01*
X32475000Y59775001D01*
G75*
G02*
X32724999Y60025000I249999J0D01*
G01*
X33775001Y60025000D01*
G75*
G02*
X34025000Y59775001I0J-249999D01*
G01*
X34025000Y58724999D01*
G75*
G02*
X33775001Y58475000I-249999J0D01*
G01*
G37*
G04 #@! TD.AperFunction*
D19*
X35790000Y59250000D03*
X38330000Y59250000D03*
X40870000Y59250000D03*
X43410000Y59250000D03*
X45950000Y59250000D03*
X48490000Y59250000D03*
X51030000Y59250000D03*
X53570000Y59250000D03*
X56110000Y59250000D03*
X58650000Y59250000D03*
X61190000Y59250000D03*
X63730000Y59250000D03*
X66270000Y59250000D03*
X68810000Y59250000D03*
X71350000Y59250000D03*
X33250000Y61790000D03*
X35790000Y61790000D03*
X38330000Y61790000D03*
X40870000Y61790000D03*
X43410000Y61790000D03*
X45950000Y61790000D03*
X48490000Y61790000D03*
X51030000Y61790000D03*
X53570000Y61790000D03*
X56110000Y61790000D03*
X58650000Y61790000D03*
X61190000Y61790000D03*
X63730000Y61790000D03*
X66270000Y61790000D03*
X68810000Y61790000D03*
X71350000Y61790000D03*
D20*
X82390000Y51658000D03*
X96370500Y36274700D03*
X88417900Y32621900D03*
X65685100Y38980000D03*
X92278000Y49707500D03*
X92638300Y50866000D03*
X93078100Y50280200D03*
X94023800Y49755000D03*
X89953900Y51395900D03*
X61531400Y17956400D03*
X88613300Y22385000D03*
X95001300Y35718500D03*
X89495300Y30451600D03*
X93888200Y35719200D03*
X89191600Y31138600D03*
X68288900Y36924100D03*
X64162100Y21221300D03*
X64398100Y33742900D03*
X56138000Y50678800D03*
X77638500Y59452400D03*
X64909800Y22072500D03*
X59100300Y53985600D03*
X64899000Y33185300D03*
X79590300Y61739900D03*
X52228100Y57240000D03*
X91330600Y13127400D03*
X65737000Y36761100D03*
D21*
X115915000Y22370000D02*
X114314700Y22370000D01*
X107833900Y57219600D02*
X107833900Y57508900D01*
X107833900Y57508900D02*
X109525000Y59200000D01*
X114314700Y22370000D02*
X107833900Y28850800D01*
X107833900Y28850800D02*
X107833900Y57219600D01*
X92750000Y58420000D02*
X93950400Y57219600D01*
X93950400Y57219600D02*
X107833900Y57219600D01*
X87695000Y44980000D02*
X88897000Y43778000D01*
X88897000Y43778000D02*
X88897000Y35656600D01*
X88897000Y35656600D02*
X87695000Y34454600D01*
X87695000Y34454600D02*
X87695000Y29105000D01*
X82390000Y51658000D02*
X87695000Y46353000D01*
X87695000Y46353000D02*
X87695000Y44980000D01*
X71350000Y59250000D02*
X78941900Y51658100D01*
X78941900Y51658100D02*
X82390000Y51658100D01*
X82390000Y51658100D02*
X82390000Y51658000D01*
X71350000Y61790000D02*
X71350000Y59250000D01*
X27015000Y30201000D02*
X27015000Y31451300D01*
X30825000Y38260000D02*
X30825000Y35261300D01*
X30825000Y35261300D02*
X27015000Y31451300D01*
X87695000Y29105000D02*
X86494600Y27904600D01*
X86494600Y27904600D02*
X86494600Y15065400D01*
X86494600Y15065400D02*
X87695000Y13865000D01*
X68645000Y31685000D02*
X68645000Y30084700D01*
X68645000Y16445000D02*
X68645000Y18045300D01*
X68645000Y18045300D02*
X67437100Y19253200D01*
X67437100Y19253200D02*
X67437100Y28876800D01*
X67437100Y28876800D02*
X68645000Y30084700D01*
X68645000Y47560000D02*
X68645000Y49160300D01*
X68810000Y59250000D02*
X68810000Y49325300D01*
X68810000Y49325300D02*
X68645000Y49160300D01*
X27015000Y30201000D02*
X27015000Y28950700D01*
X43525000Y14765000D02*
X42324700Y14765000D01*
X42324700Y14765000D02*
X28139000Y28950700D01*
X28139000Y28950700D02*
X27015000Y28950700D01*
D22*
X47165300Y21115000D02*
X63362500Y4917800D01*
X63362500Y4917800D02*
X112202500Y4917800D01*
X112202500Y4917800D02*
X114414700Y7130000D01*
X115915000Y7130000D02*
X114414700Y7130000D01*
X46065000Y21115000D02*
X47165300Y21115000D01*
X47165300Y23655000D02*
X57466900Y13353400D01*
X57466900Y13353400D02*
X60516300Y13353400D01*
X60516300Y13353400D02*
X68151300Y5718400D01*
X68151300Y5718400D02*
X91210700Y5718400D01*
X91210700Y5718400D02*
X93750700Y8258400D01*
X93750700Y8258400D02*
X101633200Y8258400D01*
X101633200Y8258400D02*
X103044800Y9670000D01*
X103044800Y9670000D02*
X115915000Y9670000D01*
X46065000Y23655000D02*
X47165300Y23655000D01*
X43525000Y22385000D02*
X46461600Y22385000D01*
X46461600Y22385000D02*
X63528500Y5318100D01*
X63528500Y5318100D02*
X111532800Y5318100D01*
X111532800Y5318100D02*
X114614900Y8400200D01*
X114614900Y8400200D02*
X116608600Y8400200D01*
X116608600Y8400200D02*
X117415300Y9206900D01*
X117415300Y9206900D02*
X117415300Y12210000D01*
X115915000Y12210000D02*
X117415300Y12210000D01*
X115915000Y14750000D02*
X114414700Y14750000D01*
X43525000Y24925000D02*
X47824900Y24925000D01*
X47824900Y24925000D02*
X56573200Y16176700D01*
X56573200Y16176700D02*
X58915900Y16176700D01*
X58915900Y16176700D02*
X65887200Y9205400D01*
X65887200Y9205400D02*
X65887200Y8972000D01*
X65887200Y8972000D02*
X68740500Y6118700D01*
X68740500Y6118700D02*
X90844600Y6118700D01*
X90844600Y6118700D02*
X98205900Y13480000D01*
X98205900Y13480000D02*
X113144700Y13480000D01*
X113144700Y13480000D02*
X114414700Y14750000D01*
X88417900Y32621900D02*
X92070700Y36274700D01*
X92070700Y36274700D02*
X96370500Y36274700D01*
X81345000Y16445000D02*
X81345000Y17945300D01*
X83885000Y31685000D02*
X83885000Y30184700D01*
X83885000Y30184700D02*
X82784700Y29084400D01*
X82784700Y29084400D02*
X82784700Y19385000D01*
X82784700Y19385000D02*
X81345000Y17945300D01*
X68645000Y10325300D02*
X66287500Y12682800D01*
X66287500Y12682800D02*
X66287500Y38377600D01*
X66287500Y38377600D02*
X65685100Y38980000D01*
X68645000Y8825000D02*
X68645000Y10325300D01*
X78805000Y8825000D02*
X78805000Y10325300D01*
X71185000Y31685000D02*
X71185000Y27976300D01*
X71185000Y27976300D02*
X72455000Y26706300D01*
X72455000Y26706300D02*
X72455000Y15697100D01*
X72455000Y15697100D02*
X77826800Y10325300D01*
X77826800Y10325300D02*
X78805000Y10325300D01*
X73725000Y8825000D02*
X73725000Y7324700D01*
X100675000Y19830000D02*
X99174700Y19830000D01*
X99174700Y19830000D02*
X86669400Y7324700D01*
X86669400Y7324700D02*
X73725000Y7324700D01*
X92278000Y49707500D02*
X92038900Y49946600D01*
X92038900Y49946600D02*
X92038900Y51061600D01*
X92038900Y51061600D02*
X96367300Y55390000D01*
X96367300Y55390000D02*
X100675000Y55390000D01*
X100675000Y52850000D02*
X99174700Y52850000D01*
X92638300Y50866000D02*
X97190700Y50866000D01*
X97190700Y50866000D02*
X99174700Y52850000D01*
X100675000Y50310000D02*
X93107900Y50310000D01*
X93107900Y50310000D02*
X93078100Y50280200D01*
X99174700Y47770000D02*
X97189800Y49754900D01*
X97189800Y49754900D02*
X94023800Y49754900D01*
X94023800Y49754900D02*
X94023800Y49755000D01*
X100675000Y47770000D02*
X99174700Y47770000D01*
X89953900Y51395900D02*
X89953900Y51253400D01*
X89953900Y51253400D02*
X95977300Y45230000D01*
X95977300Y45230000D02*
X99174700Y45230000D01*
X100675000Y45230000D02*
X99174700Y45230000D01*
X44625300Y30005000D02*
X55913600Y18716700D01*
X55913600Y18716700D02*
X60771100Y18716700D01*
X60771100Y18716700D02*
X61531400Y17956400D01*
X43525000Y30005000D02*
X44625300Y30005000D01*
X117415300Y50310000D02*
X117415300Y21871500D01*
X117415300Y21871500D02*
X116811200Y21267400D01*
X116811200Y21267400D02*
X89730900Y21267400D01*
X89730900Y21267400D02*
X88613300Y22385000D01*
X115915000Y50310000D02*
X117415300Y50310000D01*
X89495300Y30451600D02*
X89495300Y30451700D01*
X89495300Y30451700D02*
X89734500Y30451700D01*
X89734500Y30451700D02*
X95001300Y35718500D01*
X89191600Y31138600D02*
X89307600Y31138600D01*
X89307600Y31138600D02*
X93888200Y35719200D01*
X71185000Y17945300D02*
X69915000Y19215300D01*
X69915000Y19215300D02*
X69915000Y35298000D01*
X69915000Y35298000D02*
X68288900Y36924100D01*
X71185000Y16445000D02*
X71185000Y17945300D01*
X25182200Y33504200D02*
X21576600Y37109700D01*
X21576600Y37109700D02*
X20665000Y37109700D01*
X24475000Y31351300D02*
X25182200Y32058500D01*
X25182200Y32058500D02*
X25182200Y33504100D01*
X25182200Y33504100D02*
X25182200Y33504200D01*
X42424700Y32545000D02*
X35559300Y39410400D01*
X35559300Y39410400D02*
X29812700Y39410400D01*
X29812700Y39410400D02*
X29674600Y39272300D01*
X29674600Y39272300D02*
X29674600Y37996600D01*
X29674600Y37996600D02*
X25182200Y33504200D01*
X20665000Y38260000D02*
X20665000Y37109700D01*
X24475000Y30201000D02*
X24475000Y31351300D01*
X43525000Y32545000D02*
X42424700Y32545000D01*
X25745000Y38260000D02*
X26895300Y38260000D01*
X43525000Y35085000D02*
X42424700Y35085000D01*
X42424700Y35085000D02*
X37698000Y39811700D01*
X37698000Y39811700D02*
X28208600Y39811700D01*
X28208600Y39811700D02*
X26895300Y38498400D01*
X26895300Y38498400D02*
X26895300Y38260000D01*
X24355300Y38260000D02*
X24355300Y38498400D01*
X24355300Y38498400D02*
X26070700Y40213800D01*
X26070700Y40213800D02*
X39835900Y40213800D01*
X39835900Y40213800D02*
X42424700Y37625000D01*
X23205000Y38260000D02*
X24355300Y38260000D01*
X43525000Y37625000D02*
X42424700Y37625000D01*
X18125000Y38260000D02*
X19275300Y38260000D01*
X43525000Y40165000D02*
X42424700Y40165000D01*
X42424700Y40165000D02*
X41968900Y40620800D01*
X41968900Y40620800D02*
X21397700Y40620800D01*
X21397700Y40620800D02*
X19275300Y38498400D01*
X19275300Y38498400D02*
X19275300Y38260000D01*
X35790000Y59250000D02*
X35790000Y51379000D01*
X35790000Y51379000D02*
X58434000Y28735000D01*
X58434000Y28735000D02*
X59060200Y28735000D01*
X59060200Y28735000D02*
X64162100Y23633100D01*
X64162100Y23633100D02*
X64162100Y21221300D01*
X38330000Y59250000D02*
X38330000Y59014200D01*
X38330000Y59014200D02*
X58307500Y39036700D01*
X58307500Y39036700D02*
X59104300Y39036700D01*
X59104300Y39036700D02*
X64398100Y33742900D01*
X56138000Y50678800D02*
X56138000Y50459600D01*
X56138000Y50459600D02*
X72863900Y33733700D01*
X72863900Y33733700D02*
X74216300Y33733700D01*
X74216300Y33733700D02*
X76265000Y31685000D01*
X102175300Y22370000D02*
X103000900Y23195600D01*
X103000900Y23195600D02*
X103000900Y42320800D01*
X103000900Y42320800D02*
X101361700Y43960000D01*
X101361700Y43960000D02*
X96611600Y43960000D01*
X96611600Y43960000D02*
X89403600Y51168000D01*
X89403600Y51168000D02*
X89403600Y53271000D01*
X89403600Y53271000D02*
X77711700Y64962900D01*
X77711700Y64962900D02*
X45018800Y64962900D01*
X45018800Y64962900D02*
X42319000Y62263100D01*
X42319000Y62263100D02*
X42319000Y60933400D01*
X42319000Y60933400D02*
X43410000Y59842400D01*
X43410000Y59842400D02*
X43410000Y59250000D01*
X100675000Y22370000D02*
X102175300Y22370000D01*
X45950000Y59250000D02*
X47041800Y58158200D01*
X47041800Y58158200D02*
X48919200Y58158200D01*
X48919200Y58158200D02*
X49618300Y58857300D01*
X49618300Y58857300D02*
X49618300Y59364500D01*
X49618300Y59364500D02*
X50773800Y60520000D01*
X50773800Y60520000D02*
X51298700Y60520000D01*
X51298700Y60520000D02*
X52300000Y61521300D01*
X52300000Y61521300D02*
X52300000Y62109400D01*
X52300000Y62109400D02*
X53063700Y62873100D01*
X53063700Y62873100D02*
X71953500Y62873100D01*
X71953500Y62873100D02*
X96936600Y37890000D01*
X96936600Y37890000D02*
X96936600Y29688100D01*
X96936600Y29688100D02*
X99174700Y27450000D01*
X100675000Y27450000D02*
X99174700Y27450000D01*
X48490000Y59250000D02*
X49760000Y60520000D01*
X49760000Y60520000D02*
X49760000Y62092600D01*
X49760000Y62092600D02*
X50967600Y63300200D01*
X50967600Y63300200D02*
X72205700Y63300200D01*
X72205700Y63300200D02*
X97418800Y38087100D01*
X97418800Y38087100D02*
X97418800Y34285900D01*
X97418800Y34285900D02*
X99174700Y32530000D01*
X100675000Y32530000D02*
X99174700Y32530000D01*
X77638500Y59452400D02*
X99174700Y37916200D01*
X99174700Y37916200D02*
X99174700Y37610000D01*
X100675000Y37610000D02*
X99174700Y37610000D01*
X73725000Y16445000D02*
X73725000Y17945300D01*
X53570000Y59250000D02*
X53570000Y52461300D01*
X53570000Y52461300D02*
X72454800Y33576500D01*
X72454800Y33576500D02*
X72454800Y28827200D01*
X72454800Y28827200D02*
X74836100Y26445900D01*
X74836100Y26445900D02*
X74836100Y19056400D01*
X74836100Y19056400D02*
X73725000Y17945300D01*
X56110000Y59250000D02*
X56110000Y55414400D01*
X56110000Y55414400D02*
X69745300Y41779100D01*
X69745300Y41779100D02*
X69745300Y39422700D01*
X69745300Y39422700D02*
X71023200Y38144800D01*
X71023200Y38144800D02*
X71772700Y38144800D01*
X71772700Y38144800D02*
X77405600Y32511900D01*
X77405600Y32511900D02*
X77405600Y14264700D01*
X77405600Y14264700D02*
X81345000Y10325300D01*
X81345000Y8825000D02*
X81345000Y10325300D01*
X81345000Y47560000D02*
X81345000Y49060300D01*
X58650000Y59250000D02*
X59725400Y60325400D01*
X59725400Y60325400D02*
X69326800Y60325400D01*
X69326800Y60325400D02*
X70080000Y59572200D01*
X70080000Y59572200D02*
X70080000Y58918400D01*
X70080000Y58918400D02*
X79938100Y49060300D01*
X79938100Y49060300D02*
X81345000Y49060300D01*
X81345000Y47560000D02*
X81345000Y39940000D01*
X114414700Y24910000D02*
X114414700Y55880400D01*
X114414700Y55880400D02*
X104904200Y65390900D01*
X104904200Y65390900D02*
X36850900Y65390900D01*
X36850900Y65390900D02*
X33250000Y61790000D01*
X115915000Y24910000D02*
X114414700Y24910000D01*
X35790000Y61790000D02*
X37060000Y60520000D01*
X37060000Y60520000D02*
X37060000Y52677600D01*
X37060000Y52677600D02*
X58462600Y31275000D01*
X58462600Y31275000D02*
X59052000Y31275000D01*
X59052000Y31275000D02*
X64909800Y25417200D01*
X64909800Y25417200D02*
X64909800Y22072500D01*
X78805000Y33185300D02*
X78463000Y33185300D01*
X78463000Y33185300D02*
X72455000Y39193300D01*
X72455000Y39193300D02*
X72455000Y40630900D01*
X72455000Y40630900D02*
X59100300Y53985600D01*
X78805000Y31685000D02*
X78805000Y33185300D01*
X40870000Y61790000D02*
X41945400Y60714600D01*
X41945400Y60714600D02*
X41945400Y58565400D01*
X41945400Y58565400D02*
X64987400Y35523400D01*
X64987400Y35523400D02*
X64987400Y33273700D01*
X64987400Y33273700D02*
X64899000Y33185300D01*
X102175300Y24910000D02*
X102575600Y25310300D01*
X102575600Y25310300D02*
X102575600Y40206100D01*
X102575600Y40206100D02*
X101361700Y41420000D01*
X101361700Y41420000D02*
X98585500Y41420000D01*
X98585500Y41420000D02*
X89003300Y51002200D01*
X89003300Y51002200D02*
X89003300Y53105200D01*
X89003300Y53105200D02*
X77546000Y64562500D01*
X77546000Y64562500D02*
X46182500Y64562500D01*
X46182500Y64562500D02*
X43410000Y61790000D01*
X100675000Y24910000D02*
X102175300Y24910000D01*
X100675000Y29990000D02*
X102175300Y29990000D01*
X45950000Y61790000D02*
X48262900Y64102900D01*
X48262900Y64102900D02*
X77174200Y64102900D01*
X77174200Y64102900D02*
X79025400Y62251700D01*
X79025400Y62251700D02*
X79025400Y59716300D01*
X79025400Y59716300D02*
X99861700Y38880000D01*
X99861700Y38880000D02*
X101446700Y38880000D01*
X101446700Y38880000D02*
X102175300Y38151400D01*
X102175300Y38151400D02*
X102175300Y29990000D01*
X48490000Y61790000D02*
X50400500Y63700500D01*
X50400500Y63700500D02*
X72372200Y63700500D01*
X72372200Y63700500D02*
X99174700Y36898000D01*
X99174700Y36898000D02*
X99174700Y35070000D01*
X100675000Y35070000D02*
X99174700Y35070000D01*
X99174700Y40150000D02*
X79590300Y59734400D01*
X79590300Y59734400D02*
X79590300Y61739900D01*
X100675000Y40150000D02*
X99174700Y40150000D01*
X71185000Y10325300D02*
X66687800Y14822500D01*
X66687800Y14822500D02*
X66687800Y38777200D01*
X66687800Y38777200D02*
X52778400Y52686600D01*
X52778400Y52686600D02*
X52778400Y57468000D01*
X52778400Y57468000D02*
X52492200Y57754200D01*
X52492200Y57754200D02*
X52492200Y60712200D01*
X52492200Y60712200D02*
X53570000Y61790000D01*
X71185000Y8825000D02*
X71185000Y10325300D01*
X58765000Y17305000D02*
X61671400Y17305000D01*
X61671400Y17305000D02*
X65460100Y21093700D01*
X65460100Y21093700D02*
X65460100Y35899700D01*
X65460100Y35899700D02*
X52228100Y49131700D01*
X52228100Y49131700D02*
X52228100Y57240000D01*
X76265000Y24065000D02*
X76265000Y16445000D01*
X76265000Y38439700D02*
X79613300Y38439700D01*
X79613300Y38439700D02*
X85825000Y32228000D01*
X85825000Y32228000D02*
X85825000Y14141900D01*
X85825000Y14141900D02*
X87223800Y12743100D01*
X87223800Y12743100D02*
X90946300Y12743100D01*
X90946300Y12743100D02*
X91330600Y13127400D01*
X76265000Y39940000D02*
X76265000Y38439700D01*
X65737000Y36761100D02*
X65887100Y36611000D01*
X65887100Y36611000D02*
X65887100Y10125300D01*
X65887100Y10125300D02*
X66487600Y9524800D01*
X66487600Y9524800D02*
X66487600Y8958900D01*
X66487600Y8958900D02*
X68923500Y6523000D01*
X68923500Y6523000D02*
X88407700Y6523000D01*
X88407700Y6523000D02*
X99174700Y17290000D01*
X100675000Y17290000D02*
X99174700Y17290000D01*
X73825100Y41440300D02*
X73725000Y41340200D01*
X78805000Y41440300D02*
X73825100Y41440300D01*
X73825100Y41440300D02*
X73825100Y43419600D01*
X73825100Y43419600D02*
X71185000Y46059700D01*
X71185000Y47560000D02*
X71185000Y46059700D01*
X78805000Y39940000D02*
X78805000Y41440300D01*
X73725000Y39940000D02*
X73725000Y41340200D01*
X114414700Y19830000D02*
X113201900Y18617200D01*
X113201900Y18617200D02*
X99252400Y18617200D01*
X99252400Y18617200D02*
X87558500Y6923300D01*
X87558500Y6923300D02*
X73555100Y6923300D01*
X73555100Y6923300D02*
X72624600Y7853800D01*
X72624600Y7853800D02*
X72624600Y11677400D01*
X72624600Y11677400D02*
X70056700Y14245300D01*
X70056700Y14245300D02*
X70056700Y17341300D01*
X70056700Y17341300D02*
X68645000Y18753000D01*
X68645000Y18753000D02*
X68645000Y24065000D01*
X115915000Y19830000D02*
X114414700Y19830000D01*
D23*
X123340000Y660000D02*
X660000Y660000D01*
X660000Y4947260D01*
X12830000Y4947260D01*
X12830000Y4654740D01*
X12887068Y4367842D01*
X12999010Y4097589D01*
X13161525Y3854368D01*
X13368368Y3647525D01*
X13542760Y3531000D01*
X13368368Y3414475D01*
X13161525Y3207632D01*
X12999010Y2964411D01*
X12887068Y2694158D01*
X12830000Y2407260D01*
X12830000Y2114740D01*
X12887068Y1827842D01*
X12999010Y1557589D01*
X13161525Y1314368D01*
X13368368Y1107525D01*
X13611589Y945010D01*
X13881842Y833068D01*
X14168740Y776000D01*
X14461260Y776000D01*
X14748158Y833068D01*
X15018411Y945010D01*
X15261632Y1107525D01*
X15468475Y1314368D01*
X15630990Y1557589D01*
X15742932Y1827842D01*
X15800000Y2114740D01*
X15800000Y2407260D01*
X15742932Y2694158D01*
X15630990Y2964411D01*
X15468475Y3207632D01*
X15261632Y3414475D01*
X15087240Y3531000D01*
X15261632Y3647525D01*
X15468475Y3854368D01*
X15630990Y4097589D01*
X15742932Y4367842D01*
X15800000Y4654740D01*
X15800000Y4947260D01*
X33150000Y4947260D01*
X33150000Y4654740D01*
X33207068Y4367842D01*
X33319010Y4097589D01*
X33481525Y3854368D01*
X33688368Y3647525D01*
X33862760Y3531000D01*
X33688368Y3414475D01*
X33481525Y3207632D01*
X33319010Y2964411D01*
X33207068Y2694158D01*
X33150000Y2407260D01*
X33150000Y2114740D01*
X33207068Y1827842D01*
X33319010Y1557589D01*
X33481525Y1314368D01*
X33688368Y1107525D01*
X33931589Y945010D01*
X34201842Y833068D01*
X34488740Y776000D01*
X34781260Y776000D01*
X35068158Y833068D01*
X35338411Y945010D01*
X35581632Y1107525D01*
X35788475Y1314368D01*
X35950990Y1557589D01*
X36062932Y1827842D01*
X36120000Y2114740D01*
X36120000Y2407260D01*
X36062932Y2694158D01*
X35950990Y2964411D01*
X35788475Y3207632D01*
X35581632Y3414475D01*
X35407240Y3531000D01*
X35581632Y3647525D01*
X35788475Y3854368D01*
X35950990Y4097589D01*
X36062932Y4367842D01*
X36120000Y4654740D01*
X36120000Y4947260D01*
X36062932Y5234158D01*
X35950990Y5504411D01*
X35788475Y5747632D01*
X35581632Y5954475D01*
X35338411Y6116990D01*
X35068158Y6228932D01*
X34781260Y6286000D01*
X34488740Y6286000D01*
X34201842Y6228932D01*
X33931589Y6116990D01*
X33688368Y5954475D01*
X33481525Y5747632D01*
X33319010Y5504411D01*
X33207068Y5234158D01*
X33150000Y4947260D01*
X15800000Y4947260D01*
X15742932Y5234158D01*
X15630990Y5504411D01*
X15468475Y5747632D01*
X15261632Y5954475D01*
X15018411Y6116990D01*
X14748158Y6228932D01*
X14461260Y6286000D01*
X14168740Y6286000D01*
X13881842Y6228932D01*
X13611589Y6116990D01*
X13368368Y5954475D01*
X13161525Y5747632D01*
X12999010Y5504411D01*
X12887068Y5234158D01*
X12830000Y4947260D01*
X660000Y4947260D01*
X660000Y12366335D01*
X42090000Y12366335D01*
X42090000Y12083665D01*
X42145147Y11806426D01*
X42253320Y11545273D01*
X42410363Y11310241D01*
X42610241Y11110363D01*
X42845273Y10953320D01*
X43106426Y10845147D01*
X43383665Y10790000D01*
X43666335Y10790000D01*
X43943574Y10845147D01*
X44204727Y10953320D01*
X44439759Y11110363D01*
X44639637Y11310241D01*
X44796680Y11545273D01*
X44904853Y11806426D01*
X44960000Y12083665D01*
X44960000Y12366335D01*
X44904853Y12643574D01*
X44796680Y12904727D01*
X44639637Y13139759D01*
X44439759Y13339637D01*
X44204727Y13496680D01*
X44194135Y13501067D01*
X44380131Y13612615D01*
X44588519Y13801586D01*
X44756037Y14027580D01*
X44876246Y14281913D01*
X44916904Y14415961D01*
X44794915Y14638000D01*
X43652000Y14638000D01*
X43652000Y14618000D01*
X43398000Y14618000D01*
X43398000Y14638000D01*
X42255085Y14638000D01*
X42133096Y14415961D01*
X42173754Y14281913D01*
X42293963Y14027580D01*
X42461481Y13801586D01*
X42669869Y13612615D01*
X42855865Y13501067D01*
X42845273Y13496680D01*
X42610241Y13339637D01*
X42410363Y13139759D01*
X42253320Y12904727D01*
X42145147Y12643574D01*
X42090000Y12366335D01*
X660000Y12366335D01*
X660000Y30347260D01*
X12830000Y30347260D01*
X12830000Y30054740D01*
X12887068Y29767842D01*
X12999010Y29497589D01*
X13161525Y29254368D01*
X13368368Y29047525D01*
X13611589Y28885010D01*
X13881842Y28773068D01*
X14168740Y28716000D01*
X14461260Y28716000D01*
X14748158Y28773068D01*
X15018411Y28885010D01*
X15261632Y29047525D01*
X15468475Y29254368D01*
X15585000Y29428760D01*
X15701525Y29254368D01*
X15908368Y29047525D01*
X16151589Y28885010D01*
X16421842Y28773068D01*
X16708740Y28716000D01*
X17001260Y28716000D01*
X17288158Y28773068D01*
X17558411Y28885010D01*
X17801632Y29047525D01*
X18008475Y29254368D01*
X18125000Y29428760D01*
X18241525Y29254368D01*
X18448368Y29047525D01*
X18691589Y28885010D01*
X18961842Y28773068D01*
X19248740Y28716000D01*
X19541260Y28716000D01*
X19828158Y28773068D01*
X20098411Y28885010D01*
X20341632Y29047525D01*
X20548475Y29254368D01*
X20665000Y29428760D01*
X20781525Y29254368D01*
X20988368Y29047525D01*
X21231589Y28885010D01*
X21501842Y28773068D01*
X21788740Y28716000D01*
X22081260Y28716000D01*
X22368158Y28773068D01*
X22638411Y28885010D01*
X22881632Y29047525D01*
X23088475Y29254368D01*
X23205000Y29428760D01*
X23321525Y29254368D01*
X23528368Y29047525D01*
X23771589Y28885010D01*
X24041842Y28773068D01*
X24328740Y28716000D01*
X24621260Y28716000D01*
X24908158Y28773068D01*
X25178411Y28885010D01*
X25421632Y29047525D01*
X25628475Y29254368D01*
X25750195Y29436534D01*
X25819822Y29319645D01*
X26014731Y29103412D01*
X26248080Y28929359D01*
X26510901Y28804175D01*
X26658110Y28759524D01*
X26888000Y28880845D01*
X26888000Y30074000D01*
X26868000Y30074000D01*
X26868000Y30328000D01*
X26888000Y30328000D01*
X26888000Y31521155D01*
X27142000Y31521155D01*
X27142000Y30328000D01*
X27162000Y30328000D01*
X27162000Y30074000D01*
X27142000Y30074000D01*
X27142000Y28880845D01*
X27371890Y28759524D01*
X27519099Y28804175D01*
X27781920Y28929359D01*
X28015269Y29103412D01*
X28210178Y29319645D01*
X28279805Y29436534D01*
X28401525Y29254368D01*
X28608368Y29047525D01*
X28851589Y28885010D01*
X29121842Y28773068D01*
X29408740Y28716000D01*
X29701260Y28716000D01*
X29988158Y28773068D01*
X30258411Y28885010D01*
X30501632Y29047525D01*
X30708475Y29254368D01*
X30825000Y29428760D01*
X30941525Y29254368D01*
X31148368Y29047525D01*
X31391589Y28885010D01*
X31661842Y28773068D01*
X31948740Y28716000D01*
X32241260Y28716000D01*
X32528158Y28773068D01*
X32798411Y28885010D01*
X33041632Y29047525D01*
X33173487Y29179380D01*
X33195498Y29106820D01*
X33254463Y28996506D01*
X33333815Y28899815D01*
X33430506Y28820463D01*
X33540820Y28761498D01*
X33660518Y28725188D01*
X33785000Y28712928D01*
X35485000Y28712928D01*
X35609482Y28725188D01*
X35729180Y28761498D01*
X35839494Y28820463D01*
X35936185Y28899815D01*
X36015537Y28996506D01*
X36074502Y29106820D01*
X36110812Y29226518D01*
X36123072Y29351000D01*
X36123072Y31051000D01*
X36110812Y31175482D01*
X36074502Y31295180D01*
X36015537Y31405494D01*
X35936185Y31502185D01*
X35839494Y31581537D01*
X35729180Y31640502D01*
X35609482Y31676812D01*
X35485000Y31689072D01*
X33785000Y31689072D01*
X33660518Y31676812D01*
X33540820Y31640502D01*
X33430506Y31581537D01*
X33333815Y31502185D01*
X33254463Y31405494D01*
X33195498Y31295180D01*
X33173487Y31222620D01*
X33041632Y31354475D01*
X32798411Y31516990D01*
X32528158Y31628932D01*
X32241260Y31686000D01*
X31948740Y31686000D01*
X31661842Y31628932D01*
X31391589Y31516990D01*
X31148368Y31354475D01*
X30941525Y31147632D01*
X30825000Y30973240D01*
X30708475Y31147632D01*
X30501632Y31354475D01*
X30258411Y31516990D01*
X29988158Y31628932D01*
X29701260Y31686000D01*
X29408740Y31686000D01*
X29121842Y31628932D01*
X28851589Y31516990D01*
X28608368Y31354475D01*
X28401525Y31147632D01*
X28279805Y30965466D01*
X28210178Y31082355D01*
X28015269Y31298588D01*
X27781920Y31472641D01*
X27519099Y31597825D01*
X27371890Y31642476D01*
X27142000Y31521155D01*
X26888000Y31521155D01*
X26658110Y31642476D01*
X26510901Y31597825D01*
X26248080Y31472641D01*
X26014731Y31298588D01*
X25819822Y31082355D01*
X25750195Y30965466D01*
X25628475Y31147632D01*
X25469627Y31306480D01*
X25676397Y31513250D01*
X25704437Y31536262D01*
X25727450Y31564303D01*
X25727453Y31564306D01*
X25796287Y31648180D01*
X25818144Y31689072D01*
X25864537Y31775867D01*
X25906565Y31914415D01*
X25917200Y32022395D01*
X25917200Y32022396D01*
X25920756Y32058500D01*
X25917200Y32094605D01*
X25917200Y33199754D01*
X29607546Y36890099D01*
X29620506Y36879463D01*
X29730820Y36820498D01*
X29850518Y36784188D01*
X29975000Y36771928D01*
X30539250Y36775000D01*
X30698000Y36933750D01*
X30698000Y38133000D01*
X30952000Y38133000D01*
X30952000Y36933750D01*
X31110750Y36775000D01*
X31675000Y36771928D01*
X31799482Y36784188D01*
X31919180Y36820498D01*
X32029494Y36879463D01*
X32126185Y36958815D01*
X32205537Y37055506D01*
X32264502Y37165820D01*
X32300812Y37285518D01*
X32313072Y37410000D01*
X32310000Y37974250D01*
X32151250Y38133000D01*
X30952000Y38133000D01*
X30698000Y38133000D01*
X30678000Y38133000D01*
X30678000Y38387000D01*
X30698000Y38387000D01*
X30698000Y38407000D01*
X30952000Y38407000D01*
X30952000Y38387000D01*
X32151250Y38387000D01*
X32310000Y38545750D01*
X32310706Y38675400D01*
X35254854Y38675400D01*
X41879446Y32050807D01*
X41902462Y32022762D01*
X42014380Y31930913D01*
X42142067Y31862663D01*
X42262850Y31826024D01*
X42280615Y31820635D01*
X42283324Y31820368D01*
X42410363Y31630241D01*
X42610241Y31430363D01*
X42842759Y31275000D01*
X42610241Y31119637D01*
X42410363Y30919759D01*
X42253320Y30684727D01*
X42145147Y30423574D01*
X42090000Y30146335D01*
X42090000Y29863665D01*
X42145147Y29586426D01*
X42253320Y29325273D01*
X42410363Y29090241D01*
X42610241Y28890363D01*
X42842759Y28735000D01*
X42610241Y28579637D01*
X42410363Y28379759D01*
X42253320Y28144727D01*
X42145147Y27883574D01*
X42090000Y27606335D01*
X42090000Y27323665D01*
X42145147Y27046426D01*
X42253320Y26785273D01*
X42410363Y26550241D01*
X42610241Y26350363D01*
X42842759Y26195000D01*
X42610241Y26039637D01*
X42410363Y25839759D01*
X42253320Y25604727D01*
X42145147Y25343574D01*
X42090000Y25066335D01*
X42090000Y24783665D01*
X42145147Y24506426D01*
X42253320Y24245273D01*
X42410363Y24010241D01*
X42610241Y23810363D01*
X42842759Y23655000D01*
X42610241Y23499637D01*
X42410363Y23299759D01*
X42253320Y23064727D01*
X42145147Y22803574D01*
X42090000Y22526335D01*
X42090000Y22243665D01*
X42145147Y21966426D01*
X42253320Y21705273D01*
X42410363Y21470241D01*
X42610241Y21270363D01*
X42842759Y21115000D01*
X42610241Y20959637D01*
X42410363Y20759759D01*
X42253320Y20524727D01*
X42145147Y20263574D01*
X42090000Y19986335D01*
X42090000Y19703665D01*
X42145147Y19426426D01*
X42253320Y19165273D01*
X42410363Y18930241D01*
X42610241Y18730363D01*
X42842759Y18575000D01*
X42610241Y18419637D01*
X42410363Y18219759D01*
X42253320Y17984727D01*
X42145147Y17723574D01*
X42090000Y17446335D01*
X42090000Y17163665D01*
X42145147Y16886426D01*
X42253320Y16625273D01*
X42410363Y16390241D01*
X42610241Y16190363D01*
X42845273Y16033320D01*
X42855865Y16028933D01*
X42669869Y15917385D01*
X42461481Y15728414D01*
X42293963Y15502420D01*
X42173754Y15248087D01*
X42133096Y15114039D01*
X42255085Y14892000D01*
X43398000Y14892000D01*
X43398000Y14912000D01*
X43652000Y14912000D01*
X43652000Y14892000D01*
X44794915Y14892000D01*
X44916904Y15114039D01*
X44876246Y15248087D01*
X44756037Y15502420D01*
X44588519Y15728414D01*
X44380131Y15917385D01*
X44194135Y16028933D01*
X44204727Y16033320D01*
X44439759Y16190363D01*
X44639637Y16390241D01*
X44796680Y16625273D01*
X44904853Y16886426D01*
X44960000Y17163665D01*
X44960000Y17446335D01*
X44904853Y17723574D01*
X44796680Y17984727D01*
X44639637Y18219759D01*
X44439759Y18419637D01*
X44207241Y18575000D01*
X44439759Y18730363D01*
X44639637Y18930241D01*
X44796680Y19165273D01*
X44904853Y19426426D01*
X44960000Y19703665D01*
X44960000Y19986335D01*
X44904853Y20263574D01*
X44899646Y20276144D01*
X44950363Y20200241D01*
X45150241Y20000363D01*
X45385273Y19843320D01*
X45646426Y19735147D01*
X45923665Y19680000D01*
X46206335Y19680000D01*
X46483574Y19735147D01*
X46744727Y19843320D01*
X46979759Y20000363D01*
X47110125Y20130729D01*
X62817246Y4423607D01*
X62840262Y4395562D01*
X62952180Y4303713D01*
X63079867Y4235463D01*
X63218415Y4193435D01*
X63362500Y4179244D01*
X63398605Y4182800D01*
X112166395Y4182800D01*
X112202500Y4179244D01*
X112238605Y4182800D01*
X112346585Y4193435D01*
X112485133Y4235463D01*
X112612820Y4303713D01*
X112724738Y4395562D01*
X112747758Y4423612D01*
X114236385Y5912238D01*
X114263815Y5878815D01*
X114360506Y5799463D01*
X114470820Y5740498D01*
X114590518Y5704188D01*
X114715000Y5691928D01*
X117115000Y5691928D01*
X117239482Y5704188D01*
X117359180Y5740498D01*
X117469494Y5799463D01*
X117566185Y5878815D01*
X117645537Y5975506D01*
X117704502Y6085820D01*
X117740812Y6205518D01*
X117753072Y6330000D01*
X117753072Y7930000D01*
X117740812Y8054482D01*
X117704502Y8174180D01*
X117645537Y8284494D01*
X117594513Y8346667D01*
X117909497Y8661650D01*
X117937537Y8684662D01*
X117960550Y8712703D01*
X117960553Y8712706D01*
X117993287Y8752593D01*
X118029387Y8796580D01*
X118097637Y8924267D01*
X118126916Y9020786D01*
X118139665Y9062814D01*
X118153856Y9206899D01*
X118150300Y9243004D01*
X118150300Y12173895D01*
X118153856Y12210000D01*
X118139665Y12354085D01*
X118097637Y12492633D01*
X118029387Y12620320D01*
X117937538Y12732238D01*
X117825620Y12824087D01*
X117697933Y12892337D01*
X117559385Y12934365D01*
X117554702Y12934826D01*
X117513932Y13011101D01*
X117334608Y13229608D01*
X117116101Y13408932D01*
X116983142Y13480000D01*
X117116101Y13551068D01*
X117334608Y13730392D01*
X117513932Y13948899D01*
X117647182Y14198192D01*
X117729236Y14468691D01*
X117756943Y14750000D01*
X117729236Y15031309D01*
X117647182Y15301808D01*
X117513932Y15551101D01*
X117334608Y15769608D01*
X117116101Y15948932D01*
X116983142Y16020000D01*
X117116101Y16091068D01*
X117334608Y16270392D01*
X117513932Y16488899D01*
X117647182Y16738192D01*
X117729236Y17008691D01*
X117756943Y17290000D01*
X117729236Y17571309D01*
X117647182Y17841808D01*
X117513932Y18091101D01*
X117334608Y18309608D01*
X117116101Y18488932D01*
X116983142Y18560000D01*
X117116101Y18631068D01*
X117334608Y18810392D01*
X117513932Y19028899D01*
X117647182Y19278192D01*
X117729236Y19548691D01*
X117756943Y19830000D01*
X117729236Y20111309D01*
X117647182Y20381808D01*
X117513932Y20631101D01*
X117378893Y20795647D01*
X117909493Y21326246D01*
X117937538Y21349262D01*
X118029387Y21461180D01*
X118097637Y21588867D01*
X118139665Y21727415D01*
X118150300Y21835395D01*
X118150300Y21835404D01*
X118153855Y21871499D01*
X118150300Y21907594D01*
X118150300Y50273895D01*
X118153856Y50310000D01*
X118139665Y50454085D01*
X118097637Y50592633D01*
X118029387Y50720320D01*
X117937538Y50832238D01*
X117825620Y50924087D01*
X117697933Y50992337D01*
X117559385Y51034365D01*
X117554702Y51034826D01*
X117513932Y51111101D01*
X117334608Y51329608D01*
X117116101Y51508932D01*
X116983142Y51580000D01*
X117116101Y51651068D01*
X117334608Y51830392D01*
X117513932Y52048899D01*
X117647182Y52298192D01*
X117729236Y52568691D01*
X117756943Y52850000D01*
X117729236Y53131309D01*
X117647182Y53401808D01*
X117513932Y53651101D01*
X117334608Y53869608D01*
X117116101Y54048932D01*
X116983142Y54120000D01*
X117116101Y54191068D01*
X117334608Y54370392D01*
X117513932Y54588899D01*
X117647182Y54838192D01*
X117729236Y55108691D01*
X117756943Y55390000D01*
X117729236Y55671309D01*
X117647182Y55941808D01*
X117513932Y56191101D01*
X117334608Y56409608D01*
X117116101Y56588932D01*
X116866808Y56722182D01*
X116596309Y56804236D01*
X116385492Y56825000D01*
X115444508Y56825000D01*
X115233691Y56804236D01*
X114963192Y56722182D01*
X114734567Y56599980D01*
X105449459Y65885087D01*
X105426438Y65913138D01*
X105314520Y66004987D01*
X105186833Y66073237D01*
X105048285Y66115265D01*
X104940305Y66125900D01*
X104904200Y66129456D01*
X104868095Y66125900D01*
X36887005Y66125900D01*
X36850900Y66129456D01*
X36706815Y66115265D01*
X36568266Y66073237D01*
X36440580Y66004987D01*
X36328662Y65913138D01*
X36305646Y65885093D01*
X33582115Y63161561D01*
X33388873Y63200000D01*
X33111127Y63200000D01*
X32838718Y63145814D01*
X32582115Y63039525D01*
X32351178Y62885218D01*
X32154782Y62688822D01*
X32000475Y62457885D01*
X31894186Y62201282D01*
X31840000Y61928873D01*
X31840000Y61651127D01*
X31894186Y61378718D01*
X32000475Y61122115D01*
X32154782Y60891178D01*
X32351178Y60694782D01*
X32464006Y60619393D01*
X32385149Y60595472D01*
X32231613Y60513405D01*
X32097038Y60402962D01*
X31986595Y60268387D01*
X31904528Y60114851D01*
X31853992Y59948255D01*
X31836928Y59775001D01*
X31836928Y58724999D01*
X31853992Y58551745D01*
X31904528Y58385149D01*
X31986595Y58231613D01*
X32097038Y58097038D01*
X32231613Y57986595D01*
X32385149Y57904528D01*
X32551745Y57853992D01*
X32724999Y57836928D01*
X33775001Y57836928D01*
X33948255Y57853992D01*
X34114851Y57904528D01*
X34268387Y57986595D01*
X34402962Y58097038D01*
X34513405Y58231613D01*
X34595472Y58385149D01*
X34619393Y58464006D01*
X34694782Y58351178D01*
X34891178Y58154782D01*
X35055000Y58045320D01*
X35055001Y51415115D01*
X35051444Y51379000D01*
X35065635Y51234915D01*
X35103194Y51111101D01*
X35107664Y51096367D01*
X35175914Y50968680D01*
X35267763Y50856762D01*
X35295808Y50833746D01*
X57700079Y28429475D01*
X57650363Y28379759D01*
X57493320Y28144727D01*
X57385147Y27883574D01*
X57330000Y27606335D01*
X57330000Y27323665D01*
X57385147Y27046426D01*
X57493320Y26785273D01*
X57650363Y26550241D01*
X57850241Y26350363D01*
X58082759Y26195000D01*
X57850241Y26039637D01*
X57650363Y25839759D01*
X57493320Y25604727D01*
X57385147Y25343574D01*
X57330000Y25066335D01*
X57330000Y24783665D01*
X57385147Y24506426D01*
X57493320Y24245273D01*
X57650363Y24010241D01*
X57850241Y23810363D01*
X58082759Y23655000D01*
X57850241Y23499637D01*
X57650363Y23299759D01*
X57493320Y23064727D01*
X57385147Y22803574D01*
X57330000Y22526335D01*
X57330000Y22243665D01*
X57385147Y21966426D01*
X57493320Y21705273D01*
X57650363Y21470241D01*
X57850241Y21270363D01*
X58082759Y21115000D01*
X57850241Y20959637D01*
X57650363Y20759759D01*
X57493320Y20524727D01*
X57385147Y20263574D01*
X57330000Y19986335D01*
X57330000Y19703665D01*
X57380120Y19451700D01*
X56218047Y19451700D01*
X45806425Y29863321D01*
X45923665Y29840000D01*
X46206335Y29840000D01*
X46483574Y29895147D01*
X46744727Y30003320D01*
X46979759Y30160363D01*
X47179637Y30360241D01*
X47336680Y30595273D01*
X47444853Y30856426D01*
X47500000Y31133665D01*
X47500000Y31416335D01*
X47444853Y31693574D01*
X47336680Y31954727D01*
X47179637Y32189759D01*
X46979759Y32389637D01*
X46747241Y32545000D01*
X46979759Y32700363D01*
X47179637Y32900241D01*
X47336680Y33135273D01*
X47444853Y33396426D01*
X47500000Y33673665D01*
X47500000Y33956335D01*
X47444853Y34233574D01*
X47336680Y34494727D01*
X47179637Y34729759D01*
X46979759Y34929637D01*
X46744727Y35086680D01*
X46483574Y35194853D01*
X46206335Y35250000D01*
X45923665Y35250000D01*
X45646426Y35194853D01*
X45385273Y35086680D01*
X45150241Y34929637D01*
X44950363Y34729759D01*
X44899646Y34653856D01*
X44904853Y34666426D01*
X44960000Y34943665D01*
X44960000Y35226335D01*
X44904853Y35503574D01*
X44796680Y35764727D01*
X44639637Y35999759D01*
X44439759Y36199637D01*
X44207241Y36355000D01*
X44439759Y36510363D01*
X44639637Y36710241D01*
X44796680Y36945273D01*
X44904853Y37206426D01*
X44960000Y37483665D01*
X44960000Y37766335D01*
X44904853Y38043574D01*
X44796680Y38304727D01*
X44639637Y38539759D01*
X44439759Y38739637D01*
X44207241Y38895000D01*
X44439759Y39050363D01*
X44639637Y39250241D01*
X44796680Y39485273D01*
X44904853Y39746426D01*
X44960000Y40023665D01*
X44960000Y40306335D01*
X44904853Y40583574D01*
X44796680Y40844727D01*
X44639637Y41079759D01*
X44439759Y41279637D01*
X44204727Y41436680D01*
X43943574Y41544853D01*
X43666335Y41600000D01*
X43383665Y41600000D01*
X43106426Y41544853D01*
X42845273Y41436680D01*
X42610241Y41279637D01*
X42481528Y41150924D01*
X42379220Y41234887D01*
X42251533Y41303137D01*
X42112985Y41345165D01*
X42005005Y41355800D01*
X41968900Y41359356D01*
X41932795Y41355800D01*
X21433805Y41355800D01*
X21397700Y41359356D01*
X21361595Y41355800D01*
X21253615Y41345165D01*
X21115067Y41303137D01*
X20987380Y41234887D01*
X20875462Y41143038D01*
X20852446Y41114993D01*
X19111280Y39373827D01*
X19071632Y39413475D01*
X18828411Y39575990D01*
X18558158Y39687932D01*
X18271260Y39745000D01*
X17978740Y39745000D01*
X17691842Y39687932D01*
X17421589Y39575990D01*
X17178368Y39413475D01*
X16971525Y39206632D01*
X16809010Y38963411D01*
X16697068Y38693158D01*
X16640000Y38406260D01*
X16640000Y38113740D01*
X16697068Y37826842D01*
X16809010Y37556589D01*
X16971525Y37313368D01*
X17178368Y37106525D01*
X17421589Y36944010D01*
X17691842Y36832068D01*
X17978740Y36775000D01*
X18271260Y36775000D01*
X18558158Y36832068D01*
X18828411Y36944010D01*
X19071632Y37106525D01*
X19278475Y37313368D01*
X19395000Y37487760D01*
X19511525Y37313368D01*
X19718368Y37106525D01*
X19943528Y36956078D01*
X19982663Y36827067D01*
X20050913Y36699380D01*
X20142762Y36587462D01*
X20254680Y36495613D01*
X20382367Y36427363D01*
X20520915Y36385335D01*
X20628895Y36374700D01*
X20665000Y36371144D01*
X20701105Y36374700D01*
X21272161Y36374700D01*
X24447201Y33199747D01*
X24447200Y32362947D01*
X23980808Y31896554D01*
X23952763Y31873538D01*
X23860914Y31761620D01*
X23818756Y31682747D01*
X23792664Y31633933D01*
X23753528Y31504922D01*
X23528368Y31354475D01*
X23321525Y31147632D01*
X23205000Y30973240D01*
X23088475Y31147632D01*
X22881632Y31354475D01*
X22638411Y31516990D01*
X22368158Y31628932D01*
X22081260Y31686000D01*
X21788740Y31686000D01*
X21501842Y31628932D01*
X21231589Y31516990D01*
X20988368Y31354475D01*
X20781525Y31147632D01*
X20665000Y30973240D01*
X20548475Y31147632D01*
X20341632Y31354475D01*
X20098411Y31516990D01*
X19828158Y31628932D01*
X19541260Y31686000D01*
X19248740Y31686000D01*
X18961842Y31628932D01*
X18691589Y31516990D01*
X18448368Y31354475D01*
X18241525Y31147632D01*
X18125000Y30973240D01*
X18008475Y31147632D01*
X17801632Y31354475D01*
X17558411Y31516990D01*
X17288158Y31628932D01*
X17001260Y31686000D01*
X16708740Y31686000D01*
X16421842Y31628932D01*
X16151589Y31516990D01*
X15908368Y31354475D01*
X15701525Y31147632D01*
X15585000Y30973240D01*
X15468475Y31147632D01*
X15261632Y31354475D01*
X15018411Y31516990D01*
X14748158Y31628932D01*
X14461260Y31686000D01*
X14168740Y31686000D01*
X13881842Y31628932D01*
X13611589Y31516990D01*
X13368368Y31354475D01*
X13161525Y31147632D01*
X12999010Y30904411D01*
X12887068Y30634158D01*
X12830000Y30347260D01*
X660000Y30347260D01*
X660000Y61692892D01*
X25240000Y61692892D01*
X25240000Y61287108D01*
X25319165Y60889120D01*
X25474452Y60514224D01*
X25699894Y60176827D01*
X25986827Y59889894D01*
X26324224Y59664452D01*
X26699120Y59509165D01*
X27097108Y59430000D01*
X27502892Y59430000D01*
X27900880Y59509165D01*
X28275776Y59664452D01*
X28613173Y59889894D01*
X28900106Y60176827D01*
X29125548Y60514224D01*
X29280835Y60889120D01*
X29360000Y61287108D01*
X29360000Y61692892D01*
X29280835Y62090880D01*
X29125548Y62465776D01*
X28900106Y62803173D01*
X28613173Y63090106D01*
X28275776Y63315548D01*
X27900880Y63470835D01*
X27502892Y63550000D01*
X27097108Y63550000D01*
X26699120Y63470835D01*
X26324224Y63315548D01*
X25986827Y63090106D01*
X25699894Y62803173D01*
X25474452Y62465776D01*
X25319165Y62090880D01*
X25240000Y61692892D01*
X660000Y61692892D01*
X660000Y72340000D01*
X123340001Y72340000D01*
X123340000Y660000D01*
G04 #@! TA.AperFunction,Conductor*
D24*
G36*
X123340000Y660000D02*
G01*
X660000Y660000D01*
X660000Y4947260D01*
X12830000Y4947260D01*
X12830000Y4654740D01*
X12887068Y4367842D01*
X12999010Y4097589D01*
X13161525Y3854368D01*
X13368368Y3647525D01*
X13542760Y3531000D01*
X13368368Y3414475D01*
X13161525Y3207632D01*
X12999010Y2964411D01*
X12887068Y2694158D01*
X12830000Y2407260D01*
X12830000Y2114740D01*
X12887068Y1827842D01*
X12999010Y1557589D01*
X13161525Y1314368D01*
X13368368Y1107525D01*
X13611589Y945010D01*
X13881842Y833068D01*
X14168740Y776000D01*
X14461260Y776000D01*
X14748158Y833068D01*
X15018411Y945010D01*
X15261632Y1107525D01*
X15468475Y1314368D01*
X15630990Y1557589D01*
X15742932Y1827842D01*
X15800000Y2114740D01*
X15800000Y2407260D01*
X15742932Y2694158D01*
X15630990Y2964411D01*
X15468475Y3207632D01*
X15261632Y3414475D01*
X15087240Y3531000D01*
X15261632Y3647525D01*
X15468475Y3854368D01*
X15630990Y4097589D01*
X15742932Y4367842D01*
X15800000Y4654740D01*
X15800000Y4947260D01*
X33150000Y4947260D01*
X33150000Y4654740D01*
X33207068Y4367842D01*
X33319010Y4097589D01*
X33481525Y3854368D01*
X33688368Y3647525D01*
X33862760Y3531000D01*
X33688368Y3414475D01*
X33481525Y3207632D01*
X33319010Y2964411D01*
X33207068Y2694158D01*
X33150000Y2407260D01*
X33150000Y2114740D01*
X33207068Y1827842D01*
X33319010Y1557589D01*
X33481525Y1314368D01*
X33688368Y1107525D01*
X33931589Y945010D01*
X34201842Y833068D01*
X34488740Y776000D01*
X34781260Y776000D01*
X35068158Y833068D01*
X35338411Y945010D01*
X35581632Y1107525D01*
X35788475Y1314368D01*
X35950990Y1557589D01*
X36062932Y1827842D01*
X36120000Y2114740D01*
X36120000Y2407260D01*
X36062932Y2694158D01*
X35950990Y2964411D01*
X35788475Y3207632D01*
X35581632Y3414475D01*
X35407240Y3531000D01*
X35581632Y3647525D01*
X35788475Y3854368D01*
X35950990Y4097589D01*
X36062932Y4367842D01*
X36120000Y4654740D01*
X36120000Y4947260D01*
X36062932Y5234158D01*
X35950990Y5504411D01*
X35788475Y5747632D01*
X35581632Y5954475D01*
X35338411Y6116990D01*
X35068158Y6228932D01*
X34781260Y6286000D01*
X34488740Y6286000D01*
X34201842Y6228932D01*
X33931589Y6116990D01*
X33688368Y5954475D01*
X33481525Y5747632D01*
X33319010Y5504411D01*
X33207068Y5234158D01*
X33150000Y4947260D01*
X15800000Y4947260D01*
X15742932Y5234158D01*
X15630990Y5504411D01*
X15468475Y5747632D01*
X15261632Y5954475D01*
X15018411Y6116990D01*
X14748158Y6228932D01*
X14461260Y6286000D01*
X14168740Y6286000D01*
X13881842Y6228932D01*
X13611589Y6116990D01*
X13368368Y5954475D01*
X13161525Y5747632D01*
X12999010Y5504411D01*
X12887068Y5234158D01*
X12830000Y4947260D01*
X660000Y4947260D01*
X660000Y12366335D01*
X42090000Y12366335D01*
X42090000Y12083665D01*
X42145147Y11806426D01*
X42253320Y11545273D01*
X42410363Y11310241D01*
X42610241Y11110363D01*
X42845273Y10953320D01*
X43106426Y10845147D01*
X43383665Y10790000D01*
X43666335Y10790000D01*
X43943574Y10845147D01*
X44204727Y10953320D01*
X44439759Y11110363D01*
X44639637Y11310241D01*
X44796680Y11545273D01*
X44904853Y11806426D01*
X44960000Y12083665D01*
X44960000Y12366335D01*
X44904853Y12643574D01*
X44796680Y12904727D01*
X44639637Y13139759D01*
X44439759Y13339637D01*
X44204727Y13496680D01*
X44194135Y13501067D01*
X44380131Y13612615D01*
X44588519Y13801586D01*
X44756037Y14027580D01*
X44876246Y14281913D01*
X44916904Y14415961D01*
X44794915Y14638000D01*
X43652000Y14638000D01*
X43652000Y14618000D01*
X43398000Y14618000D01*
X43398000Y14638000D01*
X42255085Y14638000D01*
X42133096Y14415961D01*
X42173754Y14281913D01*
X42293963Y14027580D01*
X42461481Y13801586D01*
X42669869Y13612615D01*
X42855865Y13501067D01*
X42845273Y13496680D01*
X42610241Y13339637D01*
X42410363Y13139759D01*
X42253320Y12904727D01*
X42145147Y12643574D01*
X42090000Y12366335D01*
X660000Y12366335D01*
X660000Y30347260D01*
X12830000Y30347260D01*
X12830000Y30054740D01*
X12887068Y29767842D01*
X12999010Y29497589D01*
X13161525Y29254368D01*
X13368368Y29047525D01*
X13611589Y28885010D01*
X13881842Y28773068D01*
X14168740Y28716000D01*
X14461260Y28716000D01*
X14748158Y28773068D01*
X15018411Y28885010D01*
X15261632Y29047525D01*
X15468475Y29254368D01*
X15585000Y29428760D01*
X15701525Y29254368D01*
X15908368Y29047525D01*
X16151589Y28885010D01*
X16421842Y28773068D01*
X16708740Y28716000D01*
X17001260Y28716000D01*
X17288158Y28773068D01*
X17558411Y28885010D01*
X17801632Y29047525D01*
X18008475Y29254368D01*
X18125000Y29428760D01*
X18241525Y29254368D01*
X18448368Y29047525D01*
X18691589Y28885010D01*
X18961842Y28773068D01*
X19248740Y28716000D01*
X19541260Y28716000D01*
X19828158Y28773068D01*
X20098411Y28885010D01*
X20341632Y29047525D01*
X20548475Y29254368D01*
X20665000Y29428760D01*
X20781525Y29254368D01*
X20988368Y29047525D01*
X21231589Y28885010D01*
X21501842Y28773068D01*
X21788740Y28716000D01*
X22081260Y28716000D01*
X22368158Y28773068D01*
X22638411Y28885010D01*
X22881632Y29047525D01*
X23088475Y29254368D01*
X23205000Y29428760D01*
X23321525Y29254368D01*
X23528368Y29047525D01*
X23771589Y28885010D01*
X24041842Y28773068D01*
X24328740Y28716000D01*
X24621260Y28716000D01*
X24908158Y28773068D01*
X25178411Y28885010D01*
X25421632Y29047525D01*
X25628475Y29254368D01*
X25750195Y29436534D01*
X25819822Y29319645D01*
X26014731Y29103412D01*
X26248080Y28929359D01*
X26510901Y28804175D01*
X26658110Y28759524D01*
X26888000Y28880845D01*
X26888000Y30074000D01*
X26868000Y30074000D01*
X26868000Y30328000D01*
X26888000Y30328000D01*
X26888000Y31521155D01*
X27142000Y31521155D01*
X27142000Y30328000D01*
X27162000Y30328000D01*
X27162000Y30074000D01*
X27142000Y30074000D01*
X27142000Y28880845D01*
X27371890Y28759524D01*
X27519099Y28804175D01*
X27781920Y28929359D01*
X28015269Y29103412D01*
X28210178Y29319645D01*
X28279805Y29436534D01*
X28401525Y29254368D01*
X28608368Y29047525D01*
X28851589Y28885010D01*
X29121842Y28773068D01*
X29408740Y28716000D01*
X29701260Y28716000D01*
X29988158Y28773068D01*
X30258411Y28885010D01*
X30501632Y29047525D01*
X30708475Y29254368D01*
X30825000Y29428760D01*
X30941525Y29254368D01*
X31148368Y29047525D01*
X31391589Y28885010D01*
X31661842Y28773068D01*
X31948740Y28716000D01*
X32241260Y28716000D01*
X32528158Y28773068D01*
X32798411Y28885010D01*
X33041632Y29047525D01*
X33173487Y29179380D01*
X33195498Y29106820D01*
X33254463Y28996506D01*
X33333815Y28899815D01*
X33430506Y28820463D01*
X33540820Y28761498D01*
X33660518Y28725188D01*
X33785000Y28712928D01*
X35485000Y28712928D01*
X35609482Y28725188D01*
X35729180Y28761498D01*
X35839494Y28820463D01*
X35936185Y28899815D01*
X36015537Y28996506D01*
X36074502Y29106820D01*
X36110812Y29226518D01*
X36123072Y29351000D01*
X36123072Y31051000D01*
X36110812Y31175482D01*
X36074502Y31295180D01*
X36015537Y31405494D01*
X35936185Y31502185D01*
X35839494Y31581537D01*
X35729180Y31640502D01*
X35609482Y31676812D01*
X35485000Y31689072D01*
X33785000Y31689072D01*
X33660518Y31676812D01*
X33540820Y31640502D01*
X33430506Y31581537D01*
X33333815Y31502185D01*
X33254463Y31405494D01*
X33195498Y31295180D01*
X33173487Y31222620D01*
X33041632Y31354475D01*
X32798411Y31516990D01*
X32528158Y31628932D01*
X32241260Y31686000D01*
X31948740Y31686000D01*
X31661842Y31628932D01*
X31391589Y31516990D01*
X31148368Y31354475D01*
X30941525Y31147632D01*
X30825000Y30973240D01*
X30708475Y31147632D01*
X30501632Y31354475D01*
X30258411Y31516990D01*
X29988158Y31628932D01*
X29701260Y31686000D01*
X29408740Y31686000D01*
X29121842Y31628932D01*
X28851589Y31516990D01*
X28608368Y31354475D01*
X28401525Y31147632D01*
X28279805Y30965466D01*
X28210178Y31082355D01*
X28015269Y31298588D01*
X27781920Y31472641D01*
X27519099Y31597825D01*
X27371890Y31642476D01*
X27142000Y31521155D01*
X26888000Y31521155D01*
X26658110Y31642476D01*
X26510901Y31597825D01*
X26248080Y31472641D01*
X26014731Y31298588D01*
X25819822Y31082355D01*
X25750195Y30965466D01*
X25628475Y31147632D01*
X25469627Y31306480D01*
X25676397Y31513250D01*
X25704437Y31536262D01*
X25727450Y31564303D01*
X25727453Y31564306D01*
X25796287Y31648180D01*
X25818144Y31689072D01*
X25864537Y31775867D01*
X25906565Y31914415D01*
X25917200Y32022395D01*
X25917200Y32022396D01*
X25920756Y32058500D01*
X25917200Y32094605D01*
X25917200Y33199754D01*
X29607546Y36890099D01*
X29620506Y36879463D01*
X29730820Y36820498D01*
X29850518Y36784188D01*
X29975000Y36771928D01*
X30539250Y36775000D01*
X30698000Y36933750D01*
X30698000Y38133000D01*
X30952000Y38133000D01*
X30952000Y36933750D01*
X31110750Y36775000D01*
X31675000Y36771928D01*
X31799482Y36784188D01*
X31919180Y36820498D01*
X32029494Y36879463D01*
X32126185Y36958815D01*
X32205537Y37055506D01*
X32264502Y37165820D01*
X32300812Y37285518D01*
X32313072Y37410000D01*
X32310000Y37974250D01*
X32151250Y38133000D01*
X30952000Y38133000D01*
X30698000Y38133000D01*
X30678000Y38133000D01*
X30678000Y38387000D01*
X30698000Y38387000D01*
X30698000Y38407000D01*
X30952000Y38407000D01*
X30952000Y38387000D01*
X32151250Y38387000D01*
X32310000Y38545750D01*
X32310706Y38675400D01*
X35254854Y38675400D01*
X41879446Y32050807D01*
X41902462Y32022762D01*
X42014380Y31930913D01*
X42142067Y31862663D01*
X42262850Y31826024D01*
X42280615Y31820635D01*
X42283324Y31820368D01*
X42410363Y31630241D01*
X42610241Y31430363D01*
X42842759Y31275000D01*
X42610241Y31119637D01*
X42410363Y30919759D01*
X42253320Y30684727D01*
X42145147Y30423574D01*
X42090000Y30146335D01*
X42090000Y29863665D01*
X42145147Y29586426D01*
X42253320Y29325273D01*
X42410363Y29090241D01*
X42610241Y28890363D01*
X42842759Y28735000D01*
X42610241Y28579637D01*
X42410363Y28379759D01*
X42253320Y28144727D01*
X42145147Y27883574D01*
X42090000Y27606335D01*
X42090000Y27323665D01*
X42145147Y27046426D01*
X42253320Y26785273D01*
X42410363Y26550241D01*
X42610241Y26350363D01*
X42842759Y26195000D01*
X42610241Y26039637D01*
X42410363Y25839759D01*
X42253320Y25604727D01*
X42145147Y25343574D01*
X42090000Y25066335D01*
X42090000Y24783665D01*
X42145147Y24506426D01*
X42253320Y24245273D01*
X42410363Y24010241D01*
X42610241Y23810363D01*
X42842759Y23655000D01*
X42610241Y23499637D01*
X42410363Y23299759D01*
X42253320Y23064727D01*
X42145147Y22803574D01*
X42090000Y22526335D01*
X42090000Y22243665D01*
X42145147Y21966426D01*
X42253320Y21705273D01*
X42410363Y21470241D01*
X42610241Y21270363D01*
X42842759Y21115000D01*
X42610241Y20959637D01*
X42410363Y20759759D01*
X42253320Y20524727D01*
X42145147Y20263574D01*
X42090000Y19986335D01*
X42090000Y19703665D01*
X42145147Y19426426D01*
X42253320Y19165273D01*
X42410363Y18930241D01*
X42610241Y18730363D01*
X42842759Y18575000D01*
X42610241Y18419637D01*
X42410363Y18219759D01*
X42253320Y17984727D01*
X42145147Y17723574D01*
X42090000Y17446335D01*
X42090000Y17163665D01*
X42145147Y16886426D01*
X42253320Y16625273D01*
X42410363Y16390241D01*
X42610241Y16190363D01*
X42845273Y16033320D01*
X42855865Y16028933D01*
X42669869Y15917385D01*
X42461481Y15728414D01*
X42293963Y15502420D01*
X42173754Y15248087D01*
X42133096Y15114039D01*
X42255085Y14892000D01*
X43398000Y14892000D01*
X43398000Y14912000D01*
X43652000Y14912000D01*
X43652000Y14892000D01*
X44794915Y14892000D01*
X44916904Y15114039D01*
X44876246Y15248087D01*
X44756037Y15502420D01*
X44588519Y15728414D01*
X44380131Y15917385D01*
X44194135Y16028933D01*
X44204727Y16033320D01*
X44439759Y16190363D01*
X44639637Y16390241D01*
X44796680Y16625273D01*
X44904853Y16886426D01*
X44960000Y17163665D01*
X44960000Y17446335D01*
X44904853Y17723574D01*
X44796680Y17984727D01*
X44639637Y18219759D01*
X44439759Y18419637D01*
X44207241Y18575000D01*
X44439759Y18730363D01*
X44639637Y18930241D01*
X44796680Y19165273D01*
X44904853Y19426426D01*
X44960000Y19703665D01*
X44960000Y19986335D01*
X44904853Y20263574D01*
X44899646Y20276144D01*
X44950363Y20200241D01*
X45150241Y20000363D01*
X45385273Y19843320D01*
X45646426Y19735147D01*
X45923665Y19680000D01*
X46206335Y19680000D01*
X46483574Y19735147D01*
X46744727Y19843320D01*
X46979759Y20000363D01*
X47110125Y20130729D01*
X62817246Y4423607D01*
X62840262Y4395562D01*
X62952180Y4303713D01*
X63079867Y4235463D01*
X63218415Y4193435D01*
X63362500Y4179244D01*
X63398605Y4182800D01*
X112166395Y4182800D01*
X112202500Y4179244D01*
X112238605Y4182800D01*
X112346585Y4193435D01*
X112485133Y4235463D01*
X112612820Y4303713D01*
X112724738Y4395562D01*
X112747758Y4423612D01*
X114236385Y5912238D01*
X114263815Y5878815D01*
X114360506Y5799463D01*
X114470820Y5740498D01*
X114590518Y5704188D01*
X114715000Y5691928D01*
X117115000Y5691928D01*
X117239482Y5704188D01*
X117359180Y5740498D01*
X117469494Y5799463D01*
X117566185Y5878815D01*
X117645537Y5975506D01*
X117704502Y6085820D01*
X117740812Y6205518D01*
X117753072Y6330000D01*
X117753072Y7930000D01*
X117740812Y8054482D01*
X117704502Y8174180D01*
X117645537Y8284494D01*
X117594513Y8346667D01*
X117909497Y8661650D01*
X117937537Y8684662D01*
X117960550Y8712703D01*
X117960553Y8712706D01*
X117993287Y8752593D01*
X118029387Y8796580D01*
X118097637Y8924267D01*
X118126916Y9020786D01*
X118139665Y9062814D01*
X118153856Y9206899D01*
X118150300Y9243004D01*
X118150300Y12173895D01*
X118153856Y12210000D01*
X118139665Y12354085D01*
X118097637Y12492633D01*
X118029387Y12620320D01*
X117937538Y12732238D01*
X117825620Y12824087D01*
X117697933Y12892337D01*
X117559385Y12934365D01*
X117554702Y12934826D01*
X117513932Y13011101D01*
X117334608Y13229608D01*
X117116101Y13408932D01*
X116983142Y13480000D01*
X117116101Y13551068D01*
X117334608Y13730392D01*
X117513932Y13948899D01*
X117647182Y14198192D01*
X117729236Y14468691D01*
X117756943Y14750000D01*
X117729236Y15031309D01*
X117647182Y15301808D01*
X117513932Y15551101D01*
X117334608Y15769608D01*
X117116101Y15948932D01*
X116983142Y16020000D01*
X117116101Y16091068D01*
X117334608Y16270392D01*
X117513932Y16488899D01*
X117647182Y16738192D01*
X117729236Y17008691D01*
X117756943Y17290000D01*
X117729236Y17571309D01*
X117647182Y17841808D01*
X117513932Y18091101D01*
X117334608Y18309608D01*
X117116101Y18488932D01*
X116983142Y18560000D01*
X117116101Y18631068D01*
X117334608Y18810392D01*
X117513932Y19028899D01*
X117647182Y19278192D01*
X117729236Y19548691D01*
X117756943Y19830000D01*
X117729236Y20111309D01*
X117647182Y20381808D01*
X117513932Y20631101D01*
X117378893Y20795647D01*
X117909493Y21326246D01*
X117937538Y21349262D01*
X118029387Y21461180D01*
X118097637Y21588867D01*
X118139665Y21727415D01*
X118150300Y21835395D01*
X118150300Y21835404D01*
X118153855Y21871499D01*
X118150300Y21907594D01*
X118150300Y50273895D01*
X118153856Y50310000D01*
X118139665Y50454085D01*
X118097637Y50592633D01*
X118029387Y50720320D01*
X117937538Y50832238D01*
X117825620Y50924087D01*
X117697933Y50992337D01*
X117559385Y51034365D01*
X117554702Y51034826D01*
X117513932Y51111101D01*
X117334608Y51329608D01*
X117116101Y51508932D01*
X116983142Y51580000D01*
X117116101Y51651068D01*
X117334608Y51830392D01*
X117513932Y52048899D01*
X117647182Y52298192D01*
X117729236Y52568691D01*
X117756943Y52850000D01*
X117729236Y53131309D01*
X117647182Y53401808D01*
X117513932Y53651101D01*
X117334608Y53869608D01*
X117116101Y54048932D01*
X116983142Y54120000D01*
X117116101Y54191068D01*
X117334608Y54370392D01*
X117513932Y54588899D01*
X117647182Y54838192D01*
X117729236Y55108691D01*
X117756943Y55390000D01*
X117729236Y55671309D01*
X117647182Y55941808D01*
X117513932Y56191101D01*
X117334608Y56409608D01*
X117116101Y56588932D01*
X116866808Y56722182D01*
X116596309Y56804236D01*
X116385492Y56825000D01*
X115444508Y56825000D01*
X115233691Y56804236D01*
X114963192Y56722182D01*
X114734567Y56599980D01*
X105449459Y65885087D01*
X105426438Y65913138D01*
X105314520Y66004987D01*
X105186833Y66073237D01*
X105048285Y66115265D01*
X104940305Y66125900D01*
X104904200Y66129456D01*
X104868095Y66125900D01*
X36887005Y66125900D01*
X36850900Y66129456D01*
X36706815Y66115265D01*
X36568266Y66073237D01*
X36440580Y66004987D01*
X36328662Y65913138D01*
X36305646Y65885093D01*
X33582115Y63161561D01*
X33388873Y63200000D01*
X33111127Y63200000D01*
X32838718Y63145814D01*
X32582115Y63039525D01*
X32351178Y62885218D01*
X32154782Y62688822D01*
X32000475Y62457885D01*
X31894186Y62201282D01*
X31840000Y61928873D01*
X31840000Y61651127D01*
X31894186Y61378718D01*
X32000475Y61122115D01*
X32154782Y60891178D01*
X32351178Y60694782D01*
X32464006Y60619393D01*
X32385149Y60595472D01*
X32231613Y60513405D01*
X32097038Y60402962D01*
X31986595Y60268387D01*
X31904528Y60114851D01*
X31853992Y59948255D01*
X31836928Y59775001D01*
X31836928Y58724999D01*
X31853992Y58551745D01*
X31904528Y58385149D01*
X31986595Y58231613D01*
X32097038Y58097038D01*
X32231613Y57986595D01*
X32385149Y57904528D01*
X32551745Y57853992D01*
X32724999Y57836928D01*
X33775001Y57836928D01*
X33948255Y57853992D01*
X34114851Y57904528D01*
X34268387Y57986595D01*
X34402962Y58097038D01*
X34513405Y58231613D01*
X34595472Y58385149D01*
X34619393Y58464006D01*
X34694782Y58351178D01*
X34891178Y58154782D01*
X35055000Y58045320D01*
X35055001Y51415115D01*
X35051444Y51379000D01*
X35065635Y51234915D01*
X35103194Y51111101D01*
X35107664Y51096367D01*
X35175914Y50968680D01*
X35267763Y50856762D01*
X35295808Y50833746D01*
X57700079Y28429475D01*
X57650363Y28379759D01*
X57493320Y28144727D01*
X57385147Y27883574D01*
X57330000Y27606335D01*
X57330000Y27323665D01*
X57385147Y27046426D01*
X57493320Y26785273D01*
X57650363Y26550241D01*
X57850241Y26350363D01*
X58082759Y26195000D01*
X57850241Y26039637D01*
X57650363Y25839759D01*
X57493320Y25604727D01*
X57385147Y25343574D01*
X57330000Y25066335D01*
X57330000Y24783665D01*
X57385147Y24506426D01*
X57493320Y24245273D01*
X57650363Y24010241D01*
X57850241Y23810363D01*
X58082759Y23655000D01*
X57850241Y23499637D01*
X57650363Y23299759D01*
X57493320Y23064727D01*
X57385147Y22803574D01*
X57330000Y22526335D01*
X57330000Y22243665D01*
X57385147Y21966426D01*
X57493320Y21705273D01*
X57650363Y21470241D01*
X57850241Y21270363D01*
X58082759Y21115000D01*
X57850241Y20959637D01*
X57650363Y20759759D01*
X57493320Y20524727D01*
X57385147Y20263574D01*
X57330000Y19986335D01*
X57330000Y19703665D01*
X57380120Y19451700D01*
X56218047Y19451700D01*
X45806425Y29863321D01*
X45923665Y29840000D01*
X46206335Y29840000D01*
X46483574Y29895147D01*
X46744727Y30003320D01*
X46979759Y30160363D01*
X47179637Y30360241D01*
X47336680Y30595273D01*
X47444853Y30856426D01*
X47500000Y31133665D01*
X47500000Y31416335D01*
X47444853Y31693574D01*
X47336680Y31954727D01*
X47179637Y32189759D01*
X46979759Y32389637D01*
X46747241Y32545000D01*
X46979759Y32700363D01*
X47179637Y32900241D01*
X47336680Y33135273D01*
X47444853Y33396426D01*
X47500000Y33673665D01*
X47500000Y33956335D01*
X47444853Y34233574D01*
X47336680Y34494727D01*
X47179637Y34729759D01*
X46979759Y34929637D01*
X46744727Y35086680D01*
X46483574Y35194853D01*
X46206335Y35250000D01*
X45923665Y35250000D01*
X45646426Y35194853D01*
X45385273Y35086680D01*
X45150241Y34929637D01*
X44950363Y34729759D01*
X44899646Y34653856D01*
X44904853Y34666426D01*
X44960000Y34943665D01*
X44960000Y35226335D01*
X44904853Y35503574D01*
X44796680Y35764727D01*
X44639637Y35999759D01*
X44439759Y36199637D01*
X44207241Y36355000D01*
X44439759Y36510363D01*
X44639637Y36710241D01*
X44796680Y36945273D01*
X44904853Y37206426D01*
X44960000Y37483665D01*
X44960000Y37766335D01*
X44904853Y38043574D01*
X44796680Y38304727D01*
X44639637Y38539759D01*
X44439759Y38739637D01*
X44207241Y38895000D01*
X44439759Y39050363D01*
X44639637Y39250241D01*
X44796680Y39485273D01*
X44904853Y39746426D01*
X44960000Y40023665D01*
X44960000Y40306335D01*
X44904853Y40583574D01*
X44796680Y40844727D01*
X44639637Y41079759D01*
X44439759Y41279637D01*
X44204727Y41436680D01*
X43943574Y41544853D01*
X43666335Y41600000D01*
X43383665Y41600000D01*
X43106426Y41544853D01*
X42845273Y41436680D01*
X42610241Y41279637D01*
X42481528Y41150924D01*
X42379220Y41234887D01*
X42251533Y41303137D01*
X42112985Y41345165D01*
X42005005Y41355800D01*
X41968900Y41359356D01*
X41932795Y41355800D01*
X21433805Y41355800D01*
X21397700Y41359356D01*
X21361595Y41355800D01*
X21253615Y41345165D01*
X21115067Y41303137D01*
X20987380Y41234887D01*
X20875462Y41143038D01*
X20852446Y41114993D01*
X19111280Y39373827D01*
X19071632Y39413475D01*
X18828411Y39575990D01*
X18558158Y39687932D01*
X18271260Y39745000D01*
X17978740Y39745000D01*
X17691842Y39687932D01*
X17421589Y39575990D01*
X17178368Y39413475D01*
X16971525Y39206632D01*
X16809010Y38963411D01*
X16697068Y38693158D01*
X16640000Y38406260D01*
X16640000Y38113740D01*
X16697068Y37826842D01*
X16809010Y37556589D01*
X16971525Y37313368D01*
X17178368Y37106525D01*
X17421589Y36944010D01*
X17691842Y36832068D01*
X17978740Y36775000D01*
X18271260Y36775000D01*
X18558158Y36832068D01*
X18828411Y36944010D01*
X19071632Y37106525D01*
X19278475Y37313368D01*
X19395000Y37487760D01*
X19511525Y37313368D01*
X19718368Y37106525D01*
X19943528Y36956078D01*
X19982663Y36827067D01*
X20050913Y36699380D01*
X20142762Y36587462D01*
X20254680Y36495613D01*
X20382367Y36427363D01*
X20520915Y36385335D01*
X20628895Y36374700D01*
X20665000Y36371144D01*
X20701105Y36374700D01*
X21272161Y36374700D01*
X24447201Y33199747D01*
X24447200Y32362947D01*
X23980808Y31896554D01*
X23952763Y31873538D01*
X23860914Y31761620D01*
X23818756Y31682747D01*
X23792664Y31633933D01*
X23753528Y31504922D01*
X23528368Y31354475D01*
X23321525Y31147632D01*
X23205000Y30973240D01*
X23088475Y31147632D01*
X22881632Y31354475D01*
X22638411Y31516990D01*
X22368158Y31628932D01*
X22081260Y31686000D01*
X21788740Y31686000D01*
X21501842Y31628932D01*
X21231589Y31516990D01*
X20988368Y31354475D01*
X20781525Y31147632D01*
X20665000Y30973240D01*
X20548475Y31147632D01*
X20341632Y31354475D01*
X20098411Y31516990D01*
X19828158Y31628932D01*
X19541260Y31686000D01*
X19248740Y31686000D01*
X18961842Y31628932D01*
X18691589Y31516990D01*
X18448368Y31354475D01*
X18241525Y31147632D01*
X18125000Y30973240D01*
X18008475Y31147632D01*
X17801632Y31354475D01*
X17558411Y31516990D01*
X17288158Y31628932D01*
X17001260Y31686000D01*
X16708740Y31686000D01*
X16421842Y31628932D01*
X16151589Y31516990D01*
X15908368Y31354475D01*
X15701525Y31147632D01*
X15585000Y30973240D01*
X15468475Y31147632D01*
X15261632Y31354475D01*
X15018411Y31516990D01*
X14748158Y31628932D01*
X14461260Y31686000D01*
X14168740Y31686000D01*
X13881842Y31628932D01*
X13611589Y31516990D01*
X13368368Y31354475D01*
X13161525Y31147632D01*
X12999010Y30904411D01*
X12887068Y30634158D01*
X12830000Y30347260D01*
X660000Y30347260D01*
X660000Y61692892D01*
X25240000Y61692892D01*
X25240000Y61287108D01*
X25319165Y60889120D01*
X25474452Y60514224D01*
X25699894Y60176827D01*
X25986827Y59889894D01*
X26324224Y59664452D01*
X26699120Y59509165D01*
X27097108Y59430000D01*
X27502892Y59430000D01*
X27900880Y59509165D01*
X28275776Y59664452D01*
X28613173Y59889894D01*
X28900106Y60176827D01*
X29125548Y60514224D01*
X29280835Y60889120D01*
X29360000Y61287108D01*
X29360000Y61692892D01*
X29280835Y62090880D01*
X29125548Y62465776D01*
X28900106Y62803173D01*
X28613173Y63090106D01*
X28275776Y63315548D01*
X27900880Y63470835D01*
X27502892Y63550000D01*
X27097108Y63550000D01*
X26699120Y63470835D01*
X26324224Y63315548D01*
X25986827Y63090106D01*
X25699894Y62803173D01*
X25474452Y62465776D01*
X25319165Y62090880D01*
X25240000Y61692892D01*
X660000Y61692892D01*
X660000Y72340000D01*
X123340001Y72340000D01*
X123340000Y660000D01*
G37*
G04 #@! TD.AperFunction*
D23*
X68772000Y16572000D02*
X68792000Y16572000D01*
X68792000Y16318000D01*
X68772000Y16318000D01*
X68772000Y14775085D01*
X68994039Y14653096D01*
X69076818Y14670633D01*
X69321700Y14774920D01*
X69321700Y14281405D01*
X69318144Y14245300D01*
X69332335Y14101215D01*
X69337171Y14085273D01*
X69374363Y13962668D01*
X69442613Y13834981D01*
X69534462Y13723063D01*
X69562508Y13700046D01*
X71889601Y11372952D01*
X71889601Y10534539D01*
X71867337Y10607933D01*
X71799087Y10735620D01*
X71707238Y10847538D01*
X71679193Y10870554D01*
X67422800Y15126946D01*
X67422800Y15294465D01*
X67522399Y15142161D01*
X67720105Y14940500D01*
X67953354Y14781285D01*
X68213182Y14670633D01*
X68295961Y14653096D01*
X68518000Y14775085D01*
X68518000Y16318000D01*
X68498000Y16318000D01*
X68498000Y16572000D01*
X68518000Y16572000D01*
X68518000Y16592000D01*
X68772000Y16592000D01*
X68772000Y16572000D01*
G04 #@! TA.AperFunction,Conductor*
D24*
G36*
X68772000Y16572000D02*
G01*
X68792000Y16572000D01*
X68792000Y16318000D01*
X68772000Y16318000D01*
X68772000Y14775085D01*
X68994039Y14653096D01*
X69076818Y14670633D01*
X69321700Y14774920D01*
X69321700Y14281405D01*
X69318144Y14245300D01*
X69332335Y14101215D01*
X69337171Y14085273D01*
X69374363Y13962668D01*
X69442613Y13834981D01*
X69534462Y13723063D01*
X69562508Y13700046D01*
X71889601Y11372952D01*
X71889601Y10534539D01*
X71867337Y10607933D01*
X71799087Y10735620D01*
X71707238Y10847538D01*
X71679193Y10870554D01*
X67422800Y15126946D01*
X67422800Y15294465D01*
X67522399Y15142161D01*
X67720105Y14940500D01*
X67953354Y14781285D01*
X68213182Y14670633D01*
X68295961Y14653096D01*
X68518000Y14775085D01*
X68518000Y16318000D01*
X68498000Y16318000D01*
X68498000Y16572000D01*
X68518000Y16572000D01*
X68518000Y16592000D01*
X68772000Y16592000D01*
X68772000Y16572000D01*
G37*
G04 #@! TD.AperFunction*
D23*
X87400172Y46386981D02*
X87344870Y46378787D01*
X87078708Y46283603D01*
X86953486Y46216671D01*
X86881903Y45972702D01*
X87695000Y45159605D01*
X87709143Y45173747D01*
X87888748Y44994142D01*
X87874605Y44980000D01*
X88687702Y44166903D01*
X88931671Y44238486D01*
X89052571Y44493996D01*
X89100790Y44686363D01*
X96201600Y37585553D01*
X96201600Y37143442D01*
X96112355Y37125690D01*
X95951295Y37058977D01*
X95877547Y37009700D01*
X92106794Y37009700D01*
X92070699Y37013255D01*
X92034604Y37009700D01*
X92034595Y37009700D01*
X91926615Y36999065D01*
X91788067Y36957037D01*
X91660380Y36888787D01*
X91548462Y36796938D01*
X91525446Y36768893D01*
X88246748Y33490194D01*
X88159755Y33472890D01*
X87998695Y33406177D01*
X87853745Y33309324D01*
X87730476Y33186055D01*
X87633623Y33041105D01*
X87566910Y32880045D01*
X87532900Y32709065D01*
X87532900Y32534735D01*
X87566910Y32363755D01*
X87633623Y32202695D01*
X87730476Y32057745D01*
X87853745Y31934476D01*
X87998695Y31837623D01*
X88159755Y31770910D01*
X88330735Y31736900D01*
X88505065Y31736900D01*
X88546579Y31745158D01*
X88504176Y31702755D01*
X88407323Y31557805D01*
X88340610Y31396745D01*
X88306600Y31225765D01*
X88306600Y31051435D01*
X88340610Y30880455D01*
X88407323Y30719395D01*
X88504176Y30574445D01*
X88610300Y30468321D01*
X88610300Y30364435D01*
X88644165Y30194182D01*
X88624370Y30213977D01*
X88508097Y30097704D01*
X88436514Y30341671D01*
X88181004Y30462571D01*
X87906816Y30531300D01*
X87624488Y30545217D01*
X87344870Y30503787D01*
X87078708Y30408603D01*
X86953486Y30341671D01*
X86881903Y30097702D01*
X87695000Y29284605D01*
X87709143Y29298747D01*
X87888748Y29119142D01*
X87874605Y29105000D01*
X88687702Y28291903D01*
X88931671Y28363486D01*
X89052571Y28618996D01*
X89121300Y28893184D01*
X89135217Y29175512D01*
X89093787Y29455130D01*
X88999632Y29718414D01*
X89076095Y29667323D01*
X89237155Y29600610D01*
X89408135Y29566600D01*
X89582465Y29566600D01*
X89753445Y29600610D01*
X89914505Y29667323D01*
X90059455Y29764176D01*
X90119195Y29823916D01*
X90144820Y29837613D01*
X90256738Y29929462D01*
X90279759Y29957513D01*
X95172453Y34850206D01*
X95259445Y34867510D01*
X95420505Y34934223D01*
X95565455Y35031076D01*
X95688724Y35154345D01*
X95785577Y35299295D01*
X95852290Y35460355D01*
X95868073Y35539700D01*
X95877547Y35539700D01*
X95951295Y35490423D01*
X96112355Y35423710D01*
X96201600Y35405958D01*
X96201601Y29724215D01*
X96198044Y29688100D01*
X96212235Y29544015D01*
X96254264Y29405467D01*
X96322514Y29277780D01*
X96414363Y29165862D01*
X96442408Y29142846D01*
X98629446Y26955807D01*
X98652462Y26927762D01*
X98764380Y26835913D01*
X98892067Y26767663D01*
X99030615Y26725635D01*
X99035298Y26725174D01*
X99076068Y26648899D01*
X99255392Y26430392D01*
X99473899Y26251068D01*
X99606858Y26180000D01*
X99473899Y26108932D01*
X99255392Y25929608D01*
X99076068Y25711101D01*
X98942818Y25461808D01*
X98860764Y25191309D01*
X98833057Y24910000D01*
X98860764Y24628691D01*
X98942818Y24358192D01*
X99076068Y24108899D01*
X99255392Y23890392D01*
X99473899Y23711068D01*
X99606858Y23640000D01*
X99473899Y23568932D01*
X99255392Y23389608D01*
X99076068Y23171101D01*
X98942818Y22921808D01*
X98860764Y22651309D01*
X98833057Y22370000D01*
X98860764Y22088691D01*
X98886940Y22002400D01*
X90035347Y22002400D01*
X89481594Y22556152D01*
X89464290Y22643145D01*
X89397577Y22804205D01*
X89300724Y22949155D01*
X89177455Y23072424D01*
X89032505Y23169277D01*
X88871445Y23235990D01*
X88700465Y23270000D01*
X88526135Y23270000D01*
X88355155Y23235990D01*
X88194095Y23169277D01*
X88049145Y23072424D01*
X87925876Y22949155D01*
X87829023Y22804205D01*
X87762310Y22643145D01*
X87728300Y22472165D01*
X87728300Y22297835D01*
X87762310Y22126855D01*
X87829023Y21965795D01*
X87925876Y21820845D01*
X88049145Y21697576D01*
X88194095Y21600723D01*
X88355155Y21534010D01*
X88442148Y21516706D01*
X89185646Y20773207D01*
X89208662Y20745162D01*
X89320580Y20653313D01*
X89448267Y20585063D01*
X89544786Y20555784D01*
X89586814Y20543035D01*
X89730899Y20528844D01*
X89767004Y20532400D01*
X98958206Y20532400D01*
X98892067Y20512337D01*
X98764380Y20444087D01*
X98652462Y20352238D01*
X98629446Y20324193D01*
X92007416Y13702163D01*
X91894755Y13814824D01*
X91749805Y13911677D01*
X91588745Y13978390D01*
X91417765Y14012400D01*
X91243435Y14012400D01*
X91072455Y13978390D01*
X90911395Y13911677D01*
X90766445Y13814824D01*
X90643176Y13691555D01*
X90546323Y13546605D01*
X90517947Y13478100D01*
X89077413Y13478100D01*
X89121300Y13653184D01*
X89135217Y13935512D01*
X89093787Y14215130D01*
X88998603Y14481292D01*
X88931671Y14606514D01*
X88687702Y14678097D01*
X87874605Y13865000D01*
X87888748Y13850857D01*
X87709143Y13671252D01*
X87695000Y13685395D01*
X87680858Y13671252D01*
X87501253Y13850857D01*
X87515395Y13865000D01*
X86702298Y14678097D01*
X86560000Y14636345D01*
X86560000Y14857702D01*
X86881903Y14857702D01*
X87695000Y14044605D01*
X88508097Y14857702D01*
X88436514Y15101671D01*
X88181004Y15222571D01*
X87906816Y15291300D01*
X87624488Y15305217D01*
X87344870Y15263787D01*
X87078708Y15168603D01*
X86953486Y15101671D01*
X86881903Y14857702D01*
X86560000Y14857702D01*
X86560000Y25720716D01*
X86580363Y25690241D01*
X86780241Y25490363D01*
X87015273Y25333320D01*
X87276426Y25225147D01*
X87553665Y25170000D01*
X87836335Y25170000D01*
X88113574Y25225147D01*
X88374727Y25333320D01*
X88609759Y25490363D01*
X88809637Y25690241D01*
X88966680Y25925273D01*
X89074853Y26186426D01*
X89130000Y26463665D01*
X89130000Y26746335D01*
X89074853Y27023574D01*
X88966680Y27284727D01*
X88809637Y27519759D01*
X88609759Y27719637D01*
X88409131Y27853692D01*
X88436514Y27868329D01*
X88508097Y28112298D01*
X87695000Y28925395D01*
X86881903Y28112298D01*
X86953486Y27868329D01*
X86982341Y27854676D01*
X86780241Y27719637D01*
X86580363Y27519759D01*
X86560000Y27489284D01*
X86560000Y28333655D01*
X86702298Y28291903D01*
X87515395Y29105000D01*
X86702298Y29918097D01*
X86560000Y29876345D01*
X86560000Y32191906D01*
X86563555Y32228001D01*
X86560000Y32264096D01*
X86560000Y32264105D01*
X86549365Y32372085D01*
X86507337Y32510633D01*
X86439087Y32638320D01*
X86421612Y32659613D01*
X86370253Y32722194D01*
X86370250Y32722197D01*
X86347237Y32750238D01*
X86319198Y32773249D01*
X80924442Y38168004D01*
X81063691Y38125764D01*
X81345000Y38098057D01*
X81626308Y38125764D01*
X81896807Y38207818D01*
X82146100Y38341068D01*
X82364607Y38520392D01*
X82543932Y38738899D01*
X82615000Y38871858D01*
X82686068Y38738900D01*
X82865392Y38520393D01*
X83083899Y38341068D01*
X83333192Y38207818D01*
X83603691Y38125764D01*
X83885000Y38098057D01*
X84166308Y38125764D01*
X84436807Y38207818D01*
X84686100Y38341068D01*
X84904607Y38520392D01*
X85083932Y38738899D01*
X85217182Y38988192D01*
X85299236Y39258691D01*
X85320000Y39469508D01*
X85320000Y40410491D01*
X85299236Y40621309D01*
X85217182Y40891808D01*
X85083932Y41141101D01*
X84904608Y41359608D01*
X84686101Y41538932D01*
X84436808Y41672182D01*
X84166309Y41754236D01*
X83885000Y41781943D01*
X83603692Y41754236D01*
X83333193Y41672182D01*
X83083900Y41538932D01*
X82865393Y41359608D01*
X82686068Y41141101D01*
X82615000Y41008142D01*
X82543932Y41141101D01*
X82364608Y41359608D01*
X82146101Y41538932D01*
X82080000Y41574264D01*
X82080000Y42621335D01*
X86260000Y42621335D01*
X86260000Y42338665D01*
X86315147Y42061426D01*
X86423320Y41800273D01*
X86580363Y41565241D01*
X86780241Y41365363D01*
X87015273Y41208320D01*
X87276426Y41100147D01*
X87553665Y41045000D01*
X87836335Y41045000D01*
X88113574Y41100147D01*
X88374727Y41208320D01*
X88609759Y41365363D01*
X88809637Y41565241D01*
X88966680Y41800273D01*
X89074853Y42061426D01*
X89130000Y42338665D01*
X89130000Y42621335D01*
X89074853Y42898574D01*
X88966680Y43159727D01*
X88809637Y43394759D01*
X88609759Y43594637D01*
X88409131Y43728692D01*
X88436514Y43743329D01*
X88508097Y43987298D01*
X87695000Y44800395D01*
X86881903Y43987298D01*
X86953486Y43743329D01*
X86982341Y43729676D01*
X86780241Y43594637D01*
X86580363Y43394759D01*
X86423320Y43159727D01*
X86315147Y42898574D01*
X86260000Y42621335D01*
X82080000Y42621335D01*
X82080000Y44909488D01*
X86254783Y44909488D01*
X86296213Y44629870D01*
X86391397Y44363708D01*
X86458329Y44238486D01*
X86702298Y44166903D01*
X87515395Y44980000D01*
X86702298Y45793097D01*
X86458329Y45721514D01*
X86337429Y45466004D01*
X86268700Y45191816D01*
X86254783Y44909488D01*
X82080000Y44909488D01*
X82080000Y45925737D01*
X82146100Y45961068D01*
X82364607Y46140392D01*
X82457419Y46253483D01*
X82459188Y46235518D01*
X82495498Y46115820D01*
X82554463Y46005506D01*
X82633815Y45908815D01*
X82730506Y45829463D01*
X82840820Y45770498D01*
X82960518Y45734188D01*
X83085000Y45721928D01*
X84685000Y45721928D01*
X84809482Y45734188D01*
X84929180Y45770498D01*
X85039494Y45829463D01*
X85136185Y45908815D01*
X85215537Y46005506D01*
X85274502Y46115820D01*
X85310812Y46235518D01*
X85323072Y46360000D01*
X85323072Y48464081D01*
X87400172Y46386981D01*
G04 #@! TA.AperFunction,Conductor*
D24*
G36*
X87400172Y46386981D02*
G01*
X87344870Y46378787D01*
X87078708Y46283603D01*
X86953486Y46216671D01*
X86881903Y45972702D01*
X87695000Y45159605D01*
X87709143Y45173747D01*
X87888748Y44994142D01*
X87874605Y44980000D01*
X88687702Y44166903D01*
X88931671Y44238486D01*
X89052571Y44493996D01*
X89100790Y44686363D01*
X96201600Y37585553D01*
X96201600Y37143442D01*
X96112355Y37125690D01*
X95951295Y37058977D01*
X95877547Y37009700D01*
X92106794Y37009700D01*
X92070699Y37013255D01*
X92034604Y37009700D01*
X92034595Y37009700D01*
X91926615Y36999065D01*
X91788067Y36957037D01*
X91660380Y36888787D01*
X91548462Y36796938D01*
X91525446Y36768893D01*
X88246748Y33490194D01*
X88159755Y33472890D01*
X87998695Y33406177D01*
X87853745Y33309324D01*
X87730476Y33186055D01*
X87633623Y33041105D01*
X87566910Y32880045D01*
X87532900Y32709065D01*
X87532900Y32534735D01*
X87566910Y32363755D01*
X87633623Y32202695D01*
X87730476Y32057745D01*
X87853745Y31934476D01*
X87998695Y31837623D01*
X88159755Y31770910D01*
X88330735Y31736900D01*
X88505065Y31736900D01*
X88546579Y31745158D01*
X88504176Y31702755D01*
X88407323Y31557805D01*
X88340610Y31396745D01*
X88306600Y31225765D01*
X88306600Y31051435D01*
X88340610Y30880455D01*
X88407323Y30719395D01*
X88504176Y30574445D01*
X88610300Y30468321D01*
X88610300Y30364435D01*
X88644165Y30194182D01*
X88624370Y30213977D01*
X88508097Y30097704D01*
X88436514Y30341671D01*
X88181004Y30462571D01*
X87906816Y30531300D01*
X87624488Y30545217D01*
X87344870Y30503787D01*
X87078708Y30408603D01*
X86953486Y30341671D01*
X86881903Y30097702D01*
X87695000Y29284605D01*
X87709143Y29298747D01*
X87888748Y29119142D01*
X87874605Y29105000D01*
X88687702Y28291903D01*
X88931671Y28363486D01*
X89052571Y28618996D01*
X89121300Y28893184D01*
X89135217Y29175512D01*
X89093787Y29455130D01*
X88999632Y29718414D01*
X89076095Y29667323D01*
X89237155Y29600610D01*
X89408135Y29566600D01*
X89582465Y29566600D01*
X89753445Y29600610D01*
X89914505Y29667323D01*
X90059455Y29764176D01*
X90119195Y29823916D01*
X90144820Y29837613D01*
X90256738Y29929462D01*
X90279759Y29957513D01*
X95172453Y34850206D01*
X95259445Y34867510D01*
X95420505Y34934223D01*
X95565455Y35031076D01*
X95688724Y35154345D01*
X95785577Y35299295D01*
X95852290Y35460355D01*
X95868073Y35539700D01*
X95877547Y35539700D01*
X95951295Y35490423D01*
X96112355Y35423710D01*
X96201600Y35405958D01*
X96201601Y29724215D01*
X96198044Y29688100D01*
X96212235Y29544015D01*
X96254264Y29405467D01*
X96322514Y29277780D01*
X96414363Y29165862D01*
X96442408Y29142846D01*
X98629446Y26955807D01*
X98652462Y26927762D01*
X98764380Y26835913D01*
X98892067Y26767663D01*
X99030615Y26725635D01*
X99035298Y26725174D01*
X99076068Y26648899D01*
X99255392Y26430392D01*
X99473899Y26251068D01*
X99606858Y26180000D01*
X99473899Y26108932D01*
X99255392Y25929608D01*
X99076068Y25711101D01*
X98942818Y25461808D01*
X98860764Y25191309D01*
X98833057Y24910000D01*
X98860764Y24628691D01*
X98942818Y24358192D01*
X99076068Y24108899D01*
X99255392Y23890392D01*
X99473899Y23711068D01*
X99606858Y23640000D01*
X99473899Y23568932D01*
X99255392Y23389608D01*
X99076068Y23171101D01*
X98942818Y22921808D01*
X98860764Y22651309D01*
X98833057Y22370000D01*
X98860764Y22088691D01*
X98886940Y22002400D01*
X90035347Y22002400D01*
X89481594Y22556152D01*
X89464290Y22643145D01*
X89397577Y22804205D01*
X89300724Y22949155D01*
X89177455Y23072424D01*
X89032505Y23169277D01*
X88871445Y23235990D01*
X88700465Y23270000D01*
X88526135Y23270000D01*
X88355155Y23235990D01*
X88194095Y23169277D01*
X88049145Y23072424D01*
X87925876Y22949155D01*
X87829023Y22804205D01*
X87762310Y22643145D01*
X87728300Y22472165D01*
X87728300Y22297835D01*
X87762310Y22126855D01*
X87829023Y21965795D01*
X87925876Y21820845D01*
X88049145Y21697576D01*
X88194095Y21600723D01*
X88355155Y21534010D01*
X88442148Y21516706D01*
X89185646Y20773207D01*
X89208662Y20745162D01*
X89320580Y20653313D01*
X89448267Y20585063D01*
X89544786Y20555784D01*
X89586814Y20543035D01*
X89730899Y20528844D01*
X89767004Y20532400D01*
X98958206Y20532400D01*
X98892067Y20512337D01*
X98764380Y20444087D01*
X98652462Y20352238D01*
X98629446Y20324193D01*
X92007416Y13702163D01*
X91894755Y13814824D01*
X91749805Y13911677D01*
X91588745Y13978390D01*
X91417765Y14012400D01*
X91243435Y14012400D01*
X91072455Y13978390D01*
X90911395Y13911677D01*
X90766445Y13814824D01*
X90643176Y13691555D01*
X90546323Y13546605D01*
X90517947Y13478100D01*
X89077413Y13478100D01*
X89121300Y13653184D01*
X89135217Y13935512D01*
X89093787Y14215130D01*
X88998603Y14481292D01*
X88931671Y14606514D01*
X88687702Y14678097D01*
X87874605Y13865000D01*
X87888748Y13850857D01*
X87709143Y13671252D01*
X87695000Y13685395D01*
X87680858Y13671252D01*
X87501253Y13850857D01*
X87515395Y13865000D01*
X86702298Y14678097D01*
X86560000Y14636345D01*
X86560000Y14857702D01*
X86881903Y14857702D01*
X87695000Y14044605D01*
X88508097Y14857702D01*
X88436514Y15101671D01*
X88181004Y15222571D01*
X87906816Y15291300D01*
X87624488Y15305217D01*
X87344870Y15263787D01*
X87078708Y15168603D01*
X86953486Y15101671D01*
X86881903Y14857702D01*
X86560000Y14857702D01*
X86560000Y25720716D01*
X86580363Y25690241D01*
X86780241Y25490363D01*
X87015273Y25333320D01*
X87276426Y25225147D01*
X87553665Y25170000D01*
X87836335Y25170000D01*
X88113574Y25225147D01*
X88374727Y25333320D01*
X88609759Y25490363D01*
X88809637Y25690241D01*
X88966680Y25925273D01*
X89074853Y26186426D01*
X89130000Y26463665D01*
X89130000Y26746335D01*
X89074853Y27023574D01*
X88966680Y27284727D01*
X88809637Y27519759D01*
X88609759Y27719637D01*
X88409131Y27853692D01*
X88436514Y27868329D01*
X88508097Y28112298D01*
X87695000Y28925395D01*
X86881903Y28112298D01*
X86953486Y27868329D01*
X86982341Y27854676D01*
X86780241Y27719637D01*
X86580363Y27519759D01*
X86560000Y27489284D01*
X86560000Y28333655D01*
X86702298Y28291903D01*
X87515395Y29105000D01*
X86702298Y29918097D01*
X86560000Y29876345D01*
X86560000Y32191906D01*
X86563555Y32228001D01*
X86560000Y32264096D01*
X86560000Y32264105D01*
X86549365Y32372085D01*
X86507337Y32510633D01*
X86439087Y32638320D01*
X86421612Y32659613D01*
X86370253Y32722194D01*
X86370250Y32722197D01*
X86347237Y32750238D01*
X86319198Y32773249D01*
X80924442Y38168004D01*
X81063691Y38125764D01*
X81345000Y38098057D01*
X81626308Y38125764D01*
X81896807Y38207818D01*
X82146100Y38341068D01*
X82364607Y38520392D01*
X82543932Y38738899D01*
X82615000Y38871858D01*
X82686068Y38738900D01*
X82865392Y38520393D01*
X83083899Y38341068D01*
X83333192Y38207818D01*
X83603691Y38125764D01*
X83885000Y38098057D01*
X84166308Y38125764D01*
X84436807Y38207818D01*
X84686100Y38341068D01*
X84904607Y38520392D01*
X85083932Y38738899D01*
X85217182Y38988192D01*
X85299236Y39258691D01*
X85320000Y39469508D01*
X85320000Y40410491D01*
X85299236Y40621309D01*
X85217182Y40891808D01*
X85083932Y41141101D01*
X84904608Y41359608D01*
X84686101Y41538932D01*
X84436808Y41672182D01*
X84166309Y41754236D01*
X83885000Y41781943D01*
X83603692Y41754236D01*
X83333193Y41672182D01*
X83083900Y41538932D01*
X82865393Y41359608D01*
X82686068Y41141101D01*
X82615000Y41008142D01*
X82543932Y41141101D01*
X82364608Y41359608D01*
X82146101Y41538932D01*
X82080000Y41574264D01*
X82080000Y42621335D01*
X86260000Y42621335D01*
X86260000Y42338665D01*
X86315147Y42061426D01*
X86423320Y41800273D01*
X86580363Y41565241D01*
X86780241Y41365363D01*
X87015273Y41208320D01*
X87276426Y41100147D01*
X87553665Y41045000D01*
X87836335Y41045000D01*
X88113574Y41100147D01*
X88374727Y41208320D01*
X88609759Y41365363D01*
X88809637Y41565241D01*
X88966680Y41800273D01*
X89074853Y42061426D01*
X89130000Y42338665D01*
X89130000Y42621335D01*
X89074853Y42898574D01*
X88966680Y43159727D01*
X88809637Y43394759D01*
X88609759Y43594637D01*
X88409131Y43728692D01*
X88436514Y43743329D01*
X88508097Y43987298D01*
X87695000Y44800395D01*
X86881903Y43987298D01*
X86953486Y43743329D01*
X86982341Y43729676D01*
X86780241Y43594637D01*
X86580363Y43394759D01*
X86423320Y43159727D01*
X86315147Y42898574D01*
X86260000Y42621335D01*
X82080000Y42621335D01*
X82080000Y44909488D01*
X86254783Y44909488D01*
X86296213Y44629870D01*
X86391397Y44363708D01*
X86458329Y44238486D01*
X86702298Y44166903D01*
X87515395Y44980000D01*
X86702298Y45793097D01*
X86458329Y45721514D01*
X86337429Y45466004D01*
X86268700Y45191816D01*
X86254783Y44909488D01*
X82080000Y44909488D01*
X82080000Y45925737D01*
X82146100Y45961068D01*
X82364607Y46140392D01*
X82457419Y46253483D01*
X82459188Y46235518D01*
X82495498Y46115820D01*
X82554463Y46005506D01*
X82633815Y45908815D01*
X82730506Y45829463D01*
X82840820Y45770498D01*
X82960518Y45734188D01*
X83085000Y45721928D01*
X84685000Y45721928D01*
X84809482Y45734188D01*
X84929180Y45770498D01*
X85039494Y45829463D01*
X85136185Y45908815D01*
X85215537Y46005506D01*
X85274502Y46115820D01*
X85310812Y46235518D01*
X85323072Y46360000D01*
X85323072Y48464081D01*
X87400172Y46386981D01*
G37*
G04 #@! TD.AperFunction*
D23*
X67446068Y22863900D02*
X67625392Y22645393D01*
X67843899Y22466068D01*
X67910001Y22430736D01*
X67910000Y18789105D01*
X67906444Y18753000D01*
X67920635Y18608915D01*
X67930414Y18576680D01*
X67962663Y18470368D01*
X68030913Y18342681D01*
X68122762Y18230763D01*
X68150808Y18207746D01*
X68161287Y18197267D01*
X67953354Y18108715D01*
X67720105Y17949500D01*
X67522399Y17747839D01*
X67422800Y17595535D01*
X67422800Y22907431D01*
X67446068Y22863900D01*
G04 #@! TA.AperFunction,Conductor*
D24*
G36*
X67446068Y22863900D02*
G01*
X67625392Y22645393D01*
X67843899Y22466068D01*
X67910001Y22430736D01*
X67910000Y18789105D01*
X67906444Y18753000D01*
X67920635Y18608915D01*
X67930414Y18576680D01*
X67962663Y18470368D01*
X68030913Y18342681D01*
X68122762Y18230763D01*
X68150808Y18207746D01*
X68161287Y18197267D01*
X67953354Y18108715D01*
X67720105Y17949500D01*
X67522399Y17747839D01*
X67422800Y17595535D01*
X67422800Y22907431D01*
X67446068Y22863900D01*
G37*
G04 #@! TD.AperFunction*
D23*
X108806618Y60449035D02*
X108783486Y60436671D01*
X108711903Y60192702D01*
X109525000Y59379605D01*
X109539143Y59393747D01*
X109718748Y59214142D01*
X109704605Y59200000D01*
X110517702Y58386903D01*
X110761671Y58458486D01*
X110773072Y58482581D01*
X113679701Y55575952D01*
X113679700Y24946105D01*
X113676144Y24910000D01*
X113690335Y24765915D01*
X113732363Y24627367D01*
X113800613Y24499680D01*
X113892462Y24387762D01*
X113980590Y24315437D01*
X114004380Y24295913D01*
X114132067Y24227663D01*
X114270615Y24185635D01*
X114275298Y24185174D01*
X114316068Y24108899D01*
X114495392Y23890392D01*
X114713899Y23711068D01*
X114841741Y23642735D01*
X114612161Y23492601D01*
X114410500Y23294895D01*
X114251285Y23061646D01*
X114140633Y22801818D01*
X114123096Y22719039D01*
X114245085Y22497000D01*
X115788000Y22497000D01*
X115788000Y22517000D01*
X116042000Y22517000D01*
X116042000Y22497000D01*
X116062000Y22497000D01*
X116062000Y22243000D01*
X116042000Y22243000D01*
X116042000Y22223000D01*
X115788000Y22223000D01*
X115788000Y22243000D01*
X114245085Y22243000D01*
X114123096Y22020961D01*
X114127028Y22002400D01*
X102847146Y22002400D01*
X103495097Y22650350D01*
X103523137Y22673362D01*
X103546150Y22701403D01*
X103546153Y22701406D01*
X103614987Y22785280D01*
X103683237Y22912966D01*
X103725265Y23051515D01*
X103739456Y23195600D01*
X103735900Y23231705D01*
X103735900Y42284695D01*
X103739456Y42320800D01*
X103725265Y42464885D01*
X103709257Y42517656D01*
X103683237Y42603433D01*
X103614987Y42731120D01*
X103523138Y42843038D01*
X103495093Y42866054D01*
X102119916Y44241230D01*
X102273932Y44428899D01*
X102407182Y44678192D01*
X102489236Y44948691D01*
X102516943Y45230000D01*
X102489236Y45511309D01*
X102407182Y45781808D01*
X102273932Y46031101D01*
X102094608Y46249608D01*
X101876101Y46428932D01*
X101743142Y46500000D01*
X101876101Y46571068D01*
X102094608Y46750392D01*
X102273932Y46968899D01*
X102407182Y47218192D01*
X102489236Y47488691D01*
X102516943Y47770000D01*
X102489236Y48051309D01*
X102407182Y48321808D01*
X102273932Y48571101D01*
X102094608Y48789608D01*
X101876101Y48968932D01*
X101743142Y49040000D01*
X101876101Y49111068D01*
X102094608Y49290392D01*
X102273932Y49508899D01*
X102407182Y49758192D01*
X102489236Y50028691D01*
X102516943Y50310000D01*
X102489236Y50591309D01*
X102407182Y50861808D01*
X102273932Y51111101D01*
X102094608Y51329608D01*
X101876101Y51508932D01*
X101743142Y51580000D01*
X101876101Y51651068D01*
X102094608Y51830392D01*
X102273932Y52048899D01*
X102407182Y52298192D01*
X102489236Y52568691D01*
X102516943Y52850000D01*
X102489236Y53131309D01*
X102407182Y53401808D01*
X102273932Y53651101D01*
X102094608Y53869608D01*
X101876101Y54048932D01*
X101743142Y54120000D01*
X101876101Y54191068D01*
X102094608Y54370392D01*
X102273932Y54588899D01*
X102407182Y54838192D01*
X102489236Y55108691D01*
X102516943Y55390000D01*
X102489236Y55671309D01*
X102407182Y55941808D01*
X102273932Y56191101D01*
X102094608Y56409608D01*
X101876101Y56588932D01*
X101626808Y56722182D01*
X101356309Y56804236D01*
X101145492Y56825000D01*
X100204508Y56825000D01*
X99993691Y56804236D01*
X99723192Y56722182D01*
X99473899Y56588932D01*
X99255392Y56409608D01*
X99076068Y56191101D01*
X99040736Y56125000D01*
X96403405Y56125000D01*
X96367300Y56128556D01*
X96223214Y56114365D01*
X96181186Y56101616D01*
X96084667Y56072337D01*
X95956980Y56004087D01*
X95845062Y55912238D01*
X95822046Y55884193D01*
X91544708Y51606854D01*
X91516663Y51583838D01*
X91424814Y51471920D01*
X91365599Y51361137D01*
X91356564Y51344233D01*
X91314535Y51205685D01*
X91300344Y51061600D01*
X91303901Y51025485D01*
X91303901Y50942845D01*
X90838900Y51407846D01*
X90838900Y51483065D01*
X90804890Y51654045D01*
X90738177Y51815105D01*
X90641324Y51960055D01*
X90518055Y52083324D01*
X90373105Y52180177D01*
X90212045Y52246890D01*
X90138600Y52261499D01*
X90138600Y53234895D01*
X90142156Y53271000D01*
X90127965Y53415085D01*
X90085937Y53553634D01*
X90017687Y53681320D01*
X89948853Y53765194D01*
X89925838Y53793238D01*
X89897793Y53816254D01*
X86286749Y57427298D01*
X91936903Y57427298D01*
X92008486Y57183329D01*
X92263996Y57062429D01*
X92538184Y56993700D01*
X92820512Y56979783D01*
X93100130Y57021213D01*
X93366292Y57116397D01*
X93491514Y57183329D01*
X93563097Y57427298D01*
X92750000Y58240395D01*
X91936903Y57427298D01*
X86286749Y57427298D01*
X85364559Y58349488D01*
X91309783Y58349488D01*
X91351213Y58069870D01*
X91446397Y57803708D01*
X91513329Y57678486D01*
X91757298Y57606903D01*
X92570395Y58420000D01*
X92929605Y58420000D01*
X93742702Y57606903D01*
X93811928Y57627215D01*
X93811928Y57620000D01*
X93824188Y57495518D01*
X93860498Y57375820D01*
X93919463Y57265506D01*
X93998815Y57168815D01*
X94095506Y57089463D01*
X94205820Y57030498D01*
X94325518Y56994188D01*
X94450000Y56981928D01*
X96050000Y56981928D01*
X96174482Y56994188D01*
X96294180Y57030498D01*
X96404494Y57089463D01*
X96501185Y57168815D01*
X96580537Y57265506D01*
X96639502Y57375820D01*
X96675812Y57495518D01*
X96688072Y57620000D01*
X96688072Y59220000D01*
X96676122Y59341335D01*
X105590000Y59341335D01*
X105590000Y59058665D01*
X105645147Y58781426D01*
X105753320Y58520273D01*
X105910363Y58285241D01*
X106110241Y58085363D01*
X106345273Y57928320D01*
X106606426Y57820147D01*
X106883665Y57765000D01*
X107166335Y57765000D01*
X107443574Y57820147D01*
X107704727Y57928320D01*
X107939759Y58085363D01*
X108061694Y58207298D01*
X108711903Y58207298D01*
X108783486Y57963329D01*
X109038996Y57842429D01*
X109313184Y57773700D01*
X109595512Y57759783D01*
X109875130Y57801213D01*
X110141292Y57896397D01*
X110266514Y57963329D01*
X110338097Y58207298D01*
X109525000Y59020395D01*
X108711903Y58207298D01*
X108061694Y58207298D01*
X108139637Y58285241D01*
X108273692Y58485869D01*
X108288329Y58458486D01*
X108532298Y58386903D01*
X109345395Y59200000D01*
X108532298Y60013097D01*
X108288329Y59941514D01*
X108274676Y59912659D01*
X108139637Y60114759D01*
X107939759Y60314637D01*
X107704727Y60471680D01*
X107443574Y60579853D01*
X107166335Y60635000D01*
X106883665Y60635000D01*
X106606426Y60579853D01*
X106345273Y60471680D01*
X106110241Y60314637D01*
X105910363Y60114759D01*
X105753320Y59879727D01*
X105645147Y59618574D01*
X105590000Y59341335D01*
X96676122Y59341335D01*
X96675812Y59344482D01*
X96639502Y59464180D01*
X96580537Y59574494D01*
X96501185Y59671185D01*
X96404494Y59750537D01*
X96294180Y59809502D01*
X96174482Y59845812D01*
X96050000Y59858072D01*
X94450000Y59858072D01*
X94325518Y59845812D01*
X94205820Y59809502D01*
X94095506Y59750537D01*
X93998815Y59671185D01*
X93919463Y59574494D01*
X93860498Y59464180D01*
X93824188Y59344482D01*
X93811928Y59220000D01*
X93811928Y59212785D01*
X93742702Y59233097D01*
X92929605Y58420000D01*
X92570395Y58420000D01*
X91757298Y59233097D01*
X91513329Y59161514D01*
X91392429Y58906004D01*
X91323700Y58631816D01*
X91309783Y58349488D01*
X85364559Y58349488D01*
X84301345Y59412702D01*
X91936903Y59412702D01*
X92750000Y58599605D01*
X93563097Y59412702D01*
X93491514Y59656671D01*
X93236004Y59777571D01*
X92961816Y59846300D01*
X92679488Y59860217D01*
X92399870Y59818787D01*
X92133708Y59723603D01*
X92008486Y59656671D01*
X91936903Y59412702D01*
X84301345Y59412702D01*
X79058146Y64655900D01*
X104599754Y64655900D01*
X108806618Y60449035D01*
G04 #@! TA.AperFunction,Conductor*
D24*
G36*
X108806618Y60449035D02*
G01*
X108783486Y60436671D01*
X108711903Y60192702D01*
X109525000Y59379605D01*
X109539143Y59393747D01*
X109718748Y59214142D01*
X109704605Y59200000D01*
X110517702Y58386903D01*
X110761671Y58458486D01*
X110773072Y58482581D01*
X113679701Y55575952D01*
X113679700Y24946105D01*
X113676144Y24910000D01*
X113690335Y24765915D01*
X113732363Y24627367D01*
X113800613Y24499680D01*
X113892462Y24387762D01*
X113980590Y24315437D01*
X114004380Y24295913D01*
X114132067Y24227663D01*
X114270615Y24185635D01*
X114275298Y24185174D01*
X114316068Y24108899D01*
X114495392Y23890392D01*
X114713899Y23711068D01*
X114841741Y23642735D01*
X114612161Y23492601D01*
X114410500Y23294895D01*
X114251285Y23061646D01*
X114140633Y22801818D01*
X114123096Y22719039D01*
X114245085Y22497000D01*
X115788000Y22497000D01*
X115788000Y22517000D01*
X116042000Y22517000D01*
X116042000Y22497000D01*
X116062000Y22497000D01*
X116062000Y22243000D01*
X116042000Y22243000D01*
X116042000Y22223000D01*
X115788000Y22223000D01*
X115788000Y22243000D01*
X114245085Y22243000D01*
X114123096Y22020961D01*
X114127028Y22002400D01*
X102847146Y22002400D01*
X103495097Y22650350D01*
X103523137Y22673362D01*
X103546150Y22701403D01*
X103546153Y22701406D01*
X103614987Y22785280D01*
X103683237Y22912966D01*
X103725265Y23051515D01*
X103739456Y23195600D01*
X103735900Y23231705D01*
X103735900Y42284695D01*
X103739456Y42320800D01*
X103725265Y42464885D01*
X103709257Y42517656D01*
X103683237Y42603433D01*
X103614987Y42731120D01*
X103523138Y42843038D01*
X103495093Y42866054D01*
X102119916Y44241230D01*
X102273932Y44428899D01*
X102407182Y44678192D01*
X102489236Y44948691D01*
X102516943Y45230000D01*
X102489236Y45511309D01*
X102407182Y45781808D01*
X102273932Y46031101D01*
X102094608Y46249608D01*
X101876101Y46428932D01*
X101743142Y46500000D01*
X101876101Y46571068D01*
X102094608Y46750392D01*
X102273932Y46968899D01*
X102407182Y47218192D01*
X102489236Y47488691D01*
X102516943Y47770000D01*
X102489236Y48051309D01*
X102407182Y48321808D01*
X102273932Y48571101D01*
X102094608Y48789608D01*
X101876101Y48968932D01*
X101743142Y49040000D01*
X101876101Y49111068D01*
X102094608Y49290392D01*
X102273932Y49508899D01*
X102407182Y49758192D01*
X102489236Y50028691D01*
X102516943Y50310000D01*
X102489236Y50591309D01*
X102407182Y50861808D01*
X102273932Y51111101D01*
X102094608Y51329608D01*
X101876101Y51508932D01*
X101743142Y51580000D01*
X101876101Y51651068D01*
X102094608Y51830392D01*
X102273932Y52048899D01*
X102407182Y52298192D01*
X102489236Y52568691D01*
X102516943Y52850000D01*
X102489236Y53131309D01*
X102407182Y53401808D01*
X102273932Y53651101D01*
X102094608Y53869608D01*
X101876101Y54048932D01*
X101743142Y54120000D01*
X101876101Y54191068D01*
X102094608Y54370392D01*
X102273932Y54588899D01*
X102407182Y54838192D01*
X102489236Y55108691D01*
X102516943Y55390000D01*
X102489236Y55671309D01*
X102407182Y55941808D01*
X102273932Y56191101D01*
X102094608Y56409608D01*
X101876101Y56588932D01*
X101626808Y56722182D01*
X101356309Y56804236D01*
X101145492Y56825000D01*
X100204508Y56825000D01*
X99993691Y56804236D01*
X99723192Y56722182D01*
X99473899Y56588932D01*
X99255392Y56409608D01*
X99076068Y56191101D01*
X99040736Y56125000D01*
X96403405Y56125000D01*
X96367300Y56128556D01*
X96223214Y56114365D01*
X96181186Y56101616D01*
X96084667Y56072337D01*
X95956980Y56004087D01*
X95845062Y55912238D01*
X95822046Y55884193D01*
X91544708Y51606854D01*
X91516663Y51583838D01*
X91424814Y51471920D01*
X91365599Y51361137D01*
X91356564Y51344233D01*
X91314535Y51205685D01*
X91300344Y51061600D01*
X91303901Y51025485D01*
X91303901Y50942845D01*
X90838900Y51407846D01*
X90838900Y51483065D01*
X90804890Y51654045D01*
X90738177Y51815105D01*
X90641324Y51960055D01*
X90518055Y52083324D01*
X90373105Y52180177D01*
X90212045Y52246890D01*
X90138600Y52261499D01*
X90138600Y53234895D01*
X90142156Y53271000D01*
X90127965Y53415085D01*
X90085937Y53553634D01*
X90017687Y53681320D01*
X89948853Y53765194D01*
X89925838Y53793238D01*
X89897793Y53816254D01*
X86286749Y57427298D01*
X91936903Y57427298D01*
X92008486Y57183329D01*
X92263996Y57062429D01*
X92538184Y56993700D01*
X92820512Y56979783D01*
X93100130Y57021213D01*
X93366292Y57116397D01*
X93491514Y57183329D01*
X93563097Y57427298D01*
X92750000Y58240395D01*
X91936903Y57427298D01*
X86286749Y57427298D01*
X85364559Y58349488D01*
X91309783Y58349488D01*
X91351213Y58069870D01*
X91446397Y57803708D01*
X91513329Y57678486D01*
X91757298Y57606903D01*
X92570395Y58420000D01*
X92929605Y58420000D01*
X93742702Y57606903D01*
X93811928Y57627215D01*
X93811928Y57620000D01*
X93824188Y57495518D01*
X93860498Y57375820D01*
X93919463Y57265506D01*
X93998815Y57168815D01*
X94095506Y57089463D01*
X94205820Y57030498D01*
X94325518Y56994188D01*
X94450000Y56981928D01*
X96050000Y56981928D01*
X96174482Y56994188D01*
X96294180Y57030498D01*
X96404494Y57089463D01*
X96501185Y57168815D01*
X96580537Y57265506D01*
X96639502Y57375820D01*
X96675812Y57495518D01*
X96688072Y57620000D01*
X96688072Y59220000D01*
X96676122Y59341335D01*
X105590000Y59341335D01*
X105590000Y59058665D01*
X105645147Y58781426D01*
X105753320Y58520273D01*
X105910363Y58285241D01*
X106110241Y58085363D01*
X106345273Y57928320D01*
X106606426Y57820147D01*
X106883665Y57765000D01*
X107166335Y57765000D01*
X107443574Y57820147D01*
X107704727Y57928320D01*
X107939759Y58085363D01*
X108061694Y58207298D01*
X108711903Y58207298D01*
X108783486Y57963329D01*
X109038996Y57842429D01*
X109313184Y57773700D01*
X109595512Y57759783D01*
X109875130Y57801213D01*
X110141292Y57896397D01*
X110266514Y57963329D01*
X110338097Y58207298D01*
X109525000Y59020395D01*
X108711903Y58207298D01*
X108061694Y58207298D01*
X108139637Y58285241D01*
X108273692Y58485869D01*
X108288329Y58458486D01*
X108532298Y58386903D01*
X109345395Y59200000D01*
X108532298Y60013097D01*
X108288329Y59941514D01*
X108274676Y59912659D01*
X108139637Y60114759D01*
X107939759Y60314637D01*
X107704727Y60471680D01*
X107443574Y60579853D01*
X107166335Y60635000D01*
X106883665Y60635000D01*
X106606426Y60579853D01*
X106345273Y60471680D01*
X106110241Y60314637D01*
X105910363Y60114759D01*
X105753320Y59879727D01*
X105645147Y59618574D01*
X105590000Y59341335D01*
X96676122Y59341335D01*
X96675812Y59344482D01*
X96639502Y59464180D01*
X96580537Y59574494D01*
X96501185Y59671185D01*
X96404494Y59750537D01*
X96294180Y59809502D01*
X96174482Y59845812D01*
X96050000Y59858072D01*
X94450000Y59858072D01*
X94325518Y59845812D01*
X94205820Y59809502D01*
X94095506Y59750537D01*
X93998815Y59671185D01*
X93919463Y59574494D01*
X93860498Y59464180D01*
X93824188Y59344482D01*
X93811928Y59220000D01*
X93811928Y59212785D01*
X93742702Y59233097D01*
X92929605Y58420000D01*
X92570395Y58420000D01*
X91757298Y59233097D01*
X91513329Y59161514D01*
X91392429Y58906004D01*
X91323700Y58631816D01*
X91309783Y58349488D01*
X85364559Y58349488D01*
X84301345Y59412702D01*
X91936903Y59412702D01*
X92750000Y58599605D01*
X93563097Y59412702D01*
X93491514Y59656671D01*
X93236004Y59777571D01*
X92961816Y59846300D01*
X92679488Y59860217D01*
X92399870Y59818787D01*
X92133708Y59723603D01*
X92008486Y59656671D01*
X91936903Y59412702D01*
X84301345Y59412702D01*
X79058146Y64655900D01*
X104599754Y64655900D01*
X108806618Y60449035D01*
G37*
G04 #@! TD.AperFunction*
D23*
X67437910Y36665955D02*
X67504623Y36504895D01*
X67601476Y36359945D01*
X67724745Y36236676D01*
X67869695Y36139823D01*
X68030755Y36073110D01*
X68117748Y36055806D01*
X69180001Y34993552D01*
X69180001Y33415425D01*
X69076818Y33459367D01*
X68994039Y33476904D01*
X68772000Y33354915D01*
X68772000Y31812000D01*
X68792000Y31812000D01*
X68792000Y31558000D01*
X68772000Y31558000D01*
X68772000Y30015085D01*
X68994039Y29893096D01*
X69076818Y29910633D01*
X69180001Y29954575D01*
X69180000Y25802280D01*
X68926309Y25879236D01*
X68645000Y25906943D01*
X68363692Y25879236D01*
X68093193Y25797182D01*
X67843900Y25663932D01*
X67625393Y25484608D01*
X67446068Y25266101D01*
X67422800Y25222570D01*
X67422800Y30534465D01*
X67522399Y30382161D01*
X67720105Y30180500D01*
X67953354Y30021285D01*
X68213182Y29910633D01*
X68295961Y29893096D01*
X68518000Y30015085D01*
X68518000Y31558000D01*
X68498000Y31558000D01*
X68498000Y31812000D01*
X68518000Y31812000D01*
X68518000Y33354915D01*
X68295961Y33476904D01*
X68213182Y33459367D01*
X67953354Y33348715D01*
X67720105Y33189500D01*
X67522399Y32987839D01*
X67422800Y32835535D01*
X67422800Y36741918D01*
X67437910Y36665955D01*
G04 #@! TA.AperFunction,Conductor*
D24*
G36*
X67437910Y36665955D02*
G01*
X67504623Y36504895D01*
X67601476Y36359945D01*
X67724745Y36236676D01*
X67869695Y36139823D01*
X68030755Y36073110D01*
X68117748Y36055806D01*
X69180001Y34993552D01*
X69180001Y33415425D01*
X69076818Y33459367D01*
X68994039Y33476904D01*
X68772000Y33354915D01*
X68772000Y31812000D01*
X68792000Y31812000D01*
X68792000Y31558000D01*
X68772000Y31558000D01*
X68772000Y30015085D01*
X68994039Y29893096D01*
X69076818Y29910633D01*
X69180001Y29954575D01*
X69180000Y25802280D01*
X68926309Y25879236D01*
X68645000Y25906943D01*
X68363692Y25879236D01*
X68093193Y25797182D01*
X67843900Y25663932D01*
X67625393Y25484608D01*
X67446068Y25266101D01*
X67422800Y25222570D01*
X67422800Y30534465D01*
X67522399Y30382161D01*
X67720105Y30180500D01*
X67953354Y30021285D01*
X68213182Y29910633D01*
X68295961Y29893096D01*
X68518000Y30015085D01*
X68518000Y31558000D01*
X68498000Y31558000D01*
X68498000Y31812000D01*
X68518000Y31812000D01*
X68518000Y33354915D01*
X68295961Y33476904D01*
X68213182Y33459367D01*
X67953354Y33348715D01*
X67720105Y33189500D01*
X67522399Y32987839D01*
X67422800Y32835535D01*
X67422800Y36741918D01*
X67437910Y36665955D01*
G37*
G04 #@! TD.AperFunction*
D23*
X69003748Y59264142D02*
X68989605Y59250000D01*
X69003748Y59235857D01*
X68824143Y59056252D01*
X68810000Y59070395D01*
X68014756Y58275151D01*
X68083310Y58033732D01*
X68334556Y57915332D01*
X68604071Y57848222D01*
X68881502Y57834982D01*
X69156184Y57876121D01*
X69417562Y57970057D01*
X69536690Y58033732D01*
X69605243Y58275149D01*
X69721606Y58158786D01*
X69760887Y58198067D01*
X78579245Y49379708D01*
X78523692Y49374236D01*
X78253193Y49292182D01*
X78003900Y49158932D01*
X77785393Y48979608D01*
X77606068Y48761101D01*
X77535000Y48628142D01*
X77463932Y48761101D01*
X77284608Y48979608D01*
X77066101Y49158932D01*
X76816808Y49292182D01*
X76546309Y49374236D01*
X76265000Y49401943D01*
X75983692Y49374236D01*
X75713193Y49292182D01*
X75463900Y49158932D01*
X75245393Y48979608D01*
X75066068Y48761101D01*
X74995000Y48628142D01*
X74923932Y48761101D01*
X74744608Y48979608D01*
X74526101Y49158932D01*
X74276808Y49292182D01*
X74006309Y49374236D01*
X73725000Y49401943D01*
X73443692Y49374236D01*
X73173193Y49292182D01*
X72923900Y49158932D01*
X72705393Y48979608D01*
X72526068Y48761101D01*
X72455000Y48628142D01*
X72383932Y48761101D01*
X72204608Y48979608D01*
X71986101Y49158932D01*
X71736808Y49292182D01*
X71466309Y49374236D01*
X71185000Y49401943D01*
X70903692Y49374236D01*
X70633193Y49292182D01*
X70383900Y49158932D01*
X70165393Y48979608D01*
X69986068Y48761101D01*
X69917735Y48633259D01*
X69767601Y48862839D01*
X69569895Y49064500D01*
X69336646Y49223715D01*
X69076818Y49334367D01*
X68994039Y49351904D01*
X68772000Y49229915D01*
X68772000Y47687000D01*
X68792000Y47687000D01*
X68792000Y47433000D01*
X68772000Y47433000D01*
X68772000Y45890085D01*
X68994039Y45768096D01*
X69076818Y45785633D01*
X69336646Y45896285D01*
X69569895Y46055500D01*
X69767601Y46257161D01*
X69917735Y46486742D01*
X69986068Y46358900D01*
X70165392Y46140393D01*
X70383899Y45961068D01*
X70460174Y45920298D01*
X70460635Y45915615D01*
X70501226Y45781808D01*
X70502664Y45777067D01*
X70570914Y45649380D01*
X70662763Y45537462D01*
X70690808Y45514446D01*
X73090101Y43115152D01*
X73090100Y41711580D01*
X73085318Y41702633D01*
X73042664Y41622833D01*
X73035271Y41598461D01*
X72923900Y41538932D01*
X72738538Y41386809D01*
X68335518Y45789829D01*
X68518000Y45890085D01*
X68518000Y47433000D01*
X67210000Y47433000D01*
X67210000Y47033000D01*
X67237354Y46887992D01*
X66038346Y48087000D01*
X67210000Y48087000D01*
X67210000Y47687000D01*
X68518000Y47687000D01*
X68518000Y49229915D01*
X68295961Y49351904D01*
X68213182Y49334367D01*
X67953354Y49223715D01*
X67720105Y49064500D01*
X67522399Y48862839D01*
X67367834Y48626483D01*
X67262350Y48364514D01*
X67210000Y48087000D01*
X66038346Y48087000D01*
X59968594Y54156752D01*
X59951290Y54243745D01*
X59884577Y54404805D01*
X59787724Y54549755D01*
X59664455Y54673024D01*
X59519505Y54769877D01*
X59358445Y54836590D01*
X59187465Y54870600D01*
X59013135Y54870600D01*
X58842155Y54836590D01*
X58681095Y54769877D01*
X58536145Y54673024D01*
X58412876Y54549755D01*
X58316023Y54404805D01*
X58270044Y54293802D01*
X56845000Y55718846D01*
X56845000Y58045320D01*
X57008822Y58154782D01*
X57205218Y58351178D01*
X57359525Y58582115D01*
X57380000Y58631546D01*
X57400475Y58582115D01*
X57554782Y58351178D01*
X57751178Y58154782D01*
X57982115Y58000475D01*
X58238718Y57894186D01*
X58511127Y57840000D01*
X58788873Y57840000D01*
X59061282Y57894186D01*
X59317885Y58000475D01*
X59548822Y58154782D01*
X59745218Y58351178D01*
X59899525Y58582115D01*
X59920000Y58631546D01*
X59940475Y58582115D01*
X60094782Y58351178D01*
X60291178Y58154782D01*
X60522115Y58000475D01*
X60778718Y57894186D01*
X61051127Y57840000D01*
X61328873Y57840000D01*
X61601282Y57894186D01*
X61857885Y58000475D01*
X62088822Y58154782D01*
X62285218Y58351178D01*
X62439525Y58582115D01*
X62460000Y58631546D01*
X62480475Y58582115D01*
X62634782Y58351178D01*
X62831178Y58154782D01*
X63062115Y58000475D01*
X63318718Y57894186D01*
X63591127Y57840000D01*
X63868873Y57840000D01*
X64141282Y57894186D01*
X64397885Y58000475D01*
X64628822Y58154782D01*
X64825218Y58351178D01*
X64979525Y58582115D01*
X65000000Y58631546D01*
X65020475Y58582115D01*
X65174782Y58351178D01*
X65371178Y58154782D01*
X65602115Y58000475D01*
X65858718Y57894186D01*
X66131127Y57840000D01*
X66408873Y57840000D01*
X66681282Y57894186D01*
X66937885Y58000475D01*
X67168822Y58154782D01*
X67365218Y58351178D01*
X67519525Y58582115D01*
X67538201Y58627202D01*
X67593732Y58523310D01*
X67835151Y58454756D01*
X68630395Y59250000D01*
X68616253Y59264142D01*
X68795858Y59443747D01*
X68810000Y59429605D01*
X68824143Y59443747D01*
X69003748Y59264142D01*
G04 #@! TA.AperFunction,Conductor*
D24*
G36*
X69003748Y59264142D02*
G01*
X68989605Y59250000D01*
X69003748Y59235857D01*
X68824143Y59056252D01*
X68810000Y59070395D01*
X68014756Y58275151D01*
X68083310Y58033732D01*
X68334556Y57915332D01*
X68604071Y57848222D01*
X68881502Y57834982D01*
X69156184Y57876121D01*
X69417562Y57970057D01*
X69536690Y58033732D01*
X69605243Y58275149D01*
X69721606Y58158786D01*
X69760887Y58198067D01*
X78579245Y49379708D01*
X78523692Y49374236D01*
X78253193Y49292182D01*
X78003900Y49158932D01*
X77785393Y48979608D01*
X77606068Y48761101D01*
X77535000Y48628142D01*
X77463932Y48761101D01*
X77284608Y48979608D01*
X77066101Y49158932D01*
X76816808Y49292182D01*
X76546309Y49374236D01*
X76265000Y49401943D01*
X75983692Y49374236D01*
X75713193Y49292182D01*
X75463900Y49158932D01*
X75245393Y48979608D01*
X75066068Y48761101D01*
X74995000Y48628142D01*
X74923932Y48761101D01*
X74744608Y48979608D01*
X74526101Y49158932D01*
X74276808Y49292182D01*
X74006309Y49374236D01*
X73725000Y49401943D01*
X73443692Y49374236D01*
X73173193Y49292182D01*
X72923900Y49158932D01*
X72705393Y48979608D01*
X72526068Y48761101D01*
X72455000Y48628142D01*
X72383932Y48761101D01*
X72204608Y48979608D01*
X71986101Y49158932D01*
X71736808Y49292182D01*
X71466309Y49374236D01*
X71185000Y49401943D01*
X70903692Y49374236D01*
X70633193Y49292182D01*
X70383900Y49158932D01*
X70165393Y48979608D01*
X69986068Y48761101D01*
X69917735Y48633259D01*
X69767601Y48862839D01*
X69569895Y49064500D01*
X69336646Y49223715D01*
X69076818Y49334367D01*
X68994039Y49351904D01*
X68772000Y49229915D01*
X68772000Y47687000D01*
X68792000Y47687000D01*
X68792000Y47433000D01*
X68772000Y47433000D01*
X68772000Y45890085D01*
X68994039Y45768096D01*
X69076818Y45785633D01*
X69336646Y45896285D01*
X69569895Y46055500D01*
X69767601Y46257161D01*
X69917735Y46486742D01*
X69986068Y46358900D01*
X70165392Y46140393D01*
X70383899Y45961068D01*
X70460174Y45920298D01*
X70460635Y45915615D01*
X70501226Y45781808D01*
X70502664Y45777067D01*
X70570914Y45649380D01*
X70662763Y45537462D01*
X70690808Y45514446D01*
X73090101Y43115152D01*
X73090100Y41711580D01*
X73085318Y41702633D01*
X73042664Y41622833D01*
X73035271Y41598461D01*
X72923900Y41538932D01*
X72738538Y41386809D01*
X68335518Y45789829D01*
X68518000Y45890085D01*
X68518000Y47433000D01*
X67210000Y47433000D01*
X67210000Y47033000D01*
X67237354Y46887992D01*
X66038346Y48087000D01*
X67210000Y48087000D01*
X67210000Y47687000D01*
X68518000Y47687000D01*
X68518000Y49229915D01*
X68295961Y49351904D01*
X68213182Y49334367D01*
X67953354Y49223715D01*
X67720105Y49064500D01*
X67522399Y48862839D01*
X67367834Y48626483D01*
X67262350Y48364514D01*
X67210000Y48087000D01*
X66038346Y48087000D01*
X59968594Y54156752D01*
X59951290Y54243745D01*
X59884577Y54404805D01*
X59787724Y54549755D01*
X59664455Y54673024D01*
X59519505Y54769877D01*
X59358445Y54836590D01*
X59187465Y54870600D01*
X59013135Y54870600D01*
X58842155Y54836590D01*
X58681095Y54769877D01*
X58536145Y54673024D01*
X58412876Y54549755D01*
X58316023Y54404805D01*
X58270044Y54293802D01*
X56845000Y55718846D01*
X56845000Y58045320D01*
X57008822Y58154782D01*
X57205218Y58351178D01*
X57359525Y58582115D01*
X57380000Y58631546D01*
X57400475Y58582115D01*
X57554782Y58351178D01*
X57751178Y58154782D01*
X57982115Y58000475D01*
X58238718Y57894186D01*
X58511127Y57840000D01*
X58788873Y57840000D01*
X59061282Y57894186D01*
X59317885Y58000475D01*
X59548822Y58154782D01*
X59745218Y58351178D01*
X59899525Y58582115D01*
X59920000Y58631546D01*
X59940475Y58582115D01*
X60094782Y58351178D01*
X60291178Y58154782D01*
X60522115Y58000475D01*
X60778718Y57894186D01*
X61051127Y57840000D01*
X61328873Y57840000D01*
X61601282Y57894186D01*
X61857885Y58000475D01*
X62088822Y58154782D01*
X62285218Y58351178D01*
X62439525Y58582115D01*
X62460000Y58631546D01*
X62480475Y58582115D01*
X62634782Y58351178D01*
X62831178Y58154782D01*
X63062115Y58000475D01*
X63318718Y57894186D01*
X63591127Y57840000D01*
X63868873Y57840000D01*
X64141282Y57894186D01*
X64397885Y58000475D01*
X64628822Y58154782D01*
X64825218Y58351178D01*
X64979525Y58582115D01*
X65000000Y58631546D01*
X65020475Y58582115D01*
X65174782Y58351178D01*
X65371178Y58154782D01*
X65602115Y58000475D01*
X65858718Y57894186D01*
X66131127Y57840000D01*
X66408873Y57840000D01*
X66681282Y57894186D01*
X66937885Y58000475D01*
X67168822Y58154782D01*
X67365218Y58351178D01*
X67519525Y58582115D01*
X67538201Y58627202D01*
X67593732Y58523310D01*
X67835151Y58454756D01*
X68630395Y59250000D01*
X68616253Y59264142D01*
X68795858Y59443747D01*
X68810000Y59429605D01*
X68824143Y59443747D01*
X69003748Y59264142D01*
G37*
G04 #@! TD.AperFunction*
D23*
X71543748Y61804142D02*
X71529605Y61790000D01*
X72324849Y60994756D01*
X72566268Y61063310D01*
X72616741Y61170413D01*
X84389081Y49398072D01*
X83085000Y49398072D01*
X82960518Y49385812D01*
X82840820Y49349502D01*
X82730506Y49290537D01*
X82633815Y49211185D01*
X82554463Y49114494D01*
X82495498Y49004180D01*
X82459188Y48884482D01*
X82457419Y48866518D01*
X82364608Y48979608D01*
X82146101Y49158932D01*
X82069826Y49199702D01*
X82069365Y49204385D01*
X82027337Y49342933D01*
X81959087Y49470620D01*
X81867238Y49582538D01*
X81755320Y49674387D01*
X81627633Y49742637D01*
X81489085Y49784665D01*
X81381105Y49795300D01*
X81345000Y49798856D01*
X81308895Y49795300D01*
X80242547Y49795300D01*
X72029394Y58008452D01*
X72076690Y58033732D01*
X72145244Y58275151D01*
X71350000Y59070395D01*
X71335858Y59056252D01*
X71156253Y59235857D01*
X71170395Y59250000D01*
X71529605Y59250000D01*
X72324849Y58454756D01*
X72566268Y58523310D01*
X72684668Y58774556D01*
X72751778Y59044071D01*
X72765018Y59321502D01*
X72723879Y59596184D01*
X72629943Y59857562D01*
X72566268Y59976690D01*
X72324849Y60045244D01*
X71529605Y59250000D01*
X71170395Y59250000D01*
X71156253Y59264142D01*
X71335858Y59443747D01*
X71350000Y59429605D01*
X72145244Y60224849D01*
X72076690Y60466268D01*
X71969841Y60516620D01*
X72076690Y60573732D01*
X72145244Y60815151D01*
X71350000Y61610395D01*
X70554756Y60815151D01*
X70623310Y60573732D01*
X70730159Y60523380D01*
X70623310Y60466268D01*
X70554757Y60224851D01*
X70438394Y60341214D01*
X70394413Y60297233D01*
X69872058Y60819588D01*
X69858693Y60835873D01*
X69901214Y60878394D01*
X69784851Y60994757D01*
X70026268Y61063310D01*
X70076620Y61170159D01*
X70133732Y61063310D01*
X70375151Y60994756D01*
X71170395Y61790000D01*
X71156253Y61804142D01*
X71335858Y61983747D01*
X71350000Y61969605D01*
X71364143Y61983747D01*
X71543748Y61804142D01*
G04 #@! TA.AperFunction,Conductor*
D24*
G36*
X71543748Y61804142D02*
G01*
X71529605Y61790000D01*
X72324849Y60994756D01*
X72566268Y61063310D01*
X72616741Y61170413D01*
X84389081Y49398072D01*
X83085000Y49398072D01*
X82960518Y49385812D01*
X82840820Y49349502D01*
X82730506Y49290537D01*
X82633815Y49211185D01*
X82554463Y49114494D01*
X82495498Y49004180D01*
X82459188Y48884482D01*
X82457419Y48866518D01*
X82364608Y48979608D01*
X82146101Y49158932D01*
X82069826Y49199702D01*
X82069365Y49204385D01*
X82027337Y49342933D01*
X81959087Y49470620D01*
X81867238Y49582538D01*
X81755320Y49674387D01*
X81627633Y49742637D01*
X81489085Y49784665D01*
X81381105Y49795300D01*
X81345000Y49798856D01*
X81308895Y49795300D01*
X80242547Y49795300D01*
X72029394Y58008452D01*
X72076690Y58033732D01*
X72145244Y58275151D01*
X71350000Y59070395D01*
X71335858Y59056252D01*
X71156253Y59235857D01*
X71170395Y59250000D01*
X71529605Y59250000D01*
X72324849Y58454756D01*
X72566268Y58523310D01*
X72684668Y58774556D01*
X72751778Y59044071D01*
X72765018Y59321502D01*
X72723879Y59596184D01*
X72629943Y59857562D01*
X72566268Y59976690D01*
X72324849Y60045244D01*
X71529605Y59250000D01*
X71170395Y59250000D01*
X71156253Y59264142D01*
X71335858Y59443747D01*
X71350000Y59429605D01*
X72145244Y60224849D01*
X72076690Y60466268D01*
X71969841Y60516620D01*
X72076690Y60573732D01*
X72145244Y60815151D01*
X71350000Y61610395D01*
X70554756Y60815151D01*
X70623310Y60573732D01*
X70730159Y60523380D01*
X70623310Y60466268D01*
X70554757Y60224851D01*
X70438394Y60341214D01*
X70394413Y60297233D01*
X69872058Y60819588D01*
X69858693Y60835873D01*
X69901214Y60878394D01*
X69784851Y60994757D01*
X70026268Y61063310D01*
X70076620Y61170159D01*
X70133732Y61063310D01*
X70375151Y60994756D01*
X71170395Y61790000D01*
X71156253Y61804142D01*
X71335858Y61983747D01*
X71350000Y61969605D01*
X71364143Y61983747D01*
X71543748Y61804142D01*
G37*
G04 #@! TD.AperFunction*
D23*
X69003748Y61804142D02*
X68989605Y61790000D01*
X69003748Y61775857D01*
X68824143Y61596252D01*
X68810000Y61610395D01*
X68795858Y61596252D01*
X68616253Y61775857D01*
X68630395Y61790000D01*
X68616253Y61804142D01*
X68795858Y61983747D01*
X68810000Y61969605D01*
X68824143Y61983747D01*
X69003748Y61804142D01*
G04 #@! TA.AperFunction,Conductor*
D24*
G36*
X69003748Y61804142D02*
G01*
X68989605Y61790000D01*
X69003748Y61775857D01*
X68824143Y61596252D01*
X68810000Y61610395D01*
X68795858Y61596252D01*
X68616253Y61775857D01*
X68630395Y61790000D01*
X68616253Y61804142D01*
X68795858Y61983747D01*
X68810000Y61969605D01*
X68824143Y61983747D01*
X69003748Y61804142D01*
G37*
G04 #@! TD.AperFunction*
M02*
