M48
; DRILL file {KiCad (5.1.9)-1} date 02/15/23 09:39:54
; FORMAT={-:-/ absolute / metric / decimal}
; #@! TF.CreationDate,2023-02-15T09:39:54+09:00
; #@! TF.GenerationSoftware,Kicad,Pcbnew,(5.1.9)-1
FMAT,2
METRIC
T1C0.300
T2C0.800
T3C1.000
T4C2.850
%
G90
G05
T1
X52.228Y57.24
X56.138Y50.679
X59.1Y53.986
X61.531Y17.956
X64.162Y21.221
X64.398Y33.743
X64.899Y33.185
X64.91Y22.072
X65.685Y38.98
X65.737Y36.761
X68.289Y36.924
X77.638Y59.452
X79.59Y61.74
X82.39Y51.658
X88.418Y32.622
X88.613Y22.385
X89.192Y31.139
X89.495Y30.452
X89.954Y51.396
X91.331Y13.127
X92.278Y49.707
X92.638Y50.866
X93.078Y50.28
X93.888Y35.719
X94.024Y49.755
X95.001Y35.718
X96.37Y36.275
T2
X43.525Y40.165
X43.525Y37.625
X43.525Y35.085
X43.525Y32.545
X43.525Y30.005
X43.525Y27.465
X43.525Y24.925
X43.525Y22.385
X43.525Y19.845
X43.525Y17.305
X43.525Y14.765
X43.525Y12.225
X46.065Y33.815
X46.065Y31.275
X46.065Y23.655
X46.065Y21.115
X58.765Y40.165
X58.765Y37.625
X58.765Y35.085
X58.765Y32.545
X58.765Y30.005
X58.765Y27.465
X58.765Y24.925
X58.765Y22.385
X58.765Y19.845
X58.765Y17.305
X58.765Y14.765
X58.765Y12.225
X68.645Y47.56
X68.645Y39.94
X68.645Y31.685
X68.645Y24.065
X68.645Y16.445
X68.645Y8.825
X71.185Y47.56
X71.185Y39.94
X71.185Y31.685
X71.185Y24.065
X71.185Y16.445
X71.185Y8.825
X73.725Y47.56
X73.725Y39.94
X73.725Y31.685
X73.725Y24.065
X73.725Y16.445
X73.725Y8.825
X76.265Y47.56
X76.265Y39.94
X76.265Y31.685
X76.265Y24.065
X76.265Y16.445
X76.265Y8.825
X78.805Y47.56
X78.805Y39.94
X78.805Y31.685
X78.805Y24.065
X78.805Y16.445
X78.805Y8.825
X81.345Y47.56
X81.345Y39.94
X81.345Y31.685
X81.345Y24.065
X81.345Y16.445
X81.345Y8.825
X83.885Y47.56
X83.885Y39.94
X83.885Y31.685
X83.885Y24.065
X83.885Y16.445
X83.885Y8.825
X87.695Y44.98
X87.695Y42.48
X87.695Y29.105
X87.695Y26.605
X87.695Y13.865
X87.695Y11.365
X92.75Y58.42
X95.25Y58.42
X100.675Y55.39
X100.675Y52.85
X100.675Y50.31
X100.675Y47.77
X100.675Y45.23
X100.675Y42.69
X100.675Y40.15
X100.675Y37.61
X100.675Y35.07
X100.675Y32.53
X100.675Y29.99
X100.675Y27.45
X100.675Y24.91
X100.675Y22.37
X100.675Y19.83
X100.675Y17.29
X100.675Y14.75
X100.675Y12.21
X100.675Y9.67
X100.675Y7.13
X107.025Y59.2
X109.525Y59.2
X115.915Y55.39
X115.915Y52.85
X115.915Y50.31
X115.915Y47.77
X115.915Y45.23
X115.915Y42.69
X115.915Y40.15
X115.915Y37.61
X115.915Y35.07
X115.915Y32.53
X115.915Y29.99
X115.915Y27.45
X115.915Y24.91
X115.915Y22.37
X115.915Y19.83
X115.915Y17.29
X115.915Y14.75
X115.915Y12.21
X115.915Y9.67
X115.915Y7.13
T3
X14.315Y30.201
X14.315Y4.801
X14.315Y2.261
X16.855Y30.201
X18.125Y38.26
X19.395Y30.201
X20.665Y38.26
X21.935Y30.201
X23.205Y38.26
X24.475Y30.201
X25.745Y38.26
X27.015Y30.201
X28.285Y38.26
X29.555Y30.201
X30.825Y38.26
X32.095Y30.201
X33.25Y61.79
X33.25Y59.25
X34.635Y30.201
X34.635Y4.801
X34.635Y2.261
X35.79Y61.79
X35.79Y59.25
X38.33Y61.79
X38.33Y59.25
X40.87Y61.79
X40.87Y59.25
X43.41Y61.79
X43.41Y59.25
X45.95Y61.79
X45.95Y59.25
X48.49Y61.79
X48.49Y59.25
X51.03Y61.79
X51.03Y59.25
X53.57Y61.79
X53.57Y59.25
X56.11Y61.79
X56.11Y59.25
X58.65Y61.79
X58.65Y59.25
X61.19Y61.79
X61.19Y59.25
X63.73Y61.79
X63.73Y59.25
X66.27Y61.79
X66.27Y59.25
X68.81Y61.79
X68.81Y59.25
X71.35Y61.79
X71.35Y59.25
T4
X27.3Y61.49
X77.3Y61.49
T0
M30
